%TF.GenerationSoftware,KiCad,Pcbnew,(5.1.9)-1*%
%TF.CreationDate,2021-03-07T19:12:45-05:00*%
%TF.ProjectId,bigp4ppa,62696770-3470-4706-912e-6b696361645f,rev?*%
%TF.SameCoordinates,Original*%
%TF.FileFunction,Other,Fab,Top*%
%FSLAX46Y46*%
G04 Gerber Fmt 4.6, Leading zero omitted, Abs format (unit mm)*
G04 Created by KiCad (PCBNEW (5.1.9)-1) date 2021-03-07 19:12:45*
%MOMM*%
%LPD*%
G01*
G04 APERTURE LIST*
%ADD10C,0.100000*%
%ADD11C,0.120000*%
%ADD12C,0.150000*%
G04 APERTURE END LIST*
D10*
%TO.C,J4*%
X82462000Y-96350000D02*
G75*
G03*
X82462000Y-96350000I-2000000J0D01*
G01*
X87462000Y-96350000D02*
G75*
G03*
X87462000Y-96350000I-2000000J0D01*
G01*
X92462000Y-96350000D02*
G75*
G03*
X92462000Y-96350000I-2000000J0D01*
G01*
X97462000Y-96350000D02*
G75*
G03*
X97462000Y-96350000I-2000000J0D01*
G01*
X102462000Y-96350000D02*
G75*
G03*
X102462000Y-96350000I-2000000J0D01*
G01*
X107462000Y-96350000D02*
G75*
G03*
X107462000Y-96350000I-2000000J0D01*
G01*
X112462000Y-96350000D02*
G75*
G03*
X112462000Y-96350000I-2000000J0D01*
G01*
X117462000Y-96350000D02*
G75*
G03*
X117462000Y-96350000I-2000000J0D01*
G01*
X122462000Y-96350000D02*
G75*
G03*
X122462000Y-96350000I-2000000J0D01*
G01*
X127462000Y-96350000D02*
G75*
G03*
X127462000Y-96350000I-2000000J0D01*
G01*
X77962000Y-92350000D02*
X127962000Y-92350000D01*
X127962000Y-92350000D02*
X127962000Y-101350000D01*
X127962000Y-101350000D02*
X78362000Y-101350000D01*
X78362000Y-101350000D02*
X77962000Y-100950000D01*
X77962000Y-100950000D02*
X77962000Y-92350000D01*
X77962000Y-100950000D02*
X127962000Y-100950000D01*
X77962000Y-99850000D02*
X127962000Y-99850000D01*
X81979000Y-95077000D02*
X79189000Y-97867000D01*
X81735000Y-94833000D02*
X78945000Y-97623000D01*
X86979000Y-95077000D02*
X84190000Y-97867000D01*
X86735000Y-94833000D02*
X83946000Y-97623000D01*
X91979000Y-95077000D02*
X89190000Y-97867000D01*
X91735000Y-94833000D02*
X88946000Y-97623000D01*
X96979000Y-95077000D02*
X94190000Y-97867000D01*
X96735000Y-94833000D02*
X93946000Y-97623000D01*
X101979000Y-95077000D02*
X99190000Y-97867000D01*
X101735000Y-94833000D02*
X98946000Y-97623000D01*
X106979000Y-95077000D02*
X104190000Y-97867000D01*
X106735000Y-94833000D02*
X103946000Y-97623000D01*
X111979000Y-95077000D02*
X109190000Y-97867000D01*
X111735000Y-94833000D02*
X108946000Y-97623000D01*
X116979000Y-95077000D02*
X114190000Y-97867000D01*
X116735000Y-94833000D02*
X113946000Y-97623000D01*
X121979000Y-95077000D02*
X119190000Y-97867000D01*
X121735000Y-94833000D02*
X118946000Y-97623000D01*
X126979000Y-95077000D02*
X124190000Y-97867000D01*
X126735000Y-94833000D02*
X123946000Y-97623000D01*
%TO.C,J15*%
X122692000Y-87396000D02*
X122692000Y-83586000D01*
X122692000Y-83586000D02*
X132852000Y-83586000D01*
X132852000Y-83586000D02*
X132852000Y-88666000D01*
X132852000Y-88666000D02*
X123962000Y-88666000D01*
X123962000Y-88666000D02*
X122692000Y-87396000D01*
%TO.C,A1*%
X129159000Y-76708000D02*
X127889000Y-77978000D01*
X127889000Y-77978000D02*
X113919000Y-77978000D01*
X113919000Y-77978000D02*
X113919000Y-57658000D01*
X113919000Y-57658000D02*
X129159000Y-57658000D01*
X129159000Y-57658000D02*
X129159000Y-76708000D01*
D11*
%TO.C,25x25*%
X80500000Y-77500000D02*
X80500000Y-57500000D01*
X103500000Y-80500000D02*
X83500000Y-80500000D01*
X106500000Y-57500000D02*
X106500000Y-77500000D01*
X83500000Y-54500000D02*
X103500000Y-54500000D01*
X80500000Y-57500000D02*
G75*
G02*
X83500000Y-54500000I3000000J0D01*
G01*
X83500000Y-80500000D02*
G75*
G02*
X80500000Y-77500000I0J3000000D01*
G01*
X106500000Y-77500000D02*
G75*
G02*
X103500000Y-80500000I-3000000J0D01*
G01*
X103500000Y-54500000D02*
G75*
G02*
X106500000Y-57500000I0J-3000000D01*
G01*
D10*
%TO.C,J1*%
X75335000Y-62321000D02*
X73800000Y-60786000D01*
X75200000Y-62455000D02*
X73665000Y-60920000D01*
X75335000Y-59781000D02*
X73800000Y-58246000D01*
X75200000Y-59915000D02*
X73665000Y-58380000D01*
X75335000Y-57241000D02*
X73800000Y-55706000D01*
X75200000Y-57375000D02*
X73665000Y-55840000D01*
X75335000Y-54701000D02*
X73800000Y-53165000D01*
X75200000Y-54835000D02*
X73665000Y-53299000D01*
X76750000Y-52500000D02*
X76750000Y-63120000D01*
X71650000Y-52500000D02*
X71650000Y-63120000D01*
X71650000Y-52500000D02*
X77750000Y-52500000D01*
X71250000Y-52900000D02*
X71650000Y-52500000D01*
X71250000Y-63120000D02*
X71250000Y-52900000D01*
X77750000Y-63120000D02*
X71250000Y-63120000D01*
X77750000Y-52500000D02*
X77750000Y-63120000D01*
X75600000Y-61620000D02*
G75*
G03*
X75600000Y-61620000I-1100000J0D01*
G01*
X75600000Y-59080000D02*
G75*
G03*
X75600000Y-59080000I-1100000J0D01*
G01*
X75600000Y-56540000D02*
G75*
G03*
X75600000Y-56540000I-1100000J0D01*
G01*
X75600000Y-54000000D02*
G75*
G03*
X75600000Y-54000000I-1100000J0D01*
G01*
%TO.C,J14*%
X95692000Y-83350000D02*
X96962000Y-82080000D01*
X95692000Y-89700000D02*
X95692000Y-83350000D01*
X100772000Y-89700000D02*
X95692000Y-89700000D01*
X100772000Y-82080000D02*
X100772000Y-89700000D01*
X96962000Y-82080000D02*
X100772000Y-82080000D01*
%TO.C,J13*%
X87192000Y-83350000D02*
X88462000Y-82080000D01*
X87192000Y-89700000D02*
X87192000Y-83350000D01*
X92272000Y-89700000D02*
X87192000Y-89700000D01*
X92272000Y-82080000D02*
X92272000Y-89700000D01*
X88462000Y-82080000D02*
X92272000Y-82080000D01*
%TO.C,J12*%
X78692000Y-83350000D02*
X79962000Y-82080000D01*
X78692000Y-89700000D02*
X78692000Y-83350000D01*
X83772000Y-89700000D02*
X78692000Y-89700000D01*
X83772000Y-82080000D02*
X83772000Y-89700000D01*
X79962000Y-82080000D02*
X83772000Y-82080000D01*
%TO.C,J11*%
X104192000Y-83350000D02*
X105462000Y-82080000D01*
X104192000Y-89700000D02*
X104192000Y-83350000D01*
X109272000Y-89700000D02*
X104192000Y-89700000D01*
X109272000Y-82080000D02*
X109272000Y-89700000D01*
X105462000Y-82080000D02*
X109272000Y-82080000D01*
%TO.C,J8*%
X131770000Y-54715000D02*
X131770000Y-56620000D01*
X131770000Y-56620000D02*
X111450000Y-56620000D01*
X111450000Y-56620000D02*
X111450000Y-54080000D01*
X111450000Y-54080000D02*
X131135000Y-54080000D01*
X131135000Y-54080000D02*
X131770000Y-54715000D01*
%TO.C,J3*%
X113962000Y-82080000D02*
X117772000Y-82080000D01*
X117772000Y-82080000D02*
X117772000Y-89700000D01*
X117772000Y-89700000D02*
X112692000Y-89700000D01*
X112692000Y-89700000D02*
X112692000Y-83350000D01*
X112692000Y-83350000D02*
X113962000Y-82080000D01*
D12*
%TO.C,*%
X135100000Y-48500000D02*
G75*
G03*
X135100000Y-48500000I-3100000J0D01*
G01*
X133375000Y-48500000D02*
G75*
G03*
X133375000Y-48500000I-1375000J0D01*
G01*
X135100000Y-97500000D02*
G75*
G03*
X135100000Y-97500000I-3100000J0D01*
G01*
X133375000Y-97500000D02*
G75*
G03*
X133375000Y-97500000I-1375000J0D01*
G01*
X77100000Y-97500000D02*
G75*
G03*
X77100000Y-97500000I-3100000J0D01*
G01*
X75375000Y-97500000D02*
G75*
G03*
X75375000Y-97500000I-1375000J0D01*
G01*
X77100000Y-48500000D02*
G75*
G03*
X77100000Y-48500000I-3100000J0D01*
G01*
X75375000Y-48500000D02*
G75*
G03*
X75375000Y-48500000I-1375000J0D01*
G01*
%TD*%
%TO.C,J4*%
X100938190Y-101862380D02*
X101128666Y-101862380D01*
X101223904Y-101910000D01*
X101319142Y-102005238D01*
X101366761Y-102195714D01*
X101366761Y-102529047D01*
X101319142Y-102719523D01*
X101223904Y-102814761D01*
X101128666Y-102862380D01*
X100938190Y-102862380D01*
X100842952Y-102814761D01*
X100747714Y-102719523D01*
X100700095Y-102529047D01*
X100700095Y-102195714D01*
X100747714Y-102005238D01*
X100842952Y-101910000D01*
X100938190Y-101862380D01*
X102223904Y-102195714D02*
X102223904Y-102862380D01*
X101795333Y-102195714D02*
X101795333Y-102719523D01*
X101842952Y-102814761D01*
X101938190Y-102862380D01*
X102081047Y-102862380D01*
X102176285Y-102814761D01*
X102223904Y-102767142D01*
X102557238Y-102195714D02*
X102938190Y-102195714D01*
X102700095Y-101862380D02*
X102700095Y-102719523D01*
X102747714Y-102814761D01*
X102842952Y-102862380D01*
X102938190Y-102862380D01*
X103271523Y-102195714D02*
X103271523Y-103195714D01*
X103271523Y-102243333D02*
X103366761Y-102195714D01*
X103557238Y-102195714D01*
X103652476Y-102243333D01*
X103700095Y-102290952D01*
X103747714Y-102386190D01*
X103747714Y-102671904D01*
X103700095Y-102767142D01*
X103652476Y-102814761D01*
X103557238Y-102862380D01*
X103366761Y-102862380D01*
X103271523Y-102814761D01*
X104604857Y-102195714D02*
X104604857Y-102862380D01*
X104176285Y-102195714D02*
X104176285Y-102719523D01*
X104223904Y-102814761D01*
X104319142Y-102862380D01*
X104462000Y-102862380D01*
X104557238Y-102814761D01*
X104604857Y-102767142D01*
X104938190Y-102195714D02*
X105319142Y-102195714D01*
X105081047Y-101862380D02*
X105081047Y-102719523D01*
X105128666Y-102814761D01*
X105223904Y-102862380D01*
X105319142Y-102862380D01*
X102628666Y-98702380D02*
X102628666Y-99416666D01*
X102581047Y-99559523D01*
X102485809Y-99654761D01*
X102342952Y-99702380D01*
X102247714Y-99702380D01*
X103533428Y-99035714D02*
X103533428Y-99702380D01*
X103295333Y-98654761D02*
X103057238Y-99369047D01*
X103676285Y-99369047D01*
%TO.C,J15*%
X134078666Y-89173619D02*
X134078666Y-88697428D01*
X134364380Y-89268857D02*
X133364380Y-88935523D01*
X134364380Y-88602190D01*
X134364380Y-88268857D02*
X133364380Y-88268857D01*
X133364380Y-88030761D01*
X133412000Y-87887904D01*
X133507238Y-87792666D01*
X133602476Y-87745047D01*
X133792952Y-87697428D01*
X133935809Y-87697428D01*
X134126285Y-87745047D01*
X134221523Y-87792666D01*
X134316761Y-87887904D01*
X134364380Y-88030761D01*
X134364380Y-88268857D01*
X133364380Y-87364095D02*
X134364380Y-86697428D01*
X133364380Y-86697428D02*
X134364380Y-87364095D01*
X134364380Y-85840285D02*
X134364380Y-86316476D01*
X133364380Y-86316476D01*
X133364380Y-85602190D02*
X133364380Y-84983142D01*
X133745333Y-85316476D01*
X133745333Y-85173619D01*
X133792952Y-85078380D01*
X133840571Y-85030761D01*
X133935809Y-84983142D01*
X134173904Y-84983142D01*
X134269142Y-85030761D01*
X134316761Y-85078380D01*
X134364380Y-85173619D01*
X134364380Y-85459333D01*
X134316761Y-85554571D01*
X134269142Y-85602190D01*
X133697714Y-84126000D02*
X134364380Y-84126000D01*
X133316761Y-84364095D02*
X134031047Y-84602190D01*
X134031047Y-83983142D01*
X133364380Y-83126000D02*
X133364380Y-83602190D01*
X133840571Y-83649809D01*
X133792952Y-83602190D01*
X133745333Y-83506952D01*
X133745333Y-83268857D01*
X133792952Y-83173619D01*
X133840571Y-83126000D01*
X133935809Y-83078380D01*
X134173904Y-83078380D01*
X134269142Y-83126000D01*
X134316761Y-83173619D01*
X134364380Y-83268857D01*
X134364380Y-83506952D01*
X134316761Y-83602190D01*
X134269142Y-83649809D01*
X126962476Y-85578380D02*
X126962476Y-86292666D01*
X126914857Y-86435523D01*
X126819619Y-86530761D01*
X126676761Y-86578380D01*
X126581523Y-86578380D01*
X127962476Y-86578380D02*
X127391047Y-86578380D01*
X127676761Y-86578380D02*
X127676761Y-85578380D01*
X127581523Y-85721238D01*
X127486285Y-85816476D01*
X127391047Y-85864095D01*
X128867238Y-85578380D02*
X128391047Y-85578380D01*
X128343428Y-86054571D01*
X128391047Y-86006952D01*
X128486285Y-85959333D01*
X128724380Y-85959333D01*
X128819619Y-86006952D01*
X128867238Y-86054571D01*
X128914857Y-86149809D01*
X128914857Y-86387904D01*
X128867238Y-86483142D01*
X128819619Y-86530761D01*
X128724380Y-86578380D01*
X128486285Y-86578380D01*
X128391047Y-86530761D01*
X128343428Y-86483142D01*
%TO.C,A1*%
X113015190Y-56990380D02*
X113015190Y-55990380D01*
X113396142Y-55990380D01*
X113491380Y-56038000D01*
X113539000Y-56085619D01*
X113586619Y-56180857D01*
X113586619Y-56323714D01*
X113539000Y-56418952D01*
X113491380Y-56466571D01*
X113396142Y-56514190D01*
X113015190Y-56514190D01*
X114158047Y-56990380D02*
X114062809Y-56942761D01*
X114015190Y-56895142D01*
X113967571Y-56799904D01*
X113967571Y-56514190D01*
X114015190Y-56418952D01*
X114062809Y-56371333D01*
X114158047Y-56323714D01*
X114300904Y-56323714D01*
X114396142Y-56371333D01*
X114443761Y-56418952D01*
X114491380Y-56514190D01*
X114491380Y-56799904D01*
X114443761Y-56895142D01*
X114396142Y-56942761D01*
X114300904Y-56990380D01*
X114158047Y-56990380D01*
X115062809Y-56990380D02*
X114967571Y-56942761D01*
X114919952Y-56847523D01*
X114919952Y-55990380D01*
X115586619Y-56990380D02*
X115491380Y-56942761D01*
X115443761Y-56895142D01*
X115396142Y-56799904D01*
X115396142Y-56514190D01*
X115443761Y-56418952D01*
X115491380Y-56371333D01*
X115586619Y-56323714D01*
X115729476Y-56323714D01*
X115824714Y-56371333D01*
X115872333Y-56418952D01*
X115919952Y-56514190D01*
X115919952Y-56799904D01*
X115872333Y-56895142D01*
X115824714Y-56942761D01*
X115729476Y-56990380D01*
X115586619Y-56990380D01*
X116491380Y-56990380D02*
X116396142Y-56942761D01*
X116348523Y-56847523D01*
X116348523Y-55990380D01*
X117300904Y-56323714D02*
X117300904Y-56990380D01*
X116872333Y-56323714D02*
X116872333Y-56847523D01*
X116919952Y-56942761D01*
X117015190Y-56990380D01*
X117158047Y-56990380D01*
X117253285Y-56942761D01*
X117300904Y-56895142D01*
X117539000Y-57085619D02*
X118300904Y-57085619D01*
X118872333Y-56466571D02*
X119015190Y-56514190D01*
X119062809Y-56561809D01*
X119110428Y-56657047D01*
X119110428Y-56799904D01*
X119062809Y-56895142D01*
X119015190Y-56942761D01*
X118919952Y-56990380D01*
X118539000Y-56990380D01*
X118539000Y-55990380D01*
X118872333Y-55990380D01*
X118967571Y-56038000D01*
X119015190Y-56085619D01*
X119062809Y-56180857D01*
X119062809Y-56276095D01*
X119015190Y-56371333D01*
X118967571Y-56418952D01*
X118872333Y-56466571D01*
X118539000Y-56466571D01*
X119539000Y-56990380D02*
X119539000Y-56323714D01*
X119539000Y-56514190D02*
X119586619Y-56418952D01*
X119634238Y-56371333D01*
X119729476Y-56323714D01*
X119824714Y-56323714D01*
X120539000Y-56942761D02*
X120443761Y-56990380D01*
X120253285Y-56990380D01*
X120158047Y-56942761D01*
X120110428Y-56847523D01*
X120110428Y-56466571D01*
X120158047Y-56371333D01*
X120253285Y-56323714D01*
X120443761Y-56323714D01*
X120539000Y-56371333D01*
X120586619Y-56466571D01*
X120586619Y-56561809D01*
X120110428Y-56657047D01*
X121443761Y-56990380D02*
X121443761Y-56466571D01*
X121396142Y-56371333D01*
X121300904Y-56323714D01*
X121110428Y-56323714D01*
X121015190Y-56371333D01*
X121443761Y-56942761D02*
X121348523Y-56990380D01*
X121110428Y-56990380D01*
X121015190Y-56942761D01*
X120967571Y-56847523D01*
X120967571Y-56752285D01*
X121015190Y-56657047D01*
X121110428Y-56609428D01*
X121348523Y-56609428D01*
X121443761Y-56561809D01*
X121919952Y-56990380D02*
X121919952Y-55990380D01*
X122015190Y-56609428D02*
X122300904Y-56990380D01*
X122300904Y-56323714D02*
X121919952Y-56704666D01*
X122872333Y-56990380D02*
X122777095Y-56942761D01*
X122729476Y-56895142D01*
X122681857Y-56799904D01*
X122681857Y-56514190D01*
X122729476Y-56418952D01*
X122777095Y-56371333D01*
X122872333Y-56323714D01*
X123015190Y-56323714D01*
X123110428Y-56371333D01*
X123158047Y-56418952D01*
X123205666Y-56514190D01*
X123205666Y-56799904D01*
X123158047Y-56895142D01*
X123110428Y-56942761D01*
X123015190Y-56990380D01*
X122872333Y-56990380D01*
X124062809Y-56323714D02*
X124062809Y-56990380D01*
X123634238Y-56323714D02*
X123634238Y-56847523D01*
X123681857Y-56942761D01*
X123777095Y-56990380D01*
X123919952Y-56990380D01*
X124015190Y-56942761D01*
X124062809Y-56895142D01*
X124396142Y-56323714D02*
X124777095Y-56323714D01*
X124539000Y-55990380D02*
X124539000Y-56847523D01*
X124586619Y-56942761D01*
X124681857Y-56990380D01*
X124777095Y-56990380D01*
X124872333Y-57085619D02*
X125634238Y-57085619D01*
X125824714Y-56704666D02*
X126300904Y-56704666D01*
X125729476Y-56990380D02*
X126062809Y-55990380D01*
X126396142Y-56990380D01*
X127158047Y-56323714D02*
X127158047Y-56990380D01*
X126919952Y-55942761D02*
X126681857Y-56657047D01*
X127300904Y-56657047D01*
X127729476Y-56990380D02*
X127919952Y-56990380D01*
X128015190Y-56942761D01*
X128062809Y-56895142D01*
X128158047Y-56752285D01*
X128205666Y-56561809D01*
X128205666Y-56180857D01*
X128158047Y-56085619D01*
X128110428Y-56038000D01*
X128015190Y-55990380D01*
X127824714Y-55990380D01*
X127729476Y-56038000D01*
X127681857Y-56085619D01*
X127634238Y-56180857D01*
X127634238Y-56418952D01*
X127681857Y-56514190D01*
X127729476Y-56561809D01*
X127824714Y-56609428D01*
X128015190Y-56609428D01*
X128110428Y-56561809D01*
X128158047Y-56514190D01*
X128205666Y-56418952D01*
X128777095Y-56418952D02*
X128681857Y-56371333D01*
X128634238Y-56323714D01*
X128586619Y-56228476D01*
X128586619Y-56180857D01*
X128634238Y-56085619D01*
X128681857Y-56038000D01*
X128777095Y-55990380D01*
X128967571Y-55990380D01*
X129062809Y-56038000D01*
X129110428Y-56085619D01*
X129158047Y-56180857D01*
X129158047Y-56228476D01*
X129110428Y-56323714D01*
X129062809Y-56371333D01*
X128967571Y-56418952D01*
X128777095Y-56418952D01*
X128681857Y-56466571D01*
X128634238Y-56514190D01*
X128586619Y-56609428D01*
X128586619Y-56799904D01*
X128634238Y-56895142D01*
X128681857Y-56942761D01*
X128777095Y-56990380D01*
X128967571Y-56990380D01*
X129062809Y-56942761D01*
X129110428Y-56895142D01*
X129158047Y-56799904D01*
X129158047Y-56609428D01*
X129110428Y-56514190D01*
X129062809Y-56466571D01*
X128967571Y-56418952D01*
X129729476Y-56418952D02*
X129634238Y-56371333D01*
X129586619Y-56323714D01*
X129539000Y-56228476D01*
X129539000Y-56180857D01*
X129586619Y-56085619D01*
X129634238Y-56038000D01*
X129729476Y-55990380D01*
X129919952Y-55990380D01*
X130015190Y-56038000D01*
X130062809Y-56085619D01*
X130110428Y-56180857D01*
X130110428Y-56228476D01*
X130062809Y-56323714D01*
X130015190Y-56371333D01*
X129919952Y-56418952D01*
X129729476Y-56418952D01*
X129634238Y-56466571D01*
X129586619Y-56514190D01*
X129539000Y-56609428D01*
X129539000Y-56799904D01*
X129586619Y-56895142D01*
X129634238Y-56942761D01*
X129729476Y-56990380D01*
X129919952Y-56990380D01*
X130015190Y-56942761D01*
X130062809Y-56895142D01*
X130110428Y-56799904D01*
X130110428Y-56609428D01*
X130062809Y-56514190D01*
X130015190Y-56466571D01*
X129919952Y-56418952D01*
X120824714Y-76874666D02*
X121300904Y-76874666D01*
X120729476Y-77160380D02*
X121062809Y-76160380D01*
X121396142Y-77160380D01*
X122253285Y-77160380D02*
X121681857Y-77160380D01*
X121967571Y-77160380D02*
X121967571Y-76160380D01*
X121872333Y-76303238D01*
X121777095Y-76398476D01*
X121681857Y-76446095D01*
%TO.C,25x25*%
X88452380Y-53428571D02*
X88119047Y-53428571D01*
X88119047Y-53952380D02*
X88119047Y-52952380D01*
X88595238Y-52952380D01*
X89404761Y-53952380D02*
X89404761Y-53428571D01*
X89357142Y-53333333D01*
X89261904Y-53285714D01*
X89071428Y-53285714D01*
X88976190Y-53333333D01*
X89404761Y-53904761D02*
X89309523Y-53952380D01*
X89071428Y-53952380D01*
X88976190Y-53904761D01*
X88928571Y-53809523D01*
X88928571Y-53714285D01*
X88976190Y-53619047D01*
X89071428Y-53571428D01*
X89309523Y-53571428D01*
X89404761Y-53523809D01*
X89880952Y-53285714D02*
X89880952Y-53952380D01*
X89880952Y-53380952D02*
X89928571Y-53333333D01*
X90023809Y-53285714D01*
X90166666Y-53285714D01*
X90261904Y-53333333D01*
X90309523Y-53428571D01*
X90309523Y-53952380D01*
X90785714Y-53571428D02*
X91547619Y-53571428D01*
X91976190Y-53047619D02*
X92023809Y-53000000D01*
X92119047Y-52952380D01*
X92357142Y-52952380D01*
X92452380Y-53000000D01*
X92500000Y-53047619D01*
X92547619Y-53142857D01*
X92547619Y-53238095D01*
X92500000Y-53380952D01*
X91928571Y-53952380D01*
X92547619Y-53952380D01*
X93452380Y-52952380D02*
X92976190Y-52952380D01*
X92928571Y-53428571D01*
X92976190Y-53380952D01*
X93071428Y-53333333D01*
X93309523Y-53333333D01*
X93404761Y-53380952D01*
X93452380Y-53428571D01*
X93500000Y-53523809D01*
X93500000Y-53761904D01*
X93452380Y-53857142D01*
X93404761Y-53904761D01*
X93309523Y-53952380D01*
X93071428Y-53952380D01*
X92976190Y-53904761D01*
X92928571Y-53857142D01*
X93833333Y-53952380D02*
X94357142Y-53285714D01*
X93833333Y-53285714D02*
X94357142Y-53952380D01*
X94690476Y-53047619D02*
X94738095Y-53000000D01*
X94833333Y-52952380D01*
X95071428Y-52952380D01*
X95166666Y-53000000D01*
X95214285Y-53047619D01*
X95261904Y-53142857D01*
X95261904Y-53238095D01*
X95214285Y-53380952D01*
X94642857Y-53952380D01*
X95261904Y-53952380D01*
X96166666Y-52952380D02*
X95690476Y-52952380D01*
X95642857Y-53428571D01*
X95690476Y-53380952D01*
X95785714Y-53333333D01*
X96023809Y-53333333D01*
X96119047Y-53380952D01*
X96166666Y-53428571D01*
X96214285Y-53523809D01*
X96214285Y-53761904D01*
X96166666Y-53857142D01*
X96119047Y-53904761D01*
X96023809Y-53952380D01*
X95785714Y-53952380D01*
X95690476Y-53904761D01*
X95642857Y-53857142D01*
X96547619Y-53952380D02*
X97071428Y-53285714D01*
X96547619Y-53285714D02*
X97071428Y-53952380D01*
X97976190Y-53952380D02*
X97404761Y-53952380D01*
X97690476Y-53952380D02*
X97690476Y-52952380D01*
X97595238Y-53095238D01*
X97500000Y-53190476D01*
X97404761Y-53238095D01*
X98595238Y-52952380D02*
X98690476Y-52952380D01*
X98785714Y-53000000D01*
X98833333Y-53047619D01*
X98880952Y-53142857D01*
X98928571Y-53333333D01*
X98928571Y-53571428D01*
X98880952Y-53761904D01*
X98833333Y-53857142D01*
X98785714Y-53904761D01*
X98690476Y-53952380D01*
X98595238Y-53952380D01*
X98500000Y-53904761D01*
X98452380Y-53857142D01*
X98404761Y-53761904D01*
X98357142Y-53571428D01*
X98357142Y-53333333D01*
X98404761Y-53142857D01*
X98452380Y-53047619D01*
X98500000Y-53000000D01*
X98595238Y-52952380D01*
%TO.C,J1*%
X70582380Y-62048095D02*
X69582380Y-62048095D01*
X69582380Y-61667142D01*
X69630000Y-61571904D01*
X69677619Y-61524285D01*
X69772857Y-61476666D01*
X69915714Y-61476666D01*
X70010952Y-61524285D01*
X70058571Y-61571904D01*
X70106190Y-61667142D01*
X70106190Y-62048095D01*
X70582380Y-60905238D02*
X70534761Y-61000476D01*
X70487142Y-61048095D01*
X70391904Y-61095714D01*
X70106190Y-61095714D01*
X70010952Y-61048095D01*
X69963333Y-61000476D01*
X69915714Y-60905238D01*
X69915714Y-60762380D01*
X69963333Y-60667142D01*
X70010952Y-60619523D01*
X70106190Y-60571904D01*
X70391904Y-60571904D01*
X70487142Y-60619523D01*
X70534761Y-60667142D01*
X70582380Y-60762380D01*
X70582380Y-60905238D01*
X69915714Y-60238571D02*
X70582380Y-60048095D01*
X70106190Y-59857619D01*
X70582380Y-59667142D01*
X69915714Y-59476666D01*
X70534761Y-58714761D02*
X70582380Y-58810000D01*
X70582380Y-59000476D01*
X70534761Y-59095714D01*
X70439523Y-59143333D01*
X70058571Y-59143333D01*
X69963333Y-59095714D01*
X69915714Y-59000476D01*
X69915714Y-58810000D01*
X69963333Y-58714761D01*
X70058571Y-58667142D01*
X70153809Y-58667142D01*
X70249047Y-59143333D01*
X70582380Y-58238571D02*
X69915714Y-58238571D01*
X70106190Y-58238571D02*
X70010952Y-58190952D01*
X69963333Y-58143333D01*
X69915714Y-58048095D01*
X69915714Y-57952857D01*
X70582380Y-56857619D02*
X69582380Y-56857619D01*
X69915714Y-56381428D02*
X70582380Y-56381428D01*
X70010952Y-56381428D02*
X69963333Y-56333809D01*
X69915714Y-56238571D01*
X69915714Y-56095714D01*
X69963333Y-56000476D01*
X70058571Y-55952857D01*
X70582380Y-55952857D01*
X69915714Y-55476666D02*
X70915714Y-55476666D01*
X69963333Y-55476666D02*
X69915714Y-55381428D01*
X69915714Y-55190952D01*
X69963333Y-55095714D01*
X70010952Y-55048095D01*
X70106190Y-55000476D01*
X70391904Y-55000476D01*
X70487142Y-55048095D01*
X70534761Y-55095714D01*
X70582380Y-55190952D01*
X70582380Y-55381428D01*
X70534761Y-55476666D01*
X69915714Y-54143333D02*
X70582380Y-54143333D01*
X69915714Y-54571904D02*
X70439523Y-54571904D01*
X70534761Y-54524285D01*
X70582380Y-54429047D01*
X70582380Y-54286190D01*
X70534761Y-54190952D01*
X70487142Y-54143333D01*
X69915714Y-53810000D02*
X69915714Y-53429047D01*
X69582380Y-53667142D02*
X70439523Y-53667142D01*
X70534761Y-53619523D01*
X70582380Y-53524285D01*
X70582380Y-53429047D01*
X71842380Y-58143333D02*
X72556666Y-58143333D01*
X72699523Y-58190952D01*
X72794761Y-58286190D01*
X72842380Y-58429047D01*
X72842380Y-58524285D01*
X72842380Y-57143333D02*
X72842380Y-57714761D01*
X72842380Y-57429047D02*
X71842380Y-57429047D01*
X71985238Y-57524285D01*
X72080476Y-57619523D01*
X72128095Y-57714761D01*
%TO.C,J14*%
X94255809Y-90212380D02*
X94589142Y-91212380D01*
X94922476Y-90212380D01*
X95446285Y-90212380D02*
X95636761Y-90212380D01*
X95732000Y-90260000D01*
X95827238Y-90355238D01*
X95874857Y-90545714D01*
X95874857Y-90879047D01*
X95827238Y-91069523D01*
X95732000Y-91164761D01*
X95636761Y-91212380D01*
X95446285Y-91212380D01*
X95351047Y-91164761D01*
X95255809Y-91069523D01*
X95208190Y-90879047D01*
X95208190Y-90545714D01*
X95255809Y-90355238D01*
X95351047Y-90260000D01*
X95446285Y-90212380D01*
X96779619Y-91212380D02*
X96303428Y-91212380D01*
X96303428Y-90212380D01*
X96970095Y-90212380D02*
X97541523Y-90212380D01*
X97255809Y-91212380D02*
X97255809Y-90212380D01*
X97827238Y-90926666D02*
X98303428Y-90926666D01*
X97732000Y-91212380D02*
X98065333Y-90212380D01*
X98398666Y-91212380D01*
X99255809Y-90260000D02*
X99160571Y-90212380D01*
X99017714Y-90212380D01*
X98874857Y-90260000D01*
X98779619Y-90355238D01*
X98732000Y-90450476D01*
X98684380Y-90640952D01*
X98684380Y-90783809D01*
X98732000Y-90974285D01*
X98779619Y-91069523D01*
X98874857Y-91164761D01*
X99017714Y-91212380D01*
X99112952Y-91212380D01*
X99255809Y-91164761D01*
X99303428Y-91117142D01*
X99303428Y-90783809D01*
X99112952Y-90783809D01*
X99732000Y-90688571D02*
X100065333Y-90688571D01*
X100208190Y-91212380D02*
X99732000Y-91212380D01*
X99732000Y-90212380D01*
X100208190Y-90212380D01*
X101160571Y-91212380D02*
X100589142Y-91212380D01*
X100874857Y-91212380D02*
X100874857Y-90212380D01*
X100779619Y-90355238D01*
X100684380Y-90450476D01*
X100589142Y-90498095D01*
X101732000Y-90640952D02*
X101636761Y-90593333D01*
X101589142Y-90545714D01*
X101541523Y-90450476D01*
X101541523Y-90402857D01*
X101589142Y-90307619D01*
X101636761Y-90260000D01*
X101732000Y-90212380D01*
X101922476Y-90212380D01*
X102017714Y-90260000D01*
X102065333Y-90307619D01*
X102112952Y-90402857D01*
X102112952Y-90450476D01*
X102065333Y-90545714D01*
X102017714Y-90593333D01*
X101922476Y-90640952D01*
X101732000Y-90640952D01*
X101636761Y-90688571D01*
X101589142Y-90736190D01*
X101541523Y-90831428D01*
X101541523Y-91021904D01*
X101589142Y-91117142D01*
X101636761Y-91164761D01*
X101732000Y-91212380D01*
X101922476Y-91212380D01*
X102017714Y-91164761D01*
X102065333Y-91117142D01*
X102112952Y-91021904D01*
X102112952Y-90831428D01*
X102065333Y-90736190D01*
X102017714Y-90688571D01*
X101922476Y-90640952D01*
X97684380Y-86699523D02*
X98398666Y-86699523D01*
X98541523Y-86747142D01*
X98636761Y-86842380D01*
X98684380Y-86985238D01*
X98684380Y-87080476D01*
X98684380Y-85699523D02*
X98684380Y-86270952D01*
X98684380Y-85985238D02*
X97684380Y-85985238D01*
X97827238Y-86080476D01*
X97922476Y-86175714D01*
X97970095Y-86270952D01*
X98017714Y-84842380D02*
X98684380Y-84842380D01*
X97636761Y-85080476D02*
X98351047Y-85318571D01*
X98351047Y-84699523D01*
%TO.C,J13*%
X85755809Y-90212380D02*
X86089142Y-91212380D01*
X86422476Y-90212380D01*
X86946285Y-90212380D02*
X87136761Y-90212380D01*
X87232000Y-90260000D01*
X87327238Y-90355238D01*
X87374857Y-90545714D01*
X87374857Y-90879047D01*
X87327238Y-91069523D01*
X87232000Y-91164761D01*
X87136761Y-91212380D01*
X86946285Y-91212380D01*
X86851047Y-91164761D01*
X86755809Y-91069523D01*
X86708190Y-90879047D01*
X86708190Y-90545714D01*
X86755809Y-90355238D01*
X86851047Y-90260000D01*
X86946285Y-90212380D01*
X88279619Y-91212380D02*
X87803428Y-91212380D01*
X87803428Y-90212380D01*
X88470095Y-90212380D02*
X89041523Y-90212380D01*
X88755809Y-91212380D02*
X88755809Y-90212380D01*
X89327238Y-90926666D02*
X89803428Y-90926666D01*
X89232000Y-91212380D02*
X89565333Y-90212380D01*
X89898666Y-91212380D01*
X90755809Y-90260000D02*
X90660571Y-90212380D01*
X90517714Y-90212380D01*
X90374857Y-90260000D01*
X90279619Y-90355238D01*
X90232000Y-90450476D01*
X90184380Y-90640952D01*
X90184380Y-90783809D01*
X90232000Y-90974285D01*
X90279619Y-91069523D01*
X90374857Y-91164761D01*
X90517714Y-91212380D01*
X90612952Y-91212380D01*
X90755809Y-91164761D01*
X90803428Y-91117142D01*
X90803428Y-90783809D01*
X90612952Y-90783809D01*
X91232000Y-90688571D02*
X91565333Y-90688571D01*
X91708190Y-91212380D02*
X91232000Y-91212380D01*
X91232000Y-90212380D01*
X91708190Y-90212380D01*
X92660571Y-91212380D02*
X92089142Y-91212380D01*
X92374857Y-91212380D02*
X92374857Y-90212380D01*
X92279619Y-90355238D01*
X92184380Y-90450476D01*
X92089142Y-90498095D01*
X92993904Y-90212380D02*
X93612952Y-90212380D01*
X93279619Y-90593333D01*
X93422476Y-90593333D01*
X93517714Y-90640952D01*
X93565333Y-90688571D01*
X93612952Y-90783809D01*
X93612952Y-91021904D01*
X93565333Y-91117142D01*
X93517714Y-91164761D01*
X93422476Y-91212380D01*
X93136761Y-91212380D01*
X93041523Y-91164761D01*
X92993904Y-91117142D01*
X89184380Y-86699523D02*
X89898666Y-86699523D01*
X90041523Y-86747142D01*
X90136761Y-86842380D01*
X90184380Y-86985238D01*
X90184380Y-87080476D01*
X90184380Y-85699523D02*
X90184380Y-86270952D01*
X90184380Y-85985238D02*
X89184380Y-85985238D01*
X89327238Y-86080476D01*
X89422476Y-86175714D01*
X89470095Y-86270952D01*
X89184380Y-85366190D02*
X89184380Y-84747142D01*
X89565333Y-85080476D01*
X89565333Y-84937619D01*
X89612952Y-84842380D01*
X89660571Y-84794761D01*
X89755809Y-84747142D01*
X89993904Y-84747142D01*
X90089142Y-84794761D01*
X90136761Y-84842380D01*
X90184380Y-84937619D01*
X90184380Y-85223333D01*
X90136761Y-85318571D01*
X90089142Y-85366190D01*
%TO.C,J12*%
X77255809Y-90212380D02*
X77589142Y-91212380D01*
X77922476Y-90212380D01*
X78446285Y-90212380D02*
X78636761Y-90212380D01*
X78732000Y-90260000D01*
X78827238Y-90355238D01*
X78874857Y-90545714D01*
X78874857Y-90879047D01*
X78827238Y-91069523D01*
X78732000Y-91164761D01*
X78636761Y-91212380D01*
X78446285Y-91212380D01*
X78351047Y-91164761D01*
X78255809Y-91069523D01*
X78208190Y-90879047D01*
X78208190Y-90545714D01*
X78255809Y-90355238D01*
X78351047Y-90260000D01*
X78446285Y-90212380D01*
X79779619Y-91212380D02*
X79303428Y-91212380D01*
X79303428Y-90212380D01*
X79970095Y-90212380D02*
X80541523Y-90212380D01*
X80255809Y-91212380D02*
X80255809Y-90212380D01*
X80827238Y-90926666D02*
X81303428Y-90926666D01*
X80732000Y-91212380D02*
X81065333Y-90212380D01*
X81398666Y-91212380D01*
X82255809Y-90260000D02*
X82160571Y-90212380D01*
X82017714Y-90212380D01*
X81874857Y-90260000D01*
X81779619Y-90355238D01*
X81732000Y-90450476D01*
X81684380Y-90640952D01*
X81684380Y-90783809D01*
X81732000Y-90974285D01*
X81779619Y-91069523D01*
X81874857Y-91164761D01*
X82017714Y-91212380D01*
X82112952Y-91212380D01*
X82255809Y-91164761D01*
X82303428Y-91117142D01*
X82303428Y-90783809D01*
X82112952Y-90783809D01*
X82732000Y-90688571D02*
X83065333Y-90688571D01*
X83208190Y-91212380D02*
X82732000Y-91212380D01*
X82732000Y-90212380D01*
X83208190Y-90212380D01*
X84160571Y-91212380D02*
X83589142Y-91212380D01*
X83874857Y-91212380D02*
X83874857Y-90212380D01*
X83779619Y-90355238D01*
X83684380Y-90450476D01*
X83589142Y-90498095D01*
X84541523Y-90307619D02*
X84589142Y-90260000D01*
X84684380Y-90212380D01*
X84922476Y-90212380D01*
X85017714Y-90260000D01*
X85065333Y-90307619D01*
X85112952Y-90402857D01*
X85112952Y-90498095D01*
X85065333Y-90640952D01*
X84493904Y-91212380D01*
X85112952Y-91212380D01*
X80684380Y-86699523D02*
X81398666Y-86699523D01*
X81541523Y-86747142D01*
X81636761Y-86842380D01*
X81684380Y-86985238D01*
X81684380Y-87080476D01*
X81684380Y-85699523D02*
X81684380Y-86270952D01*
X81684380Y-85985238D02*
X80684380Y-85985238D01*
X80827238Y-86080476D01*
X80922476Y-86175714D01*
X80970095Y-86270952D01*
X80779619Y-85318571D02*
X80732000Y-85270952D01*
X80684380Y-85175714D01*
X80684380Y-84937619D01*
X80732000Y-84842380D01*
X80779619Y-84794761D01*
X80874857Y-84747142D01*
X80970095Y-84747142D01*
X81112952Y-84794761D01*
X81684380Y-85366190D01*
X81684380Y-84747142D01*
%TO.C,J11*%
X102755809Y-90212380D02*
X103089142Y-91212380D01*
X103422476Y-90212380D01*
X103946285Y-90212380D02*
X104136761Y-90212380D01*
X104232000Y-90260000D01*
X104327238Y-90355238D01*
X104374857Y-90545714D01*
X104374857Y-90879047D01*
X104327238Y-91069523D01*
X104232000Y-91164761D01*
X104136761Y-91212380D01*
X103946285Y-91212380D01*
X103851047Y-91164761D01*
X103755809Y-91069523D01*
X103708190Y-90879047D01*
X103708190Y-90545714D01*
X103755809Y-90355238D01*
X103851047Y-90260000D01*
X103946285Y-90212380D01*
X105279619Y-91212380D02*
X104803428Y-91212380D01*
X104803428Y-90212380D01*
X105470095Y-90212380D02*
X106041523Y-90212380D01*
X105755809Y-91212380D02*
X105755809Y-90212380D01*
X106327238Y-90926666D02*
X106803428Y-90926666D01*
X106232000Y-91212380D02*
X106565333Y-90212380D01*
X106898666Y-91212380D01*
X107755809Y-90260000D02*
X107660571Y-90212380D01*
X107517714Y-90212380D01*
X107374857Y-90260000D01*
X107279619Y-90355238D01*
X107232000Y-90450476D01*
X107184380Y-90640952D01*
X107184380Y-90783809D01*
X107232000Y-90974285D01*
X107279619Y-91069523D01*
X107374857Y-91164761D01*
X107517714Y-91212380D01*
X107612952Y-91212380D01*
X107755809Y-91164761D01*
X107803428Y-91117142D01*
X107803428Y-90783809D01*
X107612952Y-90783809D01*
X108232000Y-90688571D02*
X108565333Y-90688571D01*
X108708190Y-91212380D02*
X108232000Y-91212380D01*
X108232000Y-90212380D01*
X108708190Y-90212380D01*
X109660571Y-91212380D02*
X109089142Y-91212380D01*
X109374857Y-91212380D02*
X109374857Y-90212380D01*
X109279619Y-90355238D01*
X109184380Y-90450476D01*
X109089142Y-90498095D01*
X110136761Y-91212380D02*
X110327238Y-91212380D01*
X110422476Y-91164761D01*
X110470095Y-91117142D01*
X110565333Y-90974285D01*
X110612952Y-90783809D01*
X110612952Y-90402857D01*
X110565333Y-90307619D01*
X110517714Y-90260000D01*
X110422476Y-90212380D01*
X110232000Y-90212380D01*
X110136761Y-90260000D01*
X110089142Y-90307619D01*
X110041523Y-90402857D01*
X110041523Y-90640952D01*
X110089142Y-90736190D01*
X110136761Y-90783809D01*
X110232000Y-90831428D01*
X110422476Y-90831428D01*
X110517714Y-90783809D01*
X110565333Y-90736190D01*
X110612952Y-90640952D01*
X106184380Y-86699523D02*
X106898666Y-86699523D01*
X107041523Y-86747142D01*
X107136761Y-86842380D01*
X107184380Y-86985238D01*
X107184380Y-87080476D01*
X107184380Y-85699523D02*
X107184380Y-86270952D01*
X107184380Y-85985238D02*
X106184380Y-85985238D01*
X106327238Y-86080476D01*
X106422476Y-86175714D01*
X106470095Y-86270952D01*
X107184380Y-84747142D02*
X107184380Y-85318571D01*
X107184380Y-85032857D02*
X106184380Y-85032857D01*
X106327238Y-85128095D01*
X106422476Y-85223333D01*
X106470095Y-85318571D01*
%TO.C,J8*%
X110842380Y-58969047D02*
X109842380Y-58969047D01*
X110556666Y-58635714D01*
X109842380Y-58302380D01*
X110842380Y-58302380D01*
X110556666Y-57873809D02*
X110556666Y-57397619D01*
X110842380Y-57969047D02*
X109842380Y-57635714D01*
X110842380Y-57302380D01*
X109842380Y-57064285D02*
X110842380Y-56397619D01*
X109842380Y-56397619D02*
X110842380Y-57064285D01*
X110842380Y-55492857D02*
X110842380Y-56064285D01*
X110842380Y-55778571D02*
X109842380Y-55778571D01*
X109985238Y-55873809D01*
X110080476Y-55969047D01*
X110128095Y-56064285D01*
X109842380Y-55159523D02*
X109842380Y-54540476D01*
X110223333Y-54873809D01*
X110223333Y-54730952D01*
X110270952Y-54635714D01*
X110318571Y-54588095D01*
X110413809Y-54540476D01*
X110651904Y-54540476D01*
X110747142Y-54588095D01*
X110794761Y-54635714D01*
X110842380Y-54730952D01*
X110842380Y-55016666D01*
X110794761Y-55111904D01*
X110747142Y-55159523D01*
X110270952Y-53969047D02*
X110223333Y-54064285D01*
X110175714Y-54111904D01*
X110080476Y-54159523D01*
X110032857Y-54159523D01*
X109937619Y-54111904D01*
X109890000Y-54064285D01*
X109842380Y-53969047D01*
X109842380Y-53778571D01*
X109890000Y-53683333D01*
X109937619Y-53635714D01*
X110032857Y-53588095D01*
X110080476Y-53588095D01*
X110175714Y-53635714D01*
X110223333Y-53683333D01*
X110270952Y-53778571D01*
X110270952Y-53969047D01*
X110318571Y-54064285D01*
X110366190Y-54111904D01*
X110461428Y-54159523D01*
X110651904Y-54159523D01*
X110747142Y-54111904D01*
X110794761Y-54064285D01*
X110842380Y-53969047D01*
X110842380Y-53778571D01*
X110794761Y-53683333D01*
X110747142Y-53635714D01*
X110651904Y-53588095D01*
X110461428Y-53588095D01*
X110366190Y-53635714D01*
X110318571Y-53683333D01*
X110270952Y-53778571D01*
X109842380Y-52730952D02*
X109842380Y-52921428D01*
X109890000Y-53016666D01*
X109937619Y-53064285D01*
X110080476Y-53159523D01*
X110270952Y-53207142D01*
X110651904Y-53207142D01*
X110747142Y-53159523D01*
X110794761Y-53111904D01*
X110842380Y-53016666D01*
X110842380Y-52826190D01*
X110794761Y-52730952D01*
X110747142Y-52683333D01*
X110651904Y-52635714D01*
X110413809Y-52635714D01*
X110318571Y-52683333D01*
X110270952Y-52730952D01*
X110223333Y-52826190D01*
X110223333Y-53016666D01*
X110270952Y-53111904D01*
X110318571Y-53159523D01*
X110413809Y-53207142D01*
X109842380Y-51730952D02*
X109842380Y-52207142D01*
X110318571Y-52254761D01*
X110270952Y-52207142D01*
X110223333Y-52111904D01*
X110223333Y-51873809D01*
X110270952Y-51778571D01*
X110318571Y-51730952D01*
X110413809Y-51683333D01*
X110651904Y-51683333D01*
X110747142Y-51730952D01*
X110794761Y-51778571D01*
X110842380Y-51873809D01*
X110842380Y-52111904D01*
X110794761Y-52207142D01*
X110747142Y-52254761D01*
X121276666Y-54802380D02*
X121276666Y-55516666D01*
X121229047Y-55659523D01*
X121133809Y-55754761D01*
X120990952Y-55802380D01*
X120895714Y-55802380D01*
X121895714Y-55230952D02*
X121800476Y-55183333D01*
X121752857Y-55135714D01*
X121705238Y-55040476D01*
X121705238Y-54992857D01*
X121752857Y-54897619D01*
X121800476Y-54850000D01*
X121895714Y-54802380D01*
X122086190Y-54802380D01*
X122181428Y-54850000D01*
X122229047Y-54897619D01*
X122276666Y-54992857D01*
X122276666Y-55040476D01*
X122229047Y-55135714D01*
X122181428Y-55183333D01*
X122086190Y-55230952D01*
X121895714Y-55230952D01*
X121800476Y-55278571D01*
X121752857Y-55326190D01*
X121705238Y-55421428D01*
X121705238Y-55611904D01*
X121752857Y-55707142D01*
X121800476Y-55754761D01*
X121895714Y-55802380D01*
X122086190Y-55802380D01*
X122181428Y-55754761D01*
X122229047Y-55707142D01*
X122276666Y-55611904D01*
X122276666Y-55421428D01*
X122229047Y-55326190D01*
X122181428Y-55278571D01*
X122086190Y-55230952D01*
%TO.C,J3*%
X110827238Y-90212380D02*
X111160571Y-91212380D01*
X111493904Y-90212380D01*
X112017714Y-90212380D02*
X112208190Y-90212380D01*
X112303428Y-90260000D01*
X112398666Y-90355238D01*
X112446285Y-90545714D01*
X112446285Y-90879047D01*
X112398666Y-91069523D01*
X112303428Y-91164761D01*
X112208190Y-91212380D01*
X112017714Y-91212380D01*
X111922476Y-91164761D01*
X111827238Y-91069523D01*
X111779619Y-90879047D01*
X111779619Y-90545714D01*
X111827238Y-90355238D01*
X111922476Y-90260000D01*
X112017714Y-90212380D01*
X113351047Y-91212380D02*
X112874857Y-91212380D01*
X112874857Y-90212380D01*
X113541523Y-90212380D02*
X114112952Y-90212380D01*
X113827238Y-91212380D02*
X113827238Y-90212380D01*
X114398666Y-90926666D02*
X114874857Y-90926666D01*
X114303428Y-91212380D02*
X114636761Y-90212380D01*
X114970095Y-91212380D01*
X115827238Y-90260000D02*
X115732000Y-90212380D01*
X115589142Y-90212380D01*
X115446285Y-90260000D01*
X115351047Y-90355238D01*
X115303428Y-90450476D01*
X115255809Y-90640952D01*
X115255809Y-90783809D01*
X115303428Y-90974285D01*
X115351047Y-91069523D01*
X115446285Y-91164761D01*
X115589142Y-91212380D01*
X115684380Y-91212380D01*
X115827238Y-91164761D01*
X115874857Y-91117142D01*
X115874857Y-90783809D01*
X115684380Y-90783809D01*
X116303428Y-90688571D02*
X116636761Y-90688571D01*
X116779619Y-91212380D02*
X116303428Y-91212380D01*
X116303428Y-90212380D01*
X116779619Y-90212380D01*
X117541523Y-90688571D02*
X117208190Y-90688571D01*
X117208190Y-91212380D02*
X117208190Y-90212380D01*
X117684380Y-90212380D01*
X118017714Y-90926666D02*
X118493904Y-90926666D01*
X117922476Y-91212380D02*
X118255809Y-90212380D01*
X118589142Y-91212380D01*
X118922476Y-91212380D02*
X118922476Y-90212380D01*
X119493904Y-91212380D01*
X119493904Y-90212380D01*
X114684380Y-86223333D02*
X115398666Y-86223333D01*
X115541523Y-86270952D01*
X115636761Y-86366190D01*
X115684380Y-86509047D01*
X115684380Y-86604285D01*
X114684380Y-85842380D02*
X114684380Y-85223333D01*
X115065333Y-85556666D01*
X115065333Y-85413809D01*
X115112952Y-85318571D01*
X115160571Y-85270952D01*
X115255809Y-85223333D01*
X115493904Y-85223333D01*
X115589142Y-85270952D01*
X115636761Y-85318571D01*
X115684380Y-85413809D01*
X115684380Y-85699523D01*
X115636761Y-85794761D01*
X115589142Y-85842380D01*
%TD*%
M02*
