M48
; DRILL file {KiCad (5.1.9)-1} date 03/07/21 19:12:47
; FORMAT={-:-/ absolute / inch / decimal}
; #@! TF.CreationDate,2021-03-07T19:12:47-05:00
; #@! TF.GenerationSoftware,Kicad,Pcbnew,(5.1.9)-1
; #@! TF.FileFunction,Plated,1,2,PTH
FMAT,2
INCH
T1C0.0157
T2C0.0236
T3C0.0315
T4C0.0394
T5C0.0433
T6C0.0512
%
G90
G05
T1
X2.8371Y-2.0768
X2.8371Y-2.128
X2.8371Y-2.1831
X2.908Y-3.3406
X2.908Y-3.372
X2.908Y-3.4035
X2.908Y-3.435
X3.1954Y-2.0256
X3.2047Y-2.3858
X3.2308Y-2.1004
X3.2308Y-2.1358
X3.2662Y-2.1004
X3.2662Y-2.1358
X3.4016Y-2.1772
X3.5531Y-2.0768
X3.7583Y-2.0945
X3.9552Y-2.1594
X3.9552Y-2.1988
X3.9946Y-2.1594
X3.9946Y-3.3327
X4.0182Y-3.9075
X4.0457Y-3.9075
X4.0772Y-3.9075
X4.1914Y-2.5531
X4.2Y-2.1484
X4.2Y-2.24
X4.2308Y-2.1004
X4.2323Y-2.6378
X4.2702Y-3.1634
X4.3051Y-2.313
X4.3307Y-2.3622
X4.3686Y-2.1594
X4.3686Y-2.9075
X4.3686Y-2.9469
X4.3725Y-2.1004
X4.408Y-2.9469
X4.4276Y-2.4941
X4.5064Y-3.1043
X4.5457Y-2.1004
X4.5851Y-3.1476
X4.62Y-2.37
X4.6245Y-2.2972
X4.6442Y-2.8681
X4.6442Y-2.9075
X4.6442Y-2.9469
X4.6639Y-2.7106
X4.6678Y-3.3287
X4.7239Y-2.5915
X4.76Y-2.42
X4.7623Y-3.5177
X4.8017Y-2.0906
X4.841Y-2.6516
X4.841Y-2.8878
X4.841Y-2.998
X4.8918Y-2.1283
X4.9001Y-3.2224
X4.94Y-3.11
X4.945Y-2.29
X4.9804Y-3.5161
X5.0182Y-3.124
X5.0576Y-2.0413
X5.0772Y-3.2224
X5.1166Y-2.376
X5.156Y-3.2028
X5.1757Y-2.8878
X5.1954Y-3.624
X5.215Y-2.8878
X5.2347Y-2.3169
X5.2347Y-2.3563
X5.2347Y-2.5335
X5.2347Y-2.5728
X5.2347Y-2.6122
X5.2741Y-2.0807
T2
X3.778Y-3.6555
X4.0536Y-3.5965
X4.2111Y-3.6555
X4.3095Y-2.7894
X4.3194Y-2.5236
X4.3489Y-2.8287
X4.63Y-2.56
X4.6835Y-3.6555
X4.7229Y-2.5138
X4.7426Y-2.6319
X4.8331Y-3.2815
X4.9001Y-3.5965
X5.0379Y-3.2657
X5.1363Y-2.7697
T3
X4.535Y-2.32
X4.535Y-2.42
X4.535Y-2.52
X4.535Y-2.62
X4.535Y-2.72
X4.535Y-2.82
X4.535Y-2.92
X4.535Y-3.02
X5.035Y-2.32
X5.035Y-2.42
X5.035Y-2.52
X5.035Y-2.62
X5.035Y-2.72
X5.035Y-2.82
X5.035Y-2.92
X5.035Y-3.02
T4
X3.1051Y-1.8594
X3.1051Y-1.9594
X3.1481Y-3.2815
X3.1481Y-3.3815
X3.1481Y-3.4815
X3.2051Y-1.8594
X3.2051Y-1.9594
X3.2481Y-3.2815
X3.2481Y-3.3815
X3.2481Y-3.4815
X3.3051Y-1.8594
X3.3051Y-1.9594
X3.4051Y-1.8594
X3.4051Y-1.9594
X3.4828Y-3.2815
X3.4828Y-3.3815
X3.4828Y-3.4815
X3.5051Y-1.8594
X3.5051Y-1.9594
X3.5828Y-3.2815
X3.5828Y-3.3815
X3.5828Y-3.4815
X3.6051Y-1.8594
X3.6051Y-1.9594
X3.7051Y-1.8594
X3.7051Y-1.9594
X3.8051Y-1.8594
X3.8051Y-1.9594
X3.8174Y-3.2815
X3.8174Y-3.3815
X3.8174Y-3.4815
X3.9051Y-1.8594
X3.9051Y-1.9594
X3.9174Y-3.2815
X3.9174Y-3.3815
X3.9174Y-3.4815
X4.0051Y-1.8594
X4.0051Y-1.9594
X4.1051Y-1.8594
X4.1051Y-1.9594
X4.152Y-3.2815
X4.152Y-3.3815
X4.152Y-3.4815
X4.2051Y-1.8594
X4.2051Y-1.9594
X4.252Y-3.2815
X4.252Y-3.3815
X4.252Y-3.4815
X4.3051Y-1.8594
X4.3051Y-1.9594
X4.4051Y-1.8594
X4.4051Y-1.9594
X4.4378Y-2.1791
X4.4867Y-3.2815
X4.4867Y-3.3815
X4.4867Y-3.4815
X4.5051Y-1.8594
X4.5051Y-1.9594
X4.5378Y-2.1791
X4.5867Y-3.2815
X4.5867Y-3.3815
X4.5867Y-3.4815
X4.6051Y-1.8594
X4.6051Y-1.9594
X4.6378Y-2.1791
X4.7051Y-1.8594
X4.7051Y-1.9594
X4.7378Y-2.1791
X4.8051Y-1.8594
X4.8051Y-1.9594
X4.8378Y-2.1791
X4.8804Y-3.3408
X4.8804Y-3.4408
X4.9051Y-1.8594
X4.9051Y-1.9594
X4.9378Y-2.1791
X4.9804Y-3.3408
X4.9804Y-3.4408
X5.0051Y-1.8594
X5.0051Y-1.9594
X5.0378Y-2.1791
X5.0804Y-3.3408
X5.0804Y-3.4408
X5.1378Y-2.1791
X5.1804Y-3.3408
X5.1804Y-3.4408
T5
X2.9331Y-2.126
X2.9331Y-2.226
X2.9331Y-2.326
X2.9331Y-2.426
T6
X3.1678Y-3.7933
X3.3646Y-3.7933
X3.5615Y-3.7933
X3.7583Y-3.7933
X3.9552Y-3.7933
X4.152Y-3.7933
X4.3489Y-3.7933
X4.5457Y-3.7933
X4.7426Y-3.7933
X4.9394Y-3.7933
T0
M30
