%TF.GenerationSoftware,KiCad,Pcbnew,(5.1.9)-1*%
%TF.CreationDate,2021-03-07T19:12:45-05:00*%
%TF.ProjectId,bigp4ppa,62696770-3470-4706-912e-6b696361645f,rev?*%
%TF.SameCoordinates,Original*%
%TF.FileFunction,Soldermask,Top*%
%TF.FilePolarity,Negative*%
%FSLAX46Y46*%
G04 Gerber Fmt 4.6, Leading zero omitted, Abs format (unit mm)*
G04 Created by KiCad (PCBNEW (5.1.9)-1) date 2021-03-07 19:12:45*
%MOMM*%
%LPD*%
G01*
G04 APERTURE LIST*
%ADD10C,2.600000*%
%ADD11R,2.600000X2.600000*%
%ADD12O,1.700000X1.700000*%
%ADD13R,1.700000X1.700000*%
%ADD14O,1.600000X1.600000*%
%ADD15R,1.600000X1.600000*%
%ADD16C,24.000000*%
%ADD17C,3.200000*%
%ADD18C,3.301600*%
%ADD19R,2.100000X2.100000*%
%ADD20C,2.100000*%
%ADD21C,6.200000*%
G04 APERTURE END LIST*
D10*
%TO.C,J4*%
X125462000Y-96350000D03*
X120462000Y-96350000D03*
X115462000Y-96350000D03*
X110462000Y-96350000D03*
X105462000Y-96350000D03*
X100462000Y-96350000D03*
X95462000Y-96350000D03*
X90462000Y-96350000D03*
X85462000Y-96350000D03*
D11*
X80462000Y-96350000D03*
%TD*%
D12*
%TO.C,J15*%
X131582000Y-84856000D03*
X131582000Y-87396000D03*
X129042000Y-84856000D03*
X129042000Y-87396000D03*
X126502000Y-84856000D03*
X126502000Y-87396000D03*
X123962000Y-84856000D03*
D13*
X123962000Y-87396000D03*
%TD*%
D14*
%TO.C,A1*%
X115189000Y-76708000D03*
X127889000Y-58928000D03*
X115189000Y-74168000D03*
X127889000Y-61468000D03*
X115189000Y-71628000D03*
X127889000Y-64008000D03*
X115189000Y-69088000D03*
X127889000Y-66548000D03*
X115189000Y-66548000D03*
X127889000Y-69088000D03*
X115189000Y-64008000D03*
X127889000Y-71628000D03*
X115189000Y-61468000D03*
X127889000Y-74168000D03*
X115189000Y-58928000D03*
D15*
X127889000Y-76708000D03*
%TD*%
D12*
%TO.C,J2*%
X127130000Y-47230000D03*
X127130000Y-49770000D03*
X124590000Y-47230000D03*
X124590000Y-49770000D03*
X122050000Y-47230000D03*
X122050000Y-49770000D03*
X119510000Y-47230000D03*
X119510000Y-49770000D03*
X116970000Y-47230000D03*
X116970000Y-49770000D03*
X114430000Y-47230000D03*
X114430000Y-49770000D03*
X111890000Y-47230000D03*
X111890000Y-49770000D03*
X109350000Y-47230000D03*
X109350000Y-49770000D03*
X106810000Y-47230000D03*
X106810000Y-49770000D03*
X104270000Y-47230000D03*
X104270000Y-49770000D03*
X101730000Y-47230000D03*
X101730000Y-49770000D03*
X99190000Y-47230000D03*
X99190000Y-49770000D03*
X96650000Y-47230000D03*
X96650000Y-49770000D03*
X94110000Y-47230000D03*
X94110000Y-49770000D03*
X91570000Y-47230000D03*
X91570000Y-49770000D03*
X89030000Y-47230000D03*
X89030000Y-49770000D03*
X86490000Y-47230000D03*
X86490000Y-49770000D03*
X83950000Y-47230000D03*
X83950000Y-49770000D03*
X81410000Y-47230000D03*
X81410000Y-49770000D03*
X78870000Y-47230000D03*
D13*
X78870000Y-49770000D03*
%TD*%
D16*
%TO.C,25x25*%
X93500000Y-67500000D03*
D17*
X83500000Y-57500000D03*
X83500000Y-77500000D03*
X103500000Y-77500000D03*
X103500000Y-57500000D03*
%TD*%
D18*
%TO.C,U$19*%
X111338900Y-78076400D03*
%TD*%
%TO.C,U$18*%
X131658900Y-78076400D03*
%TD*%
D19*
%TO.C,J1*%
X74500000Y-54000000D03*
D20*
X74500000Y-56540000D03*
X74500000Y-59080000D03*
X74500000Y-61620000D03*
%TD*%
D12*
%TO.C,J14*%
X99502000Y-88430000D03*
X96962000Y-88430000D03*
X99502000Y-85890000D03*
X96962000Y-85890000D03*
X99502000Y-83350000D03*
D13*
X96962000Y-83350000D03*
%TD*%
D12*
%TO.C,J13*%
X91002000Y-88430000D03*
X88462000Y-88430000D03*
X91002000Y-85890000D03*
X88462000Y-85890000D03*
X91002000Y-83350000D03*
D13*
X88462000Y-83350000D03*
%TD*%
D12*
%TO.C,J12*%
X82502000Y-88430000D03*
X79962000Y-88430000D03*
X82502000Y-85890000D03*
X79962000Y-85890000D03*
X82502000Y-83350000D03*
D13*
X79962000Y-83350000D03*
%TD*%
D12*
%TO.C,J11*%
X108002000Y-88430000D03*
X105462000Y-88430000D03*
X108002000Y-85890000D03*
X105462000Y-85890000D03*
X108002000Y-83350000D03*
D13*
X105462000Y-83350000D03*
%TD*%
%TO.C,J8*%
X130500000Y-55350000D03*
D12*
X127960000Y-55350000D03*
X125420000Y-55350000D03*
X122880000Y-55350000D03*
X120340000Y-55350000D03*
X117800000Y-55350000D03*
X115260000Y-55350000D03*
X112720000Y-55350000D03*
%TD*%
D13*
%TO.C,J3*%
X113962000Y-83350000D03*
D12*
X116502000Y-83350000D03*
X113962000Y-85890000D03*
X116502000Y-85890000D03*
X113962000Y-88430000D03*
X116502000Y-88430000D03*
%TD*%
D21*
%TO.C,*%
X132000000Y-48500000D03*
%TD*%
%TO.C,*%
X132000000Y-97500000D03*
%TD*%
%TO.C,*%
X74000000Y-97500000D03*
%TD*%
%TO.C,*%
X74000000Y-48500000D03*
%TD*%
M02*
