%TF.GenerationSoftware,KiCad,Pcbnew,(5.1.9)-1*%
%TF.CreationDate,2021-03-07T19:12:45-05:00*%
%TF.ProjectId,bigp4ppa,62696770-3470-4706-912e-6b696361645f,rev?*%
%TF.SameCoordinates,Original*%
%TF.FileFunction,Copper,L2,Bot*%
%TF.FilePolarity,Positive*%
%FSLAX46Y46*%
G04 Gerber Fmt 4.6, Leading zero omitted, Abs format (unit mm)*
G04 Created by KiCad (PCBNEW (5.1.9)-1) date 2021-03-07 19:12:45*
%MOMM*%
%LPD*%
G01*
G04 APERTURE LIST*
%TA.AperFunction,ComponentPad*%
%ADD10C,2.600000*%
%TD*%
%TA.AperFunction,ComponentPad*%
%ADD11R,2.600000X2.600000*%
%TD*%
%TA.AperFunction,ComponentPad*%
%ADD12O,1.700000X1.700000*%
%TD*%
%TA.AperFunction,ComponentPad*%
%ADD13R,1.700000X1.700000*%
%TD*%
%TA.AperFunction,SMDPad,CuDef*%
%ADD14R,0.800000X0.900000*%
%TD*%
%TA.AperFunction,ComponentPad*%
%ADD15O,1.600000X1.600000*%
%TD*%
%TA.AperFunction,ComponentPad*%
%ADD16R,1.600000X1.600000*%
%TD*%
%TA.AperFunction,SMDPad,CuDef*%
%ADD17R,1.100000X1.100000*%
%TD*%
%TA.AperFunction,WasherPad*%
%ADD18C,3.200000*%
%TD*%
%TA.AperFunction,ComponentPad*%
%ADD19R,2.100000X2.100000*%
%TD*%
%TA.AperFunction,ComponentPad*%
%ADD20C,2.100000*%
%TD*%
%TA.AperFunction,ViaPad*%
%ADD21C,0.600000*%
%TD*%
%TA.AperFunction,ViaPad*%
%ADD22C,0.800000*%
%TD*%
%TA.AperFunction,Conductor*%
%ADD23C,0.400000*%
%TD*%
%TA.AperFunction,Conductor*%
%ADD24C,1.000000*%
%TD*%
%TA.AperFunction,Conductor*%
%ADD25C,0.500000*%
%TD*%
%TA.AperFunction,Conductor*%
%ADD26C,0.300000*%
%TD*%
%TA.AperFunction,Conductor*%
%ADD27C,0.250000*%
%TD*%
%TA.AperFunction,Conductor*%
%ADD28C,0.800000*%
%TD*%
%TA.AperFunction,Conductor*%
%ADD29C,0.254000*%
%TD*%
%TA.AperFunction,Conductor*%
%ADD30C,0.100000*%
%TD*%
G04 APERTURE END LIST*
D10*
%TO.P,J4,10*%
%TO.N,/GPIO23-*%
X125462000Y-96350000D03*
%TO.P,J4,9*%
%TO.N,/GPIO23+*%
X120462000Y-96350000D03*
%TO.P,J4,8*%
%TO.N,/GPIO19-*%
X115462000Y-96350000D03*
%TO.P,J4,7*%
%TO.N,/GPIO19+*%
X110462000Y-96350000D03*
%TO.P,J4,6*%
%TO.N,/GPIO18-*%
X105462000Y-96350000D03*
%TO.P,J4,5*%
%TO.N,/GPIO18+*%
X100462000Y-96350000D03*
%TO.P,J4,4*%
%TO.N,/GPIO13-*%
X95462000Y-96350000D03*
%TO.P,J4,3*%
%TO.N,/GPIO13+*%
X90462000Y-96350000D03*
%TO.P,J4,2*%
%TO.N,/GPIO12-*%
X85462000Y-96350000D03*
D11*
%TO.P,J4,1*%
%TO.N,/GPIO12+*%
X80462000Y-96350000D03*
%TD*%
D12*
%TO.P,J15,8*%
%TO.N,ADXL_CS*%
X131582000Y-84856000D03*
%TO.P,J15,7*%
%TO.N,ADXL_SCL*%
X131582000Y-87396000D03*
%TO.P,J15,6*%
%TO.N,+3V3*%
X129042000Y-84856000D03*
%TO.P,J15,5*%
%TO.N,ADXL_SDO*%
X129042000Y-87396000D03*
%TO.P,J15,4*%
%TO.N,GND*%
X126502000Y-84856000D03*
%TO.P,J15,3*%
%TO.N,ADXL_SDA*%
X126502000Y-87396000D03*
%TO.P,J15,2*%
%TO.N,N/C*%
X123962000Y-84856000D03*
D13*
%TO.P,J15,1*%
%TO.N,+3V3*%
X123962000Y-87396000D03*
%TD*%
D14*
%TO.P,Q6,3*%
%TO.N,/GPIO19-*%
X130937000Y-63500000D03*
%TO.P,Q6,2*%
%TO.N,GND*%
X131887000Y-61500000D03*
%TO.P,Q6,1*%
%TO.N,GPIO19*%
X129987000Y-61500000D03*
%TD*%
D15*
%TO.P,A1,16*%
%TO.N,N/C*%
X115189000Y-76708000D03*
%TO.P,A1,8*%
%TO.N,+24V*%
X127889000Y-58928000D03*
%TO.P,A1,15*%
%TO.N,N/C*%
X115189000Y-74168000D03*
%TO.P,A1,7*%
%TO.N,GND*%
X127889000Y-61468000D03*
%TO.P,A1,14*%
%TO.N,N/C*%
X115189000Y-71628000D03*
%TO.P,A1,6*%
X127889000Y-64008000D03*
%TO.P,A1,13*%
%TO.N,MAX_SDI*%
X115189000Y-69088000D03*
%TO.P,A1,5*%
%TO.N,N/C*%
X127889000Y-66548000D03*
%TO.P,A1,12*%
%TO.N,MAX_CS*%
X115189000Y-66548000D03*
%TO.P,A1,4*%
%TO.N,N/C*%
X127889000Y-69088000D03*
%TO.P,A1,11*%
%TO.N,MAX_CLK*%
X115189000Y-64008000D03*
%TO.P,A1,3*%
%TO.N,N/C*%
X127889000Y-71628000D03*
%TO.P,A1,10*%
%TO.N,MAX_SDO*%
X115189000Y-61468000D03*
%TO.P,A1,2*%
%TO.N,N/C*%
X127889000Y-74168000D03*
%TO.P,A1,9*%
X115189000Y-58928000D03*
D16*
%TO.P,A1,1*%
%TO.N,GND*%
X127889000Y-76708000D03*
%TD*%
D12*
%TO.P,J2,40*%
%TO.N,MAX_CLK*%
X127130000Y-47230000D03*
%TO.P,J2,39*%
%TO.N,GND*%
X127130000Y-49770000D03*
%TO.P,J2,38*%
%TO.N,MAX_SDI*%
X124590000Y-47230000D03*
%TO.P,J2,37*%
%TO.N,GPIO19*%
X124590000Y-49770000D03*
%TO.P,J2,36*%
%TO.N,N/C*%
X122050000Y-47230000D03*
%TO.P,J2,35*%
%TO.N,MAX_SDO*%
X122050000Y-49770000D03*
%TO.P,J2,34*%
%TO.N,GND*%
X119510000Y-47230000D03*
%TO.P,J2,33*%
%TO.N,GPIO13*%
X119510000Y-49770000D03*
%TO.P,J2,32*%
%TO.N,GPIO12*%
X116970000Y-47230000D03*
%TO.P,J2,31*%
%TO.N,N/C*%
X116970000Y-49770000D03*
%TO.P,J2,30*%
%TO.N,GND*%
X114430000Y-47230000D03*
%TO.P,J2,29*%
%TO.N,N/C*%
X114430000Y-49770000D03*
%TO.P,J2,28*%
X111890000Y-47230000D03*
%TO.P,J2,27*%
X111890000Y-49770000D03*
%TO.P,J2,26*%
%TO.N,MAX_CS*%
X109350000Y-47230000D03*
%TO.P,J2,25*%
%TO.N,GND*%
X109350000Y-49770000D03*
%TO.P,J2,24*%
%TO.N,ADXL_CS*%
X106810000Y-47230000D03*
%TO.P,J2,23*%
%TO.N,ADXL_SCL*%
X106810000Y-49770000D03*
%TO.P,J2,22*%
%TO.N,N/C*%
X104270000Y-47230000D03*
%TO.P,J2,21*%
%TO.N,ADXL_SDO*%
X104270000Y-49770000D03*
%TO.P,J2,20*%
%TO.N,GND*%
X101730000Y-47230000D03*
%TO.P,J2,19*%
%TO.N,ADXL_SDA*%
X101730000Y-49770000D03*
%TO.P,J2,18*%
%TO.N,N/C*%
X99190000Y-47230000D03*
%TO.P,J2,17*%
%TO.N,+3V3*%
X99190000Y-49770000D03*
%TO.P,J2,16*%
%TO.N,GPIO23*%
X96650000Y-47230000D03*
%TO.P,J2,15*%
%TO.N,N/C*%
X96650000Y-49770000D03*
%TO.P,J2,14*%
%TO.N,GND*%
X94110000Y-47230000D03*
%TO.P,J2,13*%
%TO.N,N/C*%
X94110000Y-49770000D03*
%TO.P,J2,12*%
%TO.N,GPIO18*%
X91570000Y-47230000D03*
%TO.P,J2,11*%
%TO.N,N/C*%
X91570000Y-49770000D03*
%TO.P,J2,10*%
X89030000Y-47230000D03*
%TO.P,J2,9*%
%TO.N,GND*%
X89030000Y-49770000D03*
%TO.P,J2,8*%
%TO.N,N/C*%
X86490000Y-47230000D03*
%TO.P,J2,7*%
X86490000Y-49770000D03*
%TO.P,J2,6*%
%TO.N,GND*%
X83950000Y-47230000D03*
%TO.P,J2,5*%
%TO.N,N/C*%
X83950000Y-49770000D03*
%TO.P,J2,4*%
%TO.N,+5V*%
X81410000Y-47230000D03*
%TO.P,J2,3*%
%TO.N,N/C*%
X81410000Y-49770000D03*
%TO.P,J2,2*%
%TO.N,+5V*%
X78870000Y-47230000D03*
D13*
%TO.P,J2,1*%
%TO.N,+3V3*%
X78870000Y-49770000D03*
%TD*%
D17*
%TO.P,D5,2*%
%TO.N,/GPIO23-*%
X124400000Y-92850000D03*
%TO.P,D5,1*%
%TO.N,/GPIO23+*%
X121600000Y-92850000D03*
%TD*%
%TO.P,D4,2*%
%TO.N,/GPIO19-*%
X114400000Y-92850000D03*
%TO.P,D4,1*%
%TO.N,/GPIO19+*%
X111600000Y-92850000D03*
%TD*%
%TO.P,D3,2*%
%TO.N,/GPIO18-*%
X104300000Y-92850000D03*
%TO.P,D3,1*%
%TO.N,/GPIO18+*%
X101500000Y-92850000D03*
%TD*%
%TO.P,D2,2*%
%TO.N,/GPIO13-*%
X94500000Y-92850000D03*
%TO.P,D2,1*%
%TO.N,/GPIO13+*%
X91700000Y-92850000D03*
%TD*%
%TO.P,D1,2*%
%TO.N,/GPIO12-*%
X84400000Y-92850000D03*
%TO.P,D1,1*%
%TO.N,/GPIO12+*%
X81600000Y-92850000D03*
%TD*%
D18*
%TO.P,25x25,*%
%TO.N,*%
X83500000Y-57500000D03*
X83500000Y-77500000D03*
X103500000Y-77500000D03*
X103500000Y-57500000D03*
%TD*%
%TO.P,U$19,*%
%TO.N,*%
X111338900Y-78076400D03*
%TD*%
%TO.P,U$18,*%
%TO.N,*%
X131658900Y-78076400D03*
%TD*%
D19*
%TO.P,J1,1*%
%TO.N,GND*%
X74500000Y-54000000D03*
D20*
%TO.P,J1,2*%
%TO.N,+5V*%
X74500000Y-56540000D03*
%TO.P,J1,3*%
%TO.N,+12V*%
X74500000Y-59080000D03*
%TO.P,J1,4*%
%TO.N,+24V*%
X74500000Y-61620000D03*
%TD*%
D14*
%TO.P,Q1,1*%
%TO.N,GPIO23*%
X129550000Y-67000000D03*
%TO.P,Q1,2*%
%TO.N,GND*%
X131450000Y-67000000D03*
%TO.P,Q1,3*%
%TO.N,/GPIO23-*%
X130500000Y-69000000D03*
%TD*%
D12*
%TO.P,J14,6*%
%TO.N,/GPIO18+*%
X99502000Y-88430000D03*
%TO.P,J14,5*%
%TO.N,+12V*%
X96962000Y-88430000D03*
%TO.P,J14,4*%
%TO.N,/GPIO18+*%
X99502000Y-85890000D03*
%TO.P,J14,3*%
%TO.N,+5V*%
X96962000Y-85890000D03*
%TO.P,J14,2*%
%TO.N,/GPIO18+*%
X99502000Y-83350000D03*
D13*
%TO.P,J14,1*%
%TO.N,+24V*%
X96962000Y-83350000D03*
%TD*%
D12*
%TO.P,J13,6*%
%TO.N,/GPIO13+*%
X91002000Y-88430000D03*
%TO.P,J13,5*%
%TO.N,+12V*%
X88462000Y-88430000D03*
%TO.P,J13,4*%
%TO.N,/GPIO13+*%
X91002000Y-85890000D03*
%TO.P,J13,3*%
%TO.N,+5V*%
X88462000Y-85890000D03*
%TO.P,J13,2*%
%TO.N,/GPIO13+*%
X91002000Y-83350000D03*
D13*
%TO.P,J13,1*%
%TO.N,+24V*%
X88462000Y-83350000D03*
%TD*%
D12*
%TO.P,J12,6*%
%TO.N,/GPIO12+*%
X82502000Y-88430000D03*
%TO.P,J12,5*%
%TO.N,+12V*%
X79962000Y-88430000D03*
%TO.P,J12,4*%
%TO.N,/GPIO12+*%
X82502000Y-85890000D03*
%TO.P,J12,3*%
%TO.N,+5V*%
X79962000Y-85890000D03*
%TO.P,J12,2*%
%TO.N,/GPIO12+*%
X82502000Y-83350000D03*
D13*
%TO.P,J12,1*%
%TO.N,+24V*%
X79962000Y-83350000D03*
%TD*%
D12*
%TO.P,J11,6*%
%TO.N,/GPIO19+*%
X108002000Y-88430000D03*
%TO.P,J11,5*%
%TO.N,+12V*%
X105462000Y-88430000D03*
%TO.P,J11,4*%
%TO.N,/GPIO19+*%
X108002000Y-85890000D03*
%TO.P,J11,3*%
%TO.N,+5V*%
X105462000Y-85890000D03*
%TO.P,J11,2*%
%TO.N,/GPIO19+*%
X108002000Y-83350000D03*
D13*
%TO.P,J11,1*%
%TO.N,+24V*%
X105462000Y-83350000D03*
%TD*%
%TO.P,J8,1*%
%TO.N,N/C*%
X130500000Y-55350000D03*
D12*
%TO.P,J8,2*%
%TO.N,GND*%
X127960000Y-55350000D03*
%TO.P,J8,3*%
%TO.N,+3V3*%
X125420000Y-55350000D03*
%TO.P,J8,4*%
%TO.N,MAX_CLK*%
X122880000Y-55350000D03*
%TO.P,J8,5*%
%TO.N,MAX_SDO*%
X120340000Y-55350000D03*
%TO.P,J8,6*%
%TO.N,MAX_SDI*%
X117800000Y-55350000D03*
%TO.P,J8,7*%
%TO.N,MAX_CS*%
X115260000Y-55350000D03*
%TO.P,J8,8*%
%TO.N,N/C*%
X112720000Y-55350000D03*
%TD*%
D13*
%TO.P,J3,1*%
%TO.N,+24V*%
X113962000Y-83350000D03*
D12*
%TO.P,J3,2*%
%TO.N,/GPIO23+*%
X116502000Y-83350000D03*
%TO.P,J3,3*%
%TO.N,+5V*%
X113962000Y-85890000D03*
%TO.P,J3,4*%
%TO.N,/GPIO23+*%
X116502000Y-85890000D03*
%TO.P,J3,5*%
%TO.N,+12V*%
X113962000Y-88430000D03*
%TO.P,J3,6*%
%TO.N,/GPIO23+*%
X116502000Y-88430000D03*
%TD*%
D14*
%TO.P,Q5,3*%
%TO.N,/GPIO13-*%
X118364000Y-63500000D03*
%TO.P,Q5,2*%
%TO.N,GND*%
X119314000Y-61500000D03*
%TO.P,Q5,1*%
%TO.N,GPIO13*%
X117414000Y-61500000D03*
%TD*%
%TO.P,Q4,3*%
%TO.N,/GPIO18-*%
X124000000Y-63500000D03*
%TO.P,Q4,2*%
%TO.N,GND*%
X124950000Y-61500000D03*
%TO.P,Q4,1*%
%TO.N,GPIO18*%
X123050000Y-61500000D03*
%TD*%
%TO.P,Q3,3*%
%TO.N,/GPIO12-*%
X111000000Y-63500000D03*
%TO.P,Q3,2*%
%TO.N,GND*%
X111950000Y-61500000D03*
%TO.P,Q3,1*%
%TO.N,GPIO12*%
X110050000Y-61500000D03*
%TD*%
D21*
%TO.N,*%
X101462000Y-84650000D03*
X118562000Y-84550000D03*
%TO.N,GND*%
X81400000Y-60600000D03*
X86400000Y-55300000D03*
X120904000Y-61468000D03*
X132962000Y-58850000D03*
X125603000Y-58166000D03*
X118462000Y-68850000D03*
X122962000Y-73350000D03*
X122962000Y-67350000D03*
X122962000Y-76150000D03*
X131962000Y-92050000D03*
X111062000Y-53350000D03*
X109350000Y-58750000D03*
X72062000Y-55450000D03*
X72062000Y-54050000D03*
X72062000Y-52750000D03*
X82062000Y-53350000D03*
X82062000Y-54250000D03*
X82962000Y-53350000D03*
X82962000Y-54250000D03*
X73862000Y-84850000D03*
X73862000Y-85650000D03*
X73862000Y-86450000D03*
X73862000Y-87250000D03*
X102762000Y-99250000D03*
X102062000Y-99250000D03*
X103562000Y-99250000D03*
X132962000Y-59850000D03*
X132962000Y-64350000D03*
X132962000Y-65350000D03*
X132462000Y-73350000D03*
X131462000Y-73350000D03*
X117962000Y-72850000D03*
X117962000Y-73850000D03*
X117962000Y-74850000D03*
X110962000Y-73850000D03*
X110962000Y-74850000D03*
X111962000Y-74850000D03*
X101462000Y-54850000D03*
X100462000Y-54850000D03*
X100462000Y-55850000D03*
X127462000Y-79350000D03*
X116462000Y-79950000D03*
X132962000Y-66350000D03*
%TO.N,GPIO18*%
X90250000Y-52750000D03*
X106680000Y-56896000D03*
%TO.N,GPIO12*%
X110000000Y-60000000D03*
%TO.N,GPIO13*%
X117348000Y-60198000D03*
%TO.N,+24V*%
X125476000Y-78994000D03*
X114462000Y-78850000D03*
%TO.N,+3V3*%
X128962000Y-81850000D03*
X124252371Y-54059625D03*
X124462000Y-81850000D03*
X81162000Y-51450000D03*
%TO.N,MAX_SDI*%
X117462000Y-58350000D03*
X112462000Y-63350000D03*
X121962000Y-53100021D03*
%TO.N,ADXL_CS*%
X108462000Y-80350000D03*
X130962000Y-81350000D03*
%TO.N,ADXL_SDA*%
X126502000Y-89310000D03*
X120962000Y-89350000D03*
X106462000Y-64850008D03*
X119988013Y-65824001D03*
%TO.N,ADXL_SCL*%
X133962000Y-52850000D03*
%TO.N,GPIO19*%
X128462000Y-51850000D03*
X129962000Y-60350000D03*
%TO.N,GPIO12*%
X115462000Y-53350000D03*
X110962000Y-54850000D03*
%TO.N,GPIO23*%
X107500000Y-67000000D03*
X107462000Y-53350000D03*
X95462000Y-53199990D03*
%TO.N,GPIO18*%
X106679019Y-54570031D03*
D22*
%TO.N,/GPIO12-*%
X109462000Y-70850000D03*
X109711999Y-64099999D03*
%TO.N,/GPIO13-*%
X117602000Y-65024000D03*
X110462000Y-71850000D03*
X102962000Y-91350000D03*
X95962000Y-92850000D03*
%TO.N,/GPIO18-*%
X119962000Y-63850000D03*
X106962000Y-92850000D03*
%TO.N,/GPIO19-*%
X118962000Y-92850000D03*
X120462012Y-66850000D03*
%TO.N,/GPIO23-*%
X130462000Y-70350000D03*
X124462000Y-91350000D03*
X127962000Y-82950000D03*
X122762010Y-83350000D03*
%TD*%
D23*
%TO.N,+5V*%
X78460000Y-56540000D02*
X74500000Y-56540000D01*
X80159999Y-54840001D02*
X78460000Y-56540000D01*
X80159999Y-48480001D02*
X80159999Y-54840001D01*
X81410000Y-47230000D02*
X80159999Y-48480001D01*
D24*
X76240000Y-56540000D02*
X74500000Y-56540000D01*
D25*
X77400000Y-55380000D02*
X76240000Y-56540000D01*
X77400000Y-48400000D02*
X77400000Y-55380000D01*
X78570000Y-47230000D02*
X77400000Y-48400000D01*
X78870000Y-47230000D02*
X78570000Y-47230000D01*
D24*
X78162000Y-85550000D02*
X78502000Y-85890000D01*
X78162000Y-56562000D02*
X78162000Y-85550000D01*
X78140000Y-56540000D02*
X78162000Y-56562000D01*
X78502000Y-85890000D02*
X79962000Y-85890000D01*
X74500000Y-56540000D02*
X78140000Y-56540000D01*
D23*
%TO.N,GND*%
X92859999Y-48480001D02*
X94110000Y-47230000D01*
X91009997Y-48480001D02*
X92859999Y-48480001D01*
X89719998Y-49770000D02*
X91009997Y-48480001D01*
X89030000Y-49770000D02*
X89719998Y-49770000D01*
D26*
X110639999Y-48480001D02*
X109350000Y-49770000D01*
X114430000Y-47230000D02*
X113179999Y-48480001D01*
X113179999Y-48480001D02*
X110639999Y-48480001D01*
D27*
X124950000Y-58819000D02*
X125603000Y-58166000D01*
X124950000Y-61500000D02*
X124950000Y-58819000D01*
X124950000Y-62248000D02*
X124950000Y-61500000D01*
X124714000Y-62484000D02*
X124950000Y-62248000D01*
X119761000Y-62484000D02*
X124714000Y-62484000D01*
X119314000Y-62037000D02*
X119761000Y-62484000D01*
X119314000Y-61500000D02*
X119314000Y-62037000D01*
D26*
X103050000Y-48550000D02*
X101730000Y-47230000D01*
X108130000Y-48550000D02*
X103050000Y-48550000D01*
X109350000Y-49770000D02*
X108130000Y-48550000D01*
X95310001Y-48430001D02*
X94110000Y-47230000D01*
X100529999Y-48430001D02*
X95310001Y-48430001D01*
X101730000Y-47230000D02*
X100529999Y-48430001D01*
X109350000Y-58750000D02*
X110962000Y-58750000D01*
X111950000Y-59738000D02*
X111950000Y-61500000D01*
X110962000Y-58750000D02*
X111950000Y-59738000D01*
%TO.N,GPIO12*%
X110050000Y-61500000D02*
X110050000Y-60050000D01*
X110050000Y-60050000D02*
X110000000Y-60000000D01*
D27*
%TO.N,GPIO13*%
X117414000Y-60264000D02*
X117348000Y-60198000D01*
X117414000Y-61500000D02*
X117414000Y-60264000D01*
D23*
%TO.N,+24V*%
X114606000Y-78994000D02*
X114462000Y-78850000D01*
X125476000Y-78994000D02*
X114606000Y-78994000D01*
D24*
%TO.N,+12V*%
X74500000Y-59080000D02*
X76580000Y-59080000D01*
X76580000Y-59080000D02*
X76800000Y-59300000D01*
X76800000Y-59300000D02*
X76800000Y-87400000D01*
X77980000Y-88580000D02*
X76800000Y-87400000D01*
X80000000Y-88580000D02*
X77980000Y-88580000D01*
D23*
%TO.N,+3V3*%
X101820011Y-52400011D02*
X122592757Y-52400011D01*
X99190000Y-49770000D02*
X101820011Y-52400011D01*
X122592757Y-52400011D02*
X124252371Y-54059625D01*
X128962000Y-81850000D02*
X128537736Y-81850000D01*
X128537736Y-81850000D02*
X124462000Y-81850000D01*
D25*
X81162000Y-51450000D02*
X98262000Y-51450000D01*
X99190000Y-50522000D02*
X99190000Y-49770000D01*
X98262000Y-51450000D02*
X99190000Y-50522000D01*
D23*
%TO.N,MAX_SDI*%
X120049979Y-53100021D02*
X121962000Y-53100021D01*
X117800000Y-55350000D02*
X120049979Y-53100021D01*
X112462000Y-62418998D02*
X112462000Y-63350000D01*
X115986264Y-60250000D02*
X114630998Y-60250000D01*
X114630998Y-60250000D02*
X112462000Y-62418998D01*
X117462000Y-58774264D02*
X115986264Y-60250000D01*
X117462000Y-58350000D02*
X117462000Y-58774264D01*
%TO.N,ADXL_CS*%
X130462000Y-80850000D02*
X130962000Y-81350000D01*
X108962000Y-80850000D02*
X130462000Y-80850000D01*
X108462000Y-80350000D02*
X108962000Y-80850000D01*
D26*
%TO.N,ADXL_SDO*%
X122962010Y-51850010D02*
X106350010Y-51850010D01*
X125190001Y-54078001D02*
X122962010Y-51850010D01*
X133962000Y-54078001D02*
X125190001Y-54078001D01*
X132462000Y-89850000D02*
X133962000Y-88350000D01*
X106350010Y-51850010D02*
X104270000Y-49770000D01*
X133962000Y-88350000D02*
X133962000Y-54078001D01*
X129462000Y-89850000D02*
X132462000Y-89850000D01*
X129042000Y-89430000D02*
X129462000Y-89850000D01*
X129042000Y-87396000D02*
X129042000Y-89430000D01*
D23*
%TO.N,ADXL_SDA*%
X121002000Y-89310000D02*
X120962000Y-89350000D01*
X126502000Y-89310000D02*
X121002000Y-89310000D01*
X117217999Y-65824001D02*
X119988013Y-65824001D01*
X106462000Y-64850008D02*
X106861992Y-65250000D01*
X106861992Y-65250000D02*
X116643998Y-65250000D01*
X116643998Y-65250000D02*
X117217999Y-65824001D01*
D26*
%TO.N,ADXL_SCL*%
X108390000Y-51350000D02*
X106810000Y-49770000D01*
X123462000Y-51350000D02*
X108390000Y-51350000D01*
X124962000Y-52850000D02*
X123462000Y-51350000D01*
X133962000Y-52850000D02*
X124962000Y-52850000D01*
%TO.N,GPIO19*%
X126670000Y-51850000D02*
X128462000Y-51850000D01*
X124590000Y-49770000D02*
X126670000Y-51850000D01*
X129962000Y-61475000D02*
X129987000Y-61500000D01*
X129962000Y-60350000D02*
X129962000Y-61475000D01*
%TO.N,GPIO12*%
X115462000Y-53350000D02*
X112462000Y-53350000D01*
X112462000Y-53350000D02*
X110962000Y-54850000D01*
%TO.N,GPIO23*%
X110850000Y-70350000D02*
X107500000Y-67000000D01*
X126238000Y-67818000D02*
X123706000Y-70350000D01*
X123706000Y-70350000D02*
X110850000Y-70350000D01*
X128732000Y-67818000D02*
X126238000Y-67818000D01*
X129550000Y-67000000D02*
X128732000Y-67818000D01*
X107462000Y-53350000D02*
X95612010Y-53350000D01*
X95612010Y-53350000D02*
X95462000Y-53199990D01*
%TO.N,GPIO18*%
X107188000Y-57404000D02*
X106680000Y-56896000D01*
X119704000Y-57404000D02*
X107188000Y-57404000D01*
X123050000Y-60750000D02*
X119704000Y-57404000D01*
X123050000Y-61500000D02*
X123050000Y-60750000D01*
X105958988Y-53850000D02*
X106679019Y-54570031D01*
X91350000Y-53850000D02*
X105958988Y-53850000D01*
X90250000Y-52750000D02*
X91350000Y-53850000D01*
D25*
%TO.N,/GPIO12-*%
X85462000Y-93912000D02*
X84400000Y-92850000D01*
X85462000Y-96350000D02*
X85462000Y-93912000D01*
X109462000Y-70850000D02*
X108472037Y-70850000D01*
X108472037Y-70850000D02*
X106462000Y-72860037D01*
X106462000Y-72860037D02*
X106462000Y-78850000D01*
X106462000Y-78850000D02*
X103962000Y-81350000D01*
X103962000Y-81350000D02*
X85962000Y-81350000D01*
X85962000Y-81350000D02*
X84400000Y-82912000D01*
X84400000Y-82912000D02*
X84400000Y-92850000D01*
X111000000Y-63500000D02*
X110311998Y-63500000D01*
X110311998Y-63500000D02*
X109711999Y-64099999D01*
D28*
%TO.N,/GPIO12+*%
X82502000Y-83350000D02*
X82502000Y-85890000D01*
X82502000Y-85890000D02*
X82502000Y-88430000D01*
X82502000Y-91948000D02*
X81600000Y-92850000D01*
X82502000Y-88430000D02*
X82502000Y-91948000D01*
X81600000Y-95212000D02*
X80462000Y-96350000D01*
X81600000Y-92850000D02*
X81600000Y-95212000D01*
D25*
%TO.N,/GPIO13-*%
X118364000Y-64262000D02*
X117602000Y-65024000D01*
X118364000Y-63500000D02*
X118364000Y-64262000D01*
X94500000Y-95388000D02*
X95462000Y-96350000D01*
X94500000Y-92850000D02*
X94500000Y-95388000D01*
X95962000Y-92850000D02*
X94500000Y-92850000D01*
X102962000Y-83350000D02*
X102962000Y-91350000D01*
X107462000Y-78850000D02*
X102962000Y-83350000D01*
X107462000Y-72850000D02*
X107462000Y-78850000D01*
X109462000Y-72850000D02*
X107462000Y-72850000D01*
X110462000Y-71850000D02*
X109462000Y-72850000D01*
D28*
%TO.N,/GPIO13+*%
X91002000Y-83350000D02*
X91002000Y-85890000D01*
X91002000Y-85890000D02*
X91002000Y-88430000D01*
X91002000Y-92152000D02*
X91700000Y-92850000D01*
X91002000Y-88430000D02*
X91002000Y-92152000D01*
X91700000Y-95112000D02*
X90462000Y-96350000D01*
X91700000Y-92850000D02*
X91700000Y-95112000D01*
D25*
%TO.N,/GPIO18-*%
X104300000Y-95188000D02*
X105462000Y-96350000D01*
X104300000Y-92850000D02*
X104300000Y-95188000D01*
X120312000Y-63500000D02*
X119962000Y-63850000D01*
X124000000Y-63500000D02*
X120312000Y-63500000D01*
X106962000Y-92850000D02*
X104300000Y-92850000D01*
D28*
%TO.N,/GPIO18+*%
X99502000Y-83350000D02*
X99502000Y-85890000D01*
X99502000Y-85890000D02*
X99502000Y-88430000D01*
X99502000Y-90852000D02*
X101500000Y-92850000D01*
X99502000Y-88430000D02*
X99502000Y-90852000D01*
X101500000Y-95312000D02*
X100462000Y-96350000D01*
X101500000Y-92850000D02*
X101500000Y-95312000D01*
D25*
%TO.N,/GPIO19-*%
X118962000Y-92850000D02*
X114400000Y-92850000D01*
X114400000Y-95288000D02*
X115462000Y-96350000D01*
X114400000Y-92850000D02*
X114400000Y-95288000D01*
X130937000Y-63500000D02*
X129178999Y-65258001D01*
X129178999Y-65258001D02*
X122054011Y-65258001D01*
X122054011Y-65258001D02*
X120462012Y-66850000D01*
D28*
%TO.N,/GPIO19+*%
X108002000Y-83350000D02*
X108002000Y-85890000D01*
X108002000Y-85890000D02*
X108002000Y-88430000D01*
X108002000Y-89252000D02*
X111600000Y-92850000D01*
X108002000Y-88430000D02*
X108002000Y-89252000D01*
X111600000Y-95212000D02*
X110462000Y-96350000D01*
X111600000Y-92850000D02*
X111600000Y-95212000D01*
D25*
%TO.N,/GPIO23-*%
X130500000Y-69000000D02*
X130500000Y-70312000D01*
X130500000Y-70312000D02*
X130462000Y-70350000D01*
X124400000Y-91412000D02*
X124462000Y-91350000D01*
X124400000Y-92850000D02*
X124400000Y-91412000D01*
X124400000Y-95288000D02*
X125462000Y-96350000D01*
X124400000Y-92850000D02*
X124400000Y-95288000D01*
X123162009Y-82950001D02*
X122762010Y-83350000D01*
X127962000Y-82950000D02*
X123162009Y-82950001D01*
D28*
%TO.N,/GPIO23+*%
X116502000Y-83350000D02*
X116502000Y-85890000D01*
X116502000Y-85890000D02*
X116502000Y-88430000D01*
X117180000Y-88430000D02*
X121600000Y-92850000D01*
X116502000Y-88430000D02*
X117180000Y-88430000D01*
X121600000Y-95212000D02*
X120462000Y-96350000D01*
X121600000Y-92850000D02*
X121600000Y-95212000D01*
%TD*%
D29*
%TO.N,GND*%
X134815001Y-95904500D02*
X134506575Y-95442907D01*
X134057093Y-94993425D01*
X133528558Y-94640270D01*
X132941281Y-94397012D01*
X132317832Y-94273000D01*
X131682168Y-94273000D01*
X131058719Y-94397012D01*
X130471442Y-94640270D01*
X129942907Y-94993425D01*
X129493425Y-95442907D01*
X129140270Y-95971442D01*
X128897012Y-96558719D01*
X128773000Y-97182168D01*
X128773000Y-97817832D01*
X128897012Y-98441281D01*
X129140270Y-99028558D01*
X129493425Y-99557093D01*
X129942907Y-100006575D01*
X130404499Y-100315000D01*
X75595501Y-100315000D01*
X76057093Y-100006575D01*
X76506575Y-99557093D01*
X76859730Y-99028558D01*
X77102988Y-98441281D01*
X77227000Y-97817832D01*
X77227000Y-97182168D01*
X77102988Y-96558719D01*
X76859730Y-95971442D01*
X76506575Y-95442907D01*
X76057093Y-94993425D01*
X75528558Y-94640270D01*
X74941281Y-94397012D01*
X74317832Y-94273000D01*
X73682168Y-94273000D01*
X73058719Y-94397012D01*
X72471442Y-94640270D01*
X71942907Y-94993425D01*
X71493425Y-95442907D01*
X71185000Y-95904499D01*
X71185000Y-82533505D01*
X71194222Y-82439453D01*
X71211805Y-82381214D01*
X71240366Y-82327499D01*
X71278816Y-82280354D01*
X71325691Y-82241576D01*
X71379204Y-82212642D01*
X71437323Y-82194651D01*
X71529145Y-82185000D01*
X74533647Y-82185000D01*
X74562955Y-82182113D01*
X74569066Y-82182156D01*
X74578585Y-82181223D01*
X74772682Y-82160822D01*
X74833496Y-82148339D01*
X74894481Y-82136705D01*
X74903637Y-82133941D01*
X75090075Y-82076229D01*
X75147279Y-82052182D01*
X75204873Y-82028913D01*
X75213317Y-82024423D01*
X75384994Y-81931598D01*
X75436468Y-81896878D01*
X75488418Y-81862883D01*
X75495829Y-81856839D01*
X75646207Y-81732435D01*
X75665001Y-81713510D01*
X75665001Y-87344238D01*
X75659509Y-87400000D01*
X75681423Y-87622498D01*
X75746324Y-87836446D01*
X75786585Y-87911768D01*
X75851717Y-88033623D01*
X75993552Y-88206449D01*
X76036860Y-88241991D01*
X77138008Y-89343140D01*
X77173551Y-89386449D01*
X77346377Y-89528284D01*
X77538707Y-89631086D01*
X77543553Y-89633676D01*
X77757501Y-89698577D01*
X77979999Y-89720491D01*
X78035751Y-89715000D01*
X79212209Y-89715000D01*
X79258589Y-89745990D01*
X79528842Y-89857932D01*
X79815740Y-89915000D01*
X80108260Y-89915000D01*
X80395158Y-89857932D01*
X80665411Y-89745990D01*
X80908632Y-89583475D01*
X81115475Y-89376632D01*
X81232000Y-89202240D01*
X81348525Y-89376632D01*
X81467000Y-89495107D01*
X81467001Y-91519288D01*
X81324361Y-91661928D01*
X81050000Y-91661928D01*
X80925518Y-91674188D01*
X80805820Y-91710498D01*
X80695506Y-91769463D01*
X80598815Y-91848815D01*
X80519463Y-91945506D01*
X80460498Y-92055820D01*
X80424188Y-92175518D01*
X80411928Y-92300000D01*
X80411928Y-93400000D01*
X80424188Y-93524482D01*
X80460498Y-93644180D01*
X80519463Y-93754494D01*
X80565000Y-93809982D01*
X80565001Y-94411928D01*
X79162000Y-94411928D01*
X79037518Y-94424188D01*
X78917820Y-94460498D01*
X78807506Y-94519463D01*
X78710815Y-94598815D01*
X78631463Y-94695506D01*
X78572498Y-94805820D01*
X78536188Y-94925518D01*
X78523928Y-95050000D01*
X78523928Y-97650000D01*
X78536188Y-97774482D01*
X78572498Y-97894180D01*
X78631463Y-98004494D01*
X78710815Y-98101185D01*
X78807506Y-98180537D01*
X78917820Y-98239502D01*
X79037518Y-98275812D01*
X79162000Y-98288072D01*
X81762000Y-98288072D01*
X81886482Y-98275812D01*
X82006180Y-98239502D01*
X82116494Y-98180537D01*
X82213185Y-98101185D01*
X82292537Y-98004494D01*
X82351502Y-97894180D01*
X82387812Y-97774482D01*
X82400072Y-97650000D01*
X82400072Y-95868588D01*
X82464734Y-95789798D01*
X82537269Y-95654093D01*
X82560841Y-95609993D01*
X82620024Y-95414895D01*
X82635000Y-95262838D01*
X82635000Y-95262829D01*
X82640006Y-95212001D01*
X82635000Y-95161173D01*
X82635000Y-93809981D01*
X82680537Y-93754494D01*
X82739502Y-93644180D01*
X82775812Y-93524482D01*
X82788072Y-93400000D01*
X82788072Y-93125639D01*
X83197908Y-92715803D01*
X83211928Y-92704297D01*
X83211928Y-93400000D01*
X83224188Y-93524482D01*
X83260498Y-93644180D01*
X83319463Y-93754494D01*
X83398815Y-93851185D01*
X83495506Y-93930537D01*
X83605820Y-93989502D01*
X83725518Y-94025812D01*
X83850000Y-94038072D01*
X84336493Y-94038072D01*
X84577001Y-94278580D01*
X84577001Y-94622150D01*
X84545434Y-94635225D01*
X84228509Y-94846987D01*
X83958987Y-95116509D01*
X83747225Y-95433434D01*
X83601361Y-95785581D01*
X83527000Y-96159419D01*
X83527000Y-96540581D01*
X83601361Y-96914419D01*
X83747225Y-97266566D01*
X83958987Y-97583491D01*
X84228509Y-97853013D01*
X84545434Y-98064775D01*
X84897581Y-98210639D01*
X85271419Y-98285000D01*
X85652581Y-98285000D01*
X86026419Y-98210639D01*
X86378566Y-98064775D01*
X86695491Y-97853013D01*
X86965013Y-97583491D01*
X87176775Y-97266566D01*
X87322639Y-96914419D01*
X87397000Y-96540581D01*
X87397000Y-96159419D01*
X87322639Y-95785581D01*
X87176775Y-95433434D01*
X86965013Y-95116509D01*
X86695491Y-94846987D01*
X86378566Y-94635225D01*
X86347000Y-94622150D01*
X86347000Y-93955469D01*
X86351281Y-93912000D01*
X86347000Y-93868531D01*
X86347000Y-93868523D01*
X86334195Y-93738510D01*
X86283589Y-93571687D01*
X86201411Y-93417941D01*
X86140777Y-93344059D01*
X86118532Y-93316953D01*
X86118530Y-93316951D01*
X86090817Y-93283183D01*
X86057049Y-93255470D01*
X85588072Y-92786493D01*
X85588072Y-92300000D01*
X85575812Y-92175518D01*
X85539502Y-92055820D01*
X85480537Y-91945506D01*
X85401185Y-91848815D01*
X85304494Y-91769463D01*
X85285000Y-91759043D01*
X85285000Y-83278578D01*
X86328579Y-82235000D01*
X87033627Y-82235000D01*
X87022498Y-82255820D01*
X86986188Y-82375518D01*
X86973928Y-82500000D01*
X86973928Y-84200000D01*
X86986188Y-84324482D01*
X87022498Y-84444180D01*
X87081463Y-84554494D01*
X87160815Y-84651185D01*
X87257506Y-84730537D01*
X87367820Y-84789502D01*
X87440380Y-84811513D01*
X87308525Y-84943368D01*
X87146010Y-85186589D01*
X87034068Y-85456842D01*
X86977000Y-85743740D01*
X86977000Y-86036260D01*
X87034068Y-86323158D01*
X87146010Y-86593411D01*
X87308525Y-86836632D01*
X87515368Y-87043475D01*
X87689760Y-87160000D01*
X87515368Y-87276525D01*
X87308525Y-87483368D01*
X87146010Y-87726589D01*
X87034068Y-87996842D01*
X86977000Y-88283740D01*
X86977000Y-88576260D01*
X87034068Y-88863158D01*
X87146010Y-89133411D01*
X87308525Y-89376632D01*
X87515368Y-89583475D01*
X87758589Y-89745990D01*
X88028842Y-89857932D01*
X88315740Y-89915000D01*
X88608260Y-89915000D01*
X88895158Y-89857932D01*
X89165411Y-89745990D01*
X89408632Y-89583475D01*
X89615475Y-89376632D01*
X89732000Y-89202240D01*
X89848525Y-89376632D01*
X89967000Y-89495107D01*
X89967001Y-92101162D01*
X89961994Y-92152000D01*
X89981977Y-92354895D01*
X90041160Y-92549993D01*
X90137266Y-92729797D01*
X90234197Y-92847907D01*
X90266605Y-92887396D01*
X90306092Y-92919802D01*
X90511928Y-93125638D01*
X90511928Y-93400000D01*
X90524188Y-93524482D01*
X90560498Y-93644180D01*
X90619463Y-93754494D01*
X90665000Y-93809982D01*
X90665001Y-94417470D01*
X90652581Y-94415000D01*
X90271419Y-94415000D01*
X89897581Y-94489361D01*
X89545434Y-94635225D01*
X89228509Y-94846987D01*
X88958987Y-95116509D01*
X88747225Y-95433434D01*
X88601361Y-95785581D01*
X88527000Y-96159419D01*
X88527000Y-96540581D01*
X88601361Y-96914419D01*
X88747225Y-97266566D01*
X88958987Y-97583491D01*
X89228509Y-97853013D01*
X89545434Y-98064775D01*
X89897581Y-98210639D01*
X90271419Y-98285000D01*
X90652581Y-98285000D01*
X91026419Y-98210639D01*
X91378566Y-98064775D01*
X91695491Y-97853013D01*
X91965013Y-97583491D01*
X92176775Y-97266566D01*
X92322639Y-96914419D01*
X92397000Y-96540581D01*
X92397000Y-96159419D01*
X92350428Y-95925283D01*
X92395908Y-95879803D01*
X92435396Y-95847396D01*
X92467803Y-95807908D01*
X92564734Y-95689798D01*
X92633315Y-95561490D01*
X92660841Y-95509993D01*
X92720024Y-95314895D01*
X92735000Y-95162838D01*
X92735000Y-95162829D01*
X92740006Y-95112001D01*
X92735000Y-95061173D01*
X92735000Y-93809981D01*
X92780537Y-93754494D01*
X92839502Y-93644180D01*
X92875812Y-93524482D01*
X92888072Y-93400000D01*
X92888072Y-92300000D01*
X93311928Y-92300000D01*
X93311928Y-93400000D01*
X93324188Y-93524482D01*
X93360498Y-93644180D01*
X93419463Y-93754494D01*
X93498815Y-93851185D01*
X93595506Y-93930537D01*
X93615000Y-93940957D01*
X93615001Y-95344521D01*
X93610719Y-95388000D01*
X93627805Y-95561490D01*
X93655866Y-95653993D01*
X93601361Y-95785581D01*
X93527000Y-96159419D01*
X93527000Y-96540581D01*
X93601361Y-96914419D01*
X93747225Y-97266566D01*
X93958987Y-97583491D01*
X94228509Y-97853013D01*
X94545434Y-98064775D01*
X94897581Y-98210639D01*
X95271419Y-98285000D01*
X95652581Y-98285000D01*
X96026419Y-98210639D01*
X96378566Y-98064775D01*
X96695491Y-97853013D01*
X96965013Y-97583491D01*
X97176775Y-97266566D01*
X97322639Y-96914419D01*
X97397000Y-96540581D01*
X97397000Y-96159419D01*
X97322639Y-95785581D01*
X97176775Y-95433434D01*
X96965013Y-95116509D01*
X96695491Y-94846987D01*
X96378566Y-94635225D01*
X96026419Y-94489361D01*
X95652581Y-94415000D01*
X95385000Y-94415000D01*
X95385000Y-93940957D01*
X95404494Y-93930537D01*
X95501185Y-93851185D01*
X95545151Y-93797612D01*
X95660102Y-93845226D01*
X95860061Y-93885000D01*
X96063939Y-93885000D01*
X96263898Y-93845226D01*
X96452256Y-93767205D01*
X96621774Y-93653937D01*
X96765937Y-93509774D01*
X96879205Y-93340256D01*
X96957226Y-93151898D01*
X96997000Y-92951939D01*
X96997000Y-92748061D01*
X96957226Y-92548102D01*
X96879205Y-92359744D01*
X96765937Y-92190226D01*
X96621774Y-92046063D01*
X96452256Y-91932795D01*
X96263898Y-91854774D01*
X96063939Y-91815000D01*
X95860061Y-91815000D01*
X95660102Y-91854774D01*
X95545151Y-91902388D01*
X95501185Y-91848815D01*
X95404494Y-91769463D01*
X95294180Y-91710498D01*
X95174482Y-91674188D01*
X95050000Y-91661928D01*
X93950000Y-91661928D01*
X93825518Y-91674188D01*
X93705820Y-91710498D01*
X93595506Y-91769463D01*
X93498815Y-91848815D01*
X93419463Y-91945506D01*
X93360498Y-92055820D01*
X93324188Y-92175518D01*
X93311928Y-92300000D01*
X92888072Y-92300000D01*
X92875812Y-92175518D01*
X92839502Y-92055820D01*
X92780537Y-91945506D01*
X92701185Y-91848815D01*
X92604494Y-91769463D01*
X92494180Y-91710498D01*
X92374482Y-91674188D01*
X92250000Y-91661928D01*
X92037000Y-91661928D01*
X92037000Y-89495107D01*
X92155475Y-89376632D01*
X92317990Y-89133411D01*
X92429932Y-88863158D01*
X92487000Y-88576260D01*
X92487000Y-88283740D01*
X92429932Y-87996842D01*
X92317990Y-87726589D01*
X92155475Y-87483368D01*
X92037000Y-87364893D01*
X92037000Y-86955107D01*
X92155475Y-86836632D01*
X92317990Y-86593411D01*
X92429932Y-86323158D01*
X92487000Y-86036260D01*
X92487000Y-85743740D01*
X92429932Y-85456842D01*
X92317990Y-85186589D01*
X92155475Y-84943368D01*
X92037000Y-84824893D01*
X92037000Y-84415107D01*
X92155475Y-84296632D01*
X92317990Y-84053411D01*
X92429932Y-83783158D01*
X92487000Y-83496260D01*
X92487000Y-83203740D01*
X92429932Y-82916842D01*
X92317990Y-82646589D01*
X92155475Y-82403368D01*
X91987107Y-82235000D01*
X95533627Y-82235000D01*
X95522498Y-82255820D01*
X95486188Y-82375518D01*
X95473928Y-82500000D01*
X95473928Y-84200000D01*
X95486188Y-84324482D01*
X95522498Y-84444180D01*
X95581463Y-84554494D01*
X95660815Y-84651185D01*
X95757506Y-84730537D01*
X95867820Y-84789502D01*
X95940380Y-84811513D01*
X95808525Y-84943368D01*
X95646010Y-85186589D01*
X95534068Y-85456842D01*
X95477000Y-85743740D01*
X95477000Y-86036260D01*
X95534068Y-86323158D01*
X95646010Y-86593411D01*
X95808525Y-86836632D01*
X96015368Y-87043475D01*
X96189760Y-87160000D01*
X96015368Y-87276525D01*
X95808525Y-87483368D01*
X95646010Y-87726589D01*
X95534068Y-87996842D01*
X95477000Y-88283740D01*
X95477000Y-88576260D01*
X95534068Y-88863158D01*
X95646010Y-89133411D01*
X95808525Y-89376632D01*
X96015368Y-89583475D01*
X96258589Y-89745990D01*
X96528842Y-89857932D01*
X96815740Y-89915000D01*
X97108260Y-89915000D01*
X97395158Y-89857932D01*
X97665411Y-89745990D01*
X97908632Y-89583475D01*
X98115475Y-89376632D01*
X98232000Y-89202240D01*
X98348525Y-89376632D01*
X98467000Y-89495107D01*
X98467001Y-90801162D01*
X98461994Y-90852000D01*
X98481977Y-91054895D01*
X98541160Y-91249993D01*
X98637266Y-91429797D01*
X98734197Y-91547907D01*
X98766605Y-91587396D01*
X98806092Y-91619802D01*
X100311928Y-93125639D01*
X100311928Y-93400000D01*
X100324188Y-93524482D01*
X100360498Y-93644180D01*
X100419463Y-93754494D01*
X100465000Y-93809982D01*
X100465001Y-94415000D01*
X100271419Y-94415000D01*
X99897581Y-94489361D01*
X99545434Y-94635225D01*
X99228509Y-94846987D01*
X98958987Y-95116509D01*
X98747225Y-95433434D01*
X98601361Y-95785581D01*
X98527000Y-96159419D01*
X98527000Y-96540581D01*
X98601361Y-96914419D01*
X98747225Y-97266566D01*
X98958987Y-97583491D01*
X99228509Y-97853013D01*
X99545434Y-98064775D01*
X99897581Y-98210639D01*
X100271419Y-98285000D01*
X100652581Y-98285000D01*
X101026419Y-98210639D01*
X101378566Y-98064775D01*
X101695491Y-97853013D01*
X101965013Y-97583491D01*
X102176775Y-97266566D01*
X102322639Y-96914419D01*
X102397000Y-96540581D01*
X102397000Y-96159419D01*
X102347537Y-95910752D01*
X102364734Y-95889798D01*
X102436809Y-95754953D01*
X102460841Y-95709993D01*
X102520024Y-95514895D01*
X102535000Y-95362838D01*
X102535000Y-95362835D01*
X102540007Y-95312000D01*
X102535000Y-95261165D01*
X102535000Y-93809981D01*
X102580537Y-93754494D01*
X102639502Y-93644180D01*
X102675812Y-93524482D01*
X102688072Y-93400000D01*
X102688072Y-92350790D01*
X102860061Y-92385000D01*
X103063939Y-92385000D01*
X103111928Y-92375454D01*
X103111928Y-93400000D01*
X103124188Y-93524482D01*
X103160498Y-93644180D01*
X103219463Y-93754494D01*
X103298815Y-93851185D01*
X103395506Y-93930537D01*
X103415000Y-93940957D01*
X103415001Y-95144521D01*
X103410719Y-95188000D01*
X103427805Y-95361490D01*
X103478412Y-95528313D01*
X103560590Y-95682059D01*
X103616183Y-95749799D01*
X103601361Y-95785581D01*
X103527000Y-96159419D01*
X103527000Y-96540581D01*
X103601361Y-96914419D01*
X103747225Y-97266566D01*
X103958987Y-97583491D01*
X104228509Y-97853013D01*
X104545434Y-98064775D01*
X104897581Y-98210639D01*
X105271419Y-98285000D01*
X105652581Y-98285000D01*
X106026419Y-98210639D01*
X106378566Y-98064775D01*
X106695491Y-97853013D01*
X106965013Y-97583491D01*
X107176775Y-97266566D01*
X107322639Y-96914419D01*
X107397000Y-96540581D01*
X107397000Y-96159419D01*
X107322639Y-95785581D01*
X107176775Y-95433434D01*
X106965013Y-95116509D01*
X106695491Y-94846987D01*
X106378566Y-94635225D01*
X106026419Y-94489361D01*
X105652581Y-94415000D01*
X105271419Y-94415000D01*
X105185000Y-94432190D01*
X105185000Y-93940957D01*
X105204494Y-93930537D01*
X105301185Y-93851185D01*
X105380537Y-93754494D01*
X105390957Y-93735000D01*
X106423546Y-93735000D01*
X106471744Y-93767205D01*
X106660102Y-93845226D01*
X106860061Y-93885000D01*
X107063939Y-93885000D01*
X107263898Y-93845226D01*
X107452256Y-93767205D01*
X107621774Y-93653937D01*
X107765937Y-93509774D01*
X107879205Y-93340256D01*
X107957226Y-93151898D01*
X107997000Y-92951939D01*
X107997000Y-92748061D01*
X107957226Y-92548102D01*
X107879205Y-92359744D01*
X107765937Y-92190226D01*
X107621774Y-92046063D01*
X107452256Y-91932795D01*
X107263898Y-91854774D01*
X107063939Y-91815000D01*
X106860061Y-91815000D01*
X106660102Y-91854774D01*
X106471744Y-91932795D01*
X106423546Y-91965000D01*
X105390957Y-91965000D01*
X105380537Y-91945506D01*
X105301185Y-91848815D01*
X105204494Y-91769463D01*
X105094180Y-91710498D01*
X104974482Y-91674188D01*
X104850000Y-91661928D01*
X103953071Y-91661928D01*
X103957226Y-91651898D01*
X103997000Y-91451939D01*
X103997000Y-91248061D01*
X103957226Y-91048102D01*
X103879205Y-90859744D01*
X103847000Y-90811546D01*
X103847000Y-83716578D01*
X103973928Y-83589650D01*
X103973928Y-84200000D01*
X103986188Y-84324482D01*
X104022498Y-84444180D01*
X104081463Y-84554494D01*
X104160815Y-84651185D01*
X104257506Y-84730537D01*
X104367820Y-84789502D01*
X104440380Y-84811513D01*
X104308525Y-84943368D01*
X104146010Y-85186589D01*
X104034068Y-85456842D01*
X103977000Y-85743740D01*
X103977000Y-86036260D01*
X104034068Y-86323158D01*
X104146010Y-86593411D01*
X104308525Y-86836632D01*
X104515368Y-87043475D01*
X104689760Y-87160000D01*
X104515368Y-87276525D01*
X104308525Y-87483368D01*
X104146010Y-87726589D01*
X104034068Y-87996842D01*
X103977000Y-88283740D01*
X103977000Y-88576260D01*
X104034068Y-88863158D01*
X104146010Y-89133411D01*
X104308525Y-89376632D01*
X104515368Y-89583475D01*
X104758589Y-89745990D01*
X105028842Y-89857932D01*
X105315740Y-89915000D01*
X105608260Y-89915000D01*
X105895158Y-89857932D01*
X106165411Y-89745990D01*
X106408632Y-89583475D01*
X106615475Y-89376632D01*
X106732000Y-89202240D01*
X106848525Y-89376632D01*
X107006009Y-89534116D01*
X107041160Y-89649993D01*
X107137266Y-89829797D01*
X107199828Y-89906028D01*
X107266605Y-89987396D01*
X107306092Y-90019802D01*
X110411928Y-93125639D01*
X110411928Y-93400000D01*
X110424188Y-93524482D01*
X110460498Y-93644180D01*
X110519463Y-93754494D01*
X110565000Y-93809982D01*
X110565001Y-94415000D01*
X110271419Y-94415000D01*
X109897581Y-94489361D01*
X109545434Y-94635225D01*
X109228509Y-94846987D01*
X108958987Y-95116509D01*
X108747225Y-95433434D01*
X108601361Y-95785581D01*
X108527000Y-96159419D01*
X108527000Y-96540581D01*
X108601361Y-96914419D01*
X108747225Y-97266566D01*
X108958987Y-97583491D01*
X109228509Y-97853013D01*
X109545434Y-98064775D01*
X109897581Y-98210639D01*
X110271419Y-98285000D01*
X110652581Y-98285000D01*
X111026419Y-98210639D01*
X111378566Y-98064775D01*
X111695491Y-97853013D01*
X111965013Y-97583491D01*
X112176775Y-97266566D01*
X112322639Y-96914419D01*
X112397000Y-96540581D01*
X112397000Y-96159419D01*
X112351035Y-95928339D01*
X112367803Y-95907908D01*
X112464734Y-95789798D01*
X112537269Y-95654093D01*
X112560841Y-95609993D01*
X112620024Y-95414895D01*
X112635000Y-95262838D01*
X112635000Y-95262829D01*
X112640006Y-95212001D01*
X112635000Y-95161173D01*
X112635000Y-93809981D01*
X112680537Y-93754494D01*
X112739502Y-93644180D01*
X112775812Y-93524482D01*
X112788072Y-93400000D01*
X112788072Y-92300000D01*
X112775812Y-92175518D01*
X112739502Y-92055820D01*
X112680537Y-91945506D01*
X112601185Y-91848815D01*
X112504494Y-91769463D01*
X112394180Y-91710498D01*
X112274482Y-91674188D01*
X112150000Y-91661928D01*
X111875639Y-91661928D01*
X109326522Y-89112812D01*
X109429932Y-88863158D01*
X109487000Y-88576260D01*
X109487000Y-88283740D01*
X109429932Y-87996842D01*
X109317990Y-87726589D01*
X109155475Y-87483368D01*
X109037000Y-87364893D01*
X109037000Y-86955107D01*
X109155475Y-86836632D01*
X109317990Y-86593411D01*
X109429932Y-86323158D01*
X109487000Y-86036260D01*
X109487000Y-85743740D01*
X109429932Y-85456842D01*
X109317990Y-85186589D01*
X109155475Y-84943368D01*
X109037000Y-84824893D01*
X109037000Y-84415107D01*
X109155475Y-84296632D01*
X109317990Y-84053411D01*
X109429932Y-83783158D01*
X109487000Y-83496260D01*
X109487000Y-83203740D01*
X109429932Y-82916842D01*
X109317990Y-82646589D01*
X109220043Y-82500000D01*
X112473928Y-82500000D01*
X112473928Y-84200000D01*
X112486188Y-84324482D01*
X112522498Y-84444180D01*
X112581463Y-84554494D01*
X112660815Y-84651185D01*
X112757506Y-84730537D01*
X112867820Y-84789502D01*
X112940380Y-84811513D01*
X112808525Y-84943368D01*
X112646010Y-85186589D01*
X112534068Y-85456842D01*
X112477000Y-85743740D01*
X112477000Y-86036260D01*
X112534068Y-86323158D01*
X112646010Y-86593411D01*
X112808525Y-86836632D01*
X113015368Y-87043475D01*
X113189760Y-87160000D01*
X113015368Y-87276525D01*
X112808525Y-87483368D01*
X112646010Y-87726589D01*
X112534068Y-87996842D01*
X112477000Y-88283740D01*
X112477000Y-88576260D01*
X112534068Y-88863158D01*
X112646010Y-89133411D01*
X112808525Y-89376632D01*
X113015368Y-89583475D01*
X113258589Y-89745990D01*
X113528842Y-89857932D01*
X113815740Y-89915000D01*
X114108260Y-89915000D01*
X114395158Y-89857932D01*
X114665411Y-89745990D01*
X114908632Y-89583475D01*
X115115475Y-89376632D01*
X115232000Y-89202240D01*
X115348525Y-89376632D01*
X115555368Y-89583475D01*
X115798589Y-89745990D01*
X116068842Y-89857932D01*
X116355740Y-89915000D01*
X116648260Y-89915000D01*
X116935158Y-89857932D01*
X117082989Y-89796699D01*
X119110564Y-91824274D01*
X119063939Y-91815000D01*
X118860061Y-91815000D01*
X118660102Y-91854774D01*
X118471744Y-91932795D01*
X118423546Y-91965000D01*
X115490957Y-91965000D01*
X115480537Y-91945506D01*
X115401185Y-91848815D01*
X115304494Y-91769463D01*
X115194180Y-91710498D01*
X115074482Y-91674188D01*
X114950000Y-91661928D01*
X113850000Y-91661928D01*
X113725518Y-91674188D01*
X113605820Y-91710498D01*
X113495506Y-91769463D01*
X113398815Y-91848815D01*
X113319463Y-91945506D01*
X113260498Y-92055820D01*
X113224188Y-92175518D01*
X113211928Y-92300000D01*
X113211928Y-93400000D01*
X113224188Y-93524482D01*
X113260498Y-93644180D01*
X113319463Y-93754494D01*
X113398815Y-93851185D01*
X113495506Y-93930537D01*
X113515000Y-93940957D01*
X113515001Y-95244521D01*
X113510719Y-95288000D01*
X113527805Y-95461490D01*
X113578412Y-95628313D01*
X113628042Y-95721166D01*
X113601361Y-95785581D01*
X113527000Y-96159419D01*
X113527000Y-96540581D01*
X113601361Y-96914419D01*
X113747225Y-97266566D01*
X113958987Y-97583491D01*
X114228509Y-97853013D01*
X114545434Y-98064775D01*
X114897581Y-98210639D01*
X115271419Y-98285000D01*
X115652581Y-98285000D01*
X116026419Y-98210639D01*
X116378566Y-98064775D01*
X116695491Y-97853013D01*
X116965013Y-97583491D01*
X117176775Y-97266566D01*
X117322639Y-96914419D01*
X117397000Y-96540581D01*
X117397000Y-96159419D01*
X117322639Y-95785581D01*
X117176775Y-95433434D01*
X116965013Y-95116509D01*
X116695491Y-94846987D01*
X116378566Y-94635225D01*
X116026419Y-94489361D01*
X115652581Y-94415000D01*
X115285000Y-94415000D01*
X115285000Y-93940957D01*
X115304494Y-93930537D01*
X115401185Y-93851185D01*
X115480537Y-93754494D01*
X115490957Y-93735000D01*
X118423546Y-93735000D01*
X118471744Y-93767205D01*
X118660102Y-93845226D01*
X118860061Y-93885000D01*
X119063939Y-93885000D01*
X119263898Y-93845226D01*
X119452256Y-93767205D01*
X119621774Y-93653937D01*
X119765937Y-93509774D01*
X119879205Y-93340256D01*
X119957226Y-93151898D01*
X119997000Y-92951939D01*
X119997000Y-92748061D01*
X119987726Y-92701437D01*
X120411928Y-93125639D01*
X120411928Y-93400000D01*
X120424188Y-93524482D01*
X120460498Y-93644180D01*
X120519463Y-93754494D01*
X120565000Y-93809982D01*
X120565001Y-94415000D01*
X120271419Y-94415000D01*
X119897581Y-94489361D01*
X119545434Y-94635225D01*
X119228509Y-94846987D01*
X118958987Y-95116509D01*
X118747225Y-95433434D01*
X118601361Y-95785581D01*
X118527000Y-96159419D01*
X118527000Y-96540581D01*
X118601361Y-96914419D01*
X118747225Y-97266566D01*
X118958987Y-97583491D01*
X119228509Y-97853013D01*
X119545434Y-98064775D01*
X119897581Y-98210639D01*
X120271419Y-98285000D01*
X120652581Y-98285000D01*
X121026419Y-98210639D01*
X121378566Y-98064775D01*
X121695491Y-97853013D01*
X121965013Y-97583491D01*
X122176775Y-97266566D01*
X122322639Y-96914419D01*
X122397000Y-96540581D01*
X122397000Y-96159419D01*
X122351035Y-95928339D01*
X122367803Y-95907908D01*
X122464734Y-95789798D01*
X122537269Y-95654093D01*
X122560841Y-95609993D01*
X122620024Y-95414895D01*
X122635000Y-95262838D01*
X122635000Y-95262829D01*
X122640006Y-95212001D01*
X122635000Y-95161173D01*
X122635000Y-93809981D01*
X122680537Y-93754494D01*
X122739502Y-93644180D01*
X122775812Y-93524482D01*
X122788072Y-93400000D01*
X122788072Y-92300000D01*
X123211928Y-92300000D01*
X123211928Y-93400000D01*
X123224188Y-93524482D01*
X123260498Y-93644180D01*
X123319463Y-93754494D01*
X123398815Y-93851185D01*
X123495506Y-93930537D01*
X123515000Y-93940957D01*
X123515001Y-95244521D01*
X123510719Y-95288000D01*
X123527805Y-95461490D01*
X123578412Y-95628313D01*
X123628042Y-95721166D01*
X123601361Y-95785581D01*
X123527000Y-96159419D01*
X123527000Y-96540581D01*
X123601361Y-96914419D01*
X123747225Y-97266566D01*
X123958987Y-97583491D01*
X124228509Y-97853013D01*
X124545434Y-98064775D01*
X124897581Y-98210639D01*
X125271419Y-98285000D01*
X125652581Y-98285000D01*
X126026419Y-98210639D01*
X126378566Y-98064775D01*
X126695491Y-97853013D01*
X126965013Y-97583491D01*
X127176775Y-97266566D01*
X127322639Y-96914419D01*
X127397000Y-96540581D01*
X127397000Y-96159419D01*
X127322639Y-95785581D01*
X127176775Y-95433434D01*
X126965013Y-95116509D01*
X126695491Y-94846987D01*
X126378566Y-94635225D01*
X126026419Y-94489361D01*
X125652581Y-94415000D01*
X125285000Y-94415000D01*
X125285000Y-93940957D01*
X125304494Y-93930537D01*
X125401185Y-93851185D01*
X125480537Y-93754494D01*
X125539502Y-93644180D01*
X125575812Y-93524482D01*
X125588072Y-93400000D01*
X125588072Y-92300000D01*
X125575812Y-92175518D01*
X125539502Y-92055820D01*
X125480537Y-91945506D01*
X125401185Y-91848815D01*
X125382135Y-91833181D01*
X125457226Y-91651898D01*
X125497000Y-91451939D01*
X125497000Y-91248061D01*
X125457226Y-91048102D01*
X125379205Y-90859744D01*
X125265937Y-90690226D01*
X125121774Y-90546063D01*
X124952256Y-90432795D01*
X124763898Y-90354774D01*
X124563939Y-90315000D01*
X124360061Y-90315000D01*
X124160102Y-90354774D01*
X123971744Y-90432795D01*
X123802226Y-90546063D01*
X123658063Y-90690226D01*
X123544795Y-90859744D01*
X123466774Y-91048102D01*
X123427000Y-91248061D01*
X123427000Y-91451939D01*
X123466774Y-91651898D01*
X123511852Y-91760726D01*
X123495506Y-91769463D01*
X123398815Y-91848815D01*
X123319463Y-91945506D01*
X123260498Y-92055820D01*
X123224188Y-92175518D01*
X123211928Y-92300000D01*
X122788072Y-92300000D01*
X122775812Y-92175518D01*
X122739502Y-92055820D01*
X122680537Y-91945506D01*
X122601185Y-91848815D01*
X122504494Y-91769463D01*
X122394180Y-91710498D01*
X122274482Y-91674188D01*
X122150000Y-91661928D01*
X121875639Y-91661928D01*
X117947807Y-87734097D01*
X117915396Y-87694604D01*
X117757797Y-87565266D01*
X117683753Y-87525689D01*
X117655475Y-87483368D01*
X117537000Y-87364893D01*
X117537000Y-86955107D01*
X117655475Y-86836632D01*
X117817990Y-86593411D01*
X117929932Y-86323158D01*
X117987000Y-86036260D01*
X117987000Y-85743740D01*
X117929932Y-85456842D01*
X117817990Y-85186589D01*
X117655475Y-84943368D01*
X117537000Y-84824893D01*
X117537000Y-84415107D01*
X117655475Y-84296632D01*
X117660609Y-84288948D01*
X117627000Y-84457911D01*
X117627000Y-84642089D01*
X117662932Y-84822729D01*
X117733414Y-84992889D01*
X117835738Y-85146028D01*
X117965972Y-85276262D01*
X118119111Y-85378586D01*
X118289271Y-85449068D01*
X118469911Y-85485000D01*
X118654089Y-85485000D01*
X118834729Y-85449068D01*
X119004889Y-85378586D01*
X119158028Y-85276262D01*
X119288262Y-85146028D01*
X119390586Y-84992889D01*
X119461068Y-84822729D01*
X119497000Y-84642089D01*
X119497000Y-84457911D01*
X119461068Y-84277271D01*
X119390586Y-84107111D01*
X119288262Y-83953972D01*
X119158028Y-83823738D01*
X119004889Y-83721414D01*
X118834729Y-83650932D01*
X118654089Y-83615000D01*
X118469911Y-83615000D01*
X118289271Y-83650932D01*
X118119111Y-83721414D01*
X117965972Y-83823738D01*
X117875754Y-83913956D01*
X117929932Y-83783158D01*
X117987000Y-83496260D01*
X117987000Y-83203740D01*
X117929932Y-82916842D01*
X117817990Y-82646589D01*
X117655475Y-82403368D01*
X117448632Y-82196525D01*
X117205411Y-82034010D01*
X116935158Y-81922068D01*
X116648260Y-81865000D01*
X116355740Y-81865000D01*
X116068842Y-81922068D01*
X115798589Y-82034010D01*
X115555368Y-82196525D01*
X115423513Y-82328380D01*
X115401502Y-82255820D01*
X115342537Y-82145506D01*
X115263185Y-82048815D01*
X115166494Y-81969463D01*
X115056180Y-81910498D01*
X114936482Y-81874188D01*
X114812000Y-81861928D01*
X113112000Y-81861928D01*
X112987518Y-81874188D01*
X112867820Y-81910498D01*
X112757506Y-81969463D01*
X112660815Y-82048815D01*
X112581463Y-82145506D01*
X112522498Y-82255820D01*
X112486188Y-82375518D01*
X112473928Y-82500000D01*
X109220043Y-82500000D01*
X109155475Y-82403368D01*
X108948632Y-82196525D01*
X108705411Y-82034010D01*
X108435158Y-81922068D01*
X108148260Y-81865000D01*
X107855740Y-81865000D01*
X107568842Y-81922068D01*
X107298589Y-82034010D01*
X107055368Y-82196525D01*
X106923513Y-82328380D01*
X106901502Y-82255820D01*
X106842537Y-82145506D01*
X106763185Y-82048815D01*
X106666494Y-81969463D01*
X106556180Y-81910498D01*
X106436482Y-81874188D01*
X106312000Y-81861928D01*
X105701650Y-81861928D01*
X107617113Y-79946466D01*
X107562932Y-80077271D01*
X107527000Y-80257911D01*
X107527000Y-80442089D01*
X107562932Y-80622729D01*
X107633414Y-80792889D01*
X107735738Y-80946028D01*
X107865972Y-81076262D01*
X108019111Y-81178586D01*
X108173787Y-81242654D01*
X108342558Y-81411426D01*
X108368709Y-81443291D01*
X108495854Y-81547636D01*
X108640913Y-81625172D01*
X108798311Y-81672918D01*
X108920981Y-81685000D01*
X108920982Y-81685000D01*
X108962000Y-81689040D01*
X109003018Y-81685000D01*
X123541503Y-81685000D01*
X123527000Y-81757911D01*
X123527000Y-81942089D01*
X123551449Y-82065002D01*
X123205484Y-82065002D01*
X123162008Y-82060720D01*
X122988518Y-82077807D01*
X122821695Y-82128413D01*
X122667950Y-82210591D01*
X122566963Y-82293469D01*
X122566960Y-82293472D01*
X122533192Y-82321185D01*
X122514505Y-82343955D01*
X122460112Y-82354774D01*
X122271754Y-82432795D01*
X122102236Y-82546063D01*
X121958073Y-82690226D01*
X121844805Y-82859744D01*
X121766784Y-83048102D01*
X121727010Y-83248061D01*
X121727010Y-83451939D01*
X121766784Y-83651898D01*
X121844805Y-83840256D01*
X121958073Y-84009774D01*
X122102236Y-84153937D01*
X122271754Y-84267205D01*
X122460112Y-84345226D01*
X122558141Y-84364725D01*
X122534068Y-84422842D01*
X122477000Y-84709740D01*
X122477000Y-85002260D01*
X122534068Y-85289158D01*
X122646010Y-85559411D01*
X122808525Y-85802632D01*
X122940380Y-85934487D01*
X122867820Y-85956498D01*
X122757506Y-86015463D01*
X122660815Y-86094815D01*
X122581463Y-86191506D01*
X122522498Y-86301820D01*
X122486188Y-86421518D01*
X122473928Y-86546000D01*
X122473928Y-88246000D01*
X122486188Y-88370482D01*
X122517893Y-88475000D01*
X121292835Y-88475000D01*
X121234729Y-88450932D01*
X121054089Y-88415000D01*
X120869911Y-88415000D01*
X120689271Y-88450932D01*
X120519111Y-88521414D01*
X120365972Y-88623738D01*
X120235738Y-88753972D01*
X120133414Y-88907111D01*
X120062932Y-89077271D01*
X120027000Y-89257911D01*
X120027000Y-89442089D01*
X120062932Y-89622729D01*
X120133414Y-89792889D01*
X120235738Y-89946028D01*
X120365972Y-90076262D01*
X120519111Y-90178586D01*
X120689271Y-90249068D01*
X120869911Y-90285000D01*
X121054089Y-90285000D01*
X121234729Y-90249068D01*
X121404889Y-90178586D01*
X121455154Y-90145000D01*
X126074596Y-90145000D01*
X126229271Y-90209068D01*
X126409911Y-90245000D01*
X126594089Y-90245000D01*
X126774729Y-90209068D01*
X126944889Y-90138586D01*
X127098028Y-90036262D01*
X127228262Y-89906028D01*
X127330586Y-89752889D01*
X127401068Y-89582729D01*
X127437000Y-89402089D01*
X127437000Y-89217911D01*
X127401068Y-89037271D01*
X127330586Y-88867111D01*
X127228262Y-88713972D01*
X127217921Y-88703631D01*
X127448632Y-88549475D01*
X127655475Y-88342632D01*
X127772000Y-88168240D01*
X127888525Y-88342632D01*
X128095368Y-88549475D01*
X128257001Y-88657474D01*
X128257001Y-89391437D01*
X128253203Y-89430000D01*
X128268359Y-89583886D01*
X128313246Y-89731859D01*
X128324487Y-89752889D01*
X128386139Y-89868233D01*
X128404955Y-89891160D01*
X128459655Y-89957812D01*
X128459659Y-89957816D01*
X128484237Y-89987764D01*
X128514186Y-90012343D01*
X128879649Y-90377805D01*
X128904236Y-90407764D01*
X129023767Y-90505862D01*
X129160140Y-90578754D01*
X129308113Y-90623642D01*
X129383026Y-90631020D01*
X129423439Y-90635000D01*
X129423444Y-90635000D01*
X129462000Y-90638797D01*
X129500556Y-90635000D01*
X132423447Y-90635000D01*
X132462000Y-90638797D01*
X132500553Y-90635000D01*
X132500561Y-90635000D01*
X132615887Y-90623641D01*
X132763860Y-90578754D01*
X132900233Y-90505862D01*
X133019764Y-90407764D01*
X133044347Y-90377810D01*
X134489817Y-88932341D01*
X134519764Y-88907764D01*
X134549270Y-88871812D01*
X134569095Y-88847655D01*
X134617862Y-88788233D01*
X134690754Y-88651860D01*
X134731185Y-88518577D01*
X134735641Y-88503888D01*
X134738884Y-88470960D01*
X134747000Y-88388561D01*
X134747000Y-88388554D01*
X134750797Y-88350001D01*
X134747000Y-88311448D01*
X134747000Y-54116562D01*
X134750798Y-54078001D01*
X134735641Y-53924114D01*
X134690754Y-53776141D01*
X134617862Y-53639768D01*
X134562266Y-53572024D01*
X134688262Y-53446028D01*
X134790586Y-53292889D01*
X134815000Y-53233948D01*
X134815001Y-95904500D01*
%TA.AperFunction,Conductor*%
D30*
G36*
X134815001Y-95904500D02*
G01*
X134506575Y-95442907D01*
X134057093Y-94993425D01*
X133528558Y-94640270D01*
X132941281Y-94397012D01*
X132317832Y-94273000D01*
X131682168Y-94273000D01*
X131058719Y-94397012D01*
X130471442Y-94640270D01*
X129942907Y-94993425D01*
X129493425Y-95442907D01*
X129140270Y-95971442D01*
X128897012Y-96558719D01*
X128773000Y-97182168D01*
X128773000Y-97817832D01*
X128897012Y-98441281D01*
X129140270Y-99028558D01*
X129493425Y-99557093D01*
X129942907Y-100006575D01*
X130404499Y-100315000D01*
X75595501Y-100315000D01*
X76057093Y-100006575D01*
X76506575Y-99557093D01*
X76859730Y-99028558D01*
X77102988Y-98441281D01*
X77227000Y-97817832D01*
X77227000Y-97182168D01*
X77102988Y-96558719D01*
X76859730Y-95971442D01*
X76506575Y-95442907D01*
X76057093Y-94993425D01*
X75528558Y-94640270D01*
X74941281Y-94397012D01*
X74317832Y-94273000D01*
X73682168Y-94273000D01*
X73058719Y-94397012D01*
X72471442Y-94640270D01*
X71942907Y-94993425D01*
X71493425Y-95442907D01*
X71185000Y-95904499D01*
X71185000Y-82533505D01*
X71194222Y-82439453D01*
X71211805Y-82381214D01*
X71240366Y-82327499D01*
X71278816Y-82280354D01*
X71325691Y-82241576D01*
X71379204Y-82212642D01*
X71437323Y-82194651D01*
X71529145Y-82185000D01*
X74533647Y-82185000D01*
X74562955Y-82182113D01*
X74569066Y-82182156D01*
X74578585Y-82181223D01*
X74772682Y-82160822D01*
X74833496Y-82148339D01*
X74894481Y-82136705D01*
X74903637Y-82133941D01*
X75090075Y-82076229D01*
X75147279Y-82052182D01*
X75204873Y-82028913D01*
X75213317Y-82024423D01*
X75384994Y-81931598D01*
X75436468Y-81896878D01*
X75488418Y-81862883D01*
X75495829Y-81856839D01*
X75646207Y-81732435D01*
X75665001Y-81713510D01*
X75665001Y-87344238D01*
X75659509Y-87400000D01*
X75681423Y-87622498D01*
X75746324Y-87836446D01*
X75786585Y-87911768D01*
X75851717Y-88033623D01*
X75993552Y-88206449D01*
X76036860Y-88241991D01*
X77138008Y-89343140D01*
X77173551Y-89386449D01*
X77346377Y-89528284D01*
X77538707Y-89631086D01*
X77543553Y-89633676D01*
X77757501Y-89698577D01*
X77979999Y-89720491D01*
X78035751Y-89715000D01*
X79212209Y-89715000D01*
X79258589Y-89745990D01*
X79528842Y-89857932D01*
X79815740Y-89915000D01*
X80108260Y-89915000D01*
X80395158Y-89857932D01*
X80665411Y-89745990D01*
X80908632Y-89583475D01*
X81115475Y-89376632D01*
X81232000Y-89202240D01*
X81348525Y-89376632D01*
X81467000Y-89495107D01*
X81467001Y-91519288D01*
X81324361Y-91661928D01*
X81050000Y-91661928D01*
X80925518Y-91674188D01*
X80805820Y-91710498D01*
X80695506Y-91769463D01*
X80598815Y-91848815D01*
X80519463Y-91945506D01*
X80460498Y-92055820D01*
X80424188Y-92175518D01*
X80411928Y-92300000D01*
X80411928Y-93400000D01*
X80424188Y-93524482D01*
X80460498Y-93644180D01*
X80519463Y-93754494D01*
X80565000Y-93809982D01*
X80565001Y-94411928D01*
X79162000Y-94411928D01*
X79037518Y-94424188D01*
X78917820Y-94460498D01*
X78807506Y-94519463D01*
X78710815Y-94598815D01*
X78631463Y-94695506D01*
X78572498Y-94805820D01*
X78536188Y-94925518D01*
X78523928Y-95050000D01*
X78523928Y-97650000D01*
X78536188Y-97774482D01*
X78572498Y-97894180D01*
X78631463Y-98004494D01*
X78710815Y-98101185D01*
X78807506Y-98180537D01*
X78917820Y-98239502D01*
X79037518Y-98275812D01*
X79162000Y-98288072D01*
X81762000Y-98288072D01*
X81886482Y-98275812D01*
X82006180Y-98239502D01*
X82116494Y-98180537D01*
X82213185Y-98101185D01*
X82292537Y-98004494D01*
X82351502Y-97894180D01*
X82387812Y-97774482D01*
X82400072Y-97650000D01*
X82400072Y-95868588D01*
X82464734Y-95789798D01*
X82537269Y-95654093D01*
X82560841Y-95609993D01*
X82620024Y-95414895D01*
X82635000Y-95262838D01*
X82635000Y-95262829D01*
X82640006Y-95212001D01*
X82635000Y-95161173D01*
X82635000Y-93809981D01*
X82680537Y-93754494D01*
X82739502Y-93644180D01*
X82775812Y-93524482D01*
X82788072Y-93400000D01*
X82788072Y-93125639D01*
X83197908Y-92715803D01*
X83211928Y-92704297D01*
X83211928Y-93400000D01*
X83224188Y-93524482D01*
X83260498Y-93644180D01*
X83319463Y-93754494D01*
X83398815Y-93851185D01*
X83495506Y-93930537D01*
X83605820Y-93989502D01*
X83725518Y-94025812D01*
X83850000Y-94038072D01*
X84336493Y-94038072D01*
X84577001Y-94278580D01*
X84577001Y-94622150D01*
X84545434Y-94635225D01*
X84228509Y-94846987D01*
X83958987Y-95116509D01*
X83747225Y-95433434D01*
X83601361Y-95785581D01*
X83527000Y-96159419D01*
X83527000Y-96540581D01*
X83601361Y-96914419D01*
X83747225Y-97266566D01*
X83958987Y-97583491D01*
X84228509Y-97853013D01*
X84545434Y-98064775D01*
X84897581Y-98210639D01*
X85271419Y-98285000D01*
X85652581Y-98285000D01*
X86026419Y-98210639D01*
X86378566Y-98064775D01*
X86695491Y-97853013D01*
X86965013Y-97583491D01*
X87176775Y-97266566D01*
X87322639Y-96914419D01*
X87397000Y-96540581D01*
X87397000Y-96159419D01*
X87322639Y-95785581D01*
X87176775Y-95433434D01*
X86965013Y-95116509D01*
X86695491Y-94846987D01*
X86378566Y-94635225D01*
X86347000Y-94622150D01*
X86347000Y-93955469D01*
X86351281Y-93912000D01*
X86347000Y-93868531D01*
X86347000Y-93868523D01*
X86334195Y-93738510D01*
X86283589Y-93571687D01*
X86201411Y-93417941D01*
X86140777Y-93344059D01*
X86118532Y-93316953D01*
X86118530Y-93316951D01*
X86090817Y-93283183D01*
X86057049Y-93255470D01*
X85588072Y-92786493D01*
X85588072Y-92300000D01*
X85575812Y-92175518D01*
X85539502Y-92055820D01*
X85480537Y-91945506D01*
X85401185Y-91848815D01*
X85304494Y-91769463D01*
X85285000Y-91759043D01*
X85285000Y-83278578D01*
X86328579Y-82235000D01*
X87033627Y-82235000D01*
X87022498Y-82255820D01*
X86986188Y-82375518D01*
X86973928Y-82500000D01*
X86973928Y-84200000D01*
X86986188Y-84324482D01*
X87022498Y-84444180D01*
X87081463Y-84554494D01*
X87160815Y-84651185D01*
X87257506Y-84730537D01*
X87367820Y-84789502D01*
X87440380Y-84811513D01*
X87308525Y-84943368D01*
X87146010Y-85186589D01*
X87034068Y-85456842D01*
X86977000Y-85743740D01*
X86977000Y-86036260D01*
X87034068Y-86323158D01*
X87146010Y-86593411D01*
X87308525Y-86836632D01*
X87515368Y-87043475D01*
X87689760Y-87160000D01*
X87515368Y-87276525D01*
X87308525Y-87483368D01*
X87146010Y-87726589D01*
X87034068Y-87996842D01*
X86977000Y-88283740D01*
X86977000Y-88576260D01*
X87034068Y-88863158D01*
X87146010Y-89133411D01*
X87308525Y-89376632D01*
X87515368Y-89583475D01*
X87758589Y-89745990D01*
X88028842Y-89857932D01*
X88315740Y-89915000D01*
X88608260Y-89915000D01*
X88895158Y-89857932D01*
X89165411Y-89745990D01*
X89408632Y-89583475D01*
X89615475Y-89376632D01*
X89732000Y-89202240D01*
X89848525Y-89376632D01*
X89967000Y-89495107D01*
X89967001Y-92101162D01*
X89961994Y-92152000D01*
X89981977Y-92354895D01*
X90041160Y-92549993D01*
X90137266Y-92729797D01*
X90234197Y-92847907D01*
X90266605Y-92887396D01*
X90306092Y-92919802D01*
X90511928Y-93125638D01*
X90511928Y-93400000D01*
X90524188Y-93524482D01*
X90560498Y-93644180D01*
X90619463Y-93754494D01*
X90665000Y-93809982D01*
X90665001Y-94417470D01*
X90652581Y-94415000D01*
X90271419Y-94415000D01*
X89897581Y-94489361D01*
X89545434Y-94635225D01*
X89228509Y-94846987D01*
X88958987Y-95116509D01*
X88747225Y-95433434D01*
X88601361Y-95785581D01*
X88527000Y-96159419D01*
X88527000Y-96540581D01*
X88601361Y-96914419D01*
X88747225Y-97266566D01*
X88958987Y-97583491D01*
X89228509Y-97853013D01*
X89545434Y-98064775D01*
X89897581Y-98210639D01*
X90271419Y-98285000D01*
X90652581Y-98285000D01*
X91026419Y-98210639D01*
X91378566Y-98064775D01*
X91695491Y-97853013D01*
X91965013Y-97583491D01*
X92176775Y-97266566D01*
X92322639Y-96914419D01*
X92397000Y-96540581D01*
X92397000Y-96159419D01*
X92350428Y-95925283D01*
X92395908Y-95879803D01*
X92435396Y-95847396D01*
X92467803Y-95807908D01*
X92564734Y-95689798D01*
X92633315Y-95561490D01*
X92660841Y-95509993D01*
X92720024Y-95314895D01*
X92735000Y-95162838D01*
X92735000Y-95162829D01*
X92740006Y-95112001D01*
X92735000Y-95061173D01*
X92735000Y-93809981D01*
X92780537Y-93754494D01*
X92839502Y-93644180D01*
X92875812Y-93524482D01*
X92888072Y-93400000D01*
X92888072Y-92300000D01*
X93311928Y-92300000D01*
X93311928Y-93400000D01*
X93324188Y-93524482D01*
X93360498Y-93644180D01*
X93419463Y-93754494D01*
X93498815Y-93851185D01*
X93595506Y-93930537D01*
X93615000Y-93940957D01*
X93615001Y-95344521D01*
X93610719Y-95388000D01*
X93627805Y-95561490D01*
X93655866Y-95653993D01*
X93601361Y-95785581D01*
X93527000Y-96159419D01*
X93527000Y-96540581D01*
X93601361Y-96914419D01*
X93747225Y-97266566D01*
X93958987Y-97583491D01*
X94228509Y-97853013D01*
X94545434Y-98064775D01*
X94897581Y-98210639D01*
X95271419Y-98285000D01*
X95652581Y-98285000D01*
X96026419Y-98210639D01*
X96378566Y-98064775D01*
X96695491Y-97853013D01*
X96965013Y-97583491D01*
X97176775Y-97266566D01*
X97322639Y-96914419D01*
X97397000Y-96540581D01*
X97397000Y-96159419D01*
X97322639Y-95785581D01*
X97176775Y-95433434D01*
X96965013Y-95116509D01*
X96695491Y-94846987D01*
X96378566Y-94635225D01*
X96026419Y-94489361D01*
X95652581Y-94415000D01*
X95385000Y-94415000D01*
X95385000Y-93940957D01*
X95404494Y-93930537D01*
X95501185Y-93851185D01*
X95545151Y-93797612D01*
X95660102Y-93845226D01*
X95860061Y-93885000D01*
X96063939Y-93885000D01*
X96263898Y-93845226D01*
X96452256Y-93767205D01*
X96621774Y-93653937D01*
X96765937Y-93509774D01*
X96879205Y-93340256D01*
X96957226Y-93151898D01*
X96997000Y-92951939D01*
X96997000Y-92748061D01*
X96957226Y-92548102D01*
X96879205Y-92359744D01*
X96765937Y-92190226D01*
X96621774Y-92046063D01*
X96452256Y-91932795D01*
X96263898Y-91854774D01*
X96063939Y-91815000D01*
X95860061Y-91815000D01*
X95660102Y-91854774D01*
X95545151Y-91902388D01*
X95501185Y-91848815D01*
X95404494Y-91769463D01*
X95294180Y-91710498D01*
X95174482Y-91674188D01*
X95050000Y-91661928D01*
X93950000Y-91661928D01*
X93825518Y-91674188D01*
X93705820Y-91710498D01*
X93595506Y-91769463D01*
X93498815Y-91848815D01*
X93419463Y-91945506D01*
X93360498Y-92055820D01*
X93324188Y-92175518D01*
X93311928Y-92300000D01*
X92888072Y-92300000D01*
X92875812Y-92175518D01*
X92839502Y-92055820D01*
X92780537Y-91945506D01*
X92701185Y-91848815D01*
X92604494Y-91769463D01*
X92494180Y-91710498D01*
X92374482Y-91674188D01*
X92250000Y-91661928D01*
X92037000Y-91661928D01*
X92037000Y-89495107D01*
X92155475Y-89376632D01*
X92317990Y-89133411D01*
X92429932Y-88863158D01*
X92487000Y-88576260D01*
X92487000Y-88283740D01*
X92429932Y-87996842D01*
X92317990Y-87726589D01*
X92155475Y-87483368D01*
X92037000Y-87364893D01*
X92037000Y-86955107D01*
X92155475Y-86836632D01*
X92317990Y-86593411D01*
X92429932Y-86323158D01*
X92487000Y-86036260D01*
X92487000Y-85743740D01*
X92429932Y-85456842D01*
X92317990Y-85186589D01*
X92155475Y-84943368D01*
X92037000Y-84824893D01*
X92037000Y-84415107D01*
X92155475Y-84296632D01*
X92317990Y-84053411D01*
X92429932Y-83783158D01*
X92487000Y-83496260D01*
X92487000Y-83203740D01*
X92429932Y-82916842D01*
X92317990Y-82646589D01*
X92155475Y-82403368D01*
X91987107Y-82235000D01*
X95533627Y-82235000D01*
X95522498Y-82255820D01*
X95486188Y-82375518D01*
X95473928Y-82500000D01*
X95473928Y-84200000D01*
X95486188Y-84324482D01*
X95522498Y-84444180D01*
X95581463Y-84554494D01*
X95660815Y-84651185D01*
X95757506Y-84730537D01*
X95867820Y-84789502D01*
X95940380Y-84811513D01*
X95808525Y-84943368D01*
X95646010Y-85186589D01*
X95534068Y-85456842D01*
X95477000Y-85743740D01*
X95477000Y-86036260D01*
X95534068Y-86323158D01*
X95646010Y-86593411D01*
X95808525Y-86836632D01*
X96015368Y-87043475D01*
X96189760Y-87160000D01*
X96015368Y-87276525D01*
X95808525Y-87483368D01*
X95646010Y-87726589D01*
X95534068Y-87996842D01*
X95477000Y-88283740D01*
X95477000Y-88576260D01*
X95534068Y-88863158D01*
X95646010Y-89133411D01*
X95808525Y-89376632D01*
X96015368Y-89583475D01*
X96258589Y-89745990D01*
X96528842Y-89857932D01*
X96815740Y-89915000D01*
X97108260Y-89915000D01*
X97395158Y-89857932D01*
X97665411Y-89745990D01*
X97908632Y-89583475D01*
X98115475Y-89376632D01*
X98232000Y-89202240D01*
X98348525Y-89376632D01*
X98467000Y-89495107D01*
X98467001Y-90801162D01*
X98461994Y-90852000D01*
X98481977Y-91054895D01*
X98541160Y-91249993D01*
X98637266Y-91429797D01*
X98734197Y-91547907D01*
X98766605Y-91587396D01*
X98806092Y-91619802D01*
X100311928Y-93125639D01*
X100311928Y-93400000D01*
X100324188Y-93524482D01*
X100360498Y-93644180D01*
X100419463Y-93754494D01*
X100465000Y-93809982D01*
X100465001Y-94415000D01*
X100271419Y-94415000D01*
X99897581Y-94489361D01*
X99545434Y-94635225D01*
X99228509Y-94846987D01*
X98958987Y-95116509D01*
X98747225Y-95433434D01*
X98601361Y-95785581D01*
X98527000Y-96159419D01*
X98527000Y-96540581D01*
X98601361Y-96914419D01*
X98747225Y-97266566D01*
X98958987Y-97583491D01*
X99228509Y-97853013D01*
X99545434Y-98064775D01*
X99897581Y-98210639D01*
X100271419Y-98285000D01*
X100652581Y-98285000D01*
X101026419Y-98210639D01*
X101378566Y-98064775D01*
X101695491Y-97853013D01*
X101965013Y-97583491D01*
X102176775Y-97266566D01*
X102322639Y-96914419D01*
X102397000Y-96540581D01*
X102397000Y-96159419D01*
X102347537Y-95910752D01*
X102364734Y-95889798D01*
X102436809Y-95754953D01*
X102460841Y-95709993D01*
X102520024Y-95514895D01*
X102535000Y-95362838D01*
X102535000Y-95362835D01*
X102540007Y-95312000D01*
X102535000Y-95261165D01*
X102535000Y-93809981D01*
X102580537Y-93754494D01*
X102639502Y-93644180D01*
X102675812Y-93524482D01*
X102688072Y-93400000D01*
X102688072Y-92350790D01*
X102860061Y-92385000D01*
X103063939Y-92385000D01*
X103111928Y-92375454D01*
X103111928Y-93400000D01*
X103124188Y-93524482D01*
X103160498Y-93644180D01*
X103219463Y-93754494D01*
X103298815Y-93851185D01*
X103395506Y-93930537D01*
X103415000Y-93940957D01*
X103415001Y-95144521D01*
X103410719Y-95188000D01*
X103427805Y-95361490D01*
X103478412Y-95528313D01*
X103560590Y-95682059D01*
X103616183Y-95749799D01*
X103601361Y-95785581D01*
X103527000Y-96159419D01*
X103527000Y-96540581D01*
X103601361Y-96914419D01*
X103747225Y-97266566D01*
X103958987Y-97583491D01*
X104228509Y-97853013D01*
X104545434Y-98064775D01*
X104897581Y-98210639D01*
X105271419Y-98285000D01*
X105652581Y-98285000D01*
X106026419Y-98210639D01*
X106378566Y-98064775D01*
X106695491Y-97853013D01*
X106965013Y-97583491D01*
X107176775Y-97266566D01*
X107322639Y-96914419D01*
X107397000Y-96540581D01*
X107397000Y-96159419D01*
X107322639Y-95785581D01*
X107176775Y-95433434D01*
X106965013Y-95116509D01*
X106695491Y-94846987D01*
X106378566Y-94635225D01*
X106026419Y-94489361D01*
X105652581Y-94415000D01*
X105271419Y-94415000D01*
X105185000Y-94432190D01*
X105185000Y-93940957D01*
X105204494Y-93930537D01*
X105301185Y-93851185D01*
X105380537Y-93754494D01*
X105390957Y-93735000D01*
X106423546Y-93735000D01*
X106471744Y-93767205D01*
X106660102Y-93845226D01*
X106860061Y-93885000D01*
X107063939Y-93885000D01*
X107263898Y-93845226D01*
X107452256Y-93767205D01*
X107621774Y-93653937D01*
X107765937Y-93509774D01*
X107879205Y-93340256D01*
X107957226Y-93151898D01*
X107997000Y-92951939D01*
X107997000Y-92748061D01*
X107957226Y-92548102D01*
X107879205Y-92359744D01*
X107765937Y-92190226D01*
X107621774Y-92046063D01*
X107452256Y-91932795D01*
X107263898Y-91854774D01*
X107063939Y-91815000D01*
X106860061Y-91815000D01*
X106660102Y-91854774D01*
X106471744Y-91932795D01*
X106423546Y-91965000D01*
X105390957Y-91965000D01*
X105380537Y-91945506D01*
X105301185Y-91848815D01*
X105204494Y-91769463D01*
X105094180Y-91710498D01*
X104974482Y-91674188D01*
X104850000Y-91661928D01*
X103953071Y-91661928D01*
X103957226Y-91651898D01*
X103997000Y-91451939D01*
X103997000Y-91248061D01*
X103957226Y-91048102D01*
X103879205Y-90859744D01*
X103847000Y-90811546D01*
X103847000Y-83716578D01*
X103973928Y-83589650D01*
X103973928Y-84200000D01*
X103986188Y-84324482D01*
X104022498Y-84444180D01*
X104081463Y-84554494D01*
X104160815Y-84651185D01*
X104257506Y-84730537D01*
X104367820Y-84789502D01*
X104440380Y-84811513D01*
X104308525Y-84943368D01*
X104146010Y-85186589D01*
X104034068Y-85456842D01*
X103977000Y-85743740D01*
X103977000Y-86036260D01*
X104034068Y-86323158D01*
X104146010Y-86593411D01*
X104308525Y-86836632D01*
X104515368Y-87043475D01*
X104689760Y-87160000D01*
X104515368Y-87276525D01*
X104308525Y-87483368D01*
X104146010Y-87726589D01*
X104034068Y-87996842D01*
X103977000Y-88283740D01*
X103977000Y-88576260D01*
X104034068Y-88863158D01*
X104146010Y-89133411D01*
X104308525Y-89376632D01*
X104515368Y-89583475D01*
X104758589Y-89745990D01*
X105028842Y-89857932D01*
X105315740Y-89915000D01*
X105608260Y-89915000D01*
X105895158Y-89857932D01*
X106165411Y-89745990D01*
X106408632Y-89583475D01*
X106615475Y-89376632D01*
X106732000Y-89202240D01*
X106848525Y-89376632D01*
X107006009Y-89534116D01*
X107041160Y-89649993D01*
X107137266Y-89829797D01*
X107199828Y-89906028D01*
X107266605Y-89987396D01*
X107306092Y-90019802D01*
X110411928Y-93125639D01*
X110411928Y-93400000D01*
X110424188Y-93524482D01*
X110460498Y-93644180D01*
X110519463Y-93754494D01*
X110565000Y-93809982D01*
X110565001Y-94415000D01*
X110271419Y-94415000D01*
X109897581Y-94489361D01*
X109545434Y-94635225D01*
X109228509Y-94846987D01*
X108958987Y-95116509D01*
X108747225Y-95433434D01*
X108601361Y-95785581D01*
X108527000Y-96159419D01*
X108527000Y-96540581D01*
X108601361Y-96914419D01*
X108747225Y-97266566D01*
X108958987Y-97583491D01*
X109228509Y-97853013D01*
X109545434Y-98064775D01*
X109897581Y-98210639D01*
X110271419Y-98285000D01*
X110652581Y-98285000D01*
X111026419Y-98210639D01*
X111378566Y-98064775D01*
X111695491Y-97853013D01*
X111965013Y-97583491D01*
X112176775Y-97266566D01*
X112322639Y-96914419D01*
X112397000Y-96540581D01*
X112397000Y-96159419D01*
X112351035Y-95928339D01*
X112367803Y-95907908D01*
X112464734Y-95789798D01*
X112537269Y-95654093D01*
X112560841Y-95609993D01*
X112620024Y-95414895D01*
X112635000Y-95262838D01*
X112635000Y-95262829D01*
X112640006Y-95212001D01*
X112635000Y-95161173D01*
X112635000Y-93809981D01*
X112680537Y-93754494D01*
X112739502Y-93644180D01*
X112775812Y-93524482D01*
X112788072Y-93400000D01*
X112788072Y-92300000D01*
X112775812Y-92175518D01*
X112739502Y-92055820D01*
X112680537Y-91945506D01*
X112601185Y-91848815D01*
X112504494Y-91769463D01*
X112394180Y-91710498D01*
X112274482Y-91674188D01*
X112150000Y-91661928D01*
X111875639Y-91661928D01*
X109326522Y-89112812D01*
X109429932Y-88863158D01*
X109487000Y-88576260D01*
X109487000Y-88283740D01*
X109429932Y-87996842D01*
X109317990Y-87726589D01*
X109155475Y-87483368D01*
X109037000Y-87364893D01*
X109037000Y-86955107D01*
X109155475Y-86836632D01*
X109317990Y-86593411D01*
X109429932Y-86323158D01*
X109487000Y-86036260D01*
X109487000Y-85743740D01*
X109429932Y-85456842D01*
X109317990Y-85186589D01*
X109155475Y-84943368D01*
X109037000Y-84824893D01*
X109037000Y-84415107D01*
X109155475Y-84296632D01*
X109317990Y-84053411D01*
X109429932Y-83783158D01*
X109487000Y-83496260D01*
X109487000Y-83203740D01*
X109429932Y-82916842D01*
X109317990Y-82646589D01*
X109220043Y-82500000D01*
X112473928Y-82500000D01*
X112473928Y-84200000D01*
X112486188Y-84324482D01*
X112522498Y-84444180D01*
X112581463Y-84554494D01*
X112660815Y-84651185D01*
X112757506Y-84730537D01*
X112867820Y-84789502D01*
X112940380Y-84811513D01*
X112808525Y-84943368D01*
X112646010Y-85186589D01*
X112534068Y-85456842D01*
X112477000Y-85743740D01*
X112477000Y-86036260D01*
X112534068Y-86323158D01*
X112646010Y-86593411D01*
X112808525Y-86836632D01*
X113015368Y-87043475D01*
X113189760Y-87160000D01*
X113015368Y-87276525D01*
X112808525Y-87483368D01*
X112646010Y-87726589D01*
X112534068Y-87996842D01*
X112477000Y-88283740D01*
X112477000Y-88576260D01*
X112534068Y-88863158D01*
X112646010Y-89133411D01*
X112808525Y-89376632D01*
X113015368Y-89583475D01*
X113258589Y-89745990D01*
X113528842Y-89857932D01*
X113815740Y-89915000D01*
X114108260Y-89915000D01*
X114395158Y-89857932D01*
X114665411Y-89745990D01*
X114908632Y-89583475D01*
X115115475Y-89376632D01*
X115232000Y-89202240D01*
X115348525Y-89376632D01*
X115555368Y-89583475D01*
X115798589Y-89745990D01*
X116068842Y-89857932D01*
X116355740Y-89915000D01*
X116648260Y-89915000D01*
X116935158Y-89857932D01*
X117082989Y-89796699D01*
X119110564Y-91824274D01*
X119063939Y-91815000D01*
X118860061Y-91815000D01*
X118660102Y-91854774D01*
X118471744Y-91932795D01*
X118423546Y-91965000D01*
X115490957Y-91965000D01*
X115480537Y-91945506D01*
X115401185Y-91848815D01*
X115304494Y-91769463D01*
X115194180Y-91710498D01*
X115074482Y-91674188D01*
X114950000Y-91661928D01*
X113850000Y-91661928D01*
X113725518Y-91674188D01*
X113605820Y-91710498D01*
X113495506Y-91769463D01*
X113398815Y-91848815D01*
X113319463Y-91945506D01*
X113260498Y-92055820D01*
X113224188Y-92175518D01*
X113211928Y-92300000D01*
X113211928Y-93400000D01*
X113224188Y-93524482D01*
X113260498Y-93644180D01*
X113319463Y-93754494D01*
X113398815Y-93851185D01*
X113495506Y-93930537D01*
X113515000Y-93940957D01*
X113515001Y-95244521D01*
X113510719Y-95288000D01*
X113527805Y-95461490D01*
X113578412Y-95628313D01*
X113628042Y-95721166D01*
X113601361Y-95785581D01*
X113527000Y-96159419D01*
X113527000Y-96540581D01*
X113601361Y-96914419D01*
X113747225Y-97266566D01*
X113958987Y-97583491D01*
X114228509Y-97853013D01*
X114545434Y-98064775D01*
X114897581Y-98210639D01*
X115271419Y-98285000D01*
X115652581Y-98285000D01*
X116026419Y-98210639D01*
X116378566Y-98064775D01*
X116695491Y-97853013D01*
X116965013Y-97583491D01*
X117176775Y-97266566D01*
X117322639Y-96914419D01*
X117397000Y-96540581D01*
X117397000Y-96159419D01*
X117322639Y-95785581D01*
X117176775Y-95433434D01*
X116965013Y-95116509D01*
X116695491Y-94846987D01*
X116378566Y-94635225D01*
X116026419Y-94489361D01*
X115652581Y-94415000D01*
X115285000Y-94415000D01*
X115285000Y-93940957D01*
X115304494Y-93930537D01*
X115401185Y-93851185D01*
X115480537Y-93754494D01*
X115490957Y-93735000D01*
X118423546Y-93735000D01*
X118471744Y-93767205D01*
X118660102Y-93845226D01*
X118860061Y-93885000D01*
X119063939Y-93885000D01*
X119263898Y-93845226D01*
X119452256Y-93767205D01*
X119621774Y-93653937D01*
X119765937Y-93509774D01*
X119879205Y-93340256D01*
X119957226Y-93151898D01*
X119997000Y-92951939D01*
X119997000Y-92748061D01*
X119987726Y-92701437D01*
X120411928Y-93125639D01*
X120411928Y-93400000D01*
X120424188Y-93524482D01*
X120460498Y-93644180D01*
X120519463Y-93754494D01*
X120565000Y-93809982D01*
X120565001Y-94415000D01*
X120271419Y-94415000D01*
X119897581Y-94489361D01*
X119545434Y-94635225D01*
X119228509Y-94846987D01*
X118958987Y-95116509D01*
X118747225Y-95433434D01*
X118601361Y-95785581D01*
X118527000Y-96159419D01*
X118527000Y-96540581D01*
X118601361Y-96914419D01*
X118747225Y-97266566D01*
X118958987Y-97583491D01*
X119228509Y-97853013D01*
X119545434Y-98064775D01*
X119897581Y-98210639D01*
X120271419Y-98285000D01*
X120652581Y-98285000D01*
X121026419Y-98210639D01*
X121378566Y-98064775D01*
X121695491Y-97853013D01*
X121965013Y-97583491D01*
X122176775Y-97266566D01*
X122322639Y-96914419D01*
X122397000Y-96540581D01*
X122397000Y-96159419D01*
X122351035Y-95928339D01*
X122367803Y-95907908D01*
X122464734Y-95789798D01*
X122537269Y-95654093D01*
X122560841Y-95609993D01*
X122620024Y-95414895D01*
X122635000Y-95262838D01*
X122635000Y-95262829D01*
X122640006Y-95212001D01*
X122635000Y-95161173D01*
X122635000Y-93809981D01*
X122680537Y-93754494D01*
X122739502Y-93644180D01*
X122775812Y-93524482D01*
X122788072Y-93400000D01*
X122788072Y-92300000D01*
X123211928Y-92300000D01*
X123211928Y-93400000D01*
X123224188Y-93524482D01*
X123260498Y-93644180D01*
X123319463Y-93754494D01*
X123398815Y-93851185D01*
X123495506Y-93930537D01*
X123515000Y-93940957D01*
X123515001Y-95244521D01*
X123510719Y-95288000D01*
X123527805Y-95461490D01*
X123578412Y-95628313D01*
X123628042Y-95721166D01*
X123601361Y-95785581D01*
X123527000Y-96159419D01*
X123527000Y-96540581D01*
X123601361Y-96914419D01*
X123747225Y-97266566D01*
X123958987Y-97583491D01*
X124228509Y-97853013D01*
X124545434Y-98064775D01*
X124897581Y-98210639D01*
X125271419Y-98285000D01*
X125652581Y-98285000D01*
X126026419Y-98210639D01*
X126378566Y-98064775D01*
X126695491Y-97853013D01*
X126965013Y-97583491D01*
X127176775Y-97266566D01*
X127322639Y-96914419D01*
X127397000Y-96540581D01*
X127397000Y-96159419D01*
X127322639Y-95785581D01*
X127176775Y-95433434D01*
X126965013Y-95116509D01*
X126695491Y-94846987D01*
X126378566Y-94635225D01*
X126026419Y-94489361D01*
X125652581Y-94415000D01*
X125285000Y-94415000D01*
X125285000Y-93940957D01*
X125304494Y-93930537D01*
X125401185Y-93851185D01*
X125480537Y-93754494D01*
X125539502Y-93644180D01*
X125575812Y-93524482D01*
X125588072Y-93400000D01*
X125588072Y-92300000D01*
X125575812Y-92175518D01*
X125539502Y-92055820D01*
X125480537Y-91945506D01*
X125401185Y-91848815D01*
X125382135Y-91833181D01*
X125457226Y-91651898D01*
X125497000Y-91451939D01*
X125497000Y-91248061D01*
X125457226Y-91048102D01*
X125379205Y-90859744D01*
X125265937Y-90690226D01*
X125121774Y-90546063D01*
X124952256Y-90432795D01*
X124763898Y-90354774D01*
X124563939Y-90315000D01*
X124360061Y-90315000D01*
X124160102Y-90354774D01*
X123971744Y-90432795D01*
X123802226Y-90546063D01*
X123658063Y-90690226D01*
X123544795Y-90859744D01*
X123466774Y-91048102D01*
X123427000Y-91248061D01*
X123427000Y-91451939D01*
X123466774Y-91651898D01*
X123511852Y-91760726D01*
X123495506Y-91769463D01*
X123398815Y-91848815D01*
X123319463Y-91945506D01*
X123260498Y-92055820D01*
X123224188Y-92175518D01*
X123211928Y-92300000D01*
X122788072Y-92300000D01*
X122775812Y-92175518D01*
X122739502Y-92055820D01*
X122680537Y-91945506D01*
X122601185Y-91848815D01*
X122504494Y-91769463D01*
X122394180Y-91710498D01*
X122274482Y-91674188D01*
X122150000Y-91661928D01*
X121875639Y-91661928D01*
X117947807Y-87734097D01*
X117915396Y-87694604D01*
X117757797Y-87565266D01*
X117683753Y-87525689D01*
X117655475Y-87483368D01*
X117537000Y-87364893D01*
X117537000Y-86955107D01*
X117655475Y-86836632D01*
X117817990Y-86593411D01*
X117929932Y-86323158D01*
X117987000Y-86036260D01*
X117987000Y-85743740D01*
X117929932Y-85456842D01*
X117817990Y-85186589D01*
X117655475Y-84943368D01*
X117537000Y-84824893D01*
X117537000Y-84415107D01*
X117655475Y-84296632D01*
X117660609Y-84288948D01*
X117627000Y-84457911D01*
X117627000Y-84642089D01*
X117662932Y-84822729D01*
X117733414Y-84992889D01*
X117835738Y-85146028D01*
X117965972Y-85276262D01*
X118119111Y-85378586D01*
X118289271Y-85449068D01*
X118469911Y-85485000D01*
X118654089Y-85485000D01*
X118834729Y-85449068D01*
X119004889Y-85378586D01*
X119158028Y-85276262D01*
X119288262Y-85146028D01*
X119390586Y-84992889D01*
X119461068Y-84822729D01*
X119497000Y-84642089D01*
X119497000Y-84457911D01*
X119461068Y-84277271D01*
X119390586Y-84107111D01*
X119288262Y-83953972D01*
X119158028Y-83823738D01*
X119004889Y-83721414D01*
X118834729Y-83650932D01*
X118654089Y-83615000D01*
X118469911Y-83615000D01*
X118289271Y-83650932D01*
X118119111Y-83721414D01*
X117965972Y-83823738D01*
X117875754Y-83913956D01*
X117929932Y-83783158D01*
X117987000Y-83496260D01*
X117987000Y-83203740D01*
X117929932Y-82916842D01*
X117817990Y-82646589D01*
X117655475Y-82403368D01*
X117448632Y-82196525D01*
X117205411Y-82034010D01*
X116935158Y-81922068D01*
X116648260Y-81865000D01*
X116355740Y-81865000D01*
X116068842Y-81922068D01*
X115798589Y-82034010D01*
X115555368Y-82196525D01*
X115423513Y-82328380D01*
X115401502Y-82255820D01*
X115342537Y-82145506D01*
X115263185Y-82048815D01*
X115166494Y-81969463D01*
X115056180Y-81910498D01*
X114936482Y-81874188D01*
X114812000Y-81861928D01*
X113112000Y-81861928D01*
X112987518Y-81874188D01*
X112867820Y-81910498D01*
X112757506Y-81969463D01*
X112660815Y-82048815D01*
X112581463Y-82145506D01*
X112522498Y-82255820D01*
X112486188Y-82375518D01*
X112473928Y-82500000D01*
X109220043Y-82500000D01*
X109155475Y-82403368D01*
X108948632Y-82196525D01*
X108705411Y-82034010D01*
X108435158Y-81922068D01*
X108148260Y-81865000D01*
X107855740Y-81865000D01*
X107568842Y-81922068D01*
X107298589Y-82034010D01*
X107055368Y-82196525D01*
X106923513Y-82328380D01*
X106901502Y-82255820D01*
X106842537Y-82145506D01*
X106763185Y-82048815D01*
X106666494Y-81969463D01*
X106556180Y-81910498D01*
X106436482Y-81874188D01*
X106312000Y-81861928D01*
X105701650Y-81861928D01*
X107617113Y-79946466D01*
X107562932Y-80077271D01*
X107527000Y-80257911D01*
X107527000Y-80442089D01*
X107562932Y-80622729D01*
X107633414Y-80792889D01*
X107735738Y-80946028D01*
X107865972Y-81076262D01*
X108019111Y-81178586D01*
X108173787Y-81242654D01*
X108342558Y-81411426D01*
X108368709Y-81443291D01*
X108495854Y-81547636D01*
X108640913Y-81625172D01*
X108798311Y-81672918D01*
X108920981Y-81685000D01*
X108920982Y-81685000D01*
X108962000Y-81689040D01*
X109003018Y-81685000D01*
X123541503Y-81685000D01*
X123527000Y-81757911D01*
X123527000Y-81942089D01*
X123551449Y-82065002D01*
X123205484Y-82065002D01*
X123162008Y-82060720D01*
X122988518Y-82077807D01*
X122821695Y-82128413D01*
X122667950Y-82210591D01*
X122566963Y-82293469D01*
X122566960Y-82293472D01*
X122533192Y-82321185D01*
X122514505Y-82343955D01*
X122460112Y-82354774D01*
X122271754Y-82432795D01*
X122102236Y-82546063D01*
X121958073Y-82690226D01*
X121844805Y-82859744D01*
X121766784Y-83048102D01*
X121727010Y-83248061D01*
X121727010Y-83451939D01*
X121766784Y-83651898D01*
X121844805Y-83840256D01*
X121958073Y-84009774D01*
X122102236Y-84153937D01*
X122271754Y-84267205D01*
X122460112Y-84345226D01*
X122558141Y-84364725D01*
X122534068Y-84422842D01*
X122477000Y-84709740D01*
X122477000Y-85002260D01*
X122534068Y-85289158D01*
X122646010Y-85559411D01*
X122808525Y-85802632D01*
X122940380Y-85934487D01*
X122867820Y-85956498D01*
X122757506Y-86015463D01*
X122660815Y-86094815D01*
X122581463Y-86191506D01*
X122522498Y-86301820D01*
X122486188Y-86421518D01*
X122473928Y-86546000D01*
X122473928Y-88246000D01*
X122486188Y-88370482D01*
X122517893Y-88475000D01*
X121292835Y-88475000D01*
X121234729Y-88450932D01*
X121054089Y-88415000D01*
X120869911Y-88415000D01*
X120689271Y-88450932D01*
X120519111Y-88521414D01*
X120365972Y-88623738D01*
X120235738Y-88753972D01*
X120133414Y-88907111D01*
X120062932Y-89077271D01*
X120027000Y-89257911D01*
X120027000Y-89442089D01*
X120062932Y-89622729D01*
X120133414Y-89792889D01*
X120235738Y-89946028D01*
X120365972Y-90076262D01*
X120519111Y-90178586D01*
X120689271Y-90249068D01*
X120869911Y-90285000D01*
X121054089Y-90285000D01*
X121234729Y-90249068D01*
X121404889Y-90178586D01*
X121455154Y-90145000D01*
X126074596Y-90145000D01*
X126229271Y-90209068D01*
X126409911Y-90245000D01*
X126594089Y-90245000D01*
X126774729Y-90209068D01*
X126944889Y-90138586D01*
X127098028Y-90036262D01*
X127228262Y-89906028D01*
X127330586Y-89752889D01*
X127401068Y-89582729D01*
X127437000Y-89402089D01*
X127437000Y-89217911D01*
X127401068Y-89037271D01*
X127330586Y-88867111D01*
X127228262Y-88713972D01*
X127217921Y-88703631D01*
X127448632Y-88549475D01*
X127655475Y-88342632D01*
X127772000Y-88168240D01*
X127888525Y-88342632D01*
X128095368Y-88549475D01*
X128257001Y-88657474D01*
X128257001Y-89391437D01*
X128253203Y-89430000D01*
X128268359Y-89583886D01*
X128313246Y-89731859D01*
X128324487Y-89752889D01*
X128386139Y-89868233D01*
X128404955Y-89891160D01*
X128459655Y-89957812D01*
X128459659Y-89957816D01*
X128484237Y-89987764D01*
X128514186Y-90012343D01*
X128879649Y-90377805D01*
X128904236Y-90407764D01*
X129023767Y-90505862D01*
X129160140Y-90578754D01*
X129308113Y-90623642D01*
X129383026Y-90631020D01*
X129423439Y-90635000D01*
X129423444Y-90635000D01*
X129462000Y-90638797D01*
X129500556Y-90635000D01*
X132423447Y-90635000D01*
X132462000Y-90638797D01*
X132500553Y-90635000D01*
X132500561Y-90635000D01*
X132615887Y-90623641D01*
X132763860Y-90578754D01*
X132900233Y-90505862D01*
X133019764Y-90407764D01*
X133044347Y-90377810D01*
X134489817Y-88932341D01*
X134519764Y-88907764D01*
X134549270Y-88871812D01*
X134569095Y-88847655D01*
X134617862Y-88788233D01*
X134690754Y-88651860D01*
X134731185Y-88518577D01*
X134735641Y-88503888D01*
X134738884Y-88470960D01*
X134747000Y-88388561D01*
X134747000Y-88388554D01*
X134750797Y-88350001D01*
X134747000Y-88311448D01*
X134747000Y-54116562D01*
X134750798Y-54078001D01*
X134735641Y-53924114D01*
X134690754Y-53776141D01*
X134617862Y-53639768D01*
X134562266Y-53572024D01*
X134688262Y-53446028D01*
X134790586Y-53292889D01*
X134815000Y-53233948D01*
X134815001Y-95904500D01*
G37*
%TD.AperFunction*%
D29*
X126629000Y-84729000D02*
X126649000Y-84729000D01*
X126649000Y-84983000D01*
X126629000Y-84983000D01*
X126629000Y-85003000D01*
X126375000Y-85003000D01*
X126375000Y-84983000D01*
X126355000Y-84983000D01*
X126355000Y-84729000D01*
X126375000Y-84729000D01*
X126375000Y-84709000D01*
X126629000Y-84709000D01*
X126629000Y-84729000D01*
%TA.AperFunction,Conductor*%
D30*
G36*
X126629000Y-84729000D02*
G01*
X126649000Y-84729000D01*
X126649000Y-84983000D01*
X126629000Y-84983000D01*
X126629000Y-85003000D01*
X126375000Y-85003000D01*
X126375000Y-84983000D01*
X126355000Y-84983000D01*
X126355000Y-84729000D01*
X126375000Y-84729000D01*
X126375000Y-84709000D01*
X126629000Y-84709000D01*
X126629000Y-84729000D01*
G37*
%TD.AperFunction*%
D29*
X89350932Y-52477271D02*
X89315000Y-52657911D01*
X89315000Y-52842089D01*
X89350932Y-53022729D01*
X89421414Y-53192889D01*
X89523738Y-53346028D01*
X89653972Y-53476262D01*
X89807111Y-53578586D01*
X89977271Y-53649068D01*
X90054216Y-53664374D01*
X90767658Y-54377815D01*
X90792236Y-54407764D01*
X90822184Y-54432342D01*
X90822187Y-54432345D01*
X90851559Y-54456450D01*
X90911767Y-54505862D01*
X91048140Y-54578754D01*
X91196113Y-54623642D01*
X91271026Y-54631020D01*
X91311439Y-54635000D01*
X91311444Y-54635000D01*
X91350000Y-54638797D01*
X91388555Y-54635000D01*
X105633831Y-54635000D01*
X105764645Y-54765814D01*
X105779951Y-54842760D01*
X105850433Y-55012920D01*
X105952757Y-55166059D01*
X106082991Y-55296293D01*
X106236130Y-55398617D01*
X106406290Y-55469099D01*
X106586930Y-55505031D01*
X106771108Y-55505031D01*
X106951748Y-55469099D01*
X107121908Y-55398617D01*
X107275047Y-55296293D01*
X107405281Y-55166059D01*
X107507605Y-55012920D01*
X107578087Y-54842760D01*
X107614019Y-54662120D01*
X107614019Y-54477942D01*
X107578087Y-54297302D01*
X107571553Y-54281526D01*
X107734729Y-54249068D01*
X107904889Y-54178586D01*
X108058028Y-54076262D01*
X108188262Y-53946028D01*
X108290586Y-53792889D01*
X108361068Y-53622729D01*
X108397000Y-53442089D01*
X108397000Y-53257911D01*
X108392445Y-53235011D01*
X111466831Y-53235011D01*
X110766216Y-53935626D01*
X110689271Y-53950932D01*
X110519111Y-54021414D01*
X110365972Y-54123738D01*
X110235738Y-54253972D01*
X110133414Y-54407111D01*
X110062932Y-54577271D01*
X110027000Y-54757911D01*
X110027000Y-54942089D01*
X110062932Y-55122729D01*
X110133414Y-55292889D01*
X110235738Y-55446028D01*
X110365972Y-55576262D01*
X110519111Y-55678586D01*
X110689271Y-55749068D01*
X110869911Y-55785000D01*
X111054089Y-55785000D01*
X111234729Y-55749068D01*
X111281439Y-55729720D01*
X111292068Y-55783158D01*
X111404010Y-56053411D01*
X111566525Y-56296632D01*
X111773368Y-56503475D01*
X111946263Y-56619000D01*
X107577299Y-56619000D01*
X107508586Y-56453111D01*
X107406262Y-56299972D01*
X107276028Y-56169738D01*
X107122889Y-56067414D01*
X106952729Y-55996932D01*
X106772089Y-55961000D01*
X106587911Y-55961000D01*
X106407271Y-55996932D01*
X106237111Y-56067414D01*
X106083972Y-56169738D01*
X105953738Y-56299972D01*
X105851414Y-56453111D01*
X105780932Y-56623271D01*
X105745000Y-56803911D01*
X105745000Y-56988089D01*
X105780932Y-57168729D01*
X105851414Y-57338889D01*
X105953738Y-57492028D01*
X106083972Y-57622262D01*
X106237111Y-57724586D01*
X106407271Y-57795068D01*
X106484217Y-57810374D01*
X106605653Y-57931810D01*
X106630236Y-57961764D01*
X106749767Y-58059862D01*
X106886140Y-58132754D01*
X106999672Y-58167194D01*
X107034112Y-58177641D01*
X107048490Y-58179057D01*
X107149439Y-58189000D01*
X107149446Y-58189000D01*
X107187999Y-58192797D01*
X107226552Y-58189000D01*
X113956925Y-58189000D01*
X113917320Y-58248273D01*
X113809147Y-58509426D01*
X113754000Y-58786665D01*
X113754000Y-59069335D01*
X113809147Y-59346574D01*
X113917320Y-59607727D01*
X113987448Y-59712682D01*
X112923760Y-60776370D01*
X112880537Y-60695506D01*
X112801185Y-60598815D01*
X112704494Y-60519463D01*
X112594180Y-60460498D01*
X112474482Y-60424188D01*
X112350000Y-60411928D01*
X112235750Y-60415000D01*
X112077000Y-60573750D01*
X112077000Y-61373000D01*
X112097000Y-61373000D01*
X112097000Y-61603131D01*
X112053131Y-61647000D01*
X111823000Y-61647000D01*
X111823000Y-61627000D01*
X111803000Y-61627000D01*
X111803000Y-61373000D01*
X111823000Y-61373000D01*
X111823000Y-60573750D01*
X111664250Y-60415000D01*
X111550000Y-60411928D01*
X111425518Y-60424188D01*
X111305820Y-60460498D01*
X111195506Y-60519463D01*
X111098815Y-60598815D01*
X111019463Y-60695506D01*
X111000000Y-60731918D01*
X110980537Y-60695506D01*
X110901185Y-60598815D01*
X110835000Y-60544499D01*
X110835000Y-60427404D01*
X110899068Y-60272729D01*
X110935000Y-60092089D01*
X110935000Y-59907911D01*
X110899068Y-59727271D01*
X110828586Y-59557111D01*
X110726262Y-59403972D01*
X110596028Y-59273738D01*
X110442889Y-59171414D01*
X110272729Y-59100932D01*
X110092089Y-59065000D01*
X109907911Y-59065000D01*
X109727271Y-59100932D01*
X109557111Y-59171414D01*
X109403972Y-59273738D01*
X109273738Y-59403972D01*
X109171414Y-59557111D01*
X109100932Y-59727271D01*
X109065000Y-59907911D01*
X109065000Y-60092089D01*
X109100932Y-60272729D01*
X109171414Y-60442889D01*
X109248406Y-60558117D01*
X109198815Y-60598815D01*
X109119463Y-60695506D01*
X109060498Y-60805820D01*
X109024188Y-60925518D01*
X109011928Y-61050000D01*
X109011928Y-61950000D01*
X109024188Y-62074482D01*
X109060498Y-62194180D01*
X109119463Y-62304494D01*
X109198815Y-62401185D01*
X109295506Y-62480537D01*
X109405820Y-62539502D01*
X109525518Y-62575812D01*
X109650000Y-62588072D01*
X110161905Y-62588072D01*
X110148815Y-62598815D01*
X110120554Y-62633251D01*
X109971685Y-62678411D01*
X109856302Y-62740084D01*
X109817939Y-62760589D01*
X109716951Y-62843468D01*
X109716949Y-62843470D01*
X109683181Y-62871183D01*
X109655468Y-62904951D01*
X109466955Y-63093464D01*
X109410101Y-63104773D01*
X109221743Y-63182794D01*
X109052225Y-63296062D01*
X108908062Y-63440225D01*
X108794794Y-63609743D01*
X108716773Y-63798101D01*
X108676999Y-63998060D01*
X108676999Y-64201938D01*
X108716773Y-64401897D01*
X108722200Y-64415000D01*
X107293850Y-64415000D01*
X107290586Y-64407119D01*
X107188262Y-64253980D01*
X107058028Y-64123746D01*
X106904889Y-64021422D01*
X106734729Y-63950940D01*
X106554089Y-63915008D01*
X106369911Y-63915008D01*
X106189271Y-63950940D01*
X106019111Y-64021422D01*
X105865972Y-64123746D01*
X105736674Y-64253044D01*
X105649444Y-63814507D01*
X104696991Y-61515083D01*
X103507578Y-59735000D01*
X103720128Y-59735000D01*
X104151925Y-59649110D01*
X104558669Y-59480631D01*
X104924729Y-59236038D01*
X105236038Y-58924729D01*
X105480631Y-58558669D01*
X105649110Y-58151925D01*
X105735000Y-57720128D01*
X105735000Y-57279872D01*
X105649110Y-56848075D01*
X105480631Y-56441331D01*
X105236038Y-56075271D01*
X104924729Y-55763962D01*
X104558669Y-55519369D01*
X104151925Y-55350890D01*
X103720128Y-55265000D01*
X103279872Y-55265000D01*
X102848075Y-55350890D01*
X102441331Y-55519369D01*
X102075271Y-55763962D01*
X101763962Y-56075271D01*
X101519369Y-56441331D01*
X101350890Y-56848075D01*
X101265000Y-57279872D01*
X101265000Y-57492422D01*
X99484917Y-56303009D01*
X97185493Y-55350556D01*
X94744439Y-54865000D01*
X92255561Y-54865000D01*
X89814507Y-55350556D01*
X87515083Y-56303009D01*
X85735000Y-57492422D01*
X85735000Y-57279872D01*
X85649110Y-56848075D01*
X85480631Y-56441331D01*
X85236038Y-56075271D01*
X84924729Y-55763962D01*
X84558669Y-55519369D01*
X84151925Y-55350890D01*
X83720128Y-55265000D01*
X83279872Y-55265000D01*
X82848075Y-55350890D01*
X82441331Y-55519369D01*
X82075271Y-55763962D01*
X81763962Y-56075271D01*
X81519369Y-56441331D01*
X81350890Y-56848075D01*
X81265000Y-57279872D01*
X81265000Y-57720128D01*
X81350890Y-58151925D01*
X81519369Y-58558669D01*
X81763962Y-58924729D01*
X82075271Y-59236038D01*
X82441331Y-59480631D01*
X82848075Y-59649110D01*
X83279872Y-59735000D01*
X83492422Y-59735000D01*
X82303009Y-61515083D01*
X81350556Y-63814507D01*
X80865000Y-66255561D01*
X80865000Y-68744439D01*
X81350556Y-71185493D01*
X82303009Y-73484917D01*
X83492422Y-75265000D01*
X83279872Y-75265000D01*
X82848075Y-75350890D01*
X82441331Y-75519369D01*
X82075271Y-75763962D01*
X81763962Y-76075271D01*
X81519369Y-76441331D01*
X81350890Y-76848075D01*
X81265000Y-77279872D01*
X81265000Y-77720128D01*
X81350890Y-78151925D01*
X81519369Y-78558669D01*
X81763962Y-78924729D01*
X82075271Y-79236038D01*
X82441331Y-79480631D01*
X82848075Y-79649110D01*
X83279872Y-79735000D01*
X83720128Y-79735000D01*
X84151925Y-79649110D01*
X84558669Y-79480631D01*
X84924729Y-79236038D01*
X85236038Y-78924729D01*
X85480631Y-78558669D01*
X85649110Y-78151925D01*
X85735000Y-77720128D01*
X85735000Y-77507578D01*
X87515083Y-78696991D01*
X89814507Y-79649444D01*
X92255561Y-80135000D01*
X94744439Y-80135000D01*
X97185493Y-79649444D01*
X99484917Y-78696991D01*
X101265000Y-77507578D01*
X101265000Y-77720128D01*
X101350890Y-78151925D01*
X101519369Y-78558669D01*
X101763962Y-78924729D01*
X102075271Y-79236038D01*
X102441331Y-79480631D01*
X102848075Y-79649110D01*
X103279872Y-79735000D01*
X103720128Y-79735000D01*
X104151925Y-79649110D01*
X104558669Y-79480631D01*
X104622322Y-79438100D01*
X103595422Y-80465000D01*
X86005469Y-80465000D01*
X85962000Y-80460719D01*
X85918531Y-80465000D01*
X85918523Y-80465000D01*
X85788510Y-80477805D01*
X85621686Y-80528411D01*
X85467941Y-80610589D01*
X85366953Y-80693468D01*
X85366951Y-80693470D01*
X85333183Y-80721183D01*
X85305470Y-80754951D01*
X83804956Y-82255466D01*
X83771183Y-82283183D01*
X83663138Y-82414836D01*
X83655475Y-82403368D01*
X83448632Y-82196525D01*
X83205411Y-82034010D01*
X82935158Y-81922068D01*
X82648260Y-81865000D01*
X82355740Y-81865000D01*
X82068842Y-81922068D01*
X81798589Y-82034010D01*
X81555368Y-82196525D01*
X81423513Y-82328380D01*
X81401502Y-82255820D01*
X81342537Y-82145506D01*
X81263185Y-82048815D01*
X81166494Y-81969463D01*
X81056180Y-81910498D01*
X80936482Y-81874188D01*
X80812000Y-81861928D01*
X79297000Y-81861928D01*
X79297000Y-56883867D01*
X80721431Y-55459438D01*
X80753290Y-55433292D01*
X80820916Y-55350890D01*
X80857635Y-55306147D01*
X80935171Y-55161088D01*
X80981530Y-55008263D01*
X80982917Y-55003690D01*
X80994999Y-54881020D01*
X80994999Y-54881019D01*
X80999039Y-54840001D01*
X80994999Y-54798983D01*
X80994999Y-52370099D01*
X81069911Y-52385000D01*
X81254089Y-52385000D01*
X81434729Y-52349068D01*
X81468692Y-52335000D01*
X89409862Y-52335000D01*
X89350932Y-52477271D01*
%TA.AperFunction,Conductor*%
D30*
G36*
X89350932Y-52477271D02*
G01*
X89315000Y-52657911D01*
X89315000Y-52842089D01*
X89350932Y-53022729D01*
X89421414Y-53192889D01*
X89523738Y-53346028D01*
X89653972Y-53476262D01*
X89807111Y-53578586D01*
X89977271Y-53649068D01*
X90054216Y-53664374D01*
X90767658Y-54377815D01*
X90792236Y-54407764D01*
X90822184Y-54432342D01*
X90822187Y-54432345D01*
X90851559Y-54456450D01*
X90911767Y-54505862D01*
X91048140Y-54578754D01*
X91196113Y-54623642D01*
X91271026Y-54631020D01*
X91311439Y-54635000D01*
X91311444Y-54635000D01*
X91350000Y-54638797D01*
X91388555Y-54635000D01*
X105633831Y-54635000D01*
X105764645Y-54765814D01*
X105779951Y-54842760D01*
X105850433Y-55012920D01*
X105952757Y-55166059D01*
X106082991Y-55296293D01*
X106236130Y-55398617D01*
X106406290Y-55469099D01*
X106586930Y-55505031D01*
X106771108Y-55505031D01*
X106951748Y-55469099D01*
X107121908Y-55398617D01*
X107275047Y-55296293D01*
X107405281Y-55166059D01*
X107507605Y-55012920D01*
X107578087Y-54842760D01*
X107614019Y-54662120D01*
X107614019Y-54477942D01*
X107578087Y-54297302D01*
X107571553Y-54281526D01*
X107734729Y-54249068D01*
X107904889Y-54178586D01*
X108058028Y-54076262D01*
X108188262Y-53946028D01*
X108290586Y-53792889D01*
X108361068Y-53622729D01*
X108397000Y-53442089D01*
X108397000Y-53257911D01*
X108392445Y-53235011D01*
X111466831Y-53235011D01*
X110766216Y-53935626D01*
X110689271Y-53950932D01*
X110519111Y-54021414D01*
X110365972Y-54123738D01*
X110235738Y-54253972D01*
X110133414Y-54407111D01*
X110062932Y-54577271D01*
X110027000Y-54757911D01*
X110027000Y-54942089D01*
X110062932Y-55122729D01*
X110133414Y-55292889D01*
X110235738Y-55446028D01*
X110365972Y-55576262D01*
X110519111Y-55678586D01*
X110689271Y-55749068D01*
X110869911Y-55785000D01*
X111054089Y-55785000D01*
X111234729Y-55749068D01*
X111281439Y-55729720D01*
X111292068Y-55783158D01*
X111404010Y-56053411D01*
X111566525Y-56296632D01*
X111773368Y-56503475D01*
X111946263Y-56619000D01*
X107577299Y-56619000D01*
X107508586Y-56453111D01*
X107406262Y-56299972D01*
X107276028Y-56169738D01*
X107122889Y-56067414D01*
X106952729Y-55996932D01*
X106772089Y-55961000D01*
X106587911Y-55961000D01*
X106407271Y-55996932D01*
X106237111Y-56067414D01*
X106083972Y-56169738D01*
X105953738Y-56299972D01*
X105851414Y-56453111D01*
X105780932Y-56623271D01*
X105745000Y-56803911D01*
X105745000Y-56988089D01*
X105780932Y-57168729D01*
X105851414Y-57338889D01*
X105953738Y-57492028D01*
X106083972Y-57622262D01*
X106237111Y-57724586D01*
X106407271Y-57795068D01*
X106484217Y-57810374D01*
X106605653Y-57931810D01*
X106630236Y-57961764D01*
X106749767Y-58059862D01*
X106886140Y-58132754D01*
X106999672Y-58167194D01*
X107034112Y-58177641D01*
X107048490Y-58179057D01*
X107149439Y-58189000D01*
X107149446Y-58189000D01*
X107187999Y-58192797D01*
X107226552Y-58189000D01*
X113956925Y-58189000D01*
X113917320Y-58248273D01*
X113809147Y-58509426D01*
X113754000Y-58786665D01*
X113754000Y-59069335D01*
X113809147Y-59346574D01*
X113917320Y-59607727D01*
X113987448Y-59712682D01*
X112923760Y-60776370D01*
X112880537Y-60695506D01*
X112801185Y-60598815D01*
X112704494Y-60519463D01*
X112594180Y-60460498D01*
X112474482Y-60424188D01*
X112350000Y-60411928D01*
X112235750Y-60415000D01*
X112077000Y-60573750D01*
X112077000Y-61373000D01*
X112097000Y-61373000D01*
X112097000Y-61603131D01*
X112053131Y-61647000D01*
X111823000Y-61647000D01*
X111823000Y-61627000D01*
X111803000Y-61627000D01*
X111803000Y-61373000D01*
X111823000Y-61373000D01*
X111823000Y-60573750D01*
X111664250Y-60415000D01*
X111550000Y-60411928D01*
X111425518Y-60424188D01*
X111305820Y-60460498D01*
X111195506Y-60519463D01*
X111098815Y-60598815D01*
X111019463Y-60695506D01*
X111000000Y-60731918D01*
X110980537Y-60695506D01*
X110901185Y-60598815D01*
X110835000Y-60544499D01*
X110835000Y-60427404D01*
X110899068Y-60272729D01*
X110935000Y-60092089D01*
X110935000Y-59907911D01*
X110899068Y-59727271D01*
X110828586Y-59557111D01*
X110726262Y-59403972D01*
X110596028Y-59273738D01*
X110442889Y-59171414D01*
X110272729Y-59100932D01*
X110092089Y-59065000D01*
X109907911Y-59065000D01*
X109727271Y-59100932D01*
X109557111Y-59171414D01*
X109403972Y-59273738D01*
X109273738Y-59403972D01*
X109171414Y-59557111D01*
X109100932Y-59727271D01*
X109065000Y-59907911D01*
X109065000Y-60092089D01*
X109100932Y-60272729D01*
X109171414Y-60442889D01*
X109248406Y-60558117D01*
X109198815Y-60598815D01*
X109119463Y-60695506D01*
X109060498Y-60805820D01*
X109024188Y-60925518D01*
X109011928Y-61050000D01*
X109011928Y-61950000D01*
X109024188Y-62074482D01*
X109060498Y-62194180D01*
X109119463Y-62304494D01*
X109198815Y-62401185D01*
X109295506Y-62480537D01*
X109405820Y-62539502D01*
X109525518Y-62575812D01*
X109650000Y-62588072D01*
X110161905Y-62588072D01*
X110148815Y-62598815D01*
X110120554Y-62633251D01*
X109971685Y-62678411D01*
X109856302Y-62740084D01*
X109817939Y-62760589D01*
X109716951Y-62843468D01*
X109716949Y-62843470D01*
X109683181Y-62871183D01*
X109655468Y-62904951D01*
X109466955Y-63093464D01*
X109410101Y-63104773D01*
X109221743Y-63182794D01*
X109052225Y-63296062D01*
X108908062Y-63440225D01*
X108794794Y-63609743D01*
X108716773Y-63798101D01*
X108676999Y-63998060D01*
X108676999Y-64201938D01*
X108716773Y-64401897D01*
X108722200Y-64415000D01*
X107293850Y-64415000D01*
X107290586Y-64407119D01*
X107188262Y-64253980D01*
X107058028Y-64123746D01*
X106904889Y-64021422D01*
X106734729Y-63950940D01*
X106554089Y-63915008D01*
X106369911Y-63915008D01*
X106189271Y-63950940D01*
X106019111Y-64021422D01*
X105865972Y-64123746D01*
X105736674Y-64253044D01*
X105649444Y-63814507D01*
X104696991Y-61515083D01*
X103507578Y-59735000D01*
X103720128Y-59735000D01*
X104151925Y-59649110D01*
X104558669Y-59480631D01*
X104924729Y-59236038D01*
X105236038Y-58924729D01*
X105480631Y-58558669D01*
X105649110Y-58151925D01*
X105735000Y-57720128D01*
X105735000Y-57279872D01*
X105649110Y-56848075D01*
X105480631Y-56441331D01*
X105236038Y-56075271D01*
X104924729Y-55763962D01*
X104558669Y-55519369D01*
X104151925Y-55350890D01*
X103720128Y-55265000D01*
X103279872Y-55265000D01*
X102848075Y-55350890D01*
X102441331Y-55519369D01*
X102075271Y-55763962D01*
X101763962Y-56075271D01*
X101519369Y-56441331D01*
X101350890Y-56848075D01*
X101265000Y-57279872D01*
X101265000Y-57492422D01*
X99484917Y-56303009D01*
X97185493Y-55350556D01*
X94744439Y-54865000D01*
X92255561Y-54865000D01*
X89814507Y-55350556D01*
X87515083Y-56303009D01*
X85735000Y-57492422D01*
X85735000Y-57279872D01*
X85649110Y-56848075D01*
X85480631Y-56441331D01*
X85236038Y-56075271D01*
X84924729Y-55763962D01*
X84558669Y-55519369D01*
X84151925Y-55350890D01*
X83720128Y-55265000D01*
X83279872Y-55265000D01*
X82848075Y-55350890D01*
X82441331Y-55519369D01*
X82075271Y-55763962D01*
X81763962Y-56075271D01*
X81519369Y-56441331D01*
X81350890Y-56848075D01*
X81265000Y-57279872D01*
X81265000Y-57720128D01*
X81350890Y-58151925D01*
X81519369Y-58558669D01*
X81763962Y-58924729D01*
X82075271Y-59236038D01*
X82441331Y-59480631D01*
X82848075Y-59649110D01*
X83279872Y-59735000D01*
X83492422Y-59735000D01*
X82303009Y-61515083D01*
X81350556Y-63814507D01*
X80865000Y-66255561D01*
X80865000Y-68744439D01*
X81350556Y-71185493D01*
X82303009Y-73484917D01*
X83492422Y-75265000D01*
X83279872Y-75265000D01*
X82848075Y-75350890D01*
X82441331Y-75519369D01*
X82075271Y-75763962D01*
X81763962Y-76075271D01*
X81519369Y-76441331D01*
X81350890Y-76848075D01*
X81265000Y-77279872D01*
X81265000Y-77720128D01*
X81350890Y-78151925D01*
X81519369Y-78558669D01*
X81763962Y-78924729D01*
X82075271Y-79236038D01*
X82441331Y-79480631D01*
X82848075Y-79649110D01*
X83279872Y-79735000D01*
X83720128Y-79735000D01*
X84151925Y-79649110D01*
X84558669Y-79480631D01*
X84924729Y-79236038D01*
X85236038Y-78924729D01*
X85480631Y-78558669D01*
X85649110Y-78151925D01*
X85735000Y-77720128D01*
X85735000Y-77507578D01*
X87515083Y-78696991D01*
X89814507Y-79649444D01*
X92255561Y-80135000D01*
X94744439Y-80135000D01*
X97185493Y-79649444D01*
X99484917Y-78696991D01*
X101265000Y-77507578D01*
X101265000Y-77720128D01*
X101350890Y-78151925D01*
X101519369Y-78558669D01*
X101763962Y-78924729D01*
X102075271Y-79236038D01*
X102441331Y-79480631D01*
X102848075Y-79649110D01*
X103279872Y-79735000D01*
X103720128Y-79735000D01*
X104151925Y-79649110D01*
X104558669Y-79480631D01*
X104622322Y-79438100D01*
X103595422Y-80465000D01*
X86005469Y-80465000D01*
X85962000Y-80460719D01*
X85918531Y-80465000D01*
X85918523Y-80465000D01*
X85788510Y-80477805D01*
X85621686Y-80528411D01*
X85467941Y-80610589D01*
X85366953Y-80693468D01*
X85366951Y-80693470D01*
X85333183Y-80721183D01*
X85305470Y-80754951D01*
X83804956Y-82255466D01*
X83771183Y-82283183D01*
X83663138Y-82414836D01*
X83655475Y-82403368D01*
X83448632Y-82196525D01*
X83205411Y-82034010D01*
X82935158Y-81922068D01*
X82648260Y-81865000D01*
X82355740Y-81865000D01*
X82068842Y-81922068D01*
X81798589Y-82034010D01*
X81555368Y-82196525D01*
X81423513Y-82328380D01*
X81401502Y-82255820D01*
X81342537Y-82145506D01*
X81263185Y-82048815D01*
X81166494Y-81969463D01*
X81056180Y-81910498D01*
X80936482Y-81874188D01*
X80812000Y-81861928D01*
X79297000Y-81861928D01*
X79297000Y-56883867D01*
X80721431Y-55459438D01*
X80753290Y-55433292D01*
X80820916Y-55350890D01*
X80857635Y-55306147D01*
X80935171Y-55161088D01*
X80981530Y-55008263D01*
X80982917Y-55003690D01*
X80994999Y-54881020D01*
X80994999Y-54881019D01*
X80999039Y-54840001D01*
X80994999Y-54798983D01*
X80994999Y-52370099D01*
X81069911Y-52385000D01*
X81254089Y-52385000D01*
X81434729Y-52349068D01*
X81468692Y-52335000D01*
X89409862Y-52335000D01*
X89350932Y-52477271D01*
G37*
%TD.AperFunction*%
D29*
X133177000Y-76433733D02*
X133083629Y-76340362D01*
X132717569Y-76095769D01*
X132310825Y-75927290D01*
X131879028Y-75841400D01*
X131438772Y-75841400D01*
X131006975Y-75927290D01*
X130600231Y-76095769D01*
X130234171Y-76340362D01*
X129922862Y-76651671D01*
X129678269Y-77017731D01*
X129509790Y-77424475D01*
X129423900Y-77856272D01*
X129423900Y-78296528D01*
X129509790Y-78728325D01*
X129678269Y-79135069D01*
X129922862Y-79501129D01*
X130234171Y-79812438D01*
X130543258Y-80018963D01*
X130503019Y-80015000D01*
X130503018Y-80015000D01*
X130462000Y-80010960D01*
X130420982Y-80015000D01*
X112460473Y-80015000D01*
X112763629Y-79812438D01*
X113074938Y-79501129D01*
X113319531Y-79135069D01*
X113488010Y-78728325D01*
X113573900Y-78296528D01*
X113573900Y-77856272D01*
X113488010Y-77424475D01*
X113319531Y-77017731D01*
X113074938Y-76651671D01*
X112763629Y-76340362D01*
X112397569Y-76095769D01*
X111990825Y-75927290D01*
X111559028Y-75841400D01*
X111118772Y-75841400D01*
X110686975Y-75927290D01*
X110280231Y-76095769D01*
X109914171Y-76340362D01*
X109602862Y-76651671D01*
X109358269Y-77017731D01*
X109189790Y-77424475D01*
X109103900Y-77856272D01*
X109103900Y-78296528D01*
X109189790Y-78728325D01*
X109358269Y-79135069D01*
X109602862Y-79501129D01*
X109914171Y-79812438D01*
X110217327Y-80015000D01*
X109335275Y-80015000D01*
X109290586Y-79907111D01*
X109188262Y-79753972D01*
X109058028Y-79623738D01*
X108904889Y-79521414D01*
X108734729Y-79450932D01*
X108554089Y-79415000D01*
X108369911Y-79415000D01*
X108189271Y-79450932D01*
X108059092Y-79504854D01*
X108090817Y-79478817D01*
X108146122Y-79411429D01*
X108201410Y-79344060D01*
X108216331Y-79316145D01*
X108283589Y-79190313D01*
X108334195Y-79023490D01*
X108347000Y-78893477D01*
X108347000Y-78893467D01*
X108351281Y-78850001D01*
X108347000Y-78806534D01*
X108347000Y-73735000D01*
X109418531Y-73735000D01*
X109462000Y-73739281D01*
X109505469Y-73735000D01*
X109505477Y-73735000D01*
X109635490Y-73722195D01*
X109802313Y-73671589D01*
X109956059Y-73589411D01*
X110090817Y-73478817D01*
X110118534Y-73445044D01*
X110707044Y-72856535D01*
X110763898Y-72845226D01*
X110952256Y-72767205D01*
X111121774Y-72653937D01*
X111265937Y-72509774D01*
X111379205Y-72340256D01*
X111457226Y-72151898D01*
X111497000Y-71951939D01*
X111497000Y-71748061D01*
X111457226Y-71548102D01*
X111379205Y-71359744D01*
X111265937Y-71190226D01*
X111210711Y-71135000D01*
X113839975Y-71135000D01*
X113809147Y-71209426D01*
X113754000Y-71486665D01*
X113754000Y-71769335D01*
X113809147Y-72046574D01*
X113917320Y-72307727D01*
X114074363Y-72542759D01*
X114274241Y-72742637D01*
X114506759Y-72898000D01*
X114274241Y-73053363D01*
X114074363Y-73253241D01*
X113917320Y-73488273D01*
X113809147Y-73749426D01*
X113754000Y-74026665D01*
X113754000Y-74309335D01*
X113809147Y-74586574D01*
X113917320Y-74847727D01*
X114074363Y-75082759D01*
X114274241Y-75282637D01*
X114506759Y-75438000D01*
X114274241Y-75593363D01*
X114074363Y-75793241D01*
X113917320Y-76028273D01*
X113809147Y-76289426D01*
X113754000Y-76566665D01*
X113754000Y-76849335D01*
X113809147Y-77126574D01*
X113917320Y-77387727D01*
X114074363Y-77622759D01*
X114274241Y-77822637D01*
X114412472Y-77915000D01*
X114369911Y-77915000D01*
X114189271Y-77950932D01*
X114019111Y-78021414D01*
X113865972Y-78123738D01*
X113735738Y-78253972D01*
X113633414Y-78407111D01*
X113562932Y-78577271D01*
X113527000Y-78757911D01*
X113527000Y-78942089D01*
X113562932Y-79122729D01*
X113633414Y-79292889D01*
X113735738Y-79446028D01*
X113865972Y-79576262D01*
X114019111Y-79678586D01*
X114189271Y-79749068D01*
X114281697Y-79767453D01*
X114284913Y-79769172D01*
X114442311Y-79816918D01*
X114564981Y-79829000D01*
X114564982Y-79829000D01*
X114606000Y-79833040D01*
X114647018Y-79829000D01*
X125048596Y-79829000D01*
X125203271Y-79893068D01*
X125383911Y-79929000D01*
X125568089Y-79929000D01*
X125748729Y-79893068D01*
X125918889Y-79822586D01*
X126072028Y-79720262D01*
X126202262Y-79590028D01*
X126304586Y-79436889D01*
X126375068Y-79266729D01*
X126411000Y-79086089D01*
X126411000Y-78901911D01*
X126375068Y-78721271D01*
X126304586Y-78551111D01*
X126202262Y-78397972D01*
X126072028Y-78267738D01*
X125918889Y-78165414D01*
X125748729Y-78094932D01*
X125568089Y-78059000D01*
X125383911Y-78059000D01*
X125203271Y-78094932D01*
X125048596Y-78159000D01*
X115093290Y-78159000D01*
X115077290Y-78143000D01*
X115330335Y-78143000D01*
X115607574Y-78087853D01*
X115868727Y-77979680D01*
X116103759Y-77822637D01*
X116303637Y-77622759D01*
X116380316Y-77508000D01*
X126450928Y-77508000D01*
X126463188Y-77632482D01*
X126499498Y-77752180D01*
X126558463Y-77862494D01*
X126637815Y-77959185D01*
X126734506Y-78038537D01*
X126844820Y-78097502D01*
X126964518Y-78133812D01*
X127089000Y-78146072D01*
X127603250Y-78143000D01*
X127762000Y-77984250D01*
X127762000Y-76835000D01*
X128016000Y-76835000D01*
X128016000Y-77984250D01*
X128174750Y-78143000D01*
X128689000Y-78146072D01*
X128813482Y-78133812D01*
X128933180Y-78097502D01*
X129043494Y-78038537D01*
X129140185Y-77959185D01*
X129219537Y-77862494D01*
X129278502Y-77752180D01*
X129314812Y-77632482D01*
X129327072Y-77508000D01*
X129324000Y-76993750D01*
X129165250Y-76835000D01*
X128016000Y-76835000D01*
X127762000Y-76835000D01*
X126612750Y-76835000D01*
X126454000Y-76993750D01*
X126450928Y-77508000D01*
X116380316Y-77508000D01*
X116460680Y-77387727D01*
X116568853Y-77126574D01*
X116624000Y-76849335D01*
X116624000Y-76566665D01*
X116568853Y-76289426D01*
X116460680Y-76028273D01*
X116303637Y-75793241D01*
X116103759Y-75593363D01*
X115871241Y-75438000D01*
X116103759Y-75282637D01*
X116303637Y-75082759D01*
X116460680Y-74847727D01*
X116568853Y-74586574D01*
X116624000Y-74309335D01*
X116624000Y-74026665D01*
X116568853Y-73749426D01*
X116460680Y-73488273D01*
X116303637Y-73253241D01*
X116103759Y-73053363D01*
X115871241Y-72898000D01*
X116103759Y-72742637D01*
X116303637Y-72542759D01*
X116460680Y-72307727D01*
X116568853Y-72046574D01*
X116624000Y-71769335D01*
X116624000Y-71486665D01*
X116568853Y-71209426D01*
X116538025Y-71135000D01*
X123667447Y-71135000D01*
X123706000Y-71138797D01*
X123744553Y-71135000D01*
X123744561Y-71135000D01*
X123859887Y-71123641D01*
X124007860Y-71078754D01*
X124144233Y-71005862D01*
X124263764Y-70907764D01*
X124288347Y-70877810D01*
X126517926Y-68648231D01*
X126509147Y-68669426D01*
X126454000Y-68946665D01*
X126454000Y-69229335D01*
X126509147Y-69506574D01*
X126617320Y-69767727D01*
X126774363Y-70002759D01*
X126974241Y-70202637D01*
X127206759Y-70358000D01*
X126974241Y-70513363D01*
X126774363Y-70713241D01*
X126617320Y-70948273D01*
X126509147Y-71209426D01*
X126454000Y-71486665D01*
X126454000Y-71769335D01*
X126509147Y-72046574D01*
X126617320Y-72307727D01*
X126774363Y-72542759D01*
X126974241Y-72742637D01*
X127206759Y-72898000D01*
X126974241Y-73053363D01*
X126774363Y-73253241D01*
X126617320Y-73488273D01*
X126509147Y-73749426D01*
X126454000Y-74026665D01*
X126454000Y-74309335D01*
X126509147Y-74586574D01*
X126617320Y-74847727D01*
X126774363Y-75082759D01*
X126972961Y-75281357D01*
X126964518Y-75282188D01*
X126844820Y-75318498D01*
X126734506Y-75377463D01*
X126637815Y-75456815D01*
X126558463Y-75553506D01*
X126499498Y-75663820D01*
X126463188Y-75783518D01*
X126450928Y-75908000D01*
X126454000Y-76422250D01*
X126612750Y-76581000D01*
X127762000Y-76581000D01*
X127762000Y-76561000D01*
X128016000Y-76561000D01*
X128016000Y-76581000D01*
X129165250Y-76581000D01*
X129324000Y-76422250D01*
X129327072Y-75908000D01*
X129314812Y-75783518D01*
X129278502Y-75663820D01*
X129219537Y-75553506D01*
X129140185Y-75456815D01*
X129043494Y-75377463D01*
X128933180Y-75318498D01*
X128813482Y-75282188D01*
X128805039Y-75281357D01*
X129003637Y-75082759D01*
X129160680Y-74847727D01*
X129268853Y-74586574D01*
X129324000Y-74309335D01*
X129324000Y-74026665D01*
X129268853Y-73749426D01*
X129160680Y-73488273D01*
X129003637Y-73253241D01*
X128803759Y-73053363D01*
X128571241Y-72898000D01*
X128803759Y-72742637D01*
X129003637Y-72542759D01*
X129160680Y-72307727D01*
X129268853Y-72046574D01*
X129324000Y-71769335D01*
X129324000Y-71486665D01*
X129268853Y-71209426D01*
X129160680Y-70948273D01*
X129003637Y-70713241D01*
X128803759Y-70513363D01*
X128571241Y-70358000D01*
X128803759Y-70202637D01*
X129003637Y-70002759D01*
X129160680Y-69767727D01*
X129268853Y-69506574D01*
X129324000Y-69229335D01*
X129324000Y-68946665D01*
X129268853Y-68669426D01*
X129183379Y-68463073D01*
X129289764Y-68375764D01*
X129314347Y-68345810D01*
X129572085Y-68088072D01*
X129661905Y-68088072D01*
X129648815Y-68098815D01*
X129569463Y-68195506D01*
X129510498Y-68305820D01*
X129474188Y-68425518D01*
X129461928Y-68550000D01*
X129461928Y-69450000D01*
X129474188Y-69574482D01*
X129510498Y-69694180D01*
X129569463Y-69804494D01*
X129576215Y-69812721D01*
X129544795Y-69859744D01*
X129466774Y-70048102D01*
X129427000Y-70248061D01*
X129427000Y-70451939D01*
X129466774Y-70651898D01*
X129544795Y-70840256D01*
X129658063Y-71009774D01*
X129802226Y-71153937D01*
X129971744Y-71267205D01*
X130160102Y-71345226D01*
X130360061Y-71385000D01*
X130563939Y-71385000D01*
X130763898Y-71345226D01*
X130952256Y-71267205D01*
X131121774Y-71153937D01*
X131265937Y-71009774D01*
X131379205Y-70840256D01*
X131457226Y-70651898D01*
X131497000Y-70451939D01*
X131497000Y-70248061D01*
X131457226Y-70048102D01*
X131385000Y-69873734D01*
X131385000Y-69859981D01*
X131430537Y-69804494D01*
X131489502Y-69694180D01*
X131525812Y-69574482D01*
X131538072Y-69450000D01*
X131538072Y-68550000D01*
X131525812Y-68425518D01*
X131489502Y-68305820D01*
X131430537Y-68195506D01*
X131351185Y-68098815D01*
X131254494Y-68019463D01*
X131238393Y-68010857D01*
X131323000Y-67926250D01*
X131323000Y-67127000D01*
X131577000Y-67127000D01*
X131577000Y-67926250D01*
X131735750Y-68085000D01*
X131850000Y-68088072D01*
X131974482Y-68075812D01*
X132094180Y-68039502D01*
X132204494Y-67980537D01*
X132301185Y-67901185D01*
X132380537Y-67804494D01*
X132439502Y-67694180D01*
X132475812Y-67574482D01*
X132488072Y-67450000D01*
X132485000Y-67285750D01*
X132326250Y-67127000D01*
X131577000Y-67127000D01*
X131323000Y-67127000D01*
X131303000Y-67127000D01*
X131303000Y-66873000D01*
X131323000Y-66873000D01*
X131323000Y-66073750D01*
X131577000Y-66073750D01*
X131577000Y-66873000D01*
X132326250Y-66873000D01*
X132485000Y-66714250D01*
X132488072Y-66550000D01*
X132475812Y-66425518D01*
X132439502Y-66305820D01*
X132380537Y-66195506D01*
X132301185Y-66098815D01*
X132204494Y-66019463D01*
X132094180Y-65960498D01*
X131974482Y-65924188D01*
X131850000Y-65911928D01*
X131735750Y-65915000D01*
X131577000Y-66073750D01*
X131323000Y-66073750D01*
X131164250Y-65915000D01*
X131050000Y-65911928D01*
X130925518Y-65924188D01*
X130805820Y-65960498D01*
X130695506Y-66019463D01*
X130598815Y-66098815D01*
X130519463Y-66195506D01*
X130500000Y-66231918D01*
X130480537Y-66195506D01*
X130401185Y-66098815D01*
X130304494Y-66019463D01*
X130194180Y-65960498D01*
X130074482Y-65924188D01*
X129950000Y-65911928D01*
X129777220Y-65911928D01*
X129807816Y-65886818D01*
X129835533Y-65853045D01*
X131100507Y-64588072D01*
X131337000Y-64588072D01*
X131461482Y-64575812D01*
X131581180Y-64539502D01*
X131691494Y-64480537D01*
X131788185Y-64401185D01*
X131867537Y-64304494D01*
X131926502Y-64194180D01*
X131962812Y-64074482D01*
X131975072Y-63950000D01*
X131975072Y-63050000D01*
X131962812Y-62925518D01*
X131926502Y-62805820D01*
X131867537Y-62695506D01*
X131788185Y-62598815D01*
X131691494Y-62519463D01*
X131675393Y-62510857D01*
X131760000Y-62426250D01*
X131760000Y-61627000D01*
X132014000Y-61627000D01*
X132014000Y-62426250D01*
X132172750Y-62585000D01*
X132287000Y-62588072D01*
X132411482Y-62575812D01*
X132531180Y-62539502D01*
X132641494Y-62480537D01*
X132738185Y-62401185D01*
X132817537Y-62304494D01*
X132876502Y-62194180D01*
X132912812Y-62074482D01*
X132925072Y-61950000D01*
X132922000Y-61785750D01*
X132763250Y-61627000D01*
X132014000Y-61627000D01*
X131760000Y-61627000D01*
X131740000Y-61627000D01*
X131740000Y-61373000D01*
X131760000Y-61373000D01*
X131760000Y-60573750D01*
X132014000Y-60573750D01*
X132014000Y-61373000D01*
X132763250Y-61373000D01*
X132922000Y-61214250D01*
X132925072Y-61050000D01*
X132912812Y-60925518D01*
X132876502Y-60805820D01*
X132817537Y-60695506D01*
X132738185Y-60598815D01*
X132641494Y-60519463D01*
X132531180Y-60460498D01*
X132411482Y-60424188D01*
X132287000Y-60411928D01*
X132172750Y-60415000D01*
X132014000Y-60573750D01*
X131760000Y-60573750D01*
X131601250Y-60415000D01*
X131487000Y-60411928D01*
X131362518Y-60424188D01*
X131242820Y-60460498D01*
X131132506Y-60519463D01*
X131035815Y-60598815D01*
X130956463Y-60695506D01*
X130937000Y-60731918D01*
X130917537Y-60695506D01*
X130859975Y-60625367D01*
X130861068Y-60622729D01*
X130897000Y-60442089D01*
X130897000Y-60257911D01*
X130861068Y-60077271D01*
X130790586Y-59907111D01*
X130688262Y-59753972D01*
X130558028Y-59623738D01*
X130404889Y-59521414D01*
X130234729Y-59450932D01*
X130054089Y-59415000D01*
X129869911Y-59415000D01*
X129689271Y-59450932D01*
X129519111Y-59521414D01*
X129365972Y-59623738D01*
X129235738Y-59753972D01*
X129133414Y-59907111D01*
X129062932Y-60077271D01*
X129027000Y-60257911D01*
X129027000Y-60442089D01*
X129062932Y-60622729D01*
X129080796Y-60665856D01*
X129076206Y-60671449D01*
X128952519Y-60504586D01*
X128744131Y-60315615D01*
X128558135Y-60204067D01*
X128568727Y-60199680D01*
X128803759Y-60042637D01*
X129003637Y-59842759D01*
X129160680Y-59607727D01*
X129268853Y-59346574D01*
X129324000Y-59069335D01*
X129324000Y-58786665D01*
X129268853Y-58509426D01*
X129160680Y-58248273D01*
X129003637Y-58013241D01*
X128803759Y-57813363D01*
X128568727Y-57656320D01*
X128307574Y-57548147D01*
X128030335Y-57493000D01*
X127747665Y-57493000D01*
X127470426Y-57548147D01*
X127209273Y-57656320D01*
X126974241Y-57813363D01*
X126774363Y-58013241D01*
X126617320Y-58248273D01*
X126509147Y-58509426D01*
X126454000Y-58786665D01*
X126454000Y-59069335D01*
X126509147Y-59346574D01*
X126617320Y-59607727D01*
X126774363Y-59842759D01*
X126974241Y-60042637D01*
X127209273Y-60199680D01*
X127219865Y-60204067D01*
X127033869Y-60315615D01*
X126825481Y-60504586D01*
X126657963Y-60730580D01*
X126537754Y-60984913D01*
X126497096Y-61118961D01*
X126619085Y-61341000D01*
X127762000Y-61341000D01*
X127762000Y-61321000D01*
X128016000Y-61321000D01*
X128016000Y-61341000D01*
X128036000Y-61341000D01*
X128036000Y-61595000D01*
X128016000Y-61595000D01*
X128016000Y-61615000D01*
X127762000Y-61615000D01*
X127762000Y-61595000D01*
X126619085Y-61595000D01*
X126497096Y-61817039D01*
X126537754Y-61951087D01*
X126657963Y-62205420D01*
X126825481Y-62431414D01*
X127033869Y-62620385D01*
X127219865Y-62731933D01*
X127209273Y-62736320D01*
X126974241Y-62893363D01*
X126774363Y-63093241D01*
X126617320Y-63328273D01*
X126509147Y-63589426D01*
X126454000Y-63866665D01*
X126454000Y-64149335D01*
X126498491Y-64373001D01*
X124874315Y-64373001D01*
X124930537Y-64304494D01*
X124989502Y-64194180D01*
X125025812Y-64074482D01*
X125038072Y-63950000D01*
X125038072Y-63050000D01*
X125025812Y-62925518D01*
X124989502Y-62805820D01*
X124930537Y-62695506D01*
X124851185Y-62598815D01*
X124754494Y-62519463D01*
X124738393Y-62510857D01*
X124823000Y-62426250D01*
X124823000Y-61627000D01*
X125077000Y-61627000D01*
X125077000Y-62426250D01*
X125235750Y-62585000D01*
X125350000Y-62588072D01*
X125474482Y-62575812D01*
X125594180Y-62539502D01*
X125704494Y-62480537D01*
X125801185Y-62401185D01*
X125880537Y-62304494D01*
X125939502Y-62194180D01*
X125975812Y-62074482D01*
X125988072Y-61950000D01*
X125985000Y-61785750D01*
X125826250Y-61627000D01*
X125077000Y-61627000D01*
X124823000Y-61627000D01*
X124803000Y-61627000D01*
X124803000Y-61373000D01*
X124823000Y-61373000D01*
X124823000Y-60573750D01*
X125077000Y-60573750D01*
X125077000Y-61373000D01*
X125826250Y-61373000D01*
X125985000Y-61214250D01*
X125988072Y-61050000D01*
X125975812Y-60925518D01*
X125939502Y-60805820D01*
X125880537Y-60695506D01*
X125801185Y-60598815D01*
X125704494Y-60519463D01*
X125594180Y-60460498D01*
X125474482Y-60424188D01*
X125350000Y-60411928D01*
X125235750Y-60415000D01*
X125077000Y-60573750D01*
X124823000Y-60573750D01*
X124664250Y-60415000D01*
X124550000Y-60411928D01*
X124425518Y-60424188D01*
X124305820Y-60460498D01*
X124195506Y-60519463D01*
X124098815Y-60598815D01*
X124019463Y-60695506D01*
X124000000Y-60731918D01*
X123980537Y-60695506D01*
X123901185Y-60598815D01*
X123804494Y-60519463D01*
X123799596Y-60516845D01*
X123778754Y-60448140D01*
X123775520Y-60442089D01*
X123705862Y-60311767D01*
X123607764Y-60192236D01*
X123577810Y-60167653D01*
X120286345Y-56876188D01*
X120261764Y-56846236D01*
X120248073Y-56835000D01*
X120486260Y-56835000D01*
X120773158Y-56777932D01*
X121043411Y-56665990D01*
X121286632Y-56503475D01*
X121493475Y-56296632D01*
X121610000Y-56122240D01*
X121726525Y-56296632D01*
X121933368Y-56503475D01*
X122176589Y-56665990D01*
X122446842Y-56777932D01*
X122733740Y-56835000D01*
X123026260Y-56835000D01*
X123313158Y-56777932D01*
X123583411Y-56665990D01*
X123826632Y-56503475D01*
X124033475Y-56296632D01*
X124150000Y-56122240D01*
X124266525Y-56296632D01*
X124473368Y-56503475D01*
X124716589Y-56665990D01*
X124986842Y-56777932D01*
X125273740Y-56835000D01*
X125566260Y-56835000D01*
X125853158Y-56777932D01*
X126123411Y-56665990D01*
X126366632Y-56503475D01*
X126573475Y-56296632D01*
X126695195Y-56114466D01*
X126764822Y-56231355D01*
X126959731Y-56447588D01*
X127193080Y-56621641D01*
X127455901Y-56746825D01*
X127603110Y-56791476D01*
X127833000Y-56670155D01*
X127833000Y-55477000D01*
X127813000Y-55477000D01*
X127813000Y-55223000D01*
X127833000Y-55223000D01*
X127833000Y-55203000D01*
X128087000Y-55203000D01*
X128087000Y-55223000D01*
X128107000Y-55223000D01*
X128107000Y-55477000D01*
X128087000Y-55477000D01*
X128087000Y-56670155D01*
X128316890Y-56791476D01*
X128464099Y-56746825D01*
X128726920Y-56621641D01*
X128960269Y-56447588D01*
X129036034Y-56363534D01*
X129060498Y-56444180D01*
X129119463Y-56554494D01*
X129198815Y-56651185D01*
X129295506Y-56730537D01*
X129405820Y-56789502D01*
X129525518Y-56825812D01*
X129650000Y-56838072D01*
X131350000Y-56838072D01*
X131474482Y-56825812D01*
X131594180Y-56789502D01*
X131704494Y-56730537D01*
X131801185Y-56651185D01*
X131880537Y-56554494D01*
X131939502Y-56444180D01*
X131975812Y-56324482D01*
X131988072Y-56200000D01*
X131988072Y-54863001D01*
X133177001Y-54863001D01*
X133177000Y-76433733D01*
%TA.AperFunction,Conductor*%
D30*
G36*
X133177000Y-76433733D02*
G01*
X133083629Y-76340362D01*
X132717569Y-76095769D01*
X132310825Y-75927290D01*
X131879028Y-75841400D01*
X131438772Y-75841400D01*
X131006975Y-75927290D01*
X130600231Y-76095769D01*
X130234171Y-76340362D01*
X129922862Y-76651671D01*
X129678269Y-77017731D01*
X129509790Y-77424475D01*
X129423900Y-77856272D01*
X129423900Y-78296528D01*
X129509790Y-78728325D01*
X129678269Y-79135069D01*
X129922862Y-79501129D01*
X130234171Y-79812438D01*
X130543258Y-80018963D01*
X130503019Y-80015000D01*
X130503018Y-80015000D01*
X130462000Y-80010960D01*
X130420982Y-80015000D01*
X112460473Y-80015000D01*
X112763629Y-79812438D01*
X113074938Y-79501129D01*
X113319531Y-79135069D01*
X113488010Y-78728325D01*
X113573900Y-78296528D01*
X113573900Y-77856272D01*
X113488010Y-77424475D01*
X113319531Y-77017731D01*
X113074938Y-76651671D01*
X112763629Y-76340362D01*
X112397569Y-76095769D01*
X111990825Y-75927290D01*
X111559028Y-75841400D01*
X111118772Y-75841400D01*
X110686975Y-75927290D01*
X110280231Y-76095769D01*
X109914171Y-76340362D01*
X109602862Y-76651671D01*
X109358269Y-77017731D01*
X109189790Y-77424475D01*
X109103900Y-77856272D01*
X109103900Y-78296528D01*
X109189790Y-78728325D01*
X109358269Y-79135069D01*
X109602862Y-79501129D01*
X109914171Y-79812438D01*
X110217327Y-80015000D01*
X109335275Y-80015000D01*
X109290586Y-79907111D01*
X109188262Y-79753972D01*
X109058028Y-79623738D01*
X108904889Y-79521414D01*
X108734729Y-79450932D01*
X108554089Y-79415000D01*
X108369911Y-79415000D01*
X108189271Y-79450932D01*
X108059092Y-79504854D01*
X108090817Y-79478817D01*
X108146122Y-79411429D01*
X108201410Y-79344060D01*
X108216331Y-79316145D01*
X108283589Y-79190313D01*
X108334195Y-79023490D01*
X108347000Y-78893477D01*
X108347000Y-78893467D01*
X108351281Y-78850001D01*
X108347000Y-78806534D01*
X108347000Y-73735000D01*
X109418531Y-73735000D01*
X109462000Y-73739281D01*
X109505469Y-73735000D01*
X109505477Y-73735000D01*
X109635490Y-73722195D01*
X109802313Y-73671589D01*
X109956059Y-73589411D01*
X110090817Y-73478817D01*
X110118534Y-73445044D01*
X110707044Y-72856535D01*
X110763898Y-72845226D01*
X110952256Y-72767205D01*
X111121774Y-72653937D01*
X111265937Y-72509774D01*
X111379205Y-72340256D01*
X111457226Y-72151898D01*
X111497000Y-71951939D01*
X111497000Y-71748061D01*
X111457226Y-71548102D01*
X111379205Y-71359744D01*
X111265937Y-71190226D01*
X111210711Y-71135000D01*
X113839975Y-71135000D01*
X113809147Y-71209426D01*
X113754000Y-71486665D01*
X113754000Y-71769335D01*
X113809147Y-72046574D01*
X113917320Y-72307727D01*
X114074363Y-72542759D01*
X114274241Y-72742637D01*
X114506759Y-72898000D01*
X114274241Y-73053363D01*
X114074363Y-73253241D01*
X113917320Y-73488273D01*
X113809147Y-73749426D01*
X113754000Y-74026665D01*
X113754000Y-74309335D01*
X113809147Y-74586574D01*
X113917320Y-74847727D01*
X114074363Y-75082759D01*
X114274241Y-75282637D01*
X114506759Y-75438000D01*
X114274241Y-75593363D01*
X114074363Y-75793241D01*
X113917320Y-76028273D01*
X113809147Y-76289426D01*
X113754000Y-76566665D01*
X113754000Y-76849335D01*
X113809147Y-77126574D01*
X113917320Y-77387727D01*
X114074363Y-77622759D01*
X114274241Y-77822637D01*
X114412472Y-77915000D01*
X114369911Y-77915000D01*
X114189271Y-77950932D01*
X114019111Y-78021414D01*
X113865972Y-78123738D01*
X113735738Y-78253972D01*
X113633414Y-78407111D01*
X113562932Y-78577271D01*
X113527000Y-78757911D01*
X113527000Y-78942089D01*
X113562932Y-79122729D01*
X113633414Y-79292889D01*
X113735738Y-79446028D01*
X113865972Y-79576262D01*
X114019111Y-79678586D01*
X114189271Y-79749068D01*
X114281697Y-79767453D01*
X114284913Y-79769172D01*
X114442311Y-79816918D01*
X114564981Y-79829000D01*
X114564982Y-79829000D01*
X114606000Y-79833040D01*
X114647018Y-79829000D01*
X125048596Y-79829000D01*
X125203271Y-79893068D01*
X125383911Y-79929000D01*
X125568089Y-79929000D01*
X125748729Y-79893068D01*
X125918889Y-79822586D01*
X126072028Y-79720262D01*
X126202262Y-79590028D01*
X126304586Y-79436889D01*
X126375068Y-79266729D01*
X126411000Y-79086089D01*
X126411000Y-78901911D01*
X126375068Y-78721271D01*
X126304586Y-78551111D01*
X126202262Y-78397972D01*
X126072028Y-78267738D01*
X125918889Y-78165414D01*
X125748729Y-78094932D01*
X125568089Y-78059000D01*
X125383911Y-78059000D01*
X125203271Y-78094932D01*
X125048596Y-78159000D01*
X115093290Y-78159000D01*
X115077290Y-78143000D01*
X115330335Y-78143000D01*
X115607574Y-78087853D01*
X115868727Y-77979680D01*
X116103759Y-77822637D01*
X116303637Y-77622759D01*
X116380316Y-77508000D01*
X126450928Y-77508000D01*
X126463188Y-77632482D01*
X126499498Y-77752180D01*
X126558463Y-77862494D01*
X126637815Y-77959185D01*
X126734506Y-78038537D01*
X126844820Y-78097502D01*
X126964518Y-78133812D01*
X127089000Y-78146072D01*
X127603250Y-78143000D01*
X127762000Y-77984250D01*
X127762000Y-76835000D01*
X128016000Y-76835000D01*
X128016000Y-77984250D01*
X128174750Y-78143000D01*
X128689000Y-78146072D01*
X128813482Y-78133812D01*
X128933180Y-78097502D01*
X129043494Y-78038537D01*
X129140185Y-77959185D01*
X129219537Y-77862494D01*
X129278502Y-77752180D01*
X129314812Y-77632482D01*
X129327072Y-77508000D01*
X129324000Y-76993750D01*
X129165250Y-76835000D01*
X128016000Y-76835000D01*
X127762000Y-76835000D01*
X126612750Y-76835000D01*
X126454000Y-76993750D01*
X126450928Y-77508000D01*
X116380316Y-77508000D01*
X116460680Y-77387727D01*
X116568853Y-77126574D01*
X116624000Y-76849335D01*
X116624000Y-76566665D01*
X116568853Y-76289426D01*
X116460680Y-76028273D01*
X116303637Y-75793241D01*
X116103759Y-75593363D01*
X115871241Y-75438000D01*
X116103759Y-75282637D01*
X116303637Y-75082759D01*
X116460680Y-74847727D01*
X116568853Y-74586574D01*
X116624000Y-74309335D01*
X116624000Y-74026665D01*
X116568853Y-73749426D01*
X116460680Y-73488273D01*
X116303637Y-73253241D01*
X116103759Y-73053363D01*
X115871241Y-72898000D01*
X116103759Y-72742637D01*
X116303637Y-72542759D01*
X116460680Y-72307727D01*
X116568853Y-72046574D01*
X116624000Y-71769335D01*
X116624000Y-71486665D01*
X116568853Y-71209426D01*
X116538025Y-71135000D01*
X123667447Y-71135000D01*
X123706000Y-71138797D01*
X123744553Y-71135000D01*
X123744561Y-71135000D01*
X123859887Y-71123641D01*
X124007860Y-71078754D01*
X124144233Y-71005862D01*
X124263764Y-70907764D01*
X124288347Y-70877810D01*
X126517926Y-68648231D01*
X126509147Y-68669426D01*
X126454000Y-68946665D01*
X126454000Y-69229335D01*
X126509147Y-69506574D01*
X126617320Y-69767727D01*
X126774363Y-70002759D01*
X126974241Y-70202637D01*
X127206759Y-70358000D01*
X126974241Y-70513363D01*
X126774363Y-70713241D01*
X126617320Y-70948273D01*
X126509147Y-71209426D01*
X126454000Y-71486665D01*
X126454000Y-71769335D01*
X126509147Y-72046574D01*
X126617320Y-72307727D01*
X126774363Y-72542759D01*
X126974241Y-72742637D01*
X127206759Y-72898000D01*
X126974241Y-73053363D01*
X126774363Y-73253241D01*
X126617320Y-73488273D01*
X126509147Y-73749426D01*
X126454000Y-74026665D01*
X126454000Y-74309335D01*
X126509147Y-74586574D01*
X126617320Y-74847727D01*
X126774363Y-75082759D01*
X126972961Y-75281357D01*
X126964518Y-75282188D01*
X126844820Y-75318498D01*
X126734506Y-75377463D01*
X126637815Y-75456815D01*
X126558463Y-75553506D01*
X126499498Y-75663820D01*
X126463188Y-75783518D01*
X126450928Y-75908000D01*
X126454000Y-76422250D01*
X126612750Y-76581000D01*
X127762000Y-76581000D01*
X127762000Y-76561000D01*
X128016000Y-76561000D01*
X128016000Y-76581000D01*
X129165250Y-76581000D01*
X129324000Y-76422250D01*
X129327072Y-75908000D01*
X129314812Y-75783518D01*
X129278502Y-75663820D01*
X129219537Y-75553506D01*
X129140185Y-75456815D01*
X129043494Y-75377463D01*
X128933180Y-75318498D01*
X128813482Y-75282188D01*
X128805039Y-75281357D01*
X129003637Y-75082759D01*
X129160680Y-74847727D01*
X129268853Y-74586574D01*
X129324000Y-74309335D01*
X129324000Y-74026665D01*
X129268853Y-73749426D01*
X129160680Y-73488273D01*
X129003637Y-73253241D01*
X128803759Y-73053363D01*
X128571241Y-72898000D01*
X128803759Y-72742637D01*
X129003637Y-72542759D01*
X129160680Y-72307727D01*
X129268853Y-72046574D01*
X129324000Y-71769335D01*
X129324000Y-71486665D01*
X129268853Y-71209426D01*
X129160680Y-70948273D01*
X129003637Y-70713241D01*
X128803759Y-70513363D01*
X128571241Y-70358000D01*
X128803759Y-70202637D01*
X129003637Y-70002759D01*
X129160680Y-69767727D01*
X129268853Y-69506574D01*
X129324000Y-69229335D01*
X129324000Y-68946665D01*
X129268853Y-68669426D01*
X129183379Y-68463073D01*
X129289764Y-68375764D01*
X129314347Y-68345810D01*
X129572085Y-68088072D01*
X129661905Y-68088072D01*
X129648815Y-68098815D01*
X129569463Y-68195506D01*
X129510498Y-68305820D01*
X129474188Y-68425518D01*
X129461928Y-68550000D01*
X129461928Y-69450000D01*
X129474188Y-69574482D01*
X129510498Y-69694180D01*
X129569463Y-69804494D01*
X129576215Y-69812721D01*
X129544795Y-69859744D01*
X129466774Y-70048102D01*
X129427000Y-70248061D01*
X129427000Y-70451939D01*
X129466774Y-70651898D01*
X129544795Y-70840256D01*
X129658063Y-71009774D01*
X129802226Y-71153937D01*
X129971744Y-71267205D01*
X130160102Y-71345226D01*
X130360061Y-71385000D01*
X130563939Y-71385000D01*
X130763898Y-71345226D01*
X130952256Y-71267205D01*
X131121774Y-71153937D01*
X131265937Y-71009774D01*
X131379205Y-70840256D01*
X131457226Y-70651898D01*
X131497000Y-70451939D01*
X131497000Y-70248061D01*
X131457226Y-70048102D01*
X131385000Y-69873734D01*
X131385000Y-69859981D01*
X131430537Y-69804494D01*
X131489502Y-69694180D01*
X131525812Y-69574482D01*
X131538072Y-69450000D01*
X131538072Y-68550000D01*
X131525812Y-68425518D01*
X131489502Y-68305820D01*
X131430537Y-68195506D01*
X131351185Y-68098815D01*
X131254494Y-68019463D01*
X131238393Y-68010857D01*
X131323000Y-67926250D01*
X131323000Y-67127000D01*
X131577000Y-67127000D01*
X131577000Y-67926250D01*
X131735750Y-68085000D01*
X131850000Y-68088072D01*
X131974482Y-68075812D01*
X132094180Y-68039502D01*
X132204494Y-67980537D01*
X132301185Y-67901185D01*
X132380537Y-67804494D01*
X132439502Y-67694180D01*
X132475812Y-67574482D01*
X132488072Y-67450000D01*
X132485000Y-67285750D01*
X132326250Y-67127000D01*
X131577000Y-67127000D01*
X131323000Y-67127000D01*
X131303000Y-67127000D01*
X131303000Y-66873000D01*
X131323000Y-66873000D01*
X131323000Y-66073750D01*
X131577000Y-66073750D01*
X131577000Y-66873000D01*
X132326250Y-66873000D01*
X132485000Y-66714250D01*
X132488072Y-66550000D01*
X132475812Y-66425518D01*
X132439502Y-66305820D01*
X132380537Y-66195506D01*
X132301185Y-66098815D01*
X132204494Y-66019463D01*
X132094180Y-65960498D01*
X131974482Y-65924188D01*
X131850000Y-65911928D01*
X131735750Y-65915000D01*
X131577000Y-66073750D01*
X131323000Y-66073750D01*
X131164250Y-65915000D01*
X131050000Y-65911928D01*
X130925518Y-65924188D01*
X130805820Y-65960498D01*
X130695506Y-66019463D01*
X130598815Y-66098815D01*
X130519463Y-66195506D01*
X130500000Y-66231918D01*
X130480537Y-66195506D01*
X130401185Y-66098815D01*
X130304494Y-66019463D01*
X130194180Y-65960498D01*
X130074482Y-65924188D01*
X129950000Y-65911928D01*
X129777220Y-65911928D01*
X129807816Y-65886818D01*
X129835533Y-65853045D01*
X131100507Y-64588072D01*
X131337000Y-64588072D01*
X131461482Y-64575812D01*
X131581180Y-64539502D01*
X131691494Y-64480537D01*
X131788185Y-64401185D01*
X131867537Y-64304494D01*
X131926502Y-64194180D01*
X131962812Y-64074482D01*
X131975072Y-63950000D01*
X131975072Y-63050000D01*
X131962812Y-62925518D01*
X131926502Y-62805820D01*
X131867537Y-62695506D01*
X131788185Y-62598815D01*
X131691494Y-62519463D01*
X131675393Y-62510857D01*
X131760000Y-62426250D01*
X131760000Y-61627000D01*
X132014000Y-61627000D01*
X132014000Y-62426250D01*
X132172750Y-62585000D01*
X132287000Y-62588072D01*
X132411482Y-62575812D01*
X132531180Y-62539502D01*
X132641494Y-62480537D01*
X132738185Y-62401185D01*
X132817537Y-62304494D01*
X132876502Y-62194180D01*
X132912812Y-62074482D01*
X132925072Y-61950000D01*
X132922000Y-61785750D01*
X132763250Y-61627000D01*
X132014000Y-61627000D01*
X131760000Y-61627000D01*
X131740000Y-61627000D01*
X131740000Y-61373000D01*
X131760000Y-61373000D01*
X131760000Y-60573750D01*
X132014000Y-60573750D01*
X132014000Y-61373000D01*
X132763250Y-61373000D01*
X132922000Y-61214250D01*
X132925072Y-61050000D01*
X132912812Y-60925518D01*
X132876502Y-60805820D01*
X132817537Y-60695506D01*
X132738185Y-60598815D01*
X132641494Y-60519463D01*
X132531180Y-60460498D01*
X132411482Y-60424188D01*
X132287000Y-60411928D01*
X132172750Y-60415000D01*
X132014000Y-60573750D01*
X131760000Y-60573750D01*
X131601250Y-60415000D01*
X131487000Y-60411928D01*
X131362518Y-60424188D01*
X131242820Y-60460498D01*
X131132506Y-60519463D01*
X131035815Y-60598815D01*
X130956463Y-60695506D01*
X130937000Y-60731918D01*
X130917537Y-60695506D01*
X130859975Y-60625367D01*
X130861068Y-60622729D01*
X130897000Y-60442089D01*
X130897000Y-60257911D01*
X130861068Y-60077271D01*
X130790586Y-59907111D01*
X130688262Y-59753972D01*
X130558028Y-59623738D01*
X130404889Y-59521414D01*
X130234729Y-59450932D01*
X130054089Y-59415000D01*
X129869911Y-59415000D01*
X129689271Y-59450932D01*
X129519111Y-59521414D01*
X129365972Y-59623738D01*
X129235738Y-59753972D01*
X129133414Y-59907111D01*
X129062932Y-60077271D01*
X129027000Y-60257911D01*
X129027000Y-60442089D01*
X129062932Y-60622729D01*
X129080796Y-60665856D01*
X129076206Y-60671449D01*
X128952519Y-60504586D01*
X128744131Y-60315615D01*
X128558135Y-60204067D01*
X128568727Y-60199680D01*
X128803759Y-60042637D01*
X129003637Y-59842759D01*
X129160680Y-59607727D01*
X129268853Y-59346574D01*
X129324000Y-59069335D01*
X129324000Y-58786665D01*
X129268853Y-58509426D01*
X129160680Y-58248273D01*
X129003637Y-58013241D01*
X128803759Y-57813363D01*
X128568727Y-57656320D01*
X128307574Y-57548147D01*
X128030335Y-57493000D01*
X127747665Y-57493000D01*
X127470426Y-57548147D01*
X127209273Y-57656320D01*
X126974241Y-57813363D01*
X126774363Y-58013241D01*
X126617320Y-58248273D01*
X126509147Y-58509426D01*
X126454000Y-58786665D01*
X126454000Y-59069335D01*
X126509147Y-59346574D01*
X126617320Y-59607727D01*
X126774363Y-59842759D01*
X126974241Y-60042637D01*
X127209273Y-60199680D01*
X127219865Y-60204067D01*
X127033869Y-60315615D01*
X126825481Y-60504586D01*
X126657963Y-60730580D01*
X126537754Y-60984913D01*
X126497096Y-61118961D01*
X126619085Y-61341000D01*
X127762000Y-61341000D01*
X127762000Y-61321000D01*
X128016000Y-61321000D01*
X128016000Y-61341000D01*
X128036000Y-61341000D01*
X128036000Y-61595000D01*
X128016000Y-61595000D01*
X128016000Y-61615000D01*
X127762000Y-61615000D01*
X127762000Y-61595000D01*
X126619085Y-61595000D01*
X126497096Y-61817039D01*
X126537754Y-61951087D01*
X126657963Y-62205420D01*
X126825481Y-62431414D01*
X127033869Y-62620385D01*
X127219865Y-62731933D01*
X127209273Y-62736320D01*
X126974241Y-62893363D01*
X126774363Y-63093241D01*
X126617320Y-63328273D01*
X126509147Y-63589426D01*
X126454000Y-63866665D01*
X126454000Y-64149335D01*
X126498491Y-64373001D01*
X124874315Y-64373001D01*
X124930537Y-64304494D01*
X124989502Y-64194180D01*
X125025812Y-64074482D01*
X125038072Y-63950000D01*
X125038072Y-63050000D01*
X125025812Y-62925518D01*
X124989502Y-62805820D01*
X124930537Y-62695506D01*
X124851185Y-62598815D01*
X124754494Y-62519463D01*
X124738393Y-62510857D01*
X124823000Y-62426250D01*
X124823000Y-61627000D01*
X125077000Y-61627000D01*
X125077000Y-62426250D01*
X125235750Y-62585000D01*
X125350000Y-62588072D01*
X125474482Y-62575812D01*
X125594180Y-62539502D01*
X125704494Y-62480537D01*
X125801185Y-62401185D01*
X125880537Y-62304494D01*
X125939502Y-62194180D01*
X125975812Y-62074482D01*
X125988072Y-61950000D01*
X125985000Y-61785750D01*
X125826250Y-61627000D01*
X125077000Y-61627000D01*
X124823000Y-61627000D01*
X124803000Y-61627000D01*
X124803000Y-61373000D01*
X124823000Y-61373000D01*
X124823000Y-60573750D01*
X125077000Y-60573750D01*
X125077000Y-61373000D01*
X125826250Y-61373000D01*
X125985000Y-61214250D01*
X125988072Y-61050000D01*
X125975812Y-60925518D01*
X125939502Y-60805820D01*
X125880537Y-60695506D01*
X125801185Y-60598815D01*
X125704494Y-60519463D01*
X125594180Y-60460498D01*
X125474482Y-60424188D01*
X125350000Y-60411928D01*
X125235750Y-60415000D01*
X125077000Y-60573750D01*
X124823000Y-60573750D01*
X124664250Y-60415000D01*
X124550000Y-60411928D01*
X124425518Y-60424188D01*
X124305820Y-60460498D01*
X124195506Y-60519463D01*
X124098815Y-60598815D01*
X124019463Y-60695506D01*
X124000000Y-60731918D01*
X123980537Y-60695506D01*
X123901185Y-60598815D01*
X123804494Y-60519463D01*
X123799596Y-60516845D01*
X123778754Y-60448140D01*
X123775520Y-60442089D01*
X123705862Y-60311767D01*
X123607764Y-60192236D01*
X123577810Y-60167653D01*
X120286345Y-56876188D01*
X120261764Y-56846236D01*
X120248073Y-56835000D01*
X120486260Y-56835000D01*
X120773158Y-56777932D01*
X121043411Y-56665990D01*
X121286632Y-56503475D01*
X121493475Y-56296632D01*
X121610000Y-56122240D01*
X121726525Y-56296632D01*
X121933368Y-56503475D01*
X122176589Y-56665990D01*
X122446842Y-56777932D01*
X122733740Y-56835000D01*
X123026260Y-56835000D01*
X123313158Y-56777932D01*
X123583411Y-56665990D01*
X123826632Y-56503475D01*
X124033475Y-56296632D01*
X124150000Y-56122240D01*
X124266525Y-56296632D01*
X124473368Y-56503475D01*
X124716589Y-56665990D01*
X124986842Y-56777932D01*
X125273740Y-56835000D01*
X125566260Y-56835000D01*
X125853158Y-56777932D01*
X126123411Y-56665990D01*
X126366632Y-56503475D01*
X126573475Y-56296632D01*
X126695195Y-56114466D01*
X126764822Y-56231355D01*
X126959731Y-56447588D01*
X127193080Y-56621641D01*
X127455901Y-56746825D01*
X127603110Y-56791476D01*
X127833000Y-56670155D01*
X127833000Y-55477000D01*
X127813000Y-55477000D01*
X127813000Y-55223000D01*
X127833000Y-55223000D01*
X127833000Y-55203000D01*
X128087000Y-55203000D01*
X128087000Y-55223000D01*
X128107000Y-55223000D01*
X128107000Y-55477000D01*
X128087000Y-55477000D01*
X128087000Y-56670155D01*
X128316890Y-56791476D01*
X128464099Y-56746825D01*
X128726920Y-56621641D01*
X128960269Y-56447588D01*
X129036034Y-56363534D01*
X129060498Y-56444180D01*
X129119463Y-56554494D01*
X129198815Y-56651185D01*
X129295506Y-56730537D01*
X129405820Y-56789502D01*
X129525518Y-56825812D01*
X129650000Y-56838072D01*
X131350000Y-56838072D01*
X131474482Y-56825812D01*
X131594180Y-56789502D01*
X131704494Y-56730537D01*
X131801185Y-56651185D01*
X131880537Y-56554494D01*
X131939502Y-56444180D01*
X131975812Y-56324482D01*
X131988072Y-56200000D01*
X131988072Y-54863001D01*
X133177001Y-54863001D01*
X133177000Y-76433733D01*
G37*
%TD.AperFunction*%
D29*
X126454000Y-66406665D02*
X126454000Y-66689335D01*
X126509147Y-66966574D01*
X126536662Y-67033000D01*
X126276556Y-67033000D01*
X126238000Y-67029203D01*
X126199444Y-67033000D01*
X126199439Y-67033000D01*
X126159026Y-67036980D01*
X126084113Y-67044358D01*
X125936140Y-67089246D01*
X125799767Y-67162138D01*
X125680236Y-67260236D01*
X125655655Y-67290188D01*
X123380843Y-69565000D01*
X116544652Y-69565000D01*
X116568853Y-69506574D01*
X116624000Y-69229335D01*
X116624000Y-68946665D01*
X116568853Y-68669426D01*
X116460680Y-68408273D01*
X116303637Y-68173241D01*
X116103759Y-67973363D01*
X115871241Y-67818000D01*
X116103759Y-67662637D01*
X116303637Y-67462759D01*
X116460680Y-67227727D01*
X116568853Y-66966574D01*
X116624000Y-66689335D01*
X116624000Y-66416429D01*
X116624708Y-66417292D01*
X116737292Y-66509687D01*
X116751853Y-66521637D01*
X116896912Y-66599173D01*
X117054310Y-66646919D01*
X117217999Y-66663041D01*
X117259017Y-66659001D01*
X119444727Y-66659001D01*
X119427012Y-66748061D01*
X119427012Y-66951939D01*
X119466786Y-67151898D01*
X119544807Y-67340256D01*
X119658075Y-67509774D01*
X119802238Y-67653937D01*
X119971756Y-67767205D01*
X120160114Y-67845226D01*
X120360073Y-67885000D01*
X120563951Y-67885000D01*
X120763910Y-67845226D01*
X120952268Y-67767205D01*
X121121786Y-67653937D01*
X121265949Y-67509774D01*
X121379217Y-67340256D01*
X121457238Y-67151898D01*
X121468547Y-67095043D01*
X122420590Y-66143001D01*
X126506447Y-66143001D01*
X126454000Y-66406665D01*
%TA.AperFunction,Conductor*%
D30*
G36*
X126454000Y-66406665D02*
G01*
X126454000Y-66689335D01*
X126509147Y-66966574D01*
X126536662Y-67033000D01*
X126276556Y-67033000D01*
X126238000Y-67029203D01*
X126199444Y-67033000D01*
X126199439Y-67033000D01*
X126159026Y-67036980D01*
X126084113Y-67044358D01*
X125936140Y-67089246D01*
X125799767Y-67162138D01*
X125680236Y-67260236D01*
X125655655Y-67290188D01*
X123380843Y-69565000D01*
X116544652Y-69565000D01*
X116568853Y-69506574D01*
X116624000Y-69229335D01*
X116624000Y-68946665D01*
X116568853Y-68669426D01*
X116460680Y-68408273D01*
X116303637Y-68173241D01*
X116103759Y-67973363D01*
X115871241Y-67818000D01*
X116103759Y-67662637D01*
X116303637Y-67462759D01*
X116460680Y-67227727D01*
X116568853Y-66966574D01*
X116624000Y-66689335D01*
X116624000Y-66416429D01*
X116624708Y-66417292D01*
X116737292Y-66509687D01*
X116751853Y-66521637D01*
X116896912Y-66599173D01*
X117054310Y-66646919D01*
X117217999Y-66663041D01*
X117259017Y-66659001D01*
X119444727Y-66659001D01*
X119427012Y-66748061D01*
X119427012Y-66951939D01*
X119466786Y-67151898D01*
X119544807Y-67340256D01*
X119658075Y-67509774D01*
X119802238Y-67653937D01*
X119971756Y-67767205D01*
X120160114Y-67845226D01*
X120360073Y-67885000D01*
X120563951Y-67885000D01*
X120763910Y-67845226D01*
X120952268Y-67767205D01*
X121121786Y-67653937D01*
X121265949Y-67509774D01*
X121379217Y-67340256D01*
X121457238Y-67151898D01*
X121468547Y-67095043D01*
X122420590Y-66143001D01*
X126506447Y-66143001D01*
X126454000Y-66406665D01*
G37*
%TD.AperFunction*%
D29*
X71493425Y-50557093D02*
X71942907Y-51006575D01*
X72471442Y-51359730D01*
X73058719Y-51602988D01*
X73682168Y-51727000D01*
X74317832Y-51727000D01*
X74941281Y-51602988D01*
X75528558Y-51359730D01*
X76057093Y-51006575D01*
X76506575Y-50557093D01*
X76515000Y-50544484D01*
X76515001Y-55013420D01*
X76123422Y-55405000D01*
X76080122Y-55405000D01*
X76080537Y-55404494D01*
X76139502Y-55294180D01*
X76175812Y-55174482D01*
X76188072Y-55050000D01*
X76185000Y-54285750D01*
X76026250Y-54127000D01*
X74627000Y-54127000D01*
X74627000Y-54147000D01*
X74373000Y-54147000D01*
X74373000Y-54127000D01*
X72973750Y-54127000D01*
X72815000Y-54285750D01*
X72811928Y-55050000D01*
X72824188Y-55174482D01*
X72860498Y-55294180D01*
X72919463Y-55404494D01*
X72998815Y-55501185D01*
X73095506Y-55580537D01*
X73109546Y-55588042D01*
X73006772Y-55741853D01*
X72879754Y-56048504D01*
X72815000Y-56374042D01*
X72815000Y-56705958D01*
X72879754Y-57031496D01*
X73006772Y-57338147D01*
X73191175Y-57614125D01*
X73387050Y-57810000D01*
X73191175Y-58005875D01*
X73006772Y-58281853D01*
X72879754Y-58588504D01*
X72815000Y-58914042D01*
X72815000Y-59245958D01*
X72879754Y-59571496D01*
X73006772Y-59878147D01*
X73191175Y-60154125D01*
X73387050Y-60350000D01*
X73191175Y-60545875D01*
X73006772Y-60821853D01*
X72879754Y-61128504D01*
X72815000Y-61454042D01*
X72815000Y-61785958D01*
X72879754Y-62111496D01*
X73006772Y-62418147D01*
X73191175Y-62694125D01*
X73425875Y-62928825D01*
X73701853Y-63113228D01*
X74008504Y-63240246D01*
X74334042Y-63305000D01*
X74665958Y-63305000D01*
X74991496Y-63240246D01*
X75298147Y-63113228D01*
X75574125Y-62928825D01*
X75665000Y-62837950D01*
X75665000Y-64286171D01*
X75644943Y-64265689D01*
X75637574Y-64259592D01*
X75486332Y-64136242D01*
X75434614Y-64101881D01*
X75383393Y-64066809D01*
X75374980Y-64062260D01*
X75202657Y-63970635D01*
X75145261Y-63946978D01*
X75088193Y-63922519D01*
X75079057Y-63919690D01*
X74892220Y-63863281D01*
X74831302Y-63851219D01*
X74770590Y-63838314D01*
X74761078Y-63837314D01*
X74566845Y-63818269D01*
X74566837Y-63818269D01*
X74533647Y-63815000D01*
X71533505Y-63815000D01*
X71439454Y-63805778D01*
X71381213Y-63788194D01*
X71327500Y-63759635D01*
X71280354Y-63721183D01*
X71241577Y-63674310D01*
X71212642Y-63620796D01*
X71194651Y-63562677D01*
X71185000Y-63470855D01*
X71185000Y-52950000D01*
X72811928Y-52950000D01*
X72815000Y-53714250D01*
X72973750Y-53873000D01*
X74373000Y-53873000D01*
X74373000Y-52473750D01*
X74627000Y-52473750D01*
X74627000Y-53873000D01*
X76026250Y-53873000D01*
X76185000Y-53714250D01*
X76188072Y-52950000D01*
X76175812Y-52825518D01*
X76139502Y-52705820D01*
X76080537Y-52595506D01*
X76001185Y-52498815D01*
X75904494Y-52419463D01*
X75794180Y-52360498D01*
X75674482Y-52324188D01*
X75550000Y-52311928D01*
X74785750Y-52315000D01*
X74627000Y-52473750D01*
X74373000Y-52473750D01*
X74214250Y-52315000D01*
X73450000Y-52311928D01*
X73325518Y-52324188D01*
X73205820Y-52360498D01*
X73095506Y-52419463D01*
X72998815Y-52498815D01*
X72919463Y-52595506D01*
X72860498Y-52705820D01*
X72824188Y-52825518D01*
X72811928Y-52950000D01*
X71185000Y-52950000D01*
X71185000Y-50095501D01*
X71493425Y-50557093D01*
%TA.AperFunction,Conductor*%
D30*
G36*
X71493425Y-50557093D02*
G01*
X71942907Y-51006575D01*
X72471442Y-51359730D01*
X73058719Y-51602988D01*
X73682168Y-51727000D01*
X74317832Y-51727000D01*
X74941281Y-51602988D01*
X75528558Y-51359730D01*
X76057093Y-51006575D01*
X76506575Y-50557093D01*
X76515000Y-50544484D01*
X76515001Y-55013420D01*
X76123422Y-55405000D01*
X76080122Y-55405000D01*
X76080537Y-55404494D01*
X76139502Y-55294180D01*
X76175812Y-55174482D01*
X76188072Y-55050000D01*
X76185000Y-54285750D01*
X76026250Y-54127000D01*
X74627000Y-54127000D01*
X74627000Y-54147000D01*
X74373000Y-54147000D01*
X74373000Y-54127000D01*
X72973750Y-54127000D01*
X72815000Y-54285750D01*
X72811928Y-55050000D01*
X72824188Y-55174482D01*
X72860498Y-55294180D01*
X72919463Y-55404494D01*
X72998815Y-55501185D01*
X73095506Y-55580537D01*
X73109546Y-55588042D01*
X73006772Y-55741853D01*
X72879754Y-56048504D01*
X72815000Y-56374042D01*
X72815000Y-56705958D01*
X72879754Y-57031496D01*
X73006772Y-57338147D01*
X73191175Y-57614125D01*
X73387050Y-57810000D01*
X73191175Y-58005875D01*
X73006772Y-58281853D01*
X72879754Y-58588504D01*
X72815000Y-58914042D01*
X72815000Y-59245958D01*
X72879754Y-59571496D01*
X73006772Y-59878147D01*
X73191175Y-60154125D01*
X73387050Y-60350000D01*
X73191175Y-60545875D01*
X73006772Y-60821853D01*
X72879754Y-61128504D01*
X72815000Y-61454042D01*
X72815000Y-61785958D01*
X72879754Y-62111496D01*
X73006772Y-62418147D01*
X73191175Y-62694125D01*
X73425875Y-62928825D01*
X73701853Y-63113228D01*
X74008504Y-63240246D01*
X74334042Y-63305000D01*
X74665958Y-63305000D01*
X74991496Y-63240246D01*
X75298147Y-63113228D01*
X75574125Y-62928825D01*
X75665000Y-62837950D01*
X75665000Y-64286171D01*
X75644943Y-64265689D01*
X75637574Y-64259592D01*
X75486332Y-64136242D01*
X75434614Y-64101881D01*
X75383393Y-64066809D01*
X75374980Y-64062260D01*
X75202657Y-63970635D01*
X75145261Y-63946978D01*
X75088193Y-63922519D01*
X75079057Y-63919690D01*
X74892220Y-63863281D01*
X74831302Y-63851219D01*
X74770590Y-63838314D01*
X74761078Y-63837314D01*
X74566845Y-63818269D01*
X74566837Y-63818269D01*
X74533647Y-63815000D01*
X71533505Y-63815000D01*
X71439454Y-63805778D01*
X71381213Y-63788194D01*
X71327500Y-63759635D01*
X71280354Y-63721183D01*
X71241577Y-63674310D01*
X71212642Y-63620796D01*
X71194651Y-63562677D01*
X71185000Y-63470855D01*
X71185000Y-52950000D01*
X72811928Y-52950000D01*
X72815000Y-53714250D01*
X72973750Y-53873000D01*
X74373000Y-53873000D01*
X74373000Y-52473750D01*
X74627000Y-52473750D01*
X74627000Y-53873000D01*
X76026250Y-53873000D01*
X76185000Y-53714250D01*
X76188072Y-52950000D01*
X76175812Y-52825518D01*
X76139502Y-52705820D01*
X76080537Y-52595506D01*
X76001185Y-52498815D01*
X75904494Y-52419463D01*
X75794180Y-52360498D01*
X75674482Y-52324188D01*
X75550000Y-52311928D01*
X74785750Y-52315000D01*
X74627000Y-52473750D01*
X74373000Y-52473750D01*
X74214250Y-52315000D01*
X73450000Y-52311928D01*
X73325518Y-52324188D01*
X73205820Y-52360498D01*
X73095506Y-52419463D01*
X72998815Y-52498815D01*
X72919463Y-52595506D01*
X72860498Y-52705820D01*
X72824188Y-52825518D01*
X72811928Y-52950000D01*
X71185000Y-52950000D01*
X71185000Y-50095501D01*
X71493425Y-50557093D01*
G37*
%TD.AperFunction*%
D29*
X122045408Y-60855565D02*
X122024188Y-60925518D01*
X122011928Y-61050000D01*
X122011928Y-61950000D01*
X122024188Y-62074482D01*
X122060498Y-62194180D01*
X122119463Y-62304494D01*
X122198815Y-62401185D01*
X122295506Y-62480537D01*
X122405820Y-62539502D01*
X122525518Y-62575812D01*
X122650000Y-62588072D01*
X123161905Y-62588072D01*
X123148815Y-62598815D01*
X123135532Y-62615000D01*
X120355469Y-62615000D01*
X120312000Y-62610719D01*
X120268531Y-62615000D01*
X120268523Y-62615000D01*
X120138510Y-62627805D01*
X119971687Y-62678411D01*
X119817941Y-62760589D01*
X119716957Y-62843465D01*
X119660102Y-62854774D01*
X119471744Y-62932795D01*
X119395543Y-62983711D01*
X119389812Y-62925518D01*
X119353502Y-62805820D01*
X119294537Y-62695506D01*
X119215185Y-62598815D01*
X119118494Y-62519463D01*
X119102393Y-62510857D01*
X119187000Y-62426250D01*
X119187000Y-61627000D01*
X119441000Y-61627000D01*
X119441000Y-62426250D01*
X119599750Y-62585000D01*
X119714000Y-62588072D01*
X119838482Y-62575812D01*
X119958180Y-62539502D01*
X120068494Y-62480537D01*
X120165185Y-62401185D01*
X120244537Y-62304494D01*
X120303502Y-62194180D01*
X120339812Y-62074482D01*
X120352072Y-61950000D01*
X120349000Y-61785750D01*
X120190250Y-61627000D01*
X119441000Y-61627000D01*
X119187000Y-61627000D01*
X119167000Y-61627000D01*
X119167000Y-61373000D01*
X119187000Y-61373000D01*
X119187000Y-60573750D01*
X119441000Y-60573750D01*
X119441000Y-61373000D01*
X120190250Y-61373000D01*
X120349000Y-61214250D01*
X120352072Y-61050000D01*
X120339812Y-60925518D01*
X120303502Y-60805820D01*
X120244537Y-60695506D01*
X120165185Y-60598815D01*
X120068494Y-60519463D01*
X119958180Y-60460498D01*
X119838482Y-60424188D01*
X119714000Y-60411928D01*
X119599750Y-60415000D01*
X119441000Y-60573750D01*
X119187000Y-60573750D01*
X119028250Y-60415000D01*
X118914000Y-60411928D01*
X118789518Y-60424188D01*
X118669820Y-60460498D01*
X118559506Y-60519463D01*
X118462815Y-60598815D01*
X118383463Y-60695506D01*
X118364000Y-60731918D01*
X118344537Y-60695506D01*
X118265185Y-60598815D01*
X118212069Y-60555224D01*
X118247068Y-60470729D01*
X118283000Y-60290089D01*
X118283000Y-60105911D01*
X118247068Y-59925271D01*
X118176586Y-59755111D01*
X118074262Y-59601972D01*
X117944711Y-59472421D01*
X118023432Y-59393701D01*
X118055291Y-59367555D01*
X118111609Y-59298932D01*
X118159636Y-59240410D01*
X118237172Y-59095351D01*
X118284918Y-58937953D01*
X118301040Y-58774264D01*
X118300514Y-58768921D01*
X118361068Y-58622729D01*
X118397000Y-58442089D01*
X118397000Y-58257911D01*
X118383293Y-58189000D01*
X119378843Y-58189000D01*
X122045408Y-60855565D01*
%TA.AperFunction,Conductor*%
D30*
G36*
X122045408Y-60855565D02*
G01*
X122024188Y-60925518D01*
X122011928Y-61050000D01*
X122011928Y-61950000D01*
X122024188Y-62074482D01*
X122060498Y-62194180D01*
X122119463Y-62304494D01*
X122198815Y-62401185D01*
X122295506Y-62480537D01*
X122405820Y-62539502D01*
X122525518Y-62575812D01*
X122650000Y-62588072D01*
X123161905Y-62588072D01*
X123148815Y-62598815D01*
X123135532Y-62615000D01*
X120355469Y-62615000D01*
X120312000Y-62610719D01*
X120268531Y-62615000D01*
X120268523Y-62615000D01*
X120138510Y-62627805D01*
X119971687Y-62678411D01*
X119817941Y-62760589D01*
X119716957Y-62843465D01*
X119660102Y-62854774D01*
X119471744Y-62932795D01*
X119395543Y-62983711D01*
X119389812Y-62925518D01*
X119353502Y-62805820D01*
X119294537Y-62695506D01*
X119215185Y-62598815D01*
X119118494Y-62519463D01*
X119102393Y-62510857D01*
X119187000Y-62426250D01*
X119187000Y-61627000D01*
X119441000Y-61627000D01*
X119441000Y-62426250D01*
X119599750Y-62585000D01*
X119714000Y-62588072D01*
X119838482Y-62575812D01*
X119958180Y-62539502D01*
X120068494Y-62480537D01*
X120165185Y-62401185D01*
X120244537Y-62304494D01*
X120303502Y-62194180D01*
X120339812Y-62074482D01*
X120352072Y-61950000D01*
X120349000Y-61785750D01*
X120190250Y-61627000D01*
X119441000Y-61627000D01*
X119187000Y-61627000D01*
X119167000Y-61627000D01*
X119167000Y-61373000D01*
X119187000Y-61373000D01*
X119187000Y-60573750D01*
X119441000Y-60573750D01*
X119441000Y-61373000D01*
X120190250Y-61373000D01*
X120349000Y-61214250D01*
X120352072Y-61050000D01*
X120339812Y-60925518D01*
X120303502Y-60805820D01*
X120244537Y-60695506D01*
X120165185Y-60598815D01*
X120068494Y-60519463D01*
X119958180Y-60460498D01*
X119838482Y-60424188D01*
X119714000Y-60411928D01*
X119599750Y-60415000D01*
X119441000Y-60573750D01*
X119187000Y-60573750D01*
X119028250Y-60415000D01*
X118914000Y-60411928D01*
X118789518Y-60424188D01*
X118669820Y-60460498D01*
X118559506Y-60519463D01*
X118462815Y-60598815D01*
X118383463Y-60695506D01*
X118364000Y-60731918D01*
X118344537Y-60695506D01*
X118265185Y-60598815D01*
X118212069Y-60555224D01*
X118247068Y-60470729D01*
X118283000Y-60290089D01*
X118283000Y-60105911D01*
X118247068Y-59925271D01*
X118176586Y-59755111D01*
X118074262Y-59601972D01*
X117944711Y-59472421D01*
X118023432Y-59393701D01*
X118055291Y-59367555D01*
X118111609Y-59298932D01*
X118159636Y-59240410D01*
X118237172Y-59095351D01*
X118284918Y-58937953D01*
X118301040Y-58774264D01*
X118300514Y-58768921D01*
X118361068Y-58622729D01*
X118397000Y-58442089D01*
X118397000Y-58257911D01*
X118383293Y-58189000D01*
X119378843Y-58189000D01*
X122045408Y-60855565D01*
G37*
%TD.AperFunction*%
D29*
X129942907Y-45993425D02*
X129493425Y-46442907D01*
X129140270Y-46971442D01*
X128897012Y-47558719D01*
X128773000Y-48182168D01*
X128773000Y-48817832D01*
X128897012Y-49441281D01*
X129140270Y-50028558D01*
X129493425Y-50557093D01*
X129942907Y-51006575D01*
X130471442Y-51359730D01*
X131058719Y-51602988D01*
X131682168Y-51727000D01*
X132317832Y-51727000D01*
X132941281Y-51602988D01*
X133528558Y-51359730D01*
X134057093Y-51006575D01*
X134506575Y-50557093D01*
X134815000Y-50095501D01*
X134815000Y-52466052D01*
X134790586Y-52407111D01*
X134688262Y-52253972D01*
X134558028Y-52123738D01*
X134404889Y-52021414D01*
X134234729Y-51950932D01*
X134054089Y-51915000D01*
X133869911Y-51915000D01*
X133689271Y-51950932D01*
X133519111Y-52021414D01*
X133453880Y-52065000D01*
X129372551Y-52065000D01*
X129397000Y-51942089D01*
X129397000Y-51757911D01*
X129361068Y-51577271D01*
X129290586Y-51407111D01*
X129188262Y-51253972D01*
X129058028Y-51123738D01*
X128904889Y-51021414D01*
X128734729Y-50950932D01*
X128554089Y-50915000D01*
X128369911Y-50915000D01*
X128189271Y-50950932D01*
X128019111Y-51021414D01*
X127953880Y-51065000D01*
X127847878Y-51065000D01*
X127896920Y-51041641D01*
X128130269Y-50867588D01*
X128325178Y-50651355D01*
X128474157Y-50401252D01*
X128571481Y-50126891D01*
X128450814Y-49897000D01*
X127257000Y-49897000D01*
X127257000Y-49917000D01*
X127003000Y-49917000D01*
X127003000Y-49897000D01*
X126983000Y-49897000D01*
X126983000Y-49643000D01*
X127003000Y-49643000D01*
X127003000Y-49623000D01*
X127257000Y-49623000D01*
X127257000Y-49643000D01*
X128450814Y-49643000D01*
X128571481Y-49413109D01*
X128474157Y-49138748D01*
X128325178Y-48888645D01*
X128130269Y-48672412D01*
X127900594Y-48501100D01*
X128076632Y-48383475D01*
X128283475Y-48176632D01*
X128445990Y-47933411D01*
X128557932Y-47663158D01*
X128615000Y-47376260D01*
X128615000Y-47083740D01*
X128557932Y-46796842D01*
X128445990Y-46526589D01*
X128283475Y-46283368D01*
X128076632Y-46076525D01*
X127833411Y-45914010D01*
X127563158Y-45802068D01*
X127276260Y-45745000D01*
X126983740Y-45745000D01*
X126696842Y-45802068D01*
X126426589Y-45914010D01*
X126183368Y-46076525D01*
X125976525Y-46283368D01*
X125860000Y-46457760D01*
X125743475Y-46283368D01*
X125536632Y-46076525D01*
X125293411Y-45914010D01*
X125023158Y-45802068D01*
X124736260Y-45745000D01*
X124443740Y-45745000D01*
X124156842Y-45802068D01*
X123886589Y-45914010D01*
X123643368Y-46076525D01*
X123436525Y-46283368D01*
X123320000Y-46457760D01*
X123203475Y-46283368D01*
X122996632Y-46076525D01*
X122753411Y-45914010D01*
X122483158Y-45802068D01*
X122196260Y-45745000D01*
X121903740Y-45745000D01*
X121616842Y-45802068D01*
X121346589Y-45914010D01*
X121103368Y-46076525D01*
X120896525Y-46283368D01*
X120774805Y-46465534D01*
X120705178Y-46348645D01*
X120510269Y-46132412D01*
X120276920Y-45958359D01*
X120014099Y-45833175D01*
X119866890Y-45788524D01*
X119637000Y-45909845D01*
X119637000Y-47103000D01*
X119657000Y-47103000D01*
X119657000Y-47357000D01*
X119637000Y-47357000D01*
X119637000Y-47377000D01*
X119383000Y-47377000D01*
X119383000Y-47357000D01*
X119363000Y-47357000D01*
X119363000Y-47103000D01*
X119383000Y-47103000D01*
X119383000Y-45909845D01*
X119153110Y-45788524D01*
X119005901Y-45833175D01*
X118743080Y-45958359D01*
X118509731Y-46132412D01*
X118314822Y-46348645D01*
X118245195Y-46465534D01*
X118123475Y-46283368D01*
X117916632Y-46076525D01*
X117673411Y-45914010D01*
X117403158Y-45802068D01*
X117116260Y-45745000D01*
X116823740Y-45745000D01*
X116536842Y-45802068D01*
X116266589Y-45914010D01*
X116023368Y-46076525D01*
X115816525Y-46283368D01*
X115694805Y-46465534D01*
X115625178Y-46348645D01*
X115430269Y-46132412D01*
X115196920Y-45958359D01*
X114934099Y-45833175D01*
X114786890Y-45788524D01*
X114557000Y-45909845D01*
X114557000Y-47103000D01*
X114577000Y-47103000D01*
X114577000Y-47357000D01*
X114557000Y-47357000D01*
X114557000Y-47377000D01*
X114303000Y-47377000D01*
X114303000Y-47357000D01*
X114283000Y-47357000D01*
X114283000Y-47103000D01*
X114303000Y-47103000D01*
X114303000Y-45909845D01*
X114073110Y-45788524D01*
X113925901Y-45833175D01*
X113663080Y-45958359D01*
X113429731Y-46132412D01*
X113234822Y-46348645D01*
X113165195Y-46465534D01*
X113043475Y-46283368D01*
X112836632Y-46076525D01*
X112593411Y-45914010D01*
X112323158Y-45802068D01*
X112036260Y-45745000D01*
X111743740Y-45745000D01*
X111456842Y-45802068D01*
X111186589Y-45914010D01*
X110943368Y-46076525D01*
X110736525Y-46283368D01*
X110620000Y-46457760D01*
X110503475Y-46283368D01*
X110296632Y-46076525D01*
X110053411Y-45914010D01*
X109783158Y-45802068D01*
X109496260Y-45745000D01*
X109203740Y-45745000D01*
X108916842Y-45802068D01*
X108646589Y-45914010D01*
X108403368Y-46076525D01*
X108196525Y-46283368D01*
X108080000Y-46457760D01*
X107963475Y-46283368D01*
X107756632Y-46076525D01*
X107513411Y-45914010D01*
X107243158Y-45802068D01*
X106956260Y-45745000D01*
X106663740Y-45745000D01*
X106376842Y-45802068D01*
X106106589Y-45914010D01*
X105863368Y-46076525D01*
X105656525Y-46283368D01*
X105540000Y-46457760D01*
X105423475Y-46283368D01*
X105216632Y-46076525D01*
X104973411Y-45914010D01*
X104703158Y-45802068D01*
X104416260Y-45745000D01*
X104123740Y-45745000D01*
X103836842Y-45802068D01*
X103566589Y-45914010D01*
X103323368Y-46076525D01*
X103116525Y-46283368D01*
X102994805Y-46465534D01*
X102925178Y-46348645D01*
X102730269Y-46132412D01*
X102496920Y-45958359D01*
X102234099Y-45833175D01*
X102086890Y-45788524D01*
X101857000Y-45909845D01*
X101857000Y-47103000D01*
X101877000Y-47103000D01*
X101877000Y-47357000D01*
X101857000Y-47357000D01*
X101857000Y-47377000D01*
X101603000Y-47377000D01*
X101603000Y-47357000D01*
X101583000Y-47357000D01*
X101583000Y-47103000D01*
X101603000Y-47103000D01*
X101603000Y-45909845D01*
X101373110Y-45788524D01*
X101225901Y-45833175D01*
X100963080Y-45958359D01*
X100729731Y-46132412D01*
X100534822Y-46348645D01*
X100465195Y-46465534D01*
X100343475Y-46283368D01*
X100136632Y-46076525D01*
X99893411Y-45914010D01*
X99623158Y-45802068D01*
X99336260Y-45745000D01*
X99043740Y-45745000D01*
X98756842Y-45802068D01*
X98486589Y-45914010D01*
X98243368Y-46076525D01*
X98036525Y-46283368D01*
X97920000Y-46457760D01*
X97803475Y-46283368D01*
X97596632Y-46076525D01*
X97353411Y-45914010D01*
X97083158Y-45802068D01*
X96796260Y-45745000D01*
X96503740Y-45745000D01*
X96216842Y-45802068D01*
X95946589Y-45914010D01*
X95703368Y-46076525D01*
X95496525Y-46283368D01*
X95374805Y-46465534D01*
X95305178Y-46348645D01*
X95110269Y-46132412D01*
X94876920Y-45958359D01*
X94614099Y-45833175D01*
X94466890Y-45788524D01*
X94237000Y-45909845D01*
X94237000Y-47103000D01*
X94257000Y-47103000D01*
X94257000Y-47357000D01*
X94237000Y-47357000D01*
X94237000Y-47377000D01*
X93983000Y-47377000D01*
X93983000Y-47357000D01*
X93963000Y-47357000D01*
X93963000Y-47103000D01*
X93983000Y-47103000D01*
X93983000Y-45909845D01*
X93753110Y-45788524D01*
X93605901Y-45833175D01*
X93343080Y-45958359D01*
X93109731Y-46132412D01*
X92914822Y-46348645D01*
X92845195Y-46465534D01*
X92723475Y-46283368D01*
X92516632Y-46076525D01*
X92273411Y-45914010D01*
X92003158Y-45802068D01*
X91716260Y-45745000D01*
X91423740Y-45745000D01*
X91136842Y-45802068D01*
X90866589Y-45914010D01*
X90623368Y-46076525D01*
X90416525Y-46283368D01*
X90300000Y-46457760D01*
X90183475Y-46283368D01*
X89976632Y-46076525D01*
X89733411Y-45914010D01*
X89463158Y-45802068D01*
X89176260Y-45745000D01*
X88883740Y-45745000D01*
X88596842Y-45802068D01*
X88326589Y-45914010D01*
X88083368Y-46076525D01*
X87876525Y-46283368D01*
X87760000Y-46457760D01*
X87643475Y-46283368D01*
X87436632Y-46076525D01*
X87193411Y-45914010D01*
X86923158Y-45802068D01*
X86636260Y-45745000D01*
X86343740Y-45745000D01*
X86056842Y-45802068D01*
X85786589Y-45914010D01*
X85543368Y-46076525D01*
X85336525Y-46283368D01*
X85214805Y-46465534D01*
X85145178Y-46348645D01*
X84950269Y-46132412D01*
X84716920Y-45958359D01*
X84454099Y-45833175D01*
X84306890Y-45788524D01*
X84077000Y-45909845D01*
X84077000Y-47103000D01*
X84097000Y-47103000D01*
X84097000Y-47357000D01*
X84077000Y-47357000D01*
X84077000Y-47377000D01*
X83823000Y-47377000D01*
X83823000Y-47357000D01*
X83803000Y-47357000D01*
X83803000Y-47103000D01*
X83823000Y-47103000D01*
X83823000Y-45909845D01*
X83593110Y-45788524D01*
X83445901Y-45833175D01*
X83183080Y-45958359D01*
X82949731Y-46132412D01*
X82754822Y-46348645D01*
X82685195Y-46465534D01*
X82563475Y-46283368D01*
X82356632Y-46076525D01*
X82113411Y-45914010D01*
X81843158Y-45802068D01*
X81556260Y-45745000D01*
X81263740Y-45745000D01*
X80976842Y-45802068D01*
X80706589Y-45914010D01*
X80463368Y-46076525D01*
X80256525Y-46283368D01*
X80140000Y-46457760D01*
X80023475Y-46283368D01*
X79816632Y-46076525D01*
X79573411Y-45914010D01*
X79303158Y-45802068D01*
X79016260Y-45745000D01*
X78723740Y-45745000D01*
X78436842Y-45802068D01*
X78166589Y-45914010D01*
X77923368Y-46076525D01*
X77716525Y-46283368D01*
X77554010Y-46526589D01*
X77442068Y-46796842D01*
X77385000Y-47083740D01*
X77385000Y-47163421D01*
X77069808Y-47478614D01*
X76859730Y-46971442D01*
X76506575Y-46442907D01*
X76057093Y-45993425D01*
X75595501Y-45685000D01*
X130404499Y-45685000D01*
X129942907Y-45993425D01*
%TA.AperFunction,Conductor*%
D30*
G36*
X129942907Y-45993425D02*
G01*
X129493425Y-46442907D01*
X129140270Y-46971442D01*
X128897012Y-47558719D01*
X128773000Y-48182168D01*
X128773000Y-48817832D01*
X128897012Y-49441281D01*
X129140270Y-50028558D01*
X129493425Y-50557093D01*
X129942907Y-51006575D01*
X130471442Y-51359730D01*
X131058719Y-51602988D01*
X131682168Y-51727000D01*
X132317832Y-51727000D01*
X132941281Y-51602988D01*
X133528558Y-51359730D01*
X134057093Y-51006575D01*
X134506575Y-50557093D01*
X134815000Y-50095501D01*
X134815000Y-52466052D01*
X134790586Y-52407111D01*
X134688262Y-52253972D01*
X134558028Y-52123738D01*
X134404889Y-52021414D01*
X134234729Y-51950932D01*
X134054089Y-51915000D01*
X133869911Y-51915000D01*
X133689271Y-51950932D01*
X133519111Y-52021414D01*
X133453880Y-52065000D01*
X129372551Y-52065000D01*
X129397000Y-51942089D01*
X129397000Y-51757911D01*
X129361068Y-51577271D01*
X129290586Y-51407111D01*
X129188262Y-51253972D01*
X129058028Y-51123738D01*
X128904889Y-51021414D01*
X128734729Y-50950932D01*
X128554089Y-50915000D01*
X128369911Y-50915000D01*
X128189271Y-50950932D01*
X128019111Y-51021414D01*
X127953880Y-51065000D01*
X127847878Y-51065000D01*
X127896920Y-51041641D01*
X128130269Y-50867588D01*
X128325178Y-50651355D01*
X128474157Y-50401252D01*
X128571481Y-50126891D01*
X128450814Y-49897000D01*
X127257000Y-49897000D01*
X127257000Y-49917000D01*
X127003000Y-49917000D01*
X127003000Y-49897000D01*
X126983000Y-49897000D01*
X126983000Y-49643000D01*
X127003000Y-49643000D01*
X127003000Y-49623000D01*
X127257000Y-49623000D01*
X127257000Y-49643000D01*
X128450814Y-49643000D01*
X128571481Y-49413109D01*
X128474157Y-49138748D01*
X128325178Y-48888645D01*
X128130269Y-48672412D01*
X127900594Y-48501100D01*
X128076632Y-48383475D01*
X128283475Y-48176632D01*
X128445990Y-47933411D01*
X128557932Y-47663158D01*
X128615000Y-47376260D01*
X128615000Y-47083740D01*
X128557932Y-46796842D01*
X128445990Y-46526589D01*
X128283475Y-46283368D01*
X128076632Y-46076525D01*
X127833411Y-45914010D01*
X127563158Y-45802068D01*
X127276260Y-45745000D01*
X126983740Y-45745000D01*
X126696842Y-45802068D01*
X126426589Y-45914010D01*
X126183368Y-46076525D01*
X125976525Y-46283368D01*
X125860000Y-46457760D01*
X125743475Y-46283368D01*
X125536632Y-46076525D01*
X125293411Y-45914010D01*
X125023158Y-45802068D01*
X124736260Y-45745000D01*
X124443740Y-45745000D01*
X124156842Y-45802068D01*
X123886589Y-45914010D01*
X123643368Y-46076525D01*
X123436525Y-46283368D01*
X123320000Y-46457760D01*
X123203475Y-46283368D01*
X122996632Y-46076525D01*
X122753411Y-45914010D01*
X122483158Y-45802068D01*
X122196260Y-45745000D01*
X121903740Y-45745000D01*
X121616842Y-45802068D01*
X121346589Y-45914010D01*
X121103368Y-46076525D01*
X120896525Y-46283368D01*
X120774805Y-46465534D01*
X120705178Y-46348645D01*
X120510269Y-46132412D01*
X120276920Y-45958359D01*
X120014099Y-45833175D01*
X119866890Y-45788524D01*
X119637000Y-45909845D01*
X119637000Y-47103000D01*
X119657000Y-47103000D01*
X119657000Y-47357000D01*
X119637000Y-47357000D01*
X119637000Y-47377000D01*
X119383000Y-47377000D01*
X119383000Y-47357000D01*
X119363000Y-47357000D01*
X119363000Y-47103000D01*
X119383000Y-47103000D01*
X119383000Y-45909845D01*
X119153110Y-45788524D01*
X119005901Y-45833175D01*
X118743080Y-45958359D01*
X118509731Y-46132412D01*
X118314822Y-46348645D01*
X118245195Y-46465534D01*
X118123475Y-46283368D01*
X117916632Y-46076525D01*
X117673411Y-45914010D01*
X117403158Y-45802068D01*
X117116260Y-45745000D01*
X116823740Y-45745000D01*
X116536842Y-45802068D01*
X116266589Y-45914010D01*
X116023368Y-46076525D01*
X115816525Y-46283368D01*
X115694805Y-46465534D01*
X115625178Y-46348645D01*
X115430269Y-46132412D01*
X115196920Y-45958359D01*
X114934099Y-45833175D01*
X114786890Y-45788524D01*
X114557000Y-45909845D01*
X114557000Y-47103000D01*
X114577000Y-47103000D01*
X114577000Y-47357000D01*
X114557000Y-47357000D01*
X114557000Y-47377000D01*
X114303000Y-47377000D01*
X114303000Y-47357000D01*
X114283000Y-47357000D01*
X114283000Y-47103000D01*
X114303000Y-47103000D01*
X114303000Y-45909845D01*
X114073110Y-45788524D01*
X113925901Y-45833175D01*
X113663080Y-45958359D01*
X113429731Y-46132412D01*
X113234822Y-46348645D01*
X113165195Y-46465534D01*
X113043475Y-46283368D01*
X112836632Y-46076525D01*
X112593411Y-45914010D01*
X112323158Y-45802068D01*
X112036260Y-45745000D01*
X111743740Y-45745000D01*
X111456842Y-45802068D01*
X111186589Y-45914010D01*
X110943368Y-46076525D01*
X110736525Y-46283368D01*
X110620000Y-46457760D01*
X110503475Y-46283368D01*
X110296632Y-46076525D01*
X110053411Y-45914010D01*
X109783158Y-45802068D01*
X109496260Y-45745000D01*
X109203740Y-45745000D01*
X108916842Y-45802068D01*
X108646589Y-45914010D01*
X108403368Y-46076525D01*
X108196525Y-46283368D01*
X108080000Y-46457760D01*
X107963475Y-46283368D01*
X107756632Y-46076525D01*
X107513411Y-45914010D01*
X107243158Y-45802068D01*
X106956260Y-45745000D01*
X106663740Y-45745000D01*
X106376842Y-45802068D01*
X106106589Y-45914010D01*
X105863368Y-46076525D01*
X105656525Y-46283368D01*
X105540000Y-46457760D01*
X105423475Y-46283368D01*
X105216632Y-46076525D01*
X104973411Y-45914010D01*
X104703158Y-45802068D01*
X104416260Y-45745000D01*
X104123740Y-45745000D01*
X103836842Y-45802068D01*
X103566589Y-45914010D01*
X103323368Y-46076525D01*
X103116525Y-46283368D01*
X102994805Y-46465534D01*
X102925178Y-46348645D01*
X102730269Y-46132412D01*
X102496920Y-45958359D01*
X102234099Y-45833175D01*
X102086890Y-45788524D01*
X101857000Y-45909845D01*
X101857000Y-47103000D01*
X101877000Y-47103000D01*
X101877000Y-47357000D01*
X101857000Y-47357000D01*
X101857000Y-47377000D01*
X101603000Y-47377000D01*
X101603000Y-47357000D01*
X101583000Y-47357000D01*
X101583000Y-47103000D01*
X101603000Y-47103000D01*
X101603000Y-45909845D01*
X101373110Y-45788524D01*
X101225901Y-45833175D01*
X100963080Y-45958359D01*
X100729731Y-46132412D01*
X100534822Y-46348645D01*
X100465195Y-46465534D01*
X100343475Y-46283368D01*
X100136632Y-46076525D01*
X99893411Y-45914010D01*
X99623158Y-45802068D01*
X99336260Y-45745000D01*
X99043740Y-45745000D01*
X98756842Y-45802068D01*
X98486589Y-45914010D01*
X98243368Y-46076525D01*
X98036525Y-46283368D01*
X97920000Y-46457760D01*
X97803475Y-46283368D01*
X97596632Y-46076525D01*
X97353411Y-45914010D01*
X97083158Y-45802068D01*
X96796260Y-45745000D01*
X96503740Y-45745000D01*
X96216842Y-45802068D01*
X95946589Y-45914010D01*
X95703368Y-46076525D01*
X95496525Y-46283368D01*
X95374805Y-46465534D01*
X95305178Y-46348645D01*
X95110269Y-46132412D01*
X94876920Y-45958359D01*
X94614099Y-45833175D01*
X94466890Y-45788524D01*
X94237000Y-45909845D01*
X94237000Y-47103000D01*
X94257000Y-47103000D01*
X94257000Y-47357000D01*
X94237000Y-47357000D01*
X94237000Y-47377000D01*
X93983000Y-47377000D01*
X93983000Y-47357000D01*
X93963000Y-47357000D01*
X93963000Y-47103000D01*
X93983000Y-47103000D01*
X93983000Y-45909845D01*
X93753110Y-45788524D01*
X93605901Y-45833175D01*
X93343080Y-45958359D01*
X93109731Y-46132412D01*
X92914822Y-46348645D01*
X92845195Y-46465534D01*
X92723475Y-46283368D01*
X92516632Y-46076525D01*
X92273411Y-45914010D01*
X92003158Y-45802068D01*
X91716260Y-45745000D01*
X91423740Y-45745000D01*
X91136842Y-45802068D01*
X90866589Y-45914010D01*
X90623368Y-46076525D01*
X90416525Y-46283368D01*
X90300000Y-46457760D01*
X90183475Y-46283368D01*
X89976632Y-46076525D01*
X89733411Y-45914010D01*
X89463158Y-45802068D01*
X89176260Y-45745000D01*
X88883740Y-45745000D01*
X88596842Y-45802068D01*
X88326589Y-45914010D01*
X88083368Y-46076525D01*
X87876525Y-46283368D01*
X87760000Y-46457760D01*
X87643475Y-46283368D01*
X87436632Y-46076525D01*
X87193411Y-45914010D01*
X86923158Y-45802068D01*
X86636260Y-45745000D01*
X86343740Y-45745000D01*
X86056842Y-45802068D01*
X85786589Y-45914010D01*
X85543368Y-46076525D01*
X85336525Y-46283368D01*
X85214805Y-46465534D01*
X85145178Y-46348645D01*
X84950269Y-46132412D01*
X84716920Y-45958359D01*
X84454099Y-45833175D01*
X84306890Y-45788524D01*
X84077000Y-45909845D01*
X84077000Y-47103000D01*
X84097000Y-47103000D01*
X84097000Y-47357000D01*
X84077000Y-47357000D01*
X84077000Y-47377000D01*
X83823000Y-47377000D01*
X83823000Y-47357000D01*
X83803000Y-47357000D01*
X83803000Y-47103000D01*
X83823000Y-47103000D01*
X83823000Y-45909845D01*
X83593110Y-45788524D01*
X83445901Y-45833175D01*
X83183080Y-45958359D01*
X82949731Y-46132412D01*
X82754822Y-46348645D01*
X82685195Y-46465534D01*
X82563475Y-46283368D01*
X82356632Y-46076525D01*
X82113411Y-45914010D01*
X81843158Y-45802068D01*
X81556260Y-45745000D01*
X81263740Y-45745000D01*
X80976842Y-45802068D01*
X80706589Y-45914010D01*
X80463368Y-46076525D01*
X80256525Y-46283368D01*
X80140000Y-46457760D01*
X80023475Y-46283368D01*
X79816632Y-46076525D01*
X79573411Y-45914010D01*
X79303158Y-45802068D01*
X79016260Y-45745000D01*
X78723740Y-45745000D01*
X78436842Y-45802068D01*
X78166589Y-45914010D01*
X77923368Y-46076525D01*
X77716525Y-46283368D01*
X77554010Y-46526589D01*
X77442068Y-46796842D01*
X77385000Y-47083740D01*
X77385000Y-47163421D01*
X77069808Y-47478614D01*
X76859730Y-46971442D01*
X76506575Y-46442907D01*
X76057093Y-45993425D01*
X75595501Y-45685000D01*
X130404499Y-45685000D01*
X129942907Y-45993425D01*
G37*
%TD.AperFunction*%
D29*
X89157000Y-49643000D02*
X89177000Y-49643000D01*
X89177000Y-49897000D01*
X89157000Y-49897000D01*
X89157000Y-49917000D01*
X88903000Y-49917000D01*
X88903000Y-49897000D01*
X88883000Y-49897000D01*
X88883000Y-49643000D01*
X88903000Y-49643000D01*
X88903000Y-49623000D01*
X89157000Y-49623000D01*
X89157000Y-49643000D01*
%TA.AperFunction,Conductor*%
D30*
G36*
X89157000Y-49643000D02*
G01*
X89177000Y-49643000D01*
X89177000Y-49897000D01*
X89157000Y-49897000D01*
X89157000Y-49917000D01*
X88903000Y-49917000D01*
X88903000Y-49897000D01*
X88883000Y-49897000D01*
X88883000Y-49643000D01*
X88903000Y-49643000D01*
X88903000Y-49623000D01*
X89157000Y-49623000D01*
X89157000Y-49643000D01*
G37*
%TD.AperFunction*%
D29*
X109477000Y-49643000D02*
X109497000Y-49643000D01*
X109497000Y-49897000D01*
X109477000Y-49897000D01*
X109477000Y-49917000D01*
X109223000Y-49917000D01*
X109223000Y-49897000D01*
X109203000Y-49897000D01*
X109203000Y-49643000D01*
X109223000Y-49643000D01*
X109223000Y-49623000D01*
X109477000Y-49623000D01*
X109477000Y-49643000D01*
%TA.AperFunction,Conductor*%
D30*
G36*
X109477000Y-49643000D02*
G01*
X109497000Y-49643000D01*
X109497000Y-49897000D01*
X109477000Y-49897000D01*
X109477000Y-49917000D01*
X109223000Y-49917000D01*
X109223000Y-49897000D01*
X109203000Y-49897000D01*
X109203000Y-49643000D01*
X109223000Y-49643000D01*
X109223000Y-49623000D01*
X109477000Y-49623000D01*
X109477000Y-49643000D01*
G37*
%TD.AperFunction*%
D29*
X108196525Y-48176632D02*
X108403368Y-48383475D01*
X108579406Y-48501100D01*
X108349731Y-48672412D01*
X108154822Y-48888645D01*
X108085195Y-49005534D01*
X107963475Y-48823368D01*
X107756632Y-48616525D01*
X107582240Y-48500000D01*
X107756632Y-48383475D01*
X107963475Y-48176632D01*
X108080000Y-48002240D01*
X108196525Y-48176632D01*
%TA.AperFunction,Conductor*%
D30*
G36*
X108196525Y-48176632D02*
G01*
X108403368Y-48383475D01*
X108579406Y-48501100D01*
X108349731Y-48672412D01*
X108154822Y-48888645D01*
X108085195Y-49005534D01*
X107963475Y-48823368D01*
X107756632Y-48616525D01*
X107582240Y-48500000D01*
X107756632Y-48383475D01*
X107963475Y-48176632D01*
X108080000Y-48002240D01*
X108196525Y-48176632D01*
G37*
%TD.AperFunction*%
D29*
X110736525Y-48176632D02*
X110943368Y-48383475D01*
X111117760Y-48500000D01*
X110943368Y-48616525D01*
X110736525Y-48823368D01*
X110614805Y-49005534D01*
X110545178Y-48888645D01*
X110350269Y-48672412D01*
X110120594Y-48501100D01*
X110296632Y-48383475D01*
X110503475Y-48176632D01*
X110620000Y-48002240D01*
X110736525Y-48176632D01*
%TA.AperFunction,Conductor*%
D30*
G36*
X110736525Y-48176632D02*
G01*
X110943368Y-48383475D01*
X111117760Y-48500000D01*
X110943368Y-48616525D01*
X110736525Y-48823368D01*
X110614805Y-49005534D01*
X110545178Y-48888645D01*
X110350269Y-48672412D01*
X110120594Y-48501100D01*
X110296632Y-48383475D01*
X110503475Y-48176632D01*
X110620000Y-48002240D01*
X110736525Y-48176632D01*
G37*
%TD.AperFunction*%
D29*
X92914822Y-48111355D02*
X93109731Y-48327588D01*
X93339406Y-48498900D01*
X93163368Y-48616525D01*
X92956525Y-48823368D01*
X92840000Y-48997760D01*
X92723475Y-48823368D01*
X92516632Y-48616525D01*
X92342240Y-48500000D01*
X92516632Y-48383475D01*
X92723475Y-48176632D01*
X92845195Y-47994466D01*
X92914822Y-48111355D01*
%TA.AperFunction,Conductor*%
D30*
G36*
X92914822Y-48111355D02*
G01*
X93109731Y-48327588D01*
X93339406Y-48498900D01*
X93163368Y-48616525D01*
X92956525Y-48823368D01*
X92840000Y-48997760D01*
X92723475Y-48823368D01*
X92516632Y-48616525D01*
X92342240Y-48500000D01*
X92516632Y-48383475D01*
X92723475Y-48176632D01*
X92845195Y-47994466D01*
X92914822Y-48111355D01*
G37*
%TD.AperFunction*%
D29*
X113234822Y-48111355D02*
X113429731Y-48327588D01*
X113659406Y-48498900D01*
X113483368Y-48616525D01*
X113276525Y-48823368D01*
X113160000Y-48997760D01*
X113043475Y-48823368D01*
X112836632Y-48616525D01*
X112662240Y-48500000D01*
X112836632Y-48383475D01*
X113043475Y-48176632D01*
X113165195Y-47994466D01*
X113234822Y-48111355D01*
%TA.AperFunction,Conductor*%
D30*
G36*
X113234822Y-48111355D02*
G01*
X113429731Y-48327588D01*
X113659406Y-48498900D01*
X113483368Y-48616525D01*
X113276525Y-48823368D01*
X113160000Y-48997760D01*
X113043475Y-48823368D01*
X112836632Y-48616525D01*
X112662240Y-48500000D01*
X112836632Y-48383475D01*
X113043475Y-48176632D01*
X113165195Y-47994466D01*
X113234822Y-48111355D01*
G37*
%TD.AperFunction*%
D29*
X103116525Y-48176632D02*
X103323368Y-48383475D01*
X103497760Y-48500000D01*
X103323368Y-48616525D01*
X103116525Y-48823368D01*
X103000000Y-48997760D01*
X102883475Y-48823368D01*
X102676632Y-48616525D01*
X102500594Y-48498900D01*
X102730269Y-48327588D01*
X102925178Y-48111355D01*
X102994805Y-47994466D01*
X103116525Y-48176632D01*
%TA.AperFunction,Conductor*%
D30*
G36*
X103116525Y-48176632D02*
G01*
X103323368Y-48383475D01*
X103497760Y-48500000D01*
X103323368Y-48616525D01*
X103116525Y-48823368D01*
X103000000Y-48997760D01*
X102883475Y-48823368D01*
X102676632Y-48616525D01*
X102500594Y-48498900D01*
X102730269Y-48327588D01*
X102925178Y-48111355D01*
X102994805Y-47994466D01*
X103116525Y-48176632D01*
G37*
%TD.AperFunction*%
D29*
X100534822Y-48111355D02*
X100729731Y-48327588D01*
X100959406Y-48498900D01*
X100783368Y-48616525D01*
X100576525Y-48823368D01*
X100460000Y-48997760D01*
X100343475Y-48823368D01*
X100136632Y-48616525D01*
X99962240Y-48500000D01*
X100136632Y-48383475D01*
X100343475Y-48176632D01*
X100465195Y-47994466D01*
X100534822Y-48111355D01*
%TA.AperFunction,Conductor*%
D30*
G36*
X100534822Y-48111355D02*
G01*
X100729731Y-48327588D01*
X100959406Y-48498900D01*
X100783368Y-48616525D01*
X100576525Y-48823368D01*
X100460000Y-48997760D01*
X100343475Y-48823368D01*
X100136632Y-48616525D01*
X99962240Y-48500000D01*
X100136632Y-48383475D01*
X100343475Y-48176632D01*
X100465195Y-47994466D01*
X100534822Y-48111355D01*
G37*
%TD.AperFunction*%
D29*
X95496525Y-48176632D02*
X95703368Y-48383475D01*
X95877760Y-48500000D01*
X95703368Y-48616525D01*
X95496525Y-48823368D01*
X95380000Y-48997760D01*
X95263475Y-48823368D01*
X95056632Y-48616525D01*
X94880594Y-48498900D01*
X95110269Y-48327588D01*
X95305178Y-48111355D01*
X95374805Y-47994466D01*
X95496525Y-48176632D01*
%TA.AperFunction,Conductor*%
D30*
G36*
X95496525Y-48176632D02*
G01*
X95703368Y-48383475D01*
X95877760Y-48500000D01*
X95703368Y-48616525D01*
X95496525Y-48823368D01*
X95380000Y-48997760D01*
X95263475Y-48823368D01*
X95056632Y-48616525D01*
X94880594Y-48498900D01*
X95110269Y-48327588D01*
X95305178Y-48111355D01*
X95374805Y-47994466D01*
X95496525Y-48176632D01*
G37*
%TD.AperFunction*%
%TD*%
M02*
