%TF.GenerationSoftware,KiCad,Pcbnew,(5.1.9)-1*%
%TF.CreationDate,2021-03-07T19:12:45-05:00*%
%TF.ProjectId,bigp4ppa,62696770-3470-4706-912e-6b696361645f,rev?*%
%TF.SameCoordinates,Original*%
%TF.FileFunction,Copper,L1,Top*%
%TF.FilePolarity,Positive*%
%FSLAX46Y46*%
G04 Gerber Fmt 4.6, Leading zero omitted, Abs format (unit mm)*
G04 Created by KiCad (PCBNEW (5.1.9)-1) date 2021-03-07 19:12:45*
%MOMM*%
%LPD*%
G01*
G04 APERTURE LIST*
%TA.AperFunction,ComponentPad*%
%ADD10C,2.600000*%
%TD*%
%TA.AperFunction,ComponentPad*%
%ADD11R,2.600000X2.600000*%
%TD*%
%TA.AperFunction,ComponentPad*%
%ADD12O,1.700000X1.700000*%
%TD*%
%TA.AperFunction,ComponentPad*%
%ADD13R,1.700000X1.700000*%
%TD*%
%TA.AperFunction,ComponentPad*%
%ADD14O,1.600000X1.600000*%
%TD*%
%TA.AperFunction,ComponentPad*%
%ADD15R,1.600000X1.600000*%
%TD*%
%TA.AperFunction,WasherPad*%
%ADD16C,3.200000*%
%TD*%
%TA.AperFunction,ComponentPad*%
%ADD17R,2.100000X2.100000*%
%TD*%
%TA.AperFunction,ComponentPad*%
%ADD18C,2.100000*%
%TD*%
%TA.AperFunction,ViaPad*%
%ADD19C,0.600000*%
%TD*%
%TA.AperFunction,ViaPad*%
%ADD20C,0.800000*%
%TD*%
%TA.AperFunction,Conductor*%
%ADD21C,0.400000*%
%TD*%
%TA.AperFunction,Conductor*%
%ADD22C,0.250000*%
%TD*%
%TA.AperFunction,Conductor*%
%ADD23C,0.500000*%
%TD*%
%TA.AperFunction,Conductor*%
%ADD24C,0.300000*%
%TD*%
%TA.AperFunction,Conductor*%
%ADD25C,1.000000*%
%TD*%
%TA.AperFunction,Conductor*%
%ADD26C,0.600000*%
%TD*%
%TA.AperFunction,Conductor*%
%ADD27C,0.800000*%
%TD*%
%TA.AperFunction,Conductor*%
%ADD28C,0.254000*%
%TD*%
%TA.AperFunction,Conductor*%
%ADD29C,0.100000*%
%TD*%
G04 APERTURE END LIST*
D10*
%TO.P,J4,10*%
%TO.N,/GPIO23-*%
X125462000Y-96350000D03*
%TO.P,J4,9*%
%TO.N,/GPIO23+*%
X120462000Y-96350000D03*
%TO.P,J4,8*%
%TO.N,/GPIO19-*%
X115462000Y-96350000D03*
%TO.P,J4,7*%
%TO.N,/GPIO19+*%
X110462000Y-96350000D03*
%TO.P,J4,6*%
%TO.N,/GPIO18-*%
X105462000Y-96350000D03*
%TO.P,J4,5*%
%TO.N,/GPIO18+*%
X100462000Y-96350000D03*
%TO.P,J4,4*%
%TO.N,/GPIO13-*%
X95462000Y-96350000D03*
%TO.P,J4,3*%
%TO.N,/GPIO13+*%
X90462000Y-96350000D03*
%TO.P,J4,2*%
%TO.N,/GPIO12-*%
X85462000Y-96350000D03*
D11*
%TO.P,J4,1*%
%TO.N,/GPIO12+*%
X80462000Y-96350000D03*
%TD*%
D12*
%TO.P,J15,8*%
%TO.N,ADXL_CS*%
X131582000Y-84856000D03*
%TO.P,J15,7*%
%TO.N,ADXL_SCL*%
X131582000Y-87396000D03*
%TO.P,J15,6*%
%TO.N,+3V3*%
X129042000Y-84856000D03*
%TO.P,J15,5*%
%TO.N,ADXL_SDO*%
X129042000Y-87396000D03*
%TO.P,J15,4*%
%TO.N,GND*%
X126502000Y-84856000D03*
%TO.P,J15,3*%
%TO.N,ADXL_SDA*%
X126502000Y-87396000D03*
%TO.P,J15,2*%
%TO.N,N/C*%
X123962000Y-84856000D03*
D13*
%TO.P,J15,1*%
%TO.N,+3V3*%
X123962000Y-87396000D03*
%TD*%
D14*
%TO.P,A1,16*%
%TO.N,N/C*%
X115189000Y-76708000D03*
%TO.P,A1,8*%
%TO.N,+24V*%
X127889000Y-58928000D03*
%TO.P,A1,15*%
%TO.N,N/C*%
X115189000Y-74168000D03*
%TO.P,A1,7*%
%TO.N,GND*%
X127889000Y-61468000D03*
%TO.P,A1,14*%
%TO.N,N/C*%
X115189000Y-71628000D03*
%TO.P,A1,6*%
X127889000Y-64008000D03*
%TO.P,A1,13*%
%TO.N,MAX_SDI*%
X115189000Y-69088000D03*
%TO.P,A1,5*%
%TO.N,N/C*%
X127889000Y-66548000D03*
%TO.P,A1,12*%
%TO.N,MAX_CS*%
X115189000Y-66548000D03*
%TO.P,A1,4*%
%TO.N,N/C*%
X127889000Y-69088000D03*
%TO.P,A1,11*%
%TO.N,MAX_CLK*%
X115189000Y-64008000D03*
%TO.P,A1,3*%
%TO.N,N/C*%
X127889000Y-71628000D03*
%TO.P,A1,10*%
%TO.N,MAX_SDO*%
X115189000Y-61468000D03*
%TO.P,A1,2*%
%TO.N,N/C*%
X127889000Y-74168000D03*
%TO.P,A1,9*%
X115189000Y-58928000D03*
D15*
%TO.P,A1,1*%
%TO.N,GND*%
X127889000Y-76708000D03*
%TD*%
D12*
%TO.P,J2,40*%
%TO.N,MAX_CLK*%
X127130000Y-47230000D03*
%TO.P,J2,39*%
%TO.N,GND*%
X127130000Y-49770000D03*
%TO.P,J2,38*%
%TO.N,MAX_SDI*%
X124590000Y-47230000D03*
%TO.P,J2,37*%
%TO.N,GPIO19*%
X124590000Y-49770000D03*
%TO.P,J2,36*%
%TO.N,N/C*%
X122050000Y-47230000D03*
%TO.P,J2,35*%
%TO.N,MAX_SDO*%
X122050000Y-49770000D03*
%TO.P,J2,34*%
%TO.N,GND*%
X119510000Y-47230000D03*
%TO.P,J2,33*%
%TO.N,GPIO13*%
X119510000Y-49770000D03*
%TO.P,J2,32*%
%TO.N,GPIO12*%
X116970000Y-47230000D03*
%TO.P,J2,31*%
%TO.N,N/C*%
X116970000Y-49770000D03*
%TO.P,J2,30*%
%TO.N,GND*%
X114430000Y-47230000D03*
%TO.P,J2,29*%
%TO.N,N/C*%
X114430000Y-49770000D03*
%TO.P,J2,28*%
X111890000Y-47230000D03*
%TO.P,J2,27*%
X111890000Y-49770000D03*
%TO.P,J2,26*%
%TO.N,MAX_CS*%
X109350000Y-47230000D03*
%TO.P,J2,25*%
%TO.N,GND*%
X109350000Y-49770000D03*
%TO.P,J2,24*%
%TO.N,ADXL_CS*%
X106810000Y-47230000D03*
%TO.P,J2,23*%
%TO.N,ADXL_SCL*%
X106810000Y-49770000D03*
%TO.P,J2,22*%
%TO.N,N/C*%
X104270000Y-47230000D03*
%TO.P,J2,21*%
%TO.N,ADXL_SDO*%
X104270000Y-49770000D03*
%TO.P,J2,20*%
%TO.N,GND*%
X101730000Y-47230000D03*
%TO.P,J2,19*%
%TO.N,ADXL_SDA*%
X101730000Y-49770000D03*
%TO.P,J2,18*%
%TO.N,N/C*%
X99190000Y-47230000D03*
%TO.P,J2,17*%
%TO.N,+3V3*%
X99190000Y-49770000D03*
%TO.P,J2,16*%
%TO.N,GPIO23*%
X96650000Y-47230000D03*
%TO.P,J2,15*%
%TO.N,N/C*%
X96650000Y-49770000D03*
%TO.P,J2,14*%
%TO.N,GND*%
X94110000Y-47230000D03*
%TO.P,J2,13*%
%TO.N,N/C*%
X94110000Y-49770000D03*
%TO.P,J2,12*%
%TO.N,GPIO18*%
X91570000Y-47230000D03*
%TO.P,J2,11*%
%TO.N,N/C*%
X91570000Y-49770000D03*
%TO.P,J2,10*%
X89030000Y-47230000D03*
%TO.P,J2,9*%
%TO.N,GND*%
X89030000Y-49770000D03*
%TO.P,J2,8*%
%TO.N,N/C*%
X86490000Y-47230000D03*
%TO.P,J2,7*%
X86490000Y-49770000D03*
%TO.P,J2,6*%
%TO.N,GND*%
X83950000Y-47230000D03*
%TO.P,J2,5*%
%TO.N,N/C*%
X83950000Y-49770000D03*
%TO.P,J2,4*%
%TO.N,+5V*%
X81410000Y-47230000D03*
%TO.P,J2,3*%
%TO.N,N/C*%
X81410000Y-49770000D03*
%TO.P,J2,2*%
%TO.N,+5V*%
X78870000Y-47230000D03*
D13*
%TO.P,J2,1*%
%TO.N,+3V3*%
X78870000Y-49770000D03*
%TD*%
D16*
%TO.P,25x25,*%
%TO.N,*%
X83500000Y-57500000D03*
X83500000Y-77500000D03*
X103500000Y-77500000D03*
X103500000Y-57500000D03*
%TD*%
%TO.P,U$19,*%
%TO.N,*%
X111338900Y-78076400D03*
%TD*%
%TO.P,U$18,*%
%TO.N,*%
X131658900Y-78076400D03*
%TD*%
D17*
%TO.P,J1,1*%
%TO.N,GND*%
X74500000Y-54000000D03*
D18*
%TO.P,J1,2*%
%TO.N,+5V*%
X74500000Y-56540000D03*
%TO.P,J1,3*%
%TO.N,+12V*%
X74500000Y-59080000D03*
%TO.P,J1,4*%
%TO.N,+24V*%
X74500000Y-61620000D03*
%TD*%
D12*
%TO.P,J14,6*%
%TO.N,/GPIO18+*%
X99502000Y-88430000D03*
%TO.P,J14,5*%
%TO.N,+12V*%
X96962000Y-88430000D03*
%TO.P,J14,4*%
%TO.N,/GPIO18+*%
X99502000Y-85890000D03*
%TO.P,J14,3*%
%TO.N,+5V*%
X96962000Y-85890000D03*
%TO.P,J14,2*%
%TO.N,/GPIO18+*%
X99502000Y-83350000D03*
D13*
%TO.P,J14,1*%
%TO.N,+24V*%
X96962000Y-83350000D03*
%TD*%
D12*
%TO.P,J13,6*%
%TO.N,/GPIO13+*%
X91002000Y-88430000D03*
%TO.P,J13,5*%
%TO.N,+12V*%
X88462000Y-88430000D03*
%TO.P,J13,4*%
%TO.N,/GPIO13+*%
X91002000Y-85890000D03*
%TO.P,J13,3*%
%TO.N,+5V*%
X88462000Y-85890000D03*
%TO.P,J13,2*%
%TO.N,/GPIO13+*%
X91002000Y-83350000D03*
D13*
%TO.P,J13,1*%
%TO.N,+24V*%
X88462000Y-83350000D03*
%TD*%
D12*
%TO.P,J12,6*%
%TO.N,/GPIO12+*%
X82502000Y-88430000D03*
%TO.P,J12,5*%
%TO.N,+12V*%
X79962000Y-88430000D03*
%TO.P,J12,4*%
%TO.N,/GPIO12+*%
X82502000Y-85890000D03*
%TO.P,J12,3*%
%TO.N,+5V*%
X79962000Y-85890000D03*
%TO.P,J12,2*%
%TO.N,/GPIO12+*%
X82502000Y-83350000D03*
D13*
%TO.P,J12,1*%
%TO.N,+24V*%
X79962000Y-83350000D03*
%TD*%
D12*
%TO.P,J11,6*%
%TO.N,/GPIO19+*%
X108002000Y-88430000D03*
%TO.P,J11,5*%
%TO.N,+12V*%
X105462000Y-88430000D03*
%TO.P,J11,4*%
%TO.N,/GPIO19+*%
X108002000Y-85890000D03*
%TO.P,J11,3*%
%TO.N,+5V*%
X105462000Y-85890000D03*
%TO.P,J11,2*%
%TO.N,/GPIO19+*%
X108002000Y-83350000D03*
D13*
%TO.P,J11,1*%
%TO.N,+24V*%
X105462000Y-83350000D03*
%TD*%
%TO.P,J8,1*%
%TO.N,N/C*%
X130500000Y-55350000D03*
D12*
%TO.P,J8,2*%
%TO.N,GND*%
X127960000Y-55350000D03*
%TO.P,J8,3*%
%TO.N,+3V3*%
X125420000Y-55350000D03*
%TO.P,J8,4*%
%TO.N,MAX_CLK*%
X122880000Y-55350000D03*
%TO.P,J8,5*%
%TO.N,MAX_SDO*%
X120340000Y-55350000D03*
%TO.P,J8,6*%
%TO.N,MAX_SDI*%
X117800000Y-55350000D03*
%TO.P,J8,7*%
%TO.N,MAX_CS*%
X115260000Y-55350000D03*
%TO.P,J8,8*%
%TO.N,N/C*%
X112720000Y-55350000D03*
%TD*%
D13*
%TO.P,J3,1*%
%TO.N,+24V*%
X113962000Y-83350000D03*
D12*
%TO.P,J3,2*%
%TO.N,/GPIO23+*%
X116502000Y-83350000D03*
%TO.P,J3,3*%
%TO.N,+5V*%
X113962000Y-85890000D03*
%TO.P,J3,4*%
%TO.N,/GPIO23+*%
X116502000Y-85890000D03*
%TO.P,J3,5*%
%TO.N,+12V*%
X113962000Y-88430000D03*
%TO.P,J3,6*%
%TO.N,/GPIO23+*%
X116502000Y-88430000D03*
%TD*%
D19*
%TO.N,*%
X101462000Y-84650000D03*
X118562000Y-84550000D03*
%TO.N,GND*%
X81400000Y-60600000D03*
X86400000Y-55300000D03*
X120904000Y-61468000D03*
X132962000Y-58850000D03*
X125603000Y-58166000D03*
X118462000Y-68850000D03*
X122962000Y-73350000D03*
X122962000Y-67350000D03*
X122962000Y-76150000D03*
X131962000Y-92050000D03*
X111062000Y-53350000D03*
X109350000Y-58750000D03*
X72062000Y-55450000D03*
X72062000Y-54050000D03*
X72062000Y-52750000D03*
X82062000Y-53350000D03*
X82062000Y-54250000D03*
X82962000Y-53350000D03*
X82962000Y-54250000D03*
X73862000Y-84850000D03*
X73862000Y-85650000D03*
X73862000Y-86450000D03*
X73862000Y-87250000D03*
X102762000Y-99250000D03*
X102062000Y-99250000D03*
X103562000Y-99250000D03*
X132962000Y-59850000D03*
X132962000Y-64350000D03*
X132962000Y-65350000D03*
X132462000Y-73350000D03*
X131462000Y-73350000D03*
X117962000Y-72850000D03*
X117962000Y-73850000D03*
X117962000Y-74850000D03*
X110962000Y-73850000D03*
X110962000Y-74850000D03*
X111962000Y-74850000D03*
X101462000Y-54850000D03*
X100462000Y-54850000D03*
X100462000Y-55850000D03*
X127462000Y-79350000D03*
X116462000Y-79950000D03*
X132962000Y-66350000D03*
%TO.N,GPIO18*%
X90250000Y-52750000D03*
X106680000Y-56896000D03*
%TO.N,GPIO12*%
X110000000Y-60000000D03*
%TO.N,GPIO13*%
X117348000Y-60198000D03*
%TO.N,+24V*%
X125476000Y-78994000D03*
X114462000Y-78850000D03*
%TO.N,+3V3*%
X128962000Y-81850000D03*
X124252371Y-54059625D03*
X124462000Y-81850000D03*
X81162000Y-51450000D03*
%TO.N,MAX_SDI*%
X117462000Y-58350000D03*
X112462000Y-63350000D03*
X121962000Y-53100021D03*
%TO.N,ADXL_CS*%
X108462000Y-80350000D03*
X130962000Y-81350000D03*
%TO.N,ADXL_SDA*%
X126502000Y-89310000D03*
X120962000Y-89350000D03*
X106462000Y-64850008D03*
X119988013Y-65824001D03*
%TO.N,ADXL_SCL*%
X133962000Y-52850000D03*
%TO.N,GPIO19*%
X128462000Y-51850000D03*
X129962000Y-60350000D03*
%TO.N,GPIO12*%
X115462000Y-53350000D03*
X110962000Y-54850000D03*
%TO.N,GPIO23*%
X107500000Y-67000000D03*
X107462000Y-53350000D03*
X95462000Y-53199990D03*
%TO.N,GPIO18*%
X106679019Y-54570031D03*
D20*
%TO.N,/GPIO12-*%
X109462000Y-70850000D03*
X109711999Y-64099999D03*
%TO.N,/GPIO13-*%
X117602000Y-65024000D03*
X110462000Y-71850000D03*
X102962000Y-91350000D03*
X95962000Y-92850000D03*
%TO.N,/GPIO18-*%
X119962000Y-63850000D03*
X106962000Y-92850000D03*
%TO.N,/GPIO19-*%
X118962000Y-92850000D03*
X120462012Y-66850000D03*
%TO.N,/GPIO23-*%
X130462000Y-70350000D03*
X124462000Y-91350000D03*
X127962000Y-82950000D03*
X122762010Y-83350000D03*
%TD*%
D21*
%TO.N,+5V*%
X87211999Y-87140001D02*
X88462000Y-85890000D01*
X81212001Y-87140001D02*
X87211999Y-87140001D01*
X79962000Y-85890000D02*
X81212001Y-87140001D01*
X95672001Y-87179999D02*
X96962000Y-85890000D01*
X89751999Y-87179999D02*
X95672001Y-87179999D01*
X88462000Y-85890000D02*
X89751999Y-87179999D01*
X104211999Y-87140001D02*
X105462000Y-85890000D01*
X98212001Y-87140001D02*
X104211999Y-87140001D01*
X96962000Y-85890000D02*
X98212001Y-87140001D01*
X112711999Y-87140001D02*
X113962000Y-85890000D01*
X106712001Y-87140001D02*
X112711999Y-87140001D01*
X105462000Y-85890000D02*
X106712001Y-87140001D01*
%TO.N,GND*%
X82699999Y-48480001D02*
X83950000Y-47230000D01*
X82699999Y-51300001D02*
X82699999Y-48480001D01*
X80000000Y-54000000D02*
X82699999Y-51300001D01*
X74500000Y-54000000D02*
X80000000Y-54000000D01*
X87779999Y-48519999D02*
X89030000Y-49770000D01*
X85239999Y-48519999D02*
X87779999Y-48519999D01*
X83950000Y-47230000D02*
X85239999Y-48519999D01*
D22*
X127960000Y-55809000D02*
X127960000Y-55350000D01*
X125603000Y-58166000D02*
X127960000Y-55809000D01*
D23*
X126502000Y-78095000D02*
X127889000Y-76708000D01*
X126502000Y-84856000D02*
X126502000Y-78095000D01*
D24*
X109350000Y-49770000D02*
X109350000Y-58750000D01*
D25*
%TO.N,+24V*%
X74500000Y-61620000D02*
X74500000Y-61750000D01*
D26*
X125476000Y-59690000D02*
X126238000Y-58928000D01*
X125476000Y-78994000D02*
X125437999Y-78955999D01*
X125437999Y-72767999D02*
X125476000Y-72729998D01*
X125476000Y-72729998D02*
X125476000Y-59690000D01*
X125437999Y-78955999D02*
X125437999Y-72767999D01*
X126238000Y-58928000D02*
X127889000Y-58928000D01*
D25*
X80200000Y-83112000D02*
X79962000Y-83350000D01*
X76620000Y-61620000D02*
X80200000Y-65200000D01*
X74500000Y-61620000D02*
X76620000Y-61620000D01*
X80200000Y-80112000D02*
X80724000Y-80112000D01*
X80200000Y-65200000D02*
X80200000Y-80112000D01*
X80200000Y-80112000D02*
X80200000Y-83112000D01*
X80724000Y-80112000D02*
X81962000Y-81350000D01*
X111962000Y-81350000D02*
X113962000Y-83350000D01*
X105462000Y-81350000D02*
X105462000Y-83350000D01*
X105462000Y-81350000D02*
X111962000Y-81350000D01*
X96962000Y-81350000D02*
X96962000Y-83350000D01*
X96962000Y-81350000D02*
X105462000Y-81350000D01*
X88462000Y-81350000D02*
X88462000Y-83350000D01*
X81962000Y-81350000D02*
X88462000Y-81350000D01*
X88462000Y-81350000D02*
X96962000Y-81350000D01*
D21*
X113962000Y-79350000D02*
X113962000Y-83350000D01*
X114462000Y-78850000D02*
X113962000Y-79350000D01*
D27*
%TO.N,+12V*%
X112042000Y-90350000D02*
X113962000Y-88430000D01*
X107382000Y-90350000D02*
X112042000Y-90350000D01*
X105462000Y-88430000D02*
X107382000Y-90350000D01*
X103542000Y-90350000D02*
X105462000Y-88430000D01*
X99275998Y-90350000D02*
X103542000Y-90350000D01*
X97355998Y-88430000D02*
X99275998Y-90350000D01*
X96962000Y-88430000D02*
X97355998Y-88430000D01*
X95042000Y-90350000D02*
X96962000Y-88430000D01*
X90382000Y-90350000D02*
X95042000Y-90350000D01*
X88462000Y-88430000D02*
X90382000Y-90350000D01*
X86542000Y-90350000D02*
X88462000Y-88430000D01*
X81882000Y-90350000D02*
X86542000Y-90350000D01*
X79962000Y-88430000D02*
X81882000Y-90350000D01*
D21*
%TO.N,+3V3*%
X129042000Y-81930000D02*
X128962000Y-81850000D01*
X129042000Y-84856000D02*
X129042000Y-81930000D01*
X124252371Y-54182371D02*
X124252371Y-54059625D01*
X125420000Y-55350000D02*
X124252371Y-54182371D01*
X124462000Y-56308000D02*
X124462000Y-81850000D01*
X125420000Y-55350000D02*
X124462000Y-56308000D01*
D23*
X79262000Y-51450000D02*
X81162000Y-51450000D01*
X78870000Y-51058000D02*
X79262000Y-51450000D01*
X78870000Y-49770000D02*
X78870000Y-51058000D01*
D24*
X127748000Y-86150000D02*
X129042000Y-84856000D01*
X125208000Y-86150000D02*
X127748000Y-86150000D01*
X123962000Y-87396000D02*
X125208000Y-86150000D01*
D21*
%TO.N,MAX_SDI*%
X115189000Y-69088000D02*
X113200000Y-69088000D01*
X117800000Y-58012000D02*
X117462000Y-58350000D01*
X117800000Y-55350000D02*
X117800000Y-58012000D01*
X112462000Y-68350000D02*
X113200000Y-69088000D01*
X112462000Y-63350000D02*
X112462000Y-68350000D01*
X124590000Y-47230000D02*
X123339999Y-48480001D01*
X123339999Y-48480001D02*
X123339999Y-51722022D01*
X123339999Y-51722022D02*
X121962000Y-53100021D01*
%TO.N,MAX_SDO*%
X120340000Y-51480000D02*
X122050000Y-49770000D01*
X120340000Y-55350000D02*
X120340000Y-51480000D01*
X120340000Y-58242002D02*
X120340000Y-55350000D01*
X117114002Y-61468000D02*
X120340000Y-58242002D01*
X115189000Y-61468000D02*
X117114002Y-61468000D01*
%TO.N,MAX_CLK*%
X122880000Y-58455998D02*
X122880000Y-55350000D01*
X117327998Y-64008000D02*
X122880000Y-58455998D01*
X115189000Y-64008000D02*
X117327998Y-64008000D01*
X125879999Y-48480001D02*
X127130000Y-47230000D01*
X125879999Y-50932001D02*
X125879999Y-48480001D01*
X122880000Y-53932000D02*
X125879999Y-50932001D01*
X122880000Y-55350000D02*
X122880000Y-53932000D01*
%TO.N,MAX_CS*%
X115260000Y-55350000D02*
X115260000Y-55052000D01*
X110639999Y-48519999D02*
X109350000Y-47230000D01*
X110639999Y-50431999D02*
X110639999Y-48519999D01*
X115260000Y-55052000D02*
X110639999Y-50431999D01*
X113462000Y-64821000D02*
X115189000Y-66548000D01*
X113462000Y-57148000D02*
X113462000Y-64821000D01*
X115260000Y-55350000D02*
X113462000Y-57148000D01*
%TO.N,ADXL_CS*%
X108060001Y-48480001D02*
X106810000Y-47230000D01*
X108060001Y-51659001D02*
X108060001Y-48480001D01*
X108462000Y-52061000D02*
X108060001Y-51659001D01*
X108462000Y-80350000D02*
X108462000Y-52061000D01*
X131582000Y-84856000D02*
X131582000Y-81970000D01*
X131582000Y-81970000D02*
X130962000Y-81350000D01*
%TO.N,ADXL_SDA*%
X126502000Y-87396000D02*
X126502000Y-89310000D01*
X105962000Y-64350008D02*
X106462000Y-64850008D01*
X105962000Y-54002000D02*
X105962000Y-64350008D01*
X101730000Y-49770000D02*
X105962000Y-54002000D01*
X120962000Y-64850014D02*
X119988013Y-65824001D01*
X121962000Y-65850000D02*
X120962000Y-64850000D01*
X121962000Y-77350000D02*
X121962000Y-65850000D01*
X121462000Y-77850000D02*
X121962000Y-77350000D01*
X121462000Y-88850000D02*
X121462000Y-77850000D01*
X120962000Y-64850000D02*
X120962000Y-64850014D01*
X120962000Y-89350000D02*
X121462000Y-88850000D01*
D24*
%TO.N,ADXL_SCL*%
X134062000Y-52950000D02*
X133962000Y-52850000D01*
X134062000Y-86333000D02*
X134062000Y-52950000D01*
X132999000Y-87396000D02*
X134062000Y-86333000D01*
X131582000Y-87396000D02*
X132999000Y-87396000D01*
%TO.N,GPIO19*%
X129160001Y-59548001D02*
X129962000Y-60350000D01*
X129160001Y-52548001D02*
X129160001Y-59548001D01*
X128462000Y-51850000D02*
X129160001Y-52548001D01*
%TO.N,GPIO13*%
X119062000Y-58484000D02*
X117348000Y-60198000D01*
X119062000Y-50218000D02*
X119062000Y-58484000D01*
X119510000Y-49770000D02*
X119062000Y-50218000D01*
%TO.N,GPIO12*%
X116970000Y-47230000D02*
X115661999Y-48538001D01*
X115661999Y-48538001D02*
X115661999Y-53150001D01*
X115661999Y-53150001D02*
X115462000Y-53350000D01*
X110000000Y-60000000D02*
X110000000Y-55812000D01*
X110000000Y-55812000D02*
X110962000Y-54850000D01*
%TO.N,GPIO23*%
X107500000Y-53388000D02*
X107462000Y-53350000D01*
X107500000Y-67000000D02*
X107500000Y-53388000D01*
X95362000Y-48518000D02*
X95362000Y-53099990D01*
X96650000Y-47230000D02*
X95362000Y-48518000D01*
X95362000Y-53099990D02*
X95462000Y-53199990D01*
%TO.N,GPIO18*%
X106680000Y-54571012D02*
X106679019Y-54570031D01*
X106680000Y-56896000D02*
X106680000Y-54571012D01*
X90262000Y-52738000D02*
X90250000Y-52750000D01*
X90262000Y-48538000D02*
X90262000Y-52738000D01*
X91570000Y-47230000D02*
X90262000Y-48538000D01*
D23*
%TO.N,/GPIO12-*%
X109462000Y-70850000D02*
X109462000Y-64349998D01*
X109462000Y-64349998D02*
X109711999Y-64099999D01*
%TO.N,/GPIO13-*%
X111973999Y-70338001D02*
X110462000Y-71850000D01*
X115789001Y-70338001D02*
X111973999Y-70338001D01*
X117602000Y-68525002D02*
X115789001Y-70338001D01*
X117602000Y-65024000D02*
X117602000Y-68525002D01*
X97462000Y-91350000D02*
X95962000Y-92850000D01*
X102962000Y-91350000D02*
X97462000Y-91350000D01*
%TO.N,/GPIO18-*%
X119462000Y-88750036D02*
X116962000Y-91250036D01*
X119462000Y-67739998D02*
X119462000Y-88750036D01*
X118962000Y-67239998D02*
X119462000Y-67739998D01*
X118962000Y-64850000D02*
X118962000Y-67239998D01*
X108561964Y-91250036D02*
X106962000Y-92850000D01*
X116962000Y-91250036D02*
X108561964Y-91250036D01*
X119962000Y-63850000D02*
X118962000Y-64850000D01*
%TO.N,/GPIO19-*%
X118962000Y-92850000D02*
X118962000Y-90239998D01*
X118962000Y-90239998D02*
X120462012Y-88739986D01*
X120462012Y-88739986D02*
X120462012Y-66850000D01*
%TO.N,/GPIO23-*%
X127962000Y-81425736D02*
X127962000Y-82950000D01*
X129462000Y-79925736D02*
X127962000Y-81425736D01*
X130462000Y-70350000D02*
X129462000Y-71350000D01*
X129462000Y-71350000D02*
X129462000Y-79925736D01*
X122362011Y-83749999D02*
X122762010Y-83350000D01*
X122362011Y-89750011D02*
X122362011Y-83749999D01*
X123962000Y-91350000D02*
X122362011Y-89750011D01*
X124462000Y-91350000D02*
X123962000Y-91350000D01*
%TD*%
D28*
%TO.N,GND*%
X129942907Y-45993425D02*
X129493425Y-46442907D01*
X129140270Y-46971442D01*
X128897012Y-47558719D01*
X128773000Y-48182168D01*
X128773000Y-48817832D01*
X128897012Y-49441281D01*
X129140270Y-50028558D01*
X129493425Y-50557093D01*
X129942907Y-51006575D01*
X130471442Y-51359730D01*
X131058719Y-51602988D01*
X131682168Y-51727000D01*
X132317832Y-51727000D01*
X132941281Y-51602988D01*
X133528558Y-51359730D01*
X134057093Y-51006575D01*
X134506575Y-50557093D01*
X134815000Y-50095501D01*
X134815000Y-52466052D01*
X134790586Y-52407111D01*
X134688262Y-52253972D01*
X134558028Y-52123738D01*
X134404889Y-52021414D01*
X134234729Y-51950932D01*
X134054089Y-51915000D01*
X133869911Y-51915000D01*
X133689271Y-51950932D01*
X133519111Y-52021414D01*
X133365972Y-52123738D01*
X133235738Y-52253972D01*
X133133414Y-52407111D01*
X133062932Y-52577271D01*
X133027000Y-52757911D01*
X133027000Y-52942089D01*
X133062932Y-53122729D01*
X133133414Y-53292889D01*
X133235738Y-53446028D01*
X133277001Y-53487291D01*
X133277000Y-76533733D01*
X133083629Y-76340362D01*
X132717569Y-76095769D01*
X132310825Y-75927290D01*
X131879028Y-75841400D01*
X131438772Y-75841400D01*
X131006975Y-75927290D01*
X130600231Y-76095769D01*
X130347000Y-76264972D01*
X130347000Y-71716578D01*
X130707044Y-71356535D01*
X130763898Y-71345226D01*
X130952256Y-71267205D01*
X131121774Y-71153937D01*
X131265937Y-71009774D01*
X131379205Y-70840256D01*
X131457226Y-70651898D01*
X131497000Y-70451939D01*
X131497000Y-70248061D01*
X131457226Y-70048102D01*
X131379205Y-69859744D01*
X131265937Y-69690226D01*
X131121774Y-69546063D01*
X130952256Y-69432795D01*
X130763898Y-69354774D01*
X130563939Y-69315000D01*
X130360061Y-69315000D01*
X130160102Y-69354774D01*
X129971744Y-69432795D01*
X129802226Y-69546063D01*
X129658063Y-69690226D01*
X129544795Y-69859744D01*
X129466774Y-70048102D01*
X129455465Y-70104956D01*
X128925409Y-70635013D01*
X128803759Y-70513363D01*
X128571241Y-70358000D01*
X128803759Y-70202637D01*
X129003637Y-70002759D01*
X129160680Y-69767727D01*
X129268853Y-69506574D01*
X129324000Y-69229335D01*
X129324000Y-68946665D01*
X129268853Y-68669426D01*
X129160680Y-68408273D01*
X129003637Y-68173241D01*
X128803759Y-67973363D01*
X128571241Y-67818000D01*
X128803759Y-67662637D01*
X129003637Y-67462759D01*
X129160680Y-67227727D01*
X129268853Y-66966574D01*
X129324000Y-66689335D01*
X129324000Y-66406665D01*
X129268853Y-66129426D01*
X129160680Y-65868273D01*
X129003637Y-65633241D01*
X128803759Y-65433363D01*
X128571241Y-65278000D01*
X128803759Y-65122637D01*
X129003637Y-64922759D01*
X129160680Y-64687727D01*
X129268853Y-64426574D01*
X129324000Y-64149335D01*
X129324000Y-63866665D01*
X129268853Y-63589426D01*
X129160680Y-63328273D01*
X129003637Y-63093241D01*
X128803759Y-62893363D01*
X128568727Y-62736320D01*
X128558135Y-62731933D01*
X128744131Y-62620385D01*
X128952519Y-62431414D01*
X129120037Y-62205420D01*
X129240246Y-61951087D01*
X129280904Y-61817039D01*
X129158915Y-61595000D01*
X128016000Y-61595000D01*
X128016000Y-61615000D01*
X127762000Y-61615000D01*
X127762000Y-61595000D01*
X126619085Y-61595000D01*
X126497096Y-61817039D01*
X126537754Y-61951087D01*
X126657963Y-62205420D01*
X126825481Y-62431414D01*
X127033869Y-62620385D01*
X127219865Y-62731933D01*
X127209273Y-62736320D01*
X126974241Y-62893363D01*
X126774363Y-63093241D01*
X126617320Y-63328273D01*
X126509147Y-63589426D01*
X126454000Y-63866665D01*
X126454000Y-64149335D01*
X126509147Y-64426574D01*
X126617320Y-64687727D01*
X126774363Y-64922759D01*
X126974241Y-65122637D01*
X127206759Y-65278000D01*
X126974241Y-65433363D01*
X126774363Y-65633241D01*
X126617320Y-65868273D01*
X126509147Y-66129426D01*
X126454000Y-66406665D01*
X126454000Y-66689335D01*
X126509147Y-66966574D01*
X126617320Y-67227727D01*
X126774363Y-67462759D01*
X126974241Y-67662637D01*
X127206759Y-67818000D01*
X126974241Y-67973363D01*
X126774363Y-68173241D01*
X126617320Y-68408273D01*
X126509147Y-68669426D01*
X126454000Y-68946665D01*
X126454000Y-69229335D01*
X126509147Y-69506574D01*
X126617320Y-69767727D01*
X126774363Y-70002759D01*
X126974241Y-70202637D01*
X127206759Y-70358000D01*
X126974241Y-70513363D01*
X126774363Y-70713241D01*
X126617320Y-70948273D01*
X126509147Y-71209426D01*
X126454000Y-71486665D01*
X126454000Y-71769335D01*
X126509147Y-72046574D01*
X126617320Y-72307727D01*
X126774363Y-72542759D01*
X126974241Y-72742637D01*
X127206759Y-72898000D01*
X126974241Y-73053363D01*
X126774363Y-73253241D01*
X126617320Y-73488273D01*
X126509147Y-73749426D01*
X126454000Y-74026665D01*
X126454000Y-74309335D01*
X126509147Y-74586574D01*
X126617320Y-74847727D01*
X126774363Y-75082759D01*
X126972961Y-75281357D01*
X126964518Y-75282188D01*
X126844820Y-75318498D01*
X126734506Y-75377463D01*
X126637815Y-75456815D01*
X126558463Y-75553506D01*
X126499498Y-75663820D01*
X126463188Y-75783518D01*
X126450928Y-75908000D01*
X126454000Y-76422250D01*
X126612750Y-76581000D01*
X127762000Y-76581000D01*
X127762000Y-76561000D01*
X128016000Y-76561000D01*
X128016000Y-76581000D01*
X128036000Y-76581000D01*
X128036000Y-76835000D01*
X128016000Y-76835000D01*
X128016000Y-77984250D01*
X128174750Y-78143000D01*
X128577001Y-78145403D01*
X128577001Y-79559156D01*
X127366956Y-80769202D01*
X127333183Y-80796919D01*
X127222589Y-80931678D01*
X127140411Y-81085424D01*
X127109199Y-81188314D01*
X127091397Y-81247000D01*
X127089805Y-81252247D01*
X127077000Y-81382260D01*
X127077000Y-81382267D01*
X127072719Y-81425736D01*
X127077000Y-81469206D01*
X127077001Y-82411545D01*
X127044795Y-82459744D01*
X126966774Y-82648102D01*
X126927000Y-82848061D01*
X126927000Y-83051939D01*
X126966774Y-83251898D01*
X127044795Y-83440256D01*
X127081402Y-83495043D01*
X127006099Y-83459175D01*
X126858890Y-83414524D01*
X126629000Y-83535845D01*
X126629000Y-84729000D01*
X126649000Y-84729000D01*
X126649000Y-84983000D01*
X126629000Y-84983000D01*
X126629000Y-85003000D01*
X126375000Y-85003000D01*
X126375000Y-84983000D01*
X126355000Y-84983000D01*
X126355000Y-84729000D01*
X126375000Y-84729000D01*
X126375000Y-83535845D01*
X126145110Y-83414524D01*
X125997901Y-83459175D01*
X125735080Y-83584359D01*
X125501731Y-83758412D01*
X125306822Y-83974645D01*
X125237195Y-84091534D01*
X125115475Y-83909368D01*
X124908632Y-83702525D01*
X124665411Y-83540010D01*
X124395158Y-83428068D01*
X124108260Y-83371000D01*
X123815740Y-83371000D01*
X123797010Y-83374726D01*
X123797010Y-83248061D01*
X123757236Y-83048102D01*
X123679215Y-82859744D01*
X123565947Y-82690226D01*
X123421784Y-82546063D01*
X123252266Y-82432795D01*
X123063908Y-82354774D01*
X122863949Y-82315000D01*
X122660071Y-82315000D01*
X122460112Y-82354774D01*
X122297000Y-82422338D01*
X122297000Y-78195867D01*
X122523427Y-77969441D01*
X122555291Y-77943291D01*
X122659636Y-77816146D01*
X122737172Y-77671087D01*
X122784918Y-77513689D01*
X122797000Y-77391019D01*
X122797000Y-77391018D01*
X122801040Y-77350000D01*
X122797000Y-77308982D01*
X122797000Y-65891018D01*
X122801040Y-65850000D01*
X122785188Y-65689054D01*
X122784918Y-65686311D01*
X122737172Y-65528913D01*
X122659636Y-65383854D01*
X122555291Y-65256709D01*
X122523432Y-65230563D01*
X121581445Y-64288578D01*
X121555291Y-64256709D01*
X121428145Y-64152364D01*
X121283086Y-64074828D01*
X121125688Y-64027082D01*
X120984813Y-64013207D01*
X120997000Y-63951939D01*
X120997000Y-63748061D01*
X120957226Y-63548102D01*
X120879205Y-63359744D01*
X120765937Y-63190226D01*
X120621774Y-63046063D01*
X120452256Y-62932795D01*
X120263898Y-62854774D01*
X120063939Y-62815000D01*
X119860061Y-62815000D01*
X119662586Y-62854280D01*
X123441433Y-59075434D01*
X123473291Y-59049289D01*
X123577636Y-58922144D01*
X123627000Y-58829791D01*
X123627001Y-81422594D01*
X123562932Y-81577271D01*
X123527000Y-81757911D01*
X123527000Y-81942089D01*
X123562932Y-82122729D01*
X123633414Y-82292889D01*
X123735738Y-82446028D01*
X123865972Y-82576262D01*
X124019111Y-82678586D01*
X124189271Y-82749068D01*
X124369911Y-82785000D01*
X124554089Y-82785000D01*
X124734729Y-82749068D01*
X124904889Y-82678586D01*
X125058028Y-82576262D01*
X125188262Y-82446028D01*
X125290586Y-82292889D01*
X125361068Y-82122729D01*
X125397000Y-81942089D01*
X125397000Y-81757911D01*
X125361068Y-81577271D01*
X125297000Y-81422596D01*
X125297000Y-79915895D01*
X125338647Y-79919996D01*
X125383911Y-79929000D01*
X125430066Y-79929000D01*
X125476000Y-79933524D01*
X125521935Y-79929000D01*
X125568089Y-79929000D01*
X125613352Y-79919997D01*
X125659292Y-79915472D01*
X125703469Y-79902071D01*
X125748729Y-79893068D01*
X125791367Y-79875407D01*
X125835540Y-79862007D01*
X125876245Y-79840250D01*
X125918889Y-79822586D01*
X125957273Y-79796939D01*
X125997971Y-79775185D01*
X126033644Y-79745909D01*
X126072028Y-79720262D01*
X126104667Y-79687623D01*
X126140344Y-79658344D01*
X126169623Y-79622667D01*
X126202262Y-79590028D01*
X126227909Y-79551644D01*
X126257185Y-79515971D01*
X126278939Y-79475273D01*
X126304586Y-79436889D01*
X126322250Y-79394245D01*
X126344007Y-79353540D01*
X126357407Y-79309367D01*
X126375068Y-79266729D01*
X126384071Y-79221469D01*
X126397472Y-79177292D01*
X126401997Y-79131352D01*
X126411000Y-79086089D01*
X126411000Y-79039935D01*
X126415524Y-78994000D01*
X126411000Y-78948066D01*
X126411000Y-78901911D01*
X126401996Y-78856647D01*
X126397472Y-78810709D01*
X126384071Y-78766533D01*
X126375068Y-78721271D01*
X126372999Y-78716276D01*
X126372999Y-77508000D01*
X126450928Y-77508000D01*
X126463188Y-77632482D01*
X126499498Y-77752180D01*
X126558463Y-77862494D01*
X126637815Y-77959185D01*
X126734506Y-78038537D01*
X126844820Y-78097502D01*
X126964518Y-78133812D01*
X127089000Y-78146072D01*
X127603250Y-78143000D01*
X127762000Y-77984250D01*
X127762000Y-76835000D01*
X126612750Y-76835000D01*
X126454000Y-76993750D01*
X126450928Y-77508000D01*
X126372999Y-77508000D01*
X126372999Y-72993964D01*
X126385944Y-72951290D01*
X126397472Y-72913289D01*
X126415524Y-72729998D01*
X126411000Y-72684063D01*
X126411000Y-60077289D01*
X126625289Y-59863000D01*
X126794604Y-59863000D01*
X126974241Y-60042637D01*
X127209273Y-60199680D01*
X127219865Y-60204067D01*
X127033869Y-60315615D01*
X126825481Y-60504586D01*
X126657963Y-60730580D01*
X126537754Y-60984913D01*
X126497096Y-61118961D01*
X126619085Y-61341000D01*
X127762000Y-61341000D01*
X127762000Y-61321000D01*
X128016000Y-61321000D01*
X128016000Y-61341000D01*
X129158915Y-61341000D01*
X129280904Y-61118961D01*
X129240246Y-60984913D01*
X129188339Y-60875090D01*
X129235738Y-60946028D01*
X129365972Y-61076262D01*
X129519111Y-61178586D01*
X129689271Y-61249068D01*
X129869911Y-61285000D01*
X130054089Y-61285000D01*
X130234729Y-61249068D01*
X130404889Y-61178586D01*
X130558028Y-61076262D01*
X130688262Y-60946028D01*
X130790586Y-60792889D01*
X130861068Y-60622729D01*
X130897000Y-60442089D01*
X130897000Y-60257911D01*
X130861068Y-60077271D01*
X130790586Y-59907111D01*
X130688262Y-59753972D01*
X130558028Y-59623738D01*
X130404889Y-59521414D01*
X130234729Y-59450932D01*
X130157783Y-59435626D01*
X129945001Y-59222844D01*
X129945001Y-56838072D01*
X131350000Y-56838072D01*
X131474482Y-56825812D01*
X131594180Y-56789502D01*
X131704494Y-56730537D01*
X131801185Y-56651185D01*
X131880537Y-56554494D01*
X131939502Y-56444180D01*
X131975812Y-56324482D01*
X131988072Y-56200000D01*
X131988072Y-54500000D01*
X131975812Y-54375518D01*
X131939502Y-54255820D01*
X131880537Y-54145506D01*
X131801185Y-54048815D01*
X131704494Y-53969463D01*
X131594180Y-53910498D01*
X131474482Y-53874188D01*
X131350000Y-53861928D01*
X129945001Y-53861928D01*
X129945001Y-52586553D01*
X129948798Y-52548000D01*
X129945001Y-52509447D01*
X129945001Y-52509440D01*
X129933642Y-52394114D01*
X129933073Y-52392236D01*
X129923195Y-52359673D01*
X129888755Y-52246141D01*
X129815863Y-52109768D01*
X129717765Y-51990237D01*
X129687817Y-51965660D01*
X129376374Y-51654216D01*
X129361068Y-51577271D01*
X129290586Y-51407111D01*
X129188262Y-51253972D01*
X129058028Y-51123738D01*
X128904889Y-51021414D01*
X128734729Y-50950932D01*
X128554089Y-50915000D01*
X128369911Y-50915000D01*
X128189271Y-50950932D01*
X128019111Y-51021414D01*
X127865972Y-51123738D01*
X127735738Y-51253972D01*
X127633414Y-51407111D01*
X127562932Y-51577271D01*
X127527000Y-51757911D01*
X127527000Y-51942089D01*
X127562932Y-52122729D01*
X127633414Y-52292889D01*
X127735738Y-52446028D01*
X127865972Y-52576262D01*
X128019111Y-52678586D01*
X128189271Y-52749068D01*
X128266216Y-52764374D01*
X128375001Y-52873159D01*
X128375001Y-53926150D01*
X128316890Y-53908524D01*
X128087000Y-54029845D01*
X128087000Y-55223000D01*
X128107000Y-55223000D01*
X128107000Y-55477000D01*
X128087000Y-55477000D01*
X128087000Y-56670155D01*
X128316890Y-56791476D01*
X128375002Y-56773850D01*
X128375002Y-57576076D01*
X128307574Y-57548147D01*
X128030335Y-57493000D01*
X127747665Y-57493000D01*
X127470426Y-57548147D01*
X127209273Y-57656320D01*
X126974241Y-57813363D01*
X126794604Y-57993000D01*
X126283935Y-57993000D01*
X126238000Y-57988476D01*
X126054708Y-58006528D01*
X125950828Y-58038041D01*
X125878460Y-58059993D01*
X125716028Y-58146814D01*
X125573656Y-58263656D01*
X125544370Y-58299341D01*
X125297000Y-58546711D01*
X125297000Y-56835000D01*
X125566260Y-56835000D01*
X125853158Y-56777932D01*
X126123411Y-56665990D01*
X126366632Y-56503475D01*
X126573475Y-56296632D01*
X126695195Y-56114466D01*
X126764822Y-56231355D01*
X126959731Y-56447588D01*
X127193080Y-56621641D01*
X127455901Y-56746825D01*
X127603110Y-56791476D01*
X127833000Y-56670155D01*
X127833000Y-55477000D01*
X127813000Y-55477000D01*
X127813000Y-55223000D01*
X127833000Y-55223000D01*
X127833000Y-54029845D01*
X127603110Y-53908524D01*
X127455901Y-53953175D01*
X127193080Y-54078359D01*
X126959731Y-54252412D01*
X126764822Y-54468645D01*
X126695195Y-54585534D01*
X126573475Y-54403368D01*
X126366632Y-54196525D01*
X126123411Y-54034010D01*
X125853158Y-53922068D01*
X125566260Y-53865000D01*
X125273740Y-53865000D01*
X125171039Y-53885429D01*
X125151439Y-53786896D01*
X125080957Y-53616736D01*
X124978633Y-53463597D01*
X124848399Y-53333363D01*
X124735165Y-53257703D01*
X126441427Y-51551441D01*
X126473290Y-51525292D01*
X126577635Y-51398147D01*
X126655171Y-51253088D01*
X126676667Y-51182223D01*
X126773110Y-51211476D01*
X127003000Y-51090155D01*
X127003000Y-49897000D01*
X127257000Y-49897000D01*
X127257000Y-51090155D01*
X127486890Y-51211476D01*
X127634099Y-51166825D01*
X127896920Y-51041641D01*
X128130269Y-50867588D01*
X128325178Y-50651355D01*
X128474157Y-50401252D01*
X128571481Y-50126891D01*
X128450814Y-49897000D01*
X127257000Y-49897000D01*
X127003000Y-49897000D01*
X126983000Y-49897000D01*
X126983000Y-49643000D01*
X127003000Y-49643000D01*
X127003000Y-49623000D01*
X127257000Y-49623000D01*
X127257000Y-49643000D01*
X128450814Y-49643000D01*
X128571481Y-49413109D01*
X128474157Y-49138748D01*
X128325178Y-48888645D01*
X128130269Y-48672412D01*
X127900594Y-48501100D01*
X128076632Y-48383475D01*
X128283475Y-48176632D01*
X128445990Y-47933411D01*
X128557932Y-47663158D01*
X128615000Y-47376260D01*
X128615000Y-47083740D01*
X128557932Y-46796842D01*
X128445990Y-46526589D01*
X128283475Y-46283368D01*
X128076632Y-46076525D01*
X127833411Y-45914010D01*
X127563158Y-45802068D01*
X127276260Y-45745000D01*
X126983740Y-45745000D01*
X126696842Y-45802068D01*
X126426589Y-45914010D01*
X126183368Y-46076525D01*
X125976525Y-46283368D01*
X125860000Y-46457760D01*
X125743475Y-46283368D01*
X125536632Y-46076525D01*
X125293411Y-45914010D01*
X125023158Y-45802068D01*
X124736260Y-45745000D01*
X124443740Y-45745000D01*
X124156842Y-45802068D01*
X123886589Y-45914010D01*
X123643368Y-46076525D01*
X123436525Y-46283368D01*
X123320000Y-46457760D01*
X123203475Y-46283368D01*
X122996632Y-46076525D01*
X122753411Y-45914010D01*
X122483158Y-45802068D01*
X122196260Y-45745000D01*
X121903740Y-45745000D01*
X121616842Y-45802068D01*
X121346589Y-45914010D01*
X121103368Y-46076525D01*
X120896525Y-46283368D01*
X120774805Y-46465534D01*
X120705178Y-46348645D01*
X120510269Y-46132412D01*
X120276920Y-45958359D01*
X120014099Y-45833175D01*
X119866890Y-45788524D01*
X119637000Y-45909845D01*
X119637000Y-47103000D01*
X119657000Y-47103000D01*
X119657000Y-47357000D01*
X119637000Y-47357000D01*
X119637000Y-47377000D01*
X119383000Y-47377000D01*
X119383000Y-47357000D01*
X119363000Y-47357000D01*
X119363000Y-47103000D01*
X119383000Y-47103000D01*
X119383000Y-45909845D01*
X119153110Y-45788524D01*
X119005901Y-45833175D01*
X118743080Y-45958359D01*
X118509731Y-46132412D01*
X118314822Y-46348645D01*
X118245195Y-46465534D01*
X118123475Y-46283368D01*
X117916632Y-46076525D01*
X117673411Y-45914010D01*
X117403158Y-45802068D01*
X117116260Y-45745000D01*
X116823740Y-45745000D01*
X116536842Y-45802068D01*
X116266589Y-45914010D01*
X116023368Y-46076525D01*
X115816525Y-46283368D01*
X115694805Y-46465534D01*
X115625178Y-46348645D01*
X115430269Y-46132412D01*
X115196920Y-45958359D01*
X114934099Y-45833175D01*
X114786890Y-45788524D01*
X114557000Y-45909845D01*
X114557000Y-47103000D01*
X114577000Y-47103000D01*
X114577000Y-47357000D01*
X114557000Y-47357000D01*
X114557000Y-47377000D01*
X114303000Y-47377000D01*
X114303000Y-47357000D01*
X114283000Y-47357000D01*
X114283000Y-47103000D01*
X114303000Y-47103000D01*
X114303000Y-45909845D01*
X114073110Y-45788524D01*
X113925901Y-45833175D01*
X113663080Y-45958359D01*
X113429731Y-46132412D01*
X113234822Y-46348645D01*
X113165195Y-46465534D01*
X113043475Y-46283368D01*
X112836632Y-46076525D01*
X112593411Y-45914010D01*
X112323158Y-45802068D01*
X112036260Y-45745000D01*
X111743740Y-45745000D01*
X111456842Y-45802068D01*
X111186589Y-45914010D01*
X110943368Y-46076525D01*
X110736525Y-46283368D01*
X110620000Y-46457760D01*
X110503475Y-46283368D01*
X110296632Y-46076525D01*
X110053411Y-45914010D01*
X109783158Y-45802068D01*
X109496260Y-45745000D01*
X109203740Y-45745000D01*
X108916842Y-45802068D01*
X108646589Y-45914010D01*
X108403368Y-46076525D01*
X108196525Y-46283368D01*
X108080000Y-46457760D01*
X107963475Y-46283368D01*
X107756632Y-46076525D01*
X107513411Y-45914010D01*
X107243158Y-45802068D01*
X106956260Y-45745000D01*
X106663740Y-45745000D01*
X106376842Y-45802068D01*
X106106589Y-45914010D01*
X105863368Y-46076525D01*
X105656525Y-46283368D01*
X105540000Y-46457760D01*
X105423475Y-46283368D01*
X105216632Y-46076525D01*
X104973411Y-45914010D01*
X104703158Y-45802068D01*
X104416260Y-45745000D01*
X104123740Y-45745000D01*
X103836842Y-45802068D01*
X103566589Y-45914010D01*
X103323368Y-46076525D01*
X103116525Y-46283368D01*
X102994805Y-46465534D01*
X102925178Y-46348645D01*
X102730269Y-46132412D01*
X102496920Y-45958359D01*
X102234099Y-45833175D01*
X102086890Y-45788524D01*
X101857000Y-45909845D01*
X101857000Y-47103000D01*
X101877000Y-47103000D01*
X101877000Y-47357000D01*
X101857000Y-47357000D01*
X101857000Y-47377000D01*
X101603000Y-47377000D01*
X101603000Y-47357000D01*
X101583000Y-47357000D01*
X101583000Y-47103000D01*
X101603000Y-47103000D01*
X101603000Y-45909845D01*
X101373110Y-45788524D01*
X101225901Y-45833175D01*
X100963080Y-45958359D01*
X100729731Y-46132412D01*
X100534822Y-46348645D01*
X100465195Y-46465534D01*
X100343475Y-46283368D01*
X100136632Y-46076525D01*
X99893411Y-45914010D01*
X99623158Y-45802068D01*
X99336260Y-45745000D01*
X99043740Y-45745000D01*
X98756842Y-45802068D01*
X98486589Y-45914010D01*
X98243368Y-46076525D01*
X98036525Y-46283368D01*
X97920000Y-46457760D01*
X97803475Y-46283368D01*
X97596632Y-46076525D01*
X97353411Y-45914010D01*
X97083158Y-45802068D01*
X96796260Y-45745000D01*
X96503740Y-45745000D01*
X96216842Y-45802068D01*
X95946589Y-45914010D01*
X95703368Y-46076525D01*
X95496525Y-46283368D01*
X95374805Y-46465534D01*
X95305178Y-46348645D01*
X95110269Y-46132412D01*
X94876920Y-45958359D01*
X94614099Y-45833175D01*
X94466890Y-45788524D01*
X94237000Y-45909845D01*
X94237000Y-47103000D01*
X94257000Y-47103000D01*
X94257000Y-47357000D01*
X94237000Y-47357000D01*
X94237000Y-47377000D01*
X93983000Y-47377000D01*
X93983000Y-47357000D01*
X93963000Y-47357000D01*
X93963000Y-47103000D01*
X93983000Y-47103000D01*
X93983000Y-45909845D01*
X93753110Y-45788524D01*
X93605901Y-45833175D01*
X93343080Y-45958359D01*
X93109731Y-46132412D01*
X92914822Y-46348645D01*
X92845195Y-46465534D01*
X92723475Y-46283368D01*
X92516632Y-46076525D01*
X92273411Y-45914010D01*
X92003158Y-45802068D01*
X91716260Y-45745000D01*
X91423740Y-45745000D01*
X91136842Y-45802068D01*
X90866589Y-45914010D01*
X90623368Y-46076525D01*
X90416525Y-46283368D01*
X90300000Y-46457760D01*
X90183475Y-46283368D01*
X89976632Y-46076525D01*
X89733411Y-45914010D01*
X89463158Y-45802068D01*
X89176260Y-45745000D01*
X88883740Y-45745000D01*
X88596842Y-45802068D01*
X88326589Y-45914010D01*
X88083368Y-46076525D01*
X87876525Y-46283368D01*
X87760000Y-46457760D01*
X87643475Y-46283368D01*
X87436632Y-46076525D01*
X87193411Y-45914010D01*
X86923158Y-45802068D01*
X86636260Y-45745000D01*
X86343740Y-45745000D01*
X86056842Y-45802068D01*
X85786589Y-45914010D01*
X85543368Y-46076525D01*
X85336525Y-46283368D01*
X85214805Y-46465534D01*
X85145178Y-46348645D01*
X84950269Y-46132412D01*
X84716920Y-45958359D01*
X84454099Y-45833175D01*
X84306890Y-45788524D01*
X84077000Y-45909845D01*
X84077000Y-47103000D01*
X84097000Y-47103000D01*
X84097000Y-47357000D01*
X84077000Y-47357000D01*
X84077000Y-47377000D01*
X83823000Y-47377000D01*
X83823000Y-47357000D01*
X83803000Y-47357000D01*
X83803000Y-47103000D01*
X83823000Y-47103000D01*
X83823000Y-45909845D01*
X83593110Y-45788524D01*
X83445901Y-45833175D01*
X83183080Y-45958359D01*
X82949731Y-46132412D01*
X82754822Y-46348645D01*
X82685195Y-46465534D01*
X82563475Y-46283368D01*
X82356632Y-46076525D01*
X82113411Y-45914010D01*
X81843158Y-45802068D01*
X81556260Y-45745000D01*
X81263740Y-45745000D01*
X80976842Y-45802068D01*
X80706589Y-45914010D01*
X80463368Y-46076525D01*
X80256525Y-46283368D01*
X80140000Y-46457760D01*
X80023475Y-46283368D01*
X79816632Y-46076525D01*
X79573411Y-45914010D01*
X79303158Y-45802068D01*
X79016260Y-45745000D01*
X78723740Y-45745000D01*
X78436842Y-45802068D01*
X78166589Y-45914010D01*
X77923368Y-46076525D01*
X77716525Y-46283368D01*
X77554010Y-46526589D01*
X77442068Y-46796842D01*
X77385000Y-47083740D01*
X77385000Y-47376260D01*
X77442068Y-47663158D01*
X77554010Y-47933411D01*
X77716525Y-48176632D01*
X77848380Y-48308487D01*
X77775820Y-48330498D01*
X77665506Y-48389463D01*
X77568815Y-48468815D01*
X77489463Y-48565506D01*
X77430498Y-48675820D01*
X77394188Y-48795518D01*
X77381928Y-48920000D01*
X77381928Y-50620000D01*
X77394188Y-50744482D01*
X77430498Y-50864180D01*
X77489463Y-50974494D01*
X77568815Y-51071185D01*
X77665506Y-51150537D01*
X77775820Y-51209502D01*
X77895518Y-51245812D01*
X78005434Y-51256637D01*
X78048412Y-51398313D01*
X78130590Y-51552059D01*
X78213468Y-51653046D01*
X78213471Y-51653049D01*
X78241184Y-51686817D01*
X78274952Y-51714530D01*
X78605466Y-52045044D01*
X78633183Y-52078817D01*
X78767941Y-52189411D01*
X78921687Y-52271589D01*
X79088510Y-52322195D01*
X79218523Y-52335000D01*
X79218531Y-52335000D01*
X79262000Y-52339281D01*
X79305469Y-52335000D01*
X80855308Y-52335000D01*
X80889271Y-52349068D01*
X81069911Y-52385000D01*
X81254089Y-52385000D01*
X81434729Y-52349068D01*
X81604889Y-52278586D01*
X81758028Y-52176262D01*
X81888262Y-52046028D01*
X81990586Y-51892889D01*
X82061068Y-51722729D01*
X82097000Y-51542089D01*
X82097000Y-51357911D01*
X82061068Y-51177271D01*
X82036461Y-51117864D01*
X82113411Y-51085990D01*
X82356632Y-50923475D01*
X82563475Y-50716632D01*
X82680000Y-50542240D01*
X82796525Y-50716632D01*
X83003368Y-50923475D01*
X83246589Y-51085990D01*
X83516842Y-51197932D01*
X83803740Y-51255000D01*
X84096260Y-51255000D01*
X84383158Y-51197932D01*
X84653411Y-51085990D01*
X84896632Y-50923475D01*
X85103475Y-50716632D01*
X85220000Y-50542240D01*
X85336525Y-50716632D01*
X85543368Y-50923475D01*
X85786589Y-51085990D01*
X86056842Y-51197932D01*
X86343740Y-51255000D01*
X86636260Y-51255000D01*
X86923158Y-51197932D01*
X87193411Y-51085990D01*
X87436632Y-50923475D01*
X87643475Y-50716632D01*
X87765195Y-50534466D01*
X87834822Y-50651355D01*
X88029731Y-50867588D01*
X88263080Y-51041641D01*
X88525901Y-51166825D01*
X88673110Y-51211476D01*
X88903000Y-51090155D01*
X88903000Y-49897000D01*
X88883000Y-49897000D01*
X88883000Y-49643000D01*
X88903000Y-49643000D01*
X88903000Y-49623000D01*
X89157000Y-49623000D01*
X89157000Y-49643000D01*
X89177000Y-49643000D01*
X89177000Y-49897000D01*
X89157000Y-49897000D01*
X89157000Y-51090155D01*
X89386890Y-51211476D01*
X89477001Y-51184144D01*
X89477001Y-52223919D01*
X89421414Y-52307111D01*
X89350932Y-52477271D01*
X89315000Y-52657911D01*
X89315000Y-52842089D01*
X89350932Y-53022729D01*
X89421414Y-53192889D01*
X89523738Y-53346028D01*
X89653972Y-53476262D01*
X89807111Y-53578586D01*
X89977271Y-53649068D01*
X90157911Y-53685000D01*
X90342089Y-53685000D01*
X90522729Y-53649068D01*
X90692889Y-53578586D01*
X90846028Y-53476262D01*
X90976262Y-53346028D01*
X91078586Y-53192889D01*
X91149068Y-53022729D01*
X91185000Y-52842089D01*
X91185000Y-52657911D01*
X91149068Y-52477271D01*
X91078586Y-52307111D01*
X91047000Y-52259839D01*
X91047000Y-51160718D01*
X91136842Y-51197932D01*
X91423740Y-51255000D01*
X91716260Y-51255000D01*
X92003158Y-51197932D01*
X92273411Y-51085990D01*
X92516632Y-50923475D01*
X92723475Y-50716632D01*
X92840000Y-50542240D01*
X92956525Y-50716632D01*
X93163368Y-50923475D01*
X93406589Y-51085990D01*
X93676842Y-51197932D01*
X93963740Y-51255000D01*
X94256260Y-51255000D01*
X94543158Y-51197932D01*
X94577001Y-51183914D01*
X94577001Y-52893295D01*
X94562932Y-52927261D01*
X94527000Y-53107901D01*
X94527000Y-53292079D01*
X94562932Y-53472719D01*
X94633414Y-53642879D01*
X94735738Y-53796018D01*
X94865972Y-53926252D01*
X95019111Y-54028576D01*
X95189271Y-54099058D01*
X95369911Y-54134990D01*
X95554089Y-54134990D01*
X95734729Y-54099058D01*
X95904889Y-54028576D01*
X96058028Y-53926252D01*
X96188262Y-53796018D01*
X96290586Y-53642879D01*
X96361068Y-53472719D01*
X96397000Y-53292079D01*
X96397000Y-53107901D01*
X96361068Y-52927261D01*
X96290586Y-52757101D01*
X96188262Y-52603962D01*
X96147000Y-52562700D01*
X96147000Y-51169003D01*
X96216842Y-51197932D01*
X96503740Y-51255000D01*
X96796260Y-51255000D01*
X97083158Y-51197932D01*
X97353411Y-51085990D01*
X97596632Y-50923475D01*
X97803475Y-50716632D01*
X97920000Y-50542240D01*
X98036525Y-50716632D01*
X98243368Y-50923475D01*
X98486589Y-51085990D01*
X98756842Y-51197932D01*
X99043740Y-51255000D01*
X99336260Y-51255000D01*
X99623158Y-51197932D01*
X99893411Y-51085990D01*
X100136632Y-50923475D01*
X100343475Y-50716632D01*
X100460000Y-50542240D01*
X100576525Y-50716632D01*
X100783368Y-50923475D01*
X101026589Y-51085990D01*
X101296842Y-51197932D01*
X101583740Y-51255000D01*
X101876260Y-51255000D01*
X102007940Y-51228807D01*
X105127000Y-54347869D01*
X105127000Y-55966233D01*
X104924729Y-55763962D01*
X104558669Y-55519369D01*
X104151925Y-55350890D01*
X103720128Y-55265000D01*
X103279872Y-55265000D01*
X102848075Y-55350890D01*
X102441331Y-55519369D01*
X102075271Y-55763962D01*
X101763962Y-56075271D01*
X101519369Y-56441331D01*
X101350890Y-56848075D01*
X101265000Y-57279872D01*
X101265000Y-57492422D01*
X99484917Y-56303009D01*
X97185493Y-55350556D01*
X94744439Y-54865000D01*
X92255561Y-54865000D01*
X89814507Y-55350556D01*
X87515083Y-56303009D01*
X85735000Y-57492422D01*
X85735000Y-57279872D01*
X85649110Y-56848075D01*
X85480631Y-56441331D01*
X85236038Y-56075271D01*
X84924729Y-55763962D01*
X84558669Y-55519369D01*
X84151925Y-55350890D01*
X83720128Y-55265000D01*
X83279872Y-55265000D01*
X82848075Y-55350890D01*
X82441331Y-55519369D01*
X82075271Y-55763962D01*
X81763962Y-56075271D01*
X81519369Y-56441331D01*
X81350890Y-56848075D01*
X81265000Y-57279872D01*
X81265000Y-57720128D01*
X81350890Y-58151925D01*
X81519369Y-58558669D01*
X81763962Y-58924729D01*
X82075271Y-59236038D01*
X82441331Y-59480631D01*
X82848075Y-59649110D01*
X83279872Y-59735000D01*
X83492422Y-59735000D01*
X82303009Y-61515083D01*
X81350556Y-63814507D01*
X81186703Y-64638254D01*
X81148284Y-64566377D01*
X81121503Y-64533744D01*
X81041989Y-64436856D01*
X81041987Y-64436854D01*
X81006449Y-64393551D01*
X80963146Y-64358013D01*
X77461996Y-60856865D01*
X77426449Y-60813551D01*
X77253623Y-60671716D01*
X77056447Y-60566324D01*
X76842499Y-60501423D01*
X76675752Y-60485000D01*
X76675751Y-60485000D01*
X76620000Y-60479509D01*
X76564249Y-60485000D01*
X75747950Y-60485000D01*
X75612950Y-60350000D01*
X75808825Y-60154125D01*
X75993228Y-59878147D01*
X76120246Y-59571496D01*
X76185000Y-59245958D01*
X76185000Y-58914042D01*
X76120246Y-58588504D01*
X75993228Y-58281853D01*
X75808825Y-58005875D01*
X75612950Y-57810000D01*
X75808825Y-57614125D01*
X75993228Y-57338147D01*
X76120246Y-57031496D01*
X76185000Y-56705958D01*
X76185000Y-56374042D01*
X76120246Y-56048504D01*
X75993228Y-55741853D01*
X75890454Y-55588042D01*
X75904494Y-55580537D01*
X76001185Y-55501185D01*
X76080537Y-55404494D01*
X76139502Y-55294180D01*
X76175812Y-55174482D01*
X76188072Y-55050000D01*
X76185000Y-54285750D01*
X76026250Y-54127000D01*
X74627000Y-54127000D01*
X74627000Y-54147000D01*
X74373000Y-54147000D01*
X74373000Y-54127000D01*
X72973750Y-54127000D01*
X72815000Y-54285750D01*
X72811928Y-55050000D01*
X72824188Y-55174482D01*
X72860498Y-55294180D01*
X72919463Y-55404494D01*
X72998815Y-55501185D01*
X73095506Y-55580537D01*
X73109546Y-55588042D01*
X73006772Y-55741853D01*
X72879754Y-56048504D01*
X72815000Y-56374042D01*
X72815000Y-56705958D01*
X72879754Y-57031496D01*
X73006772Y-57338147D01*
X73191175Y-57614125D01*
X73387050Y-57810000D01*
X73191175Y-58005875D01*
X73006772Y-58281853D01*
X72879754Y-58588504D01*
X72815000Y-58914042D01*
X72815000Y-59245958D01*
X72879754Y-59571496D01*
X73006772Y-59878147D01*
X73191175Y-60154125D01*
X73387050Y-60350000D01*
X73191175Y-60545875D01*
X73006772Y-60821853D01*
X72879754Y-61128504D01*
X72815000Y-61454042D01*
X72815000Y-61785958D01*
X72879754Y-62111496D01*
X73006772Y-62418147D01*
X73191175Y-62694125D01*
X73425875Y-62928825D01*
X73701853Y-63113228D01*
X74008504Y-63240246D01*
X74334042Y-63305000D01*
X74665958Y-63305000D01*
X74991496Y-63240246D01*
X75298147Y-63113228D01*
X75574125Y-62928825D01*
X75747950Y-62755000D01*
X76149869Y-62755000D01*
X79065000Y-65670133D01*
X79065001Y-80056238D01*
X79059509Y-80112000D01*
X79065000Y-80167752D01*
X79065001Y-81866557D01*
X78987518Y-81874188D01*
X78867820Y-81910498D01*
X78757506Y-81969463D01*
X78660815Y-82048815D01*
X78581463Y-82145506D01*
X78522498Y-82255820D01*
X78486188Y-82375518D01*
X78473928Y-82500000D01*
X78473928Y-84200000D01*
X78486188Y-84324482D01*
X78522498Y-84444180D01*
X78581463Y-84554494D01*
X78660815Y-84651185D01*
X78757506Y-84730537D01*
X78867820Y-84789502D01*
X78940380Y-84811513D01*
X78808525Y-84943368D01*
X78646010Y-85186589D01*
X78534068Y-85456842D01*
X78477000Y-85743740D01*
X78477000Y-86036260D01*
X78534068Y-86323158D01*
X78646010Y-86593411D01*
X78808525Y-86836632D01*
X79015368Y-87043475D01*
X79189760Y-87160000D01*
X79015368Y-87276525D01*
X78808525Y-87483368D01*
X78646010Y-87726589D01*
X78534068Y-87996842D01*
X78477000Y-88283740D01*
X78477000Y-88576260D01*
X78534068Y-88863158D01*
X78646010Y-89133411D01*
X78808525Y-89376632D01*
X79015368Y-89583475D01*
X79258589Y-89745990D01*
X79528842Y-89857932D01*
X79815740Y-89915000D01*
X79983290Y-89915000D01*
X81114197Y-91045908D01*
X81146604Y-91085396D01*
X81186092Y-91117803D01*
X81304202Y-91214734D01*
X81400309Y-91266104D01*
X81484007Y-91310841D01*
X81679105Y-91370024D01*
X81831162Y-91385000D01*
X81831171Y-91385000D01*
X81881999Y-91390006D01*
X81932827Y-91385000D01*
X86491172Y-91385000D01*
X86542000Y-91390006D01*
X86592828Y-91385000D01*
X86592838Y-91385000D01*
X86744895Y-91370024D01*
X86939993Y-91310841D01*
X87119797Y-91214734D01*
X87277396Y-91085396D01*
X87309807Y-91045903D01*
X88440711Y-89915000D01*
X88483290Y-89915000D01*
X89614197Y-91045908D01*
X89646604Y-91085396D01*
X89686092Y-91117803D01*
X89804202Y-91214734D01*
X89900309Y-91266104D01*
X89984007Y-91310841D01*
X90179105Y-91370024D01*
X90331162Y-91385000D01*
X90331171Y-91385000D01*
X90381999Y-91390006D01*
X90432827Y-91385000D01*
X94991172Y-91385000D01*
X95042000Y-91390006D01*
X95092828Y-91385000D01*
X95092838Y-91385000D01*
X95244895Y-91370024D01*
X95439993Y-91310841D01*
X95619797Y-91214734D01*
X95777396Y-91085396D01*
X95809807Y-91045903D01*
X96940711Y-89915000D01*
X97108260Y-89915000D01*
X97332653Y-89870365D01*
X97927287Y-90465000D01*
X97505465Y-90465000D01*
X97461999Y-90460719D01*
X97418533Y-90465000D01*
X97418523Y-90465000D01*
X97288510Y-90477805D01*
X97121687Y-90528411D01*
X96967941Y-90610589D01*
X96953786Y-90622206D01*
X96866953Y-90693468D01*
X96866951Y-90693470D01*
X96833183Y-90721183D01*
X96805470Y-90754951D01*
X95716957Y-91843465D01*
X95660102Y-91854774D01*
X95471744Y-91932795D01*
X95302226Y-92046063D01*
X95158063Y-92190226D01*
X95044795Y-92359744D01*
X94966774Y-92548102D01*
X94927000Y-92748061D01*
X94927000Y-92951939D01*
X94966774Y-93151898D01*
X95044795Y-93340256D01*
X95158063Y-93509774D01*
X95302226Y-93653937D01*
X95471744Y-93767205D01*
X95660102Y-93845226D01*
X95860061Y-93885000D01*
X96063939Y-93885000D01*
X96263898Y-93845226D01*
X96452256Y-93767205D01*
X96621774Y-93653937D01*
X96765937Y-93509774D01*
X96879205Y-93340256D01*
X96957226Y-93151898D01*
X96968535Y-93095043D01*
X97828579Y-92235000D01*
X102423546Y-92235000D01*
X102471744Y-92267205D01*
X102660102Y-92345226D01*
X102860061Y-92385000D01*
X103063939Y-92385000D01*
X103263898Y-92345226D01*
X103452256Y-92267205D01*
X103621774Y-92153937D01*
X103765937Y-92009774D01*
X103879205Y-91840256D01*
X103957226Y-91651898D01*
X103997000Y-91451939D01*
X103997000Y-91280370D01*
X104119797Y-91214734D01*
X104277396Y-91085396D01*
X104309807Y-91045903D01*
X105440711Y-89915000D01*
X105483290Y-89915000D01*
X106614197Y-91045908D01*
X106646604Y-91085396D01*
X106686092Y-91117803D01*
X106804202Y-91214734D01*
X106900309Y-91266104D01*
X106984007Y-91310841D01*
X107179105Y-91370024D01*
X107189385Y-91371036D01*
X106716957Y-91843465D01*
X106660102Y-91854774D01*
X106471744Y-91932795D01*
X106302226Y-92046063D01*
X106158063Y-92190226D01*
X106044795Y-92359744D01*
X105966774Y-92548102D01*
X105927000Y-92748061D01*
X105927000Y-92951939D01*
X105966774Y-93151898D01*
X106044795Y-93340256D01*
X106158063Y-93509774D01*
X106302226Y-93653937D01*
X106471744Y-93767205D01*
X106660102Y-93845226D01*
X106860061Y-93885000D01*
X107063939Y-93885000D01*
X107263898Y-93845226D01*
X107452256Y-93767205D01*
X107621774Y-93653937D01*
X107765937Y-93509774D01*
X107879205Y-93340256D01*
X107957226Y-93151898D01*
X107968535Y-93095043D01*
X108928543Y-92135036D01*
X116918531Y-92135036D01*
X116962000Y-92139317D01*
X117005469Y-92135036D01*
X117005477Y-92135036D01*
X117135490Y-92122231D01*
X117302313Y-92071625D01*
X117456059Y-91989447D01*
X117590817Y-91878853D01*
X117618534Y-91845080D01*
X118077001Y-91386614D01*
X118077000Y-92311545D01*
X118044795Y-92359744D01*
X117966774Y-92548102D01*
X117927000Y-92748061D01*
X117927000Y-92951939D01*
X117966774Y-93151898D01*
X118044795Y-93340256D01*
X118158063Y-93509774D01*
X118302226Y-93653937D01*
X118471744Y-93767205D01*
X118660102Y-93845226D01*
X118860061Y-93885000D01*
X119063939Y-93885000D01*
X119263898Y-93845226D01*
X119452256Y-93767205D01*
X119621774Y-93653937D01*
X119765937Y-93509774D01*
X119879205Y-93340256D01*
X119957226Y-93151898D01*
X119997000Y-92951939D01*
X119997000Y-92748061D01*
X119957226Y-92548102D01*
X119879205Y-92359744D01*
X119847000Y-92311546D01*
X119847000Y-90606576D01*
X120372771Y-90080805D01*
X120519111Y-90178586D01*
X120689271Y-90249068D01*
X120869911Y-90285000D01*
X121054089Y-90285000D01*
X121234729Y-90249068D01*
X121404889Y-90178586D01*
X121539843Y-90088413D01*
X121540422Y-90090323D01*
X121622600Y-90244069D01*
X121733194Y-90378828D01*
X121766967Y-90406545D01*
X123305468Y-91945047D01*
X123333183Y-91978817D01*
X123366951Y-92006530D01*
X123366953Y-92006532D01*
X123415122Y-92046063D01*
X123467941Y-92089411D01*
X123621687Y-92171589D01*
X123788510Y-92222195D01*
X123918523Y-92235000D01*
X123918533Y-92235000D01*
X123924412Y-92235579D01*
X123971744Y-92267205D01*
X124160102Y-92345226D01*
X124360061Y-92385000D01*
X124563939Y-92385000D01*
X124763898Y-92345226D01*
X124952256Y-92267205D01*
X125121774Y-92153937D01*
X125265937Y-92009774D01*
X125379205Y-91840256D01*
X125457226Y-91651898D01*
X125497000Y-91451939D01*
X125497000Y-91248061D01*
X125457226Y-91048102D01*
X125379205Y-90859744D01*
X125265937Y-90690226D01*
X125121774Y-90546063D01*
X124952256Y-90432795D01*
X124763898Y-90354774D01*
X124563939Y-90315000D01*
X124360061Y-90315000D01*
X124208688Y-90345110D01*
X123247011Y-89383433D01*
X123247011Y-88884072D01*
X124812000Y-88884072D01*
X124936482Y-88871812D01*
X125056180Y-88835502D01*
X125166494Y-88776537D01*
X125263185Y-88697185D01*
X125342537Y-88600494D01*
X125401502Y-88490180D01*
X125423513Y-88417620D01*
X125555368Y-88549475D01*
X125667001Y-88624066D01*
X125667001Y-88882594D01*
X125602932Y-89037271D01*
X125567000Y-89217911D01*
X125567000Y-89402089D01*
X125602932Y-89582729D01*
X125673414Y-89752889D01*
X125775738Y-89906028D01*
X125905972Y-90036262D01*
X126059111Y-90138586D01*
X126229271Y-90209068D01*
X126409911Y-90245000D01*
X126594089Y-90245000D01*
X126774729Y-90209068D01*
X126944889Y-90138586D01*
X127098028Y-90036262D01*
X127228262Y-89906028D01*
X127330586Y-89752889D01*
X127401068Y-89582729D01*
X127437000Y-89402089D01*
X127437000Y-89217911D01*
X127401068Y-89037271D01*
X127337000Y-88882596D01*
X127337000Y-88624065D01*
X127448632Y-88549475D01*
X127655475Y-88342632D01*
X127772000Y-88168240D01*
X127888525Y-88342632D01*
X128095368Y-88549475D01*
X128338589Y-88711990D01*
X128608842Y-88823932D01*
X128895740Y-88881000D01*
X129188260Y-88881000D01*
X129475158Y-88823932D01*
X129745411Y-88711990D01*
X129988632Y-88549475D01*
X130195475Y-88342632D01*
X130312000Y-88168240D01*
X130428525Y-88342632D01*
X130635368Y-88549475D01*
X130878589Y-88711990D01*
X131148842Y-88823932D01*
X131435740Y-88881000D01*
X131728260Y-88881000D01*
X132015158Y-88823932D01*
X132285411Y-88711990D01*
X132528632Y-88549475D01*
X132735475Y-88342632D01*
X132843474Y-88181000D01*
X132960447Y-88181000D01*
X132999000Y-88184797D01*
X133037553Y-88181000D01*
X133037561Y-88181000D01*
X133152887Y-88169641D01*
X133300860Y-88124754D01*
X133437233Y-88051862D01*
X133556764Y-87953764D01*
X133581347Y-87923810D01*
X134589817Y-86915341D01*
X134619764Y-86890764D01*
X134717862Y-86771233D01*
X134790754Y-86634860D01*
X134815001Y-86554929D01*
X134815001Y-95904500D01*
X134506575Y-95442907D01*
X134057093Y-94993425D01*
X133528558Y-94640270D01*
X132941281Y-94397012D01*
X132317832Y-94273000D01*
X131682168Y-94273000D01*
X131058719Y-94397012D01*
X130471442Y-94640270D01*
X129942907Y-94993425D01*
X129493425Y-95442907D01*
X129140270Y-95971442D01*
X128897012Y-96558719D01*
X128773000Y-97182168D01*
X128773000Y-97817832D01*
X128897012Y-98441281D01*
X129140270Y-99028558D01*
X129493425Y-99557093D01*
X129942907Y-100006575D01*
X130404499Y-100315000D01*
X75595501Y-100315000D01*
X76057093Y-100006575D01*
X76506575Y-99557093D01*
X76859730Y-99028558D01*
X77102988Y-98441281D01*
X77227000Y-97817832D01*
X77227000Y-97182168D01*
X77102988Y-96558719D01*
X76859730Y-95971442D01*
X76506575Y-95442907D01*
X76113668Y-95050000D01*
X78523928Y-95050000D01*
X78523928Y-97650000D01*
X78536188Y-97774482D01*
X78572498Y-97894180D01*
X78631463Y-98004494D01*
X78710815Y-98101185D01*
X78807506Y-98180537D01*
X78917820Y-98239502D01*
X79037518Y-98275812D01*
X79162000Y-98288072D01*
X81762000Y-98288072D01*
X81886482Y-98275812D01*
X82006180Y-98239502D01*
X82116494Y-98180537D01*
X82213185Y-98101185D01*
X82292537Y-98004494D01*
X82351502Y-97894180D01*
X82387812Y-97774482D01*
X82400072Y-97650000D01*
X82400072Y-96159419D01*
X83527000Y-96159419D01*
X83527000Y-96540581D01*
X83601361Y-96914419D01*
X83747225Y-97266566D01*
X83958987Y-97583491D01*
X84228509Y-97853013D01*
X84545434Y-98064775D01*
X84897581Y-98210639D01*
X85271419Y-98285000D01*
X85652581Y-98285000D01*
X86026419Y-98210639D01*
X86378566Y-98064775D01*
X86695491Y-97853013D01*
X86965013Y-97583491D01*
X87176775Y-97266566D01*
X87322639Y-96914419D01*
X87397000Y-96540581D01*
X87397000Y-96159419D01*
X88527000Y-96159419D01*
X88527000Y-96540581D01*
X88601361Y-96914419D01*
X88747225Y-97266566D01*
X88958987Y-97583491D01*
X89228509Y-97853013D01*
X89545434Y-98064775D01*
X89897581Y-98210639D01*
X90271419Y-98285000D01*
X90652581Y-98285000D01*
X91026419Y-98210639D01*
X91378566Y-98064775D01*
X91695491Y-97853013D01*
X91965013Y-97583491D01*
X92176775Y-97266566D01*
X92322639Y-96914419D01*
X92397000Y-96540581D01*
X92397000Y-96159419D01*
X93527000Y-96159419D01*
X93527000Y-96540581D01*
X93601361Y-96914419D01*
X93747225Y-97266566D01*
X93958987Y-97583491D01*
X94228509Y-97853013D01*
X94545434Y-98064775D01*
X94897581Y-98210639D01*
X95271419Y-98285000D01*
X95652581Y-98285000D01*
X96026419Y-98210639D01*
X96378566Y-98064775D01*
X96695491Y-97853013D01*
X96965013Y-97583491D01*
X97176775Y-97266566D01*
X97322639Y-96914419D01*
X97397000Y-96540581D01*
X97397000Y-96159419D01*
X98527000Y-96159419D01*
X98527000Y-96540581D01*
X98601361Y-96914419D01*
X98747225Y-97266566D01*
X98958987Y-97583491D01*
X99228509Y-97853013D01*
X99545434Y-98064775D01*
X99897581Y-98210639D01*
X100271419Y-98285000D01*
X100652581Y-98285000D01*
X101026419Y-98210639D01*
X101378566Y-98064775D01*
X101695491Y-97853013D01*
X101965013Y-97583491D01*
X102176775Y-97266566D01*
X102322639Y-96914419D01*
X102397000Y-96540581D01*
X102397000Y-96159419D01*
X103527000Y-96159419D01*
X103527000Y-96540581D01*
X103601361Y-96914419D01*
X103747225Y-97266566D01*
X103958987Y-97583491D01*
X104228509Y-97853013D01*
X104545434Y-98064775D01*
X104897581Y-98210639D01*
X105271419Y-98285000D01*
X105652581Y-98285000D01*
X106026419Y-98210639D01*
X106378566Y-98064775D01*
X106695491Y-97853013D01*
X106965013Y-97583491D01*
X107176775Y-97266566D01*
X107322639Y-96914419D01*
X107397000Y-96540581D01*
X107397000Y-96159419D01*
X108527000Y-96159419D01*
X108527000Y-96540581D01*
X108601361Y-96914419D01*
X108747225Y-97266566D01*
X108958987Y-97583491D01*
X109228509Y-97853013D01*
X109545434Y-98064775D01*
X109897581Y-98210639D01*
X110271419Y-98285000D01*
X110652581Y-98285000D01*
X111026419Y-98210639D01*
X111378566Y-98064775D01*
X111695491Y-97853013D01*
X111965013Y-97583491D01*
X112176775Y-97266566D01*
X112322639Y-96914419D01*
X112397000Y-96540581D01*
X112397000Y-96159419D01*
X113527000Y-96159419D01*
X113527000Y-96540581D01*
X113601361Y-96914419D01*
X113747225Y-97266566D01*
X113958987Y-97583491D01*
X114228509Y-97853013D01*
X114545434Y-98064775D01*
X114897581Y-98210639D01*
X115271419Y-98285000D01*
X115652581Y-98285000D01*
X116026419Y-98210639D01*
X116378566Y-98064775D01*
X116695491Y-97853013D01*
X116965013Y-97583491D01*
X117176775Y-97266566D01*
X117322639Y-96914419D01*
X117397000Y-96540581D01*
X117397000Y-96159419D01*
X118527000Y-96159419D01*
X118527000Y-96540581D01*
X118601361Y-96914419D01*
X118747225Y-97266566D01*
X118958987Y-97583491D01*
X119228509Y-97853013D01*
X119545434Y-98064775D01*
X119897581Y-98210639D01*
X120271419Y-98285000D01*
X120652581Y-98285000D01*
X121026419Y-98210639D01*
X121378566Y-98064775D01*
X121695491Y-97853013D01*
X121965013Y-97583491D01*
X122176775Y-97266566D01*
X122322639Y-96914419D01*
X122397000Y-96540581D01*
X122397000Y-96159419D01*
X123527000Y-96159419D01*
X123527000Y-96540581D01*
X123601361Y-96914419D01*
X123747225Y-97266566D01*
X123958987Y-97583491D01*
X124228509Y-97853013D01*
X124545434Y-98064775D01*
X124897581Y-98210639D01*
X125271419Y-98285000D01*
X125652581Y-98285000D01*
X126026419Y-98210639D01*
X126378566Y-98064775D01*
X126695491Y-97853013D01*
X126965013Y-97583491D01*
X127176775Y-97266566D01*
X127322639Y-96914419D01*
X127397000Y-96540581D01*
X127397000Y-96159419D01*
X127322639Y-95785581D01*
X127176775Y-95433434D01*
X126965013Y-95116509D01*
X126695491Y-94846987D01*
X126378566Y-94635225D01*
X126026419Y-94489361D01*
X125652581Y-94415000D01*
X125271419Y-94415000D01*
X124897581Y-94489361D01*
X124545434Y-94635225D01*
X124228509Y-94846987D01*
X123958987Y-95116509D01*
X123747225Y-95433434D01*
X123601361Y-95785581D01*
X123527000Y-96159419D01*
X122397000Y-96159419D01*
X122322639Y-95785581D01*
X122176775Y-95433434D01*
X121965013Y-95116509D01*
X121695491Y-94846987D01*
X121378566Y-94635225D01*
X121026419Y-94489361D01*
X120652581Y-94415000D01*
X120271419Y-94415000D01*
X119897581Y-94489361D01*
X119545434Y-94635225D01*
X119228509Y-94846987D01*
X118958987Y-95116509D01*
X118747225Y-95433434D01*
X118601361Y-95785581D01*
X118527000Y-96159419D01*
X117397000Y-96159419D01*
X117322639Y-95785581D01*
X117176775Y-95433434D01*
X116965013Y-95116509D01*
X116695491Y-94846987D01*
X116378566Y-94635225D01*
X116026419Y-94489361D01*
X115652581Y-94415000D01*
X115271419Y-94415000D01*
X114897581Y-94489361D01*
X114545434Y-94635225D01*
X114228509Y-94846987D01*
X113958987Y-95116509D01*
X113747225Y-95433434D01*
X113601361Y-95785581D01*
X113527000Y-96159419D01*
X112397000Y-96159419D01*
X112322639Y-95785581D01*
X112176775Y-95433434D01*
X111965013Y-95116509D01*
X111695491Y-94846987D01*
X111378566Y-94635225D01*
X111026419Y-94489361D01*
X110652581Y-94415000D01*
X110271419Y-94415000D01*
X109897581Y-94489361D01*
X109545434Y-94635225D01*
X109228509Y-94846987D01*
X108958987Y-95116509D01*
X108747225Y-95433434D01*
X108601361Y-95785581D01*
X108527000Y-96159419D01*
X107397000Y-96159419D01*
X107322639Y-95785581D01*
X107176775Y-95433434D01*
X106965013Y-95116509D01*
X106695491Y-94846987D01*
X106378566Y-94635225D01*
X106026419Y-94489361D01*
X105652581Y-94415000D01*
X105271419Y-94415000D01*
X104897581Y-94489361D01*
X104545434Y-94635225D01*
X104228509Y-94846987D01*
X103958987Y-95116509D01*
X103747225Y-95433434D01*
X103601361Y-95785581D01*
X103527000Y-96159419D01*
X102397000Y-96159419D01*
X102322639Y-95785581D01*
X102176775Y-95433434D01*
X101965013Y-95116509D01*
X101695491Y-94846987D01*
X101378566Y-94635225D01*
X101026419Y-94489361D01*
X100652581Y-94415000D01*
X100271419Y-94415000D01*
X99897581Y-94489361D01*
X99545434Y-94635225D01*
X99228509Y-94846987D01*
X98958987Y-95116509D01*
X98747225Y-95433434D01*
X98601361Y-95785581D01*
X98527000Y-96159419D01*
X97397000Y-96159419D01*
X97322639Y-95785581D01*
X97176775Y-95433434D01*
X96965013Y-95116509D01*
X96695491Y-94846987D01*
X96378566Y-94635225D01*
X96026419Y-94489361D01*
X95652581Y-94415000D01*
X95271419Y-94415000D01*
X94897581Y-94489361D01*
X94545434Y-94635225D01*
X94228509Y-94846987D01*
X93958987Y-95116509D01*
X93747225Y-95433434D01*
X93601361Y-95785581D01*
X93527000Y-96159419D01*
X92397000Y-96159419D01*
X92322639Y-95785581D01*
X92176775Y-95433434D01*
X91965013Y-95116509D01*
X91695491Y-94846987D01*
X91378566Y-94635225D01*
X91026419Y-94489361D01*
X90652581Y-94415000D01*
X90271419Y-94415000D01*
X89897581Y-94489361D01*
X89545434Y-94635225D01*
X89228509Y-94846987D01*
X88958987Y-95116509D01*
X88747225Y-95433434D01*
X88601361Y-95785581D01*
X88527000Y-96159419D01*
X87397000Y-96159419D01*
X87322639Y-95785581D01*
X87176775Y-95433434D01*
X86965013Y-95116509D01*
X86695491Y-94846987D01*
X86378566Y-94635225D01*
X86026419Y-94489361D01*
X85652581Y-94415000D01*
X85271419Y-94415000D01*
X84897581Y-94489361D01*
X84545434Y-94635225D01*
X84228509Y-94846987D01*
X83958987Y-95116509D01*
X83747225Y-95433434D01*
X83601361Y-95785581D01*
X83527000Y-96159419D01*
X82400072Y-96159419D01*
X82400072Y-95050000D01*
X82387812Y-94925518D01*
X82351502Y-94805820D01*
X82292537Y-94695506D01*
X82213185Y-94598815D01*
X82116494Y-94519463D01*
X82006180Y-94460498D01*
X81886482Y-94424188D01*
X81762000Y-94411928D01*
X79162000Y-94411928D01*
X79037518Y-94424188D01*
X78917820Y-94460498D01*
X78807506Y-94519463D01*
X78710815Y-94598815D01*
X78631463Y-94695506D01*
X78572498Y-94805820D01*
X78536188Y-94925518D01*
X78523928Y-95050000D01*
X76113668Y-95050000D01*
X76057093Y-94993425D01*
X75528558Y-94640270D01*
X74941281Y-94397012D01*
X74317832Y-94273000D01*
X73682168Y-94273000D01*
X73058719Y-94397012D01*
X72471442Y-94640270D01*
X71942907Y-94993425D01*
X71493425Y-95442907D01*
X71185000Y-95904499D01*
X71185000Y-82533505D01*
X71194222Y-82439453D01*
X71211805Y-82381214D01*
X71240366Y-82327499D01*
X71278816Y-82280354D01*
X71325691Y-82241576D01*
X71379204Y-82212642D01*
X71437323Y-82194651D01*
X71529145Y-82185000D01*
X74533647Y-82185000D01*
X74562955Y-82182113D01*
X74569066Y-82182156D01*
X74578585Y-82181223D01*
X74772682Y-82160822D01*
X74833496Y-82148339D01*
X74894481Y-82136705D01*
X74903637Y-82133941D01*
X75090075Y-82076229D01*
X75147279Y-82052182D01*
X75204873Y-82028913D01*
X75213317Y-82024423D01*
X75384994Y-81931598D01*
X75436468Y-81896878D01*
X75488418Y-81862883D01*
X75495829Y-81856839D01*
X75646207Y-81732435D01*
X75689973Y-81688362D01*
X75734311Y-81644943D01*
X75740408Y-81637574D01*
X75863758Y-81486332D01*
X75898126Y-81434603D01*
X75933191Y-81383392D01*
X75937739Y-81374981D01*
X75937740Y-81374980D01*
X75937742Y-81374976D01*
X76029366Y-81202657D01*
X76053022Y-81145261D01*
X76077482Y-81088193D01*
X76080310Y-81079056D01*
X76136719Y-80892220D01*
X76148780Y-80831310D01*
X76161686Y-80770591D01*
X76162686Y-80761079D01*
X76181731Y-80566845D01*
X76181731Y-80566837D01*
X76185000Y-80533647D01*
X76185000Y-65466353D01*
X76182113Y-65437045D01*
X76182156Y-65430933D01*
X76181223Y-65421415D01*
X76160822Y-65227318D01*
X76148339Y-65166504D01*
X76136705Y-65105519D01*
X76133941Y-65096363D01*
X76076229Y-64909925D01*
X76052170Y-64852692D01*
X76028913Y-64795127D01*
X76024423Y-64786682D01*
X75931598Y-64615006D01*
X75896878Y-64563532D01*
X75862883Y-64511582D01*
X75856838Y-64504170D01*
X75732435Y-64353793D01*
X75688362Y-64310027D01*
X75644943Y-64265689D01*
X75637574Y-64259592D01*
X75486332Y-64136242D01*
X75434614Y-64101881D01*
X75383393Y-64066809D01*
X75374980Y-64062260D01*
X75202657Y-63970635D01*
X75145261Y-63946978D01*
X75088193Y-63922519D01*
X75079057Y-63919690D01*
X74892220Y-63863281D01*
X74831302Y-63851219D01*
X74770590Y-63838314D01*
X74761078Y-63837314D01*
X74566845Y-63818269D01*
X74566837Y-63818269D01*
X74533647Y-63815000D01*
X71533505Y-63815000D01*
X71439454Y-63805778D01*
X71381213Y-63788194D01*
X71327500Y-63759635D01*
X71280354Y-63721183D01*
X71241577Y-63674310D01*
X71212642Y-63620796D01*
X71194651Y-63562677D01*
X71185000Y-63470855D01*
X71185000Y-52950000D01*
X72811928Y-52950000D01*
X72815000Y-53714250D01*
X72973750Y-53873000D01*
X74373000Y-53873000D01*
X74373000Y-52473750D01*
X74627000Y-52473750D01*
X74627000Y-53873000D01*
X76026250Y-53873000D01*
X76185000Y-53714250D01*
X76188072Y-52950000D01*
X76175812Y-52825518D01*
X76139502Y-52705820D01*
X76080537Y-52595506D01*
X76001185Y-52498815D01*
X75904494Y-52419463D01*
X75794180Y-52360498D01*
X75674482Y-52324188D01*
X75550000Y-52311928D01*
X74785750Y-52315000D01*
X74627000Y-52473750D01*
X74373000Y-52473750D01*
X74214250Y-52315000D01*
X73450000Y-52311928D01*
X73325518Y-52324188D01*
X73205820Y-52360498D01*
X73095506Y-52419463D01*
X72998815Y-52498815D01*
X72919463Y-52595506D01*
X72860498Y-52705820D01*
X72824188Y-52825518D01*
X72811928Y-52950000D01*
X71185000Y-52950000D01*
X71185000Y-50095501D01*
X71493425Y-50557093D01*
X71942907Y-51006575D01*
X72471442Y-51359730D01*
X73058719Y-51602988D01*
X73682168Y-51727000D01*
X74317832Y-51727000D01*
X74941281Y-51602988D01*
X75528558Y-51359730D01*
X76057093Y-51006575D01*
X76506575Y-50557093D01*
X76859730Y-50028558D01*
X77102988Y-49441281D01*
X77227000Y-48817832D01*
X77227000Y-48182168D01*
X77102988Y-47558719D01*
X76859730Y-46971442D01*
X76506575Y-46442907D01*
X76057093Y-45993425D01*
X75595501Y-45685000D01*
X130404499Y-45685000D01*
X129942907Y-45993425D01*
%TA.AperFunction,Conductor*%
D29*
G36*
X129942907Y-45993425D02*
G01*
X129493425Y-46442907D01*
X129140270Y-46971442D01*
X128897012Y-47558719D01*
X128773000Y-48182168D01*
X128773000Y-48817832D01*
X128897012Y-49441281D01*
X129140270Y-50028558D01*
X129493425Y-50557093D01*
X129942907Y-51006575D01*
X130471442Y-51359730D01*
X131058719Y-51602988D01*
X131682168Y-51727000D01*
X132317832Y-51727000D01*
X132941281Y-51602988D01*
X133528558Y-51359730D01*
X134057093Y-51006575D01*
X134506575Y-50557093D01*
X134815000Y-50095501D01*
X134815000Y-52466052D01*
X134790586Y-52407111D01*
X134688262Y-52253972D01*
X134558028Y-52123738D01*
X134404889Y-52021414D01*
X134234729Y-51950932D01*
X134054089Y-51915000D01*
X133869911Y-51915000D01*
X133689271Y-51950932D01*
X133519111Y-52021414D01*
X133365972Y-52123738D01*
X133235738Y-52253972D01*
X133133414Y-52407111D01*
X133062932Y-52577271D01*
X133027000Y-52757911D01*
X133027000Y-52942089D01*
X133062932Y-53122729D01*
X133133414Y-53292889D01*
X133235738Y-53446028D01*
X133277001Y-53487291D01*
X133277000Y-76533733D01*
X133083629Y-76340362D01*
X132717569Y-76095769D01*
X132310825Y-75927290D01*
X131879028Y-75841400D01*
X131438772Y-75841400D01*
X131006975Y-75927290D01*
X130600231Y-76095769D01*
X130347000Y-76264972D01*
X130347000Y-71716578D01*
X130707044Y-71356535D01*
X130763898Y-71345226D01*
X130952256Y-71267205D01*
X131121774Y-71153937D01*
X131265937Y-71009774D01*
X131379205Y-70840256D01*
X131457226Y-70651898D01*
X131497000Y-70451939D01*
X131497000Y-70248061D01*
X131457226Y-70048102D01*
X131379205Y-69859744D01*
X131265937Y-69690226D01*
X131121774Y-69546063D01*
X130952256Y-69432795D01*
X130763898Y-69354774D01*
X130563939Y-69315000D01*
X130360061Y-69315000D01*
X130160102Y-69354774D01*
X129971744Y-69432795D01*
X129802226Y-69546063D01*
X129658063Y-69690226D01*
X129544795Y-69859744D01*
X129466774Y-70048102D01*
X129455465Y-70104956D01*
X128925409Y-70635013D01*
X128803759Y-70513363D01*
X128571241Y-70358000D01*
X128803759Y-70202637D01*
X129003637Y-70002759D01*
X129160680Y-69767727D01*
X129268853Y-69506574D01*
X129324000Y-69229335D01*
X129324000Y-68946665D01*
X129268853Y-68669426D01*
X129160680Y-68408273D01*
X129003637Y-68173241D01*
X128803759Y-67973363D01*
X128571241Y-67818000D01*
X128803759Y-67662637D01*
X129003637Y-67462759D01*
X129160680Y-67227727D01*
X129268853Y-66966574D01*
X129324000Y-66689335D01*
X129324000Y-66406665D01*
X129268853Y-66129426D01*
X129160680Y-65868273D01*
X129003637Y-65633241D01*
X128803759Y-65433363D01*
X128571241Y-65278000D01*
X128803759Y-65122637D01*
X129003637Y-64922759D01*
X129160680Y-64687727D01*
X129268853Y-64426574D01*
X129324000Y-64149335D01*
X129324000Y-63866665D01*
X129268853Y-63589426D01*
X129160680Y-63328273D01*
X129003637Y-63093241D01*
X128803759Y-62893363D01*
X128568727Y-62736320D01*
X128558135Y-62731933D01*
X128744131Y-62620385D01*
X128952519Y-62431414D01*
X129120037Y-62205420D01*
X129240246Y-61951087D01*
X129280904Y-61817039D01*
X129158915Y-61595000D01*
X128016000Y-61595000D01*
X128016000Y-61615000D01*
X127762000Y-61615000D01*
X127762000Y-61595000D01*
X126619085Y-61595000D01*
X126497096Y-61817039D01*
X126537754Y-61951087D01*
X126657963Y-62205420D01*
X126825481Y-62431414D01*
X127033869Y-62620385D01*
X127219865Y-62731933D01*
X127209273Y-62736320D01*
X126974241Y-62893363D01*
X126774363Y-63093241D01*
X126617320Y-63328273D01*
X126509147Y-63589426D01*
X126454000Y-63866665D01*
X126454000Y-64149335D01*
X126509147Y-64426574D01*
X126617320Y-64687727D01*
X126774363Y-64922759D01*
X126974241Y-65122637D01*
X127206759Y-65278000D01*
X126974241Y-65433363D01*
X126774363Y-65633241D01*
X126617320Y-65868273D01*
X126509147Y-66129426D01*
X126454000Y-66406665D01*
X126454000Y-66689335D01*
X126509147Y-66966574D01*
X126617320Y-67227727D01*
X126774363Y-67462759D01*
X126974241Y-67662637D01*
X127206759Y-67818000D01*
X126974241Y-67973363D01*
X126774363Y-68173241D01*
X126617320Y-68408273D01*
X126509147Y-68669426D01*
X126454000Y-68946665D01*
X126454000Y-69229335D01*
X126509147Y-69506574D01*
X126617320Y-69767727D01*
X126774363Y-70002759D01*
X126974241Y-70202637D01*
X127206759Y-70358000D01*
X126974241Y-70513363D01*
X126774363Y-70713241D01*
X126617320Y-70948273D01*
X126509147Y-71209426D01*
X126454000Y-71486665D01*
X126454000Y-71769335D01*
X126509147Y-72046574D01*
X126617320Y-72307727D01*
X126774363Y-72542759D01*
X126974241Y-72742637D01*
X127206759Y-72898000D01*
X126974241Y-73053363D01*
X126774363Y-73253241D01*
X126617320Y-73488273D01*
X126509147Y-73749426D01*
X126454000Y-74026665D01*
X126454000Y-74309335D01*
X126509147Y-74586574D01*
X126617320Y-74847727D01*
X126774363Y-75082759D01*
X126972961Y-75281357D01*
X126964518Y-75282188D01*
X126844820Y-75318498D01*
X126734506Y-75377463D01*
X126637815Y-75456815D01*
X126558463Y-75553506D01*
X126499498Y-75663820D01*
X126463188Y-75783518D01*
X126450928Y-75908000D01*
X126454000Y-76422250D01*
X126612750Y-76581000D01*
X127762000Y-76581000D01*
X127762000Y-76561000D01*
X128016000Y-76561000D01*
X128016000Y-76581000D01*
X128036000Y-76581000D01*
X128036000Y-76835000D01*
X128016000Y-76835000D01*
X128016000Y-77984250D01*
X128174750Y-78143000D01*
X128577001Y-78145403D01*
X128577001Y-79559156D01*
X127366956Y-80769202D01*
X127333183Y-80796919D01*
X127222589Y-80931678D01*
X127140411Y-81085424D01*
X127109199Y-81188314D01*
X127091397Y-81247000D01*
X127089805Y-81252247D01*
X127077000Y-81382260D01*
X127077000Y-81382267D01*
X127072719Y-81425736D01*
X127077000Y-81469206D01*
X127077001Y-82411545D01*
X127044795Y-82459744D01*
X126966774Y-82648102D01*
X126927000Y-82848061D01*
X126927000Y-83051939D01*
X126966774Y-83251898D01*
X127044795Y-83440256D01*
X127081402Y-83495043D01*
X127006099Y-83459175D01*
X126858890Y-83414524D01*
X126629000Y-83535845D01*
X126629000Y-84729000D01*
X126649000Y-84729000D01*
X126649000Y-84983000D01*
X126629000Y-84983000D01*
X126629000Y-85003000D01*
X126375000Y-85003000D01*
X126375000Y-84983000D01*
X126355000Y-84983000D01*
X126355000Y-84729000D01*
X126375000Y-84729000D01*
X126375000Y-83535845D01*
X126145110Y-83414524D01*
X125997901Y-83459175D01*
X125735080Y-83584359D01*
X125501731Y-83758412D01*
X125306822Y-83974645D01*
X125237195Y-84091534D01*
X125115475Y-83909368D01*
X124908632Y-83702525D01*
X124665411Y-83540010D01*
X124395158Y-83428068D01*
X124108260Y-83371000D01*
X123815740Y-83371000D01*
X123797010Y-83374726D01*
X123797010Y-83248061D01*
X123757236Y-83048102D01*
X123679215Y-82859744D01*
X123565947Y-82690226D01*
X123421784Y-82546063D01*
X123252266Y-82432795D01*
X123063908Y-82354774D01*
X122863949Y-82315000D01*
X122660071Y-82315000D01*
X122460112Y-82354774D01*
X122297000Y-82422338D01*
X122297000Y-78195867D01*
X122523427Y-77969441D01*
X122555291Y-77943291D01*
X122659636Y-77816146D01*
X122737172Y-77671087D01*
X122784918Y-77513689D01*
X122797000Y-77391019D01*
X122797000Y-77391018D01*
X122801040Y-77350000D01*
X122797000Y-77308982D01*
X122797000Y-65891018D01*
X122801040Y-65850000D01*
X122785188Y-65689054D01*
X122784918Y-65686311D01*
X122737172Y-65528913D01*
X122659636Y-65383854D01*
X122555291Y-65256709D01*
X122523432Y-65230563D01*
X121581445Y-64288578D01*
X121555291Y-64256709D01*
X121428145Y-64152364D01*
X121283086Y-64074828D01*
X121125688Y-64027082D01*
X120984813Y-64013207D01*
X120997000Y-63951939D01*
X120997000Y-63748061D01*
X120957226Y-63548102D01*
X120879205Y-63359744D01*
X120765937Y-63190226D01*
X120621774Y-63046063D01*
X120452256Y-62932795D01*
X120263898Y-62854774D01*
X120063939Y-62815000D01*
X119860061Y-62815000D01*
X119662586Y-62854280D01*
X123441433Y-59075434D01*
X123473291Y-59049289D01*
X123577636Y-58922144D01*
X123627000Y-58829791D01*
X123627001Y-81422594D01*
X123562932Y-81577271D01*
X123527000Y-81757911D01*
X123527000Y-81942089D01*
X123562932Y-82122729D01*
X123633414Y-82292889D01*
X123735738Y-82446028D01*
X123865972Y-82576262D01*
X124019111Y-82678586D01*
X124189271Y-82749068D01*
X124369911Y-82785000D01*
X124554089Y-82785000D01*
X124734729Y-82749068D01*
X124904889Y-82678586D01*
X125058028Y-82576262D01*
X125188262Y-82446028D01*
X125290586Y-82292889D01*
X125361068Y-82122729D01*
X125397000Y-81942089D01*
X125397000Y-81757911D01*
X125361068Y-81577271D01*
X125297000Y-81422596D01*
X125297000Y-79915895D01*
X125338647Y-79919996D01*
X125383911Y-79929000D01*
X125430066Y-79929000D01*
X125476000Y-79933524D01*
X125521935Y-79929000D01*
X125568089Y-79929000D01*
X125613352Y-79919997D01*
X125659292Y-79915472D01*
X125703469Y-79902071D01*
X125748729Y-79893068D01*
X125791367Y-79875407D01*
X125835540Y-79862007D01*
X125876245Y-79840250D01*
X125918889Y-79822586D01*
X125957273Y-79796939D01*
X125997971Y-79775185D01*
X126033644Y-79745909D01*
X126072028Y-79720262D01*
X126104667Y-79687623D01*
X126140344Y-79658344D01*
X126169623Y-79622667D01*
X126202262Y-79590028D01*
X126227909Y-79551644D01*
X126257185Y-79515971D01*
X126278939Y-79475273D01*
X126304586Y-79436889D01*
X126322250Y-79394245D01*
X126344007Y-79353540D01*
X126357407Y-79309367D01*
X126375068Y-79266729D01*
X126384071Y-79221469D01*
X126397472Y-79177292D01*
X126401997Y-79131352D01*
X126411000Y-79086089D01*
X126411000Y-79039935D01*
X126415524Y-78994000D01*
X126411000Y-78948066D01*
X126411000Y-78901911D01*
X126401996Y-78856647D01*
X126397472Y-78810709D01*
X126384071Y-78766533D01*
X126375068Y-78721271D01*
X126372999Y-78716276D01*
X126372999Y-77508000D01*
X126450928Y-77508000D01*
X126463188Y-77632482D01*
X126499498Y-77752180D01*
X126558463Y-77862494D01*
X126637815Y-77959185D01*
X126734506Y-78038537D01*
X126844820Y-78097502D01*
X126964518Y-78133812D01*
X127089000Y-78146072D01*
X127603250Y-78143000D01*
X127762000Y-77984250D01*
X127762000Y-76835000D01*
X126612750Y-76835000D01*
X126454000Y-76993750D01*
X126450928Y-77508000D01*
X126372999Y-77508000D01*
X126372999Y-72993964D01*
X126385944Y-72951290D01*
X126397472Y-72913289D01*
X126415524Y-72729998D01*
X126411000Y-72684063D01*
X126411000Y-60077289D01*
X126625289Y-59863000D01*
X126794604Y-59863000D01*
X126974241Y-60042637D01*
X127209273Y-60199680D01*
X127219865Y-60204067D01*
X127033869Y-60315615D01*
X126825481Y-60504586D01*
X126657963Y-60730580D01*
X126537754Y-60984913D01*
X126497096Y-61118961D01*
X126619085Y-61341000D01*
X127762000Y-61341000D01*
X127762000Y-61321000D01*
X128016000Y-61321000D01*
X128016000Y-61341000D01*
X129158915Y-61341000D01*
X129280904Y-61118961D01*
X129240246Y-60984913D01*
X129188339Y-60875090D01*
X129235738Y-60946028D01*
X129365972Y-61076262D01*
X129519111Y-61178586D01*
X129689271Y-61249068D01*
X129869911Y-61285000D01*
X130054089Y-61285000D01*
X130234729Y-61249068D01*
X130404889Y-61178586D01*
X130558028Y-61076262D01*
X130688262Y-60946028D01*
X130790586Y-60792889D01*
X130861068Y-60622729D01*
X130897000Y-60442089D01*
X130897000Y-60257911D01*
X130861068Y-60077271D01*
X130790586Y-59907111D01*
X130688262Y-59753972D01*
X130558028Y-59623738D01*
X130404889Y-59521414D01*
X130234729Y-59450932D01*
X130157783Y-59435626D01*
X129945001Y-59222844D01*
X129945001Y-56838072D01*
X131350000Y-56838072D01*
X131474482Y-56825812D01*
X131594180Y-56789502D01*
X131704494Y-56730537D01*
X131801185Y-56651185D01*
X131880537Y-56554494D01*
X131939502Y-56444180D01*
X131975812Y-56324482D01*
X131988072Y-56200000D01*
X131988072Y-54500000D01*
X131975812Y-54375518D01*
X131939502Y-54255820D01*
X131880537Y-54145506D01*
X131801185Y-54048815D01*
X131704494Y-53969463D01*
X131594180Y-53910498D01*
X131474482Y-53874188D01*
X131350000Y-53861928D01*
X129945001Y-53861928D01*
X129945001Y-52586553D01*
X129948798Y-52548000D01*
X129945001Y-52509447D01*
X129945001Y-52509440D01*
X129933642Y-52394114D01*
X129933073Y-52392236D01*
X129923195Y-52359673D01*
X129888755Y-52246141D01*
X129815863Y-52109768D01*
X129717765Y-51990237D01*
X129687817Y-51965660D01*
X129376374Y-51654216D01*
X129361068Y-51577271D01*
X129290586Y-51407111D01*
X129188262Y-51253972D01*
X129058028Y-51123738D01*
X128904889Y-51021414D01*
X128734729Y-50950932D01*
X128554089Y-50915000D01*
X128369911Y-50915000D01*
X128189271Y-50950932D01*
X128019111Y-51021414D01*
X127865972Y-51123738D01*
X127735738Y-51253972D01*
X127633414Y-51407111D01*
X127562932Y-51577271D01*
X127527000Y-51757911D01*
X127527000Y-51942089D01*
X127562932Y-52122729D01*
X127633414Y-52292889D01*
X127735738Y-52446028D01*
X127865972Y-52576262D01*
X128019111Y-52678586D01*
X128189271Y-52749068D01*
X128266216Y-52764374D01*
X128375001Y-52873159D01*
X128375001Y-53926150D01*
X128316890Y-53908524D01*
X128087000Y-54029845D01*
X128087000Y-55223000D01*
X128107000Y-55223000D01*
X128107000Y-55477000D01*
X128087000Y-55477000D01*
X128087000Y-56670155D01*
X128316890Y-56791476D01*
X128375002Y-56773850D01*
X128375002Y-57576076D01*
X128307574Y-57548147D01*
X128030335Y-57493000D01*
X127747665Y-57493000D01*
X127470426Y-57548147D01*
X127209273Y-57656320D01*
X126974241Y-57813363D01*
X126794604Y-57993000D01*
X126283935Y-57993000D01*
X126238000Y-57988476D01*
X126054708Y-58006528D01*
X125950828Y-58038041D01*
X125878460Y-58059993D01*
X125716028Y-58146814D01*
X125573656Y-58263656D01*
X125544370Y-58299341D01*
X125297000Y-58546711D01*
X125297000Y-56835000D01*
X125566260Y-56835000D01*
X125853158Y-56777932D01*
X126123411Y-56665990D01*
X126366632Y-56503475D01*
X126573475Y-56296632D01*
X126695195Y-56114466D01*
X126764822Y-56231355D01*
X126959731Y-56447588D01*
X127193080Y-56621641D01*
X127455901Y-56746825D01*
X127603110Y-56791476D01*
X127833000Y-56670155D01*
X127833000Y-55477000D01*
X127813000Y-55477000D01*
X127813000Y-55223000D01*
X127833000Y-55223000D01*
X127833000Y-54029845D01*
X127603110Y-53908524D01*
X127455901Y-53953175D01*
X127193080Y-54078359D01*
X126959731Y-54252412D01*
X126764822Y-54468645D01*
X126695195Y-54585534D01*
X126573475Y-54403368D01*
X126366632Y-54196525D01*
X126123411Y-54034010D01*
X125853158Y-53922068D01*
X125566260Y-53865000D01*
X125273740Y-53865000D01*
X125171039Y-53885429D01*
X125151439Y-53786896D01*
X125080957Y-53616736D01*
X124978633Y-53463597D01*
X124848399Y-53333363D01*
X124735165Y-53257703D01*
X126441427Y-51551441D01*
X126473290Y-51525292D01*
X126577635Y-51398147D01*
X126655171Y-51253088D01*
X126676667Y-51182223D01*
X126773110Y-51211476D01*
X127003000Y-51090155D01*
X127003000Y-49897000D01*
X127257000Y-49897000D01*
X127257000Y-51090155D01*
X127486890Y-51211476D01*
X127634099Y-51166825D01*
X127896920Y-51041641D01*
X128130269Y-50867588D01*
X128325178Y-50651355D01*
X128474157Y-50401252D01*
X128571481Y-50126891D01*
X128450814Y-49897000D01*
X127257000Y-49897000D01*
X127003000Y-49897000D01*
X126983000Y-49897000D01*
X126983000Y-49643000D01*
X127003000Y-49643000D01*
X127003000Y-49623000D01*
X127257000Y-49623000D01*
X127257000Y-49643000D01*
X128450814Y-49643000D01*
X128571481Y-49413109D01*
X128474157Y-49138748D01*
X128325178Y-48888645D01*
X128130269Y-48672412D01*
X127900594Y-48501100D01*
X128076632Y-48383475D01*
X128283475Y-48176632D01*
X128445990Y-47933411D01*
X128557932Y-47663158D01*
X128615000Y-47376260D01*
X128615000Y-47083740D01*
X128557932Y-46796842D01*
X128445990Y-46526589D01*
X128283475Y-46283368D01*
X128076632Y-46076525D01*
X127833411Y-45914010D01*
X127563158Y-45802068D01*
X127276260Y-45745000D01*
X126983740Y-45745000D01*
X126696842Y-45802068D01*
X126426589Y-45914010D01*
X126183368Y-46076525D01*
X125976525Y-46283368D01*
X125860000Y-46457760D01*
X125743475Y-46283368D01*
X125536632Y-46076525D01*
X125293411Y-45914010D01*
X125023158Y-45802068D01*
X124736260Y-45745000D01*
X124443740Y-45745000D01*
X124156842Y-45802068D01*
X123886589Y-45914010D01*
X123643368Y-46076525D01*
X123436525Y-46283368D01*
X123320000Y-46457760D01*
X123203475Y-46283368D01*
X122996632Y-46076525D01*
X122753411Y-45914010D01*
X122483158Y-45802068D01*
X122196260Y-45745000D01*
X121903740Y-45745000D01*
X121616842Y-45802068D01*
X121346589Y-45914010D01*
X121103368Y-46076525D01*
X120896525Y-46283368D01*
X120774805Y-46465534D01*
X120705178Y-46348645D01*
X120510269Y-46132412D01*
X120276920Y-45958359D01*
X120014099Y-45833175D01*
X119866890Y-45788524D01*
X119637000Y-45909845D01*
X119637000Y-47103000D01*
X119657000Y-47103000D01*
X119657000Y-47357000D01*
X119637000Y-47357000D01*
X119637000Y-47377000D01*
X119383000Y-47377000D01*
X119383000Y-47357000D01*
X119363000Y-47357000D01*
X119363000Y-47103000D01*
X119383000Y-47103000D01*
X119383000Y-45909845D01*
X119153110Y-45788524D01*
X119005901Y-45833175D01*
X118743080Y-45958359D01*
X118509731Y-46132412D01*
X118314822Y-46348645D01*
X118245195Y-46465534D01*
X118123475Y-46283368D01*
X117916632Y-46076525D01*
X117673411Y-45914010D01*
X117403158Y-45802068D01*
X117116260Y-45745000D01*
X116823740Y-45745000D01*
X116536842Y-45802068D01*
X116266589Y-45914010D01*
X116023368Y-46076525D01*
X115816525Y-46283368D01*
X115694805Y-46465534D01*
X115625178Y-46348645D01*
X115430269Y-46132412D01*
X115196920Y-45958359D01*
X114934099Y-45833175D01*
X114786890Y-45788524D01*
X114557000Y-45909845D01*
X114557000Y-47103000D01*
X114577000Y-47103000D01*
X114577000Y-47357000D01*
X114557000Y-47357000D01*
X114557000Y-47377000D01*
X114303000Y-47377000D01*
X114303000Y-47357000D01*
X114283000Y-47357000D01*
X114283000Y-47103000D01*
X114303000Y-47103000D01*
X114303000Y-45909845D01*
X114073110Y-45788524D01*
X113925901Y-45833175D01*
X113663080Y-45958359D01*
X113429731Y-46132412D01*
X113234822Y-46348645D01*
X113165195Y-46465534D01*
X113043475Y-46283368D01*
X112836632Y-46076525D01*
X112593411Y-45914010D01*
X112323158Y-45802068D01*
X112036260Y-45745000D01*
X111743740Y-45745000D01*
X111456842Y-45802068D01*
X111186589Y-45914010D01*
X110943368Y-46076525D01*
X110736525Y-46283368D01*
X110620000Y-46457760D01*
X110503475Y-46283368D01*
X110296632Y-46076525D01*
X110053411Y-45914010D01*
X109783158Y-45802068D01*
X109496260Y-45745000D01*
X109203740Y-45745000D01*
X108916842Y-45802068D01*
X108646589Y-45914010D01*
X108403368Y-46076525D01*
X108196525Y-46283368D01*
X108080000Y-46457760D01*
X107963475Y-46283368D01*
X107756632Y-46076525D01*
X107513411Y-45914010D01*
X107243158Y-45802068D01*
X106956260Y-45745000D01*
X106663740Y-45745000D01*
X106376842Y-45802068D01*
X106106589Y-45914010D01*
X105863368Y-46076525D01*
X105656525Y-46283368D01*
X105540000Y-46457760D01*
X105423475Y-46283368D01*
X105216632Y-46076525D01*
X104973411Y-45914010D01*
X104703158Y-45802068D01*
X104416260Y-45745000D01*
X104123740Y-45745000D01*
X103836842Y-45802068D01*
X103566589Y-45914010D01*
X103323368Y-46076525D01*
X103116525Y-46283368D01*
X102994805Y-46465534D01*
X102925178Y-46348645D01*
X102730269Y-46132412D01*
X102496920Y-45958359D01*
X102234099Y-45833175D01*
X102086890Y-45788524D01*
X101857000Y-45909845D01*
X101857000Y-47103000D01*
X101877000Y-47103000D01*
X101877000Y-47357000D01*
X101857000Y-47357000D01*
X101857000Y-47377000D01*
X101603000Y-47377000D01*
X101603000Y-47357000D01*
X101583000Y-47357000D01*
X101583000Y-47103000D01*
X101603000Y-47103000D01*
X101603000Y-45909845D01*
X101373110Y-45788524D01*
X101225901Y-45833175D01*
X100963080Y-45958359D01*
X100729731Y-46132412D01*
X100534822Y-46348645D01*
X100465195Y-46465534D01*
X100343475Y-46283368D01*
X100136632Y-46076525D01*
X99893411Y-45914010D01*
X99623158Y-45802068D01*
X99336260Y-45745000D01*
X99043740Y-45745000D01*
X98756842Y-45802068D01*
X98486589Y-45914010D01*
X98243368Y-46076525D01*
X98036525Y-46283368D01*
X97920000Y-46457760D01*
X97803475Y-46283368D01*
X97596632Y-46076525D01*
X97353411Y-45914010D01*
X97083158Y-45802068D01*
X96796260Y-45745000D01*
X96503740Y-45745000D01*
X96216842Y-45802068D01*
X95946589Y-45914010D01*
X95703368Y-46076525D01*
X95496525Y-46283368D01*
X95374805Y-46465534D01*
X95305178Y-46348645D01*
X95110269Y-46132412D01*
X94876920Y-45958359D01*
X94614099Y-45833175D01*
X94466890Y-45788524D01*
X94237000Y-45909845D01*
X94237000Y-47103000D01*
X94257000Y-47103000D01*
X94257000Y-47357000D01*
X94237000Y-47357000D01*
X94237000Y-47377000D01*
X93983000Y-47377000D01*
X93983000Y-47357000D01*
X93963000Y-47357000D01*
X93963000Y-47103000D01*
X93983000Y-47103000D01*
X93983000Y-45909845D01*
X93753110Y-45788524D01*
X93605901Y-45833175D01*
X93343080Y-45958359D01*
X93109731Y-46132412D01*
X92914822Y-46348645D01*
X92845195Y-46465534D01*
X92723475Y-46283368D01*
X92516632Y-46076525D01*
X92273411Y-45914010D01*
X92003158Y-45802068D01*
X91716260Y-45745000D01*
X91423740Y-45745000D01*
X91136842Y-45802068D01*
X90866589Y-45914010D01*
X90623368Y-46076525D01*
X90416525Y-46283368D01*
X90300000Y-46457760D01*
X90183475Y-46283368D01*
X89976632Y-46076525D01*
X89733411Y-45914010D01*
X89463158Y-45802068D01*
X89176260Y-45745000D01*
X88883740Y-45745000D01*
X88596842Y-45802068D01*
X88326589Y-45914010D01*
X88083368Y-46076525D01*
X87876525Y-46283368D01*
X87760000Y-46457760D01*
X87643475Y-46283368D01*
X87436632Y-46076525D01*
X87193411Y-45914010D01*
X86923158Y-45802068D01*
X86636260Y-45745000D01*
X86343740Y-45745000D01*
X86056842Y-45802068D01*
X85786589Y-45914010D01*
X85543368Y-46076525D01*
X85336525Y-46283368D01*
X85214805Y-46465534D01*
X85145178Y-46348645D01*
X84950269Y-46132412D01*
X84716920Y-45958359D01*
X84454099Y-45833175D01*
X84306890Y-45788524D01*
X84077000Y-45909845D01*
X84077000Y-47103000D01*
X84097000Y-47103000D01*
X84097000Y-47357000D01*
X84077000Y-47357000D01*
X84077000Y-47377000D01*
X83823000Y-47377000D01*
X83823000Y-47357000D01*
X83803000Y-47357000D01*
X83803000Y-47103000D01*
X83823000Y-47103000D01*
X83823000Y-45909845D01*
X83593110Y-45788524D01*
X83445901Y-45833175D01*
X83183080Y-45958359D01*
X82949731Y-46132412D01*
X82754822Y-46348645D01*
X82685195Y-46465534D01*
X82563475Y-46283368D01*
X82356632Y-46076525D01*
X82113411Y-45914010D01*
X81843158Y-45802068D01*
X81556260Y-45745000D01*
X81263740Y-45745000D01*
X80976842Y-45802068D01*
X80706589Y-45914010D01*
X80463368Y-46076525D01*
X80256525Y-46283368D01*
X80140000Y-46457760D01*
X80023475Y-46283368D01*
X79816632Y-46076525D01*
X79573411Y-45914010D01*
X79303158Y-45802068D01*
X79016260Y-45745000D01*
X78723740Y-45745000D01*
X78436842Y-45802068D01*
X78166589Y-45914010D01*
X77923368Y-46076525D01*
X77716525Y-46283368D01*
X77554010Y-46526589D01*
X77442068Y-46796842D01*
X77385000Y-47083740D01*
X77385000Y-47376260D01*
X77442068Y-47663158D01*
X77554010Y-47933411D01*
X77716525Y-48176632D01*
X77848380Y-48308487D01*
X77775820Y-48330498D01*
X77665506Y-48389463D01*
X77568815Y-48468815D01*
X77489463Y-48565506D01*
X77430498Y-48675820D01*
X77394188Y-48795518D01*
X77381928Y-48920000D01*
X77381928Y-50620000D01*
X77394188Y-50744482D01*
X77430498Y-50864180D01*
X77489463Y-50974494D01*
X77568815Y-51071185D01*
X77665506Y-51150537D01*
X77775820Y-51209502D01*
X77895518Y-51245812D01*
X78005434Y-51256637D01*
X78048412Y-51398313D01*
X78130590Y-51552059D01*
X78213468Y-51653046D01*
X78213471Y-51653049D01*
X78241184Y-51686817D01*
X78274952Y-51714530D01*
X78605466Y-52045044D01*
X78633183Y-52078817D01*
X78767941Y-52189411D01*
X78921687Y-52271589D01*
X79088510Y-52322195D01*
X79218523Y-52335000D01*
X79218531Y-52335000D01*
X79262000Y-52339281D01*
X79305469Y-52335000D01*
X80855308Y-52335000D01*
X80889271Y-52349068D01*
X81069911Y-52385000D01*
X81254089Y-52385000D01*
X81434729Y-52349068D01*
X81604889Y-52278586D01*
X81758028Y-52176262D01*
X81888262Y-52046028D01*
X81990586Y-51892889D01*
X82061068Y-51722729D01*
X82097000Y-51542089D01*
X82097000Y-51357911D01*
X82061068Y-51177271D01*
X82036461Y-51117864D01*
X82113411Y-51085990D01*
X82356632Y-50923475D01*
X82563475Y-50716632D01*
X82680000Y-50542240D01*
X82796525Y-50716632D01*
X83003368Y-50923475D01*
X83246589Y-51085990D01*
X83516842Y-51197932D01*
X83803740Y-51255000D01*
X84096260Y-51255000D01*
X84383158Y-51197932D01*
X84653411Y-51085990D01*
X84896632Y-50923475D01*
X85103475Y-50716632D01*
X85220000Y-50542240D01*
X85336525Y-50716632D01*
X85543368Y-50923475D01*
X85786589Y-51085990D01*
X86056842Y-51197932D01*
X86343740Y-51255000D01*
X86636260Y-51255000D01*
X86923158Y-51197932D01*
X87193411Y-51085990D01*
X87436632Y-50923475D01*
X87643475Y-50716632D01*
X87765195Y-50534466D01*
X87834822Y-50651355D01*
X88029731Y-50867588D01*
X88263080Y-51041641D01*
X88525901Y-51166825D01*
X88673110Y-51211476D01*
X88903000Y-51090155D01*
X88903000Y-49897000D01*
X88883000Y-49897000D01*
X88883000Y-49643000D01*
X88903000Y-49643000D01*
X88903000Y-49623000D01*
X89157000Y-49623000D01*
X89157000Y-49643000D01*
X89177000Y-49643000D01*
X89177000Y-49897000D01*
X89157000Y-49897000D01*
X89157000Y-51090155D01*
X89386890Y-51211476D01*
X89477001Y-51184144D01*
X89477001Y-52223919D01*
X89421414Y-52307111D01*
X89350932Y-52477271D01*
X89315000Y-52657911D01*
X89315000Y-52842089D01*
X89350932Y-53022729D01*
X89421414Y-53192889D01*
X89523738Y-53346028D01*
X89653972Y-53476262D01*
X89807111Y-53578586D01*
X89977271Y-53649068D01*
X90157911Y-53685000D01*
X90342089Y-53685000D01*
X90522729Y-53649068D01*
X90692889Y-53578586D01*
X90846028Y-53476262D01*
X90976262Y-53346028D01*
X91078586Y-53192889D01*
X91149068Y-53022729D01*
X91185000Y-52842089D01*
X91185000Y-52657911D01*
X91149068Y-52477271D01*
X91078586Y-52307111D01*
X91047000Y-52259839D01*
X91047000Y-51160718D01*
X91136842Y-51197932D01*
X91423740Y-51255000D01*
X91716260Y-51255000D01*
X92003158Y-51197932D01*
X92273411Y-51085990D01*
X92516632Y-50923475D01*
X92723475Y-50716632D01*
X92840000Y-50542240D01*
X92956525Y-50716632D01*
X93163368Y-50923475D01*
X93406589Y-51085990D01*
X93676842Y-51197932D01*
X93963740Y-51255000D01*
X94256260Y-51255000D01*
X94543158Y-51197932D01*
X94577001Y-51183914D01*
X94577001Y-52893295D01*
X94562932Y-52927261D01*
X94527000Y-53107901D01*
X94527000Y-53292079D01*
X94562932Y-53472719D01*
X94633414Y-53642879D01*
X94735738Y-53796018D01*
X94865972Y-53926252D01*
X95019111Y-54028576D01*
X95189271Y-54099058D01*
X95369911Y-54134990D01*
X95554089Y-54134990D01*
X95734729Y-54099058D01*
X95904889Y-54028576D01*
X96058028Y-53926252D01*
X96188262Y-53796018D01*
X96290586Y-53642879D01*
X96361068Y-53472719D01*
X96397000Y-53292079D01*
X96397000Y-53107901D01*
X96361068Y-52927261D01*
X96290586Y-52757101D01*
X96188262Y-52603962D01*
X96147000Y-52562700D01*
X96147000Y-51169003D01*
X96216842Y-51197932D01*
X96503740Y-51255000D01*
X96796260Y-51255000D01*
X97083158Y-51197932D01*
X97353411Y-51085990D01*
X97596632Y-50923475D01*
X97803475Y-50716632D01*
X97920000Y-50542240D01*
X98036525Y-50716632D01*
X98243368Y-50923475D01*
X98486589Y-51085990D01*
X98756842Y-51197932D01*
X99043740Y-51255000D01*
X99336260Y-51255000D01*
X99623158Y-51197932D01*
X99893411Y-51085990D01*
X100136632Y-50923475D01*
X100343475Y-50716632D01*
X100460000Y-50542240D01*
X100576525Y-50716632D01*
X100783368Y-50923475D01*
X101026589Y-51085990D01*
X101296842Y-51197932D01*
X101583740Y-51255000D01*
X101876260Y-51255000D01*
X102007940Y-51228807D01*
X105127000Y-54347869D01*
X105127000Y-55966233D01*
X104924729Y-55763962D01*
X104558669Y-55519369D01*
X104151925Y-55350890D01*
X103720128Y-55265000D01*
X103279872Y-55265000D01*
X102848075Y-55350890D01*
X102441331Y-55519369D01*
X102075271Y-55763962D01*
X101763962Y-56075271D01*
X101519369Y-56441331D01*
X101350890Y-56848075D01*
X101265000Y-57279872D01*
X101265000Y-57492422D01*
X99484917Y-56303009D01*
X97185493Y-55350556D01*
X94744439Y-54865000D01*
X92255561Y-54865000D01*
X89814507Y-55350556D01*
X87515083Y-56303009D01*
X85735000Y-57492422D01*
X85735000Y-57279872D01*
X85649110Y-56848075D01*
X85480631Y-56441331D01*
X85236038Y-56075271D01*
X84924729Y-55763962D01*
X84558669Y-55519369D01*
X84151925Y-55350890D01*
X83720128Y-55265000D01*
X83279872Y-55265000D01*
X82848075Y-55350890D01*
X82441331Y-55519369D01*
X82075271Y-55763962D01*
X81763962Y-56075271D01*
X81519369Y-56441331D01*
X81350890Y-56848075D01*
X81265000Y-57279872D01*
X81265000Y-57720128D01*
X81350890Y-58151925D01*
X81519369Y-58558669D01*
X81763962Y-58924729D01*
X82075271Y-59236038D01*
X82441331Y-59480631D01*
X82848075Y-59649110D01*
X83279872Y-59735000D01*
X83492422Y-59735000D01*
X82303009Y-61515083D01*
X81350556Y-63814507D01*
X81186703Y-64638254D01*
X81148284Y-64566377D01*
X81121503Y-64533744D01*
X81041989Y-64436856D01*
X81041987Y-64436854D01*
X81006449Y-64393551D01*
X80963146Y-64358013D01*
X77461996Y-60856865D01*
X77426449Y-60813551D01*
X77253623Y-60671716D01*
X77056447Y-60566324D01*
X76842499Y-60501423D01*
X76675752Y-60485000D01*
X76675751Y-60485000D01*
X76620000Y-60479509D01*
X76564249Y-60485000D01*
X75747950Y-60485000D01*
X75612950Y-60350000D01*
X75808825Y-60154125D01*
X75993228Y-59878147D01*
X76120246Y-59571496D01*
X76185000Y-59245958D01*
X76185000Y-58914042D01*
X76120246Y-58588504D01*
X75993228Y-58281853D01*
X75808825Y-58005875D01*
X75612950Y-57810000D01*
X75808825Y-57614125D01*
X75993228Y-57338147D01*
X76120246Y-57031496D01*
X76185000Y-56705958D01*
X76185000Y-56374042D01*
X76120246Y-56048504D01*
X75993228Y-55741853D01*
X75890454Y-55588042D01*
X75904494Y-55580537D01*
X76001185Y-55501185D01*
X76080537Y-55404494D01*
X76139502Y-55294180D01*
X76175812Y-55174482D01*
X76188072Y-55050000D01*
X76185000Y-54285750D01*
X76026250Y-54127000D01*
X74627000Y-54127000D01*
X74627000Y-54147000D01*
X74373000Y-54147000D01*
X74373000Y-54127000D01*
X72973750Y-54127000D01*
X72815000Y-54285750D01*
X72811928Y-55050000D01*
X72824188Y-55174482D01*
X72860498Y-55294180D01*
X72919463Y-55404494D01*
X72998815Y-55501185D01*
X73095506Y-55580537D01*
X73109546Y-55588042D01*
X73006772Y-55741853D01*
X72879754Y-56048504D01*
X72815000Y-56374042D01*
X72815000Y-56705958D01*
X72879754Y-57031496D01*
X73006772Y-57338147D01*
X73191175Y-57614125D01*
X73387050Y-57810000D01*
X73191175Y-58005875D01*
X73006772Y-58281853D01*
X72879754Y-58588504D01*
X72815000Y-58914042D01*
X72815000Y-59245958D01*
X72879754Y-59571496D01*
X73006772Y-59878147D01*
X73191175Y-60154125D01*
X73387050Y-60350000D01*
X73191175Y-60545875D01*
X73006772Y-60821853D01*
X72879754Y-61128504D01*
X72815000Y-61454042D01*
X72815000Y-61785958D01*
X72879754Y-62111496D01*
X73006772Y-62418147D01*
X73191175Y-62694125D01*
X73425875Y-62928825D01*
X73701853Y-63113228D01*
X74008504Y-63240246D01*
X74334042Y-63305000D01*
X74665958Y-63305000D01*
X74991496Y-63240246D01*
X75298147Y-63113228D01*
X75574125Y-62928825D01*
X75747950Y-62755000D01*
X76149869Y-62755000D01*
X79065000Y-65670133D01*
X79065001Y-80056238D01*
X79059509Y-80112000D01*
X79065000Y-80167752D01*
X79065001Y-81866557D01*
X78987518Y-81874188D01*
X78867820Y-81910498D01*
X78757506Y-81969463D01*
X78660815Y-82048815D01*
X78581463Y-82145506D01*
X78522498Y-82255820D01*
X78486188Y-82375518D01*
X78473928Y-82500000D01*
X78473928Y-84200000D01*
X78486188Y-84324482D01*
X78522498Y-84444180D01*
X78581463Y-84554494D01*
X78660815Y-84651185D01*
X78757506Y-84730537D01*
X78867820Y-84789502D01*
X78940380Y-84811513D01*
X78808525Y-84943368D01*
X78646010Y-85186589D01*
X78534068Y-85456842D01*
X78477000Y-85743740D01*
X78477000Y-86036260D01*
X78534068Y-86323158D01*
X78646010Y-86593411D01*
X78808525Y-86836632D01*
X79015368Y-87043475D01*
X79189760Y-87160000D01*
X79015368Y-87276525D01*
X78808525Y-87483368D01*
X78646010Y-87726589D01*
X78534068Y-87996842D01*
X78477000Y-88283740D01*
X78477000Y-88576260D01*
X78534068Y-88863158D01*
X78646010Y-89133411D01*
X78808525Y-89376632D01*
X79015368Y-89583475D01*
X79258589Y-89745990D01*
X79528842Y-89857932D01*
X79815740Y-89915000D01*
X79983290Y-89915000D01*
X81114197Y-91045908D01*
X81146604Y-91085396D01*
X81186092Y-91117803D01*
X81304202Y-91214734D01*
X81400309Y-91266104D01*
X81484007Y-91310841D01*
X81679105Y-91370024D01*
X81831162Y-91385000D01*
X81831171Y-91385000D01*
X81881999Y-91390006D01*
X81932827Y-91385000D01*
X86491172Y-91385000D01*
X86542000Y-91390006D01*
X86592828Y-91385000D01*
X86592838Y-91385000D01*
X86744895Y-91370024D01*
X86939993Y-91310841D01*
X87119797Y-91214734D01*
X87277396Y-91085396D01*
X87309807Y-91045903D01*
X88440711Y-89915000D01*
X88483290Y-89915000D01*
X89614197Y-91045908D01*
X89646604Y-91085396D01*
X89686092Y-91117803D01*
X89804202Y-91214734D01*
X89900309Y-91266104D01*
X89984007Y-91310841D01*
X90179105Y-91370024D01*
X90331162Y-91385000D01*
X90331171Y-91385000D01*
X90381999Y-91390006D01*
X90432827Y-91385000D01*
X94991172Y-91385000D01*
X95042000Y-91390006D01*
X95092828Y-91385000D01*
X95092838Y-91385000D01*
X95244895Y-91370024D01*
X95439993Y-91310841D01*
X95619797Y-91214734D01*
X95777396Y-91085396D01*
X95809807Y-91045903D01*
X96940711Y-89915000D01*
X97108260Y-89915000D01*
X97332653Y-89870365D01*
X97927287Y-90465000D01*
X97505465Y-90465000D01*
X97461999Y-90460719D01*
X97418533Y-90465000D01*
X97418523Y-90465000D01*
X97288510Y-90477805D01*
X97121687Y-90528411D01*
X96967941Y-90610589D01*
X96953786Y-90622206D01*
X96866953Y-90693468D01*
X96866951Y-90693470D01*
X96833183Y-90721183D01*
X96805470Y-90754951D01*
X95716957Y-91843465D01*
X95660102Y-91854774D01*
X95471744Y-91932795D01*
X95302226Y-92046063D01*
X95158063Y-92190226D01*
X95044795Y-92359744D01*
X94966774Y-92548102D01*
X94927000Y-92748061D01*
X94927000Y-92951939D01*
X94966774Y-93151898D01*
X95044795Y-93340256D01*
X95158063Y-93509774D01*
X95302226Y-93653937D01*
X95471744Y-93767205D01*
X95660102Y-93845226D01*
X95860061Y-93885000D01*
X96063939Y-93885000D01*
X96263898Y-93845226D01*
X96452256Y-93767205D01*
X96621774Y-93653937D01*
X96765937Y-93509774D01*
X96879205Y-93340256D01*
X96957226Y-93151898D01*
X96968535Y-93095043D01*
X97828579Y-92235000D01*
X102423546Y-92235000D01*
X102471744Y-92267205D01*
X102660102Y-92345226D01*
X102860061Y-92385000D01*
X103063939Y-92385000D01*
X103263898Y-92345226D01*
X103452256Y-92267205D01*
X103621774Y-92153937D01*
X103765937Y-92009774D01*
X103879205Y-91840256D01*
X103957226Y-91651898D01*
X103997000Y-91451939D01*
X103997000Y-91280370D01*
X104119797Y-91214734D01*
X104277396Y-91085396D01*
X104309807Y-91045903D01*
X105440711Y-89915000D01*
X105483290Y-89915000D01*
X106614197Y-91045908D01*
X106646604Y-91085396D01*
X106686092Y-91117803D01*
X106804202Y-91214734D01*
X106900309Y-91266104D01*
X106984007Y-91310841D01*
X107179105Y-91370024D01*
X107189385Y-91371036D01*
X106716957Y-91843465D01*
X106660102Y-91854774D01*
X106471744Y-91932795D01*
X106302226Y-92046063D01*
X106158063Y-92190226D01*
X106044795Y-92359744D01*
X105966774Y-92548102D01*
X105927000Y-92748061D01*
X105927000Y-92951939D01*
X105966774Y-93151898D01*
X106044795Y-93340256D01*
X106158063Y-93509774D01*
X106302226Y-93653937D01*
X106471744Y-93767205D01*
X106660102Y-93845226D01*
X106860061Y-93885000D01*
X107063939Y-93885000D01*
X107263898Y-93845226D01*
X107452256Y-93767205D01*
X107621774Y-93653937D01*
X107765937Y-93509774D01*
X107879205Y-93340256D01*
X107957226Y-93151898D01*
X107968535Y-93095043D01*
X108928543Y-92135036D01*
X116918531Y-92135036D01*
X116962000Y-92139317D01*
X117005469Y-92135036D01*
X117005477Y-92135036D01*
X117135490Y-92122231D01*
X117302313Y-92071625D01*
X117456059Y-91989447D01*
X117590817Y-91878853D01*
X117618534Y-91845080D01*
X118077001Y-91386614D01*
X118077000Y-92311545D01*
X118044795Y-92359744D01*
X117966774Y-92548102D01*
X117927000Y-92748061D01*
X117927000Y-92951939D01*
X117966774Y-93151898D01*
X118044795Y-93340256D01*
X118158063Y-93509774D01*
X118302226Y-93653937D01*
X118471744Y-93767205D01*
X118660102Y-93845226D01*
X118860061Y-93885000D01*
X119063939Y-93885000D01*
X119263898Y-93845226D01*
X119452256Y-93767205D01*
X119621774Y-93653937D01*
X119765937Y-93509774D01*
X119879205Y-93340256D01*
X119957226Y-93151898D01*
X119997000Y-92951939D01*
X119997000Y-92748061D01*
X119957226Y-92548102D01*
X119879205Y-92359744D01*
X119847000Y-92311546D01*
X119847000Y-90606576D01*
X120372771Y-90080805D01*
X120519111Y-90178586D01*
X120689271Y-90249068D01*
X120869911Y-90285000D01*
X121054089Y-90285000D01*
X121234729Y-90249068D01*
X121404889Y-90178586D01*
X121539843Y-90088413D01*
X121540422Y-90090323D01*
X121622600Y-90244069D01*
X121733194Y-90378828D01*
X121766967Y-90406545D01*
X123305468Y-91945047D01*
X123333183Y-91978817D01*
X123366951Y-92006530D01*
X123366953Y-92006532D01*
X123415122Y-92046063D01*
X123467941Y-92089411D01*
X123621687Y-92171589D01*
X123788510Y-92222195D01*
X123918523Y-92235000D01*
X123918533Y-92235000D01*
X123924412Y-92235579D01*
X123971744Y-92267205D01*
X124160102Y-92345226D01*
X124360061Y-92385000D01*
X124563939Y-92385000D01*
X124763898Y-92345226D01*
X124952256Y-92267205D01*
X125121774Y-92153937D01*
X125265937Y-92009774D01*
X125379205Y-91840256D01*
X125457226Y-91651898D01*
X125497000Y-91451939D01*
X125497000Y-91248061D01*
X125457226Y-91048102D01*
X125379205Y-90859744D01*
X125265937Y-90690226D01*
X125121774Y-90546063D01*
X124952256Y-90432795D01*
X124763898Y-90354774D01*
X124563939Y-90315000D01*
X124360061Y-90315000D01*
X124208688Y-90345110D01*
X123247011Y-89383433D01*
X123247011Y-88884072D01*
X124812000Y-88884072D01*
X124936482Y-88871812D01*
X125056180Y-88835502D01*
X125166494Y-88776537D01*
X125263185Y-88697185D01*
X125342537Y-88600494D01*
X125401502Y-88490180D01*
X125423513Y-88417620D01*
X125555368Y-88549475D01*
X125667001Y-88624066D01*
X125667001Y-88882594D01*
X125602932Y-89037271D01*
X125567000Y-89217911D01*
X125567000Y-89402089D01*
X125602932Y-89582729D01*
X125673414Y-89752889D01*
X125775738Y-89906028D01*
X125905972Y-90036262D01*
X126059111Y-90138586D01*
X126229271Y-90209068D01*
X126409911Y-90245000D01*
X126594089Y-90245000D01*
X126774729Y-90209068D01*
X126944889Y-90138586D01*
X127098028Y-90036262D01*
X127228262Y-89906028D01*
X127330586Y-89752889D01*
X127401068Y-89582729D01*
X127437000Y-89402089D01*
X127437000Y-89217911D01*
X127401068Y-89037271D01*
X127337000Y-88882596D01*
X127337000Y-88624065D01*
X127448632Y-88549475D01*
X127655475Y-88342632D01*
X127772000Y-88168240D01*
X127888525Y-88342632D01*
X128095368Y-88549475D01*
X128338589Y-88711990D01*
X128608842Y-88823932D01*
X128895740Y-88881000D01*
X129188260Y-88881000D01*
X129475158Y-88823932D01*
X129745411Y-88711990D01*
X129988632Y-88549475D01*
X130195475Y-88342632D01*
X130312000Y-88168240D01*
X130428525Y-88342632D01*
X130635368Y-88549475D01*
X130878589Y-88711990D01*
X131148842Y-88823932D01*
X131435740Y-88881000D01*
X131728260Y-88881000D01*
X132015158Y-88823932D01*
X132285411Y-88711990D01*
X132528632Y-88549475D01*
X132735475Y-88342632D01*
X132843474Y-88181000D01*
X132960447Y-88181000D01*
X132999000Y-88184797D01*
X133037553Y-88181000D01*
X133037561Y-88181000D01*
X133152887Y-88169641D01*
X133300860Y-88124754D01*
X133437233Y-88051862D01*
X133556764Y-87953764D01*
X133581347Y-87923810D01*
X134589817Y-86915341D01*
X134619764Y-86890764D01*
X134717862Y-86771233D01*
X134790754Y-86634860D01*
X134815001Y-86554929D01*
X134815001Y-95904500D01*
X134506575Y-95442907D01*
X134057093Y-94993425D01*
X133528558Y-94640270D01*
X132941281Y-94397012D01*
X132317832Y-94273000D01*
X131682168Y-94273000D01*
X131058719Y-94397012D01*
X130471442Y-94640270D01*
X129942907Y-94993425D01*
X129493425Y-95442907D01*
X129140270Y-95971442D01*
X128897012Y-96558719D01*
X128773000Y-97182168D01*
X128773000Y-97817832D01*
X128897012Y-98441281D01*
X129140270Y-99028558D01*
X129493425Y-99557093D01*
X129942907Y-100006575D01*
X130404499Y-100315000D01*
X75595501Y-100315000D01*
X76057093Y-100006575D01*
X76506575Y-99557093D01*
X76859730Y-99028558D01*
X77102988Y-98441281D01*
X77227000Y-97817832D01*
X77227000Y-97182168D01*
X77102988Y-96558719D01*
X76859730Y-95971442D01*
X76506575Y-95442907D01*
X76113668Y-95050000D01*
X78523928Y-95050000D01*
X78523928Y-97650000D01*
X78536188Y-97774482D01*
X78572498Y-97894180D01*
X78631463Y-98004494D01*
X78710815Y-98101185D01*
X78807506Y-98180537D01*
X78917820Y-98239502D01*
X79037518Y-98275812D01*
X79162000Y-98288072D01*
X81762000Y-98288072D01*
X81886482Y-98275812D01*
X82006180Y-98239502D01*
X82116494Y-98180537D01*
X82213185Y-98101185D01*
X82292537Y-98004494D01*
X82351502Y-97894180D01*
X82387812Y-97774482D01*
X82400072Y-97650000D01*
X82400072Y-96159419D01*
X83527000Y-96159419D01*
X83527000Y-96540581D01*
X83601361Y-96914419D01*
X83747225Y-97266566D01*
X83958987Y-97583491D01*
X84228509Y-97853013D01*
X84545434Y-98064775D01*
X84897581Y-98210639D01*
X85271419Y-98285000D01*
X85652581Y-98285000D01*
X86026419Y-98210639D01*
X86378566Y-98064775D01*
X86695491Y-97853013D01*
X86965013Y-97583491D01*
X87176775Y-97266566D01*
X87322639Y-96914419D01*
X87397000Y-96540581D01*
X87397000Y-96159419D01*
X88527000Y-96159419D01*
X88527000Y-96540581D01*
X88601361Y-96914419D01*
X88747225Y-97266566D01*
X88958987Y-97583491D01*
X89228509Y-97853013D01*
X89545434Y-98064775D01*
X89897581Y-98210639D01*
X90271419Y-98285000D01*
X90652581Y-98285000D01*
X91026419Y-98210639D01*
X91378566Y-98064775D01*
X91695491Y-97853013D01*
X91965013Y-97583491D01*
X92176775Y-97266566D01*
X92322639Y-96914419D01*
X92397000Y-96540581D01*
X92397000Y-96159419D01*
X93527000Y-96159419D01*
X93527000Y-96540581D01*
X93601361Y-96914419D01*
X93747225Y-97266566D01*
X93958987Y-97583491D01*
X94228509Y-97853013D01*
X94545434Y-98064775D01*
X94897581Y-98210639D01*
X95271419Y-98285000D01*
X95652581Y-98285000D01*
X96026419Y-98210639D01*
X96378566Y-98064775D01*
X96695491Y-97853013D01*
X96965013Y-97583491D01*
X97176775Y-97266566D01*
X97322639Y-96914419D01*
X97397000Y-96540581D01*
X97397000Y-96159419D01*
X98527000Y-96159419D01*
X98527000Y-96540581D01*
X98601361Y-96914419D01*
X98747225Y-97266566D01*
X98958987Y-97583491D01*
X99228509Y-97853013D01*
X99545434Y-98064775D01*
X99897581Y-98210639D01*
X100271419Y-98285000D01*
X100652581Y-98285000D01*
X101026419Y-98210639D01*
X101378566Y-98064775D01*
X101695491Y-97853013D01*
X101965013Y-97583491D01*
X102176775Y-97266566D01*
X102322639Y-96914419D01*
X102397000Y-96540581D01*
X102397000Y-96159419D01*
X103527000Y-96159419D01*
X103527000Y-96540581D01*
X103601361Y-96914419D01*
X103747225Y-97266566D01*
X103958987Y-97583491D01*
X104228509Y-97853013D01*
X104545434Y-98064775D01*
X104897581Y-98210639D01*
X105271419Y-98285000D01*
X105652581Y-98285000D01*
X106026419Y-98210639D01*
X106378566Y-98064775D01*
X106695491Y-97853013D01*
X106965013Y-97583491D01*
X107176775Y-97266566D01*
X107322639Y-96914419D01*
X107397000Y-96540581D01*
X107397000Y-96159419D01*
X108527000Y-96159419D01*
X108527000Y-96540581D01*
X108601361Y-96914419D01*
X108747225Y-97266566D01*
X108958987Y-97583491D01*
X109228509Y-97853013D01*
X109545434Y-98064775D01*
X109897581Y-98210639D01*
X110271419Y-98285000D01*
X110652581Y-98285000D01*
X111026419Y-98210639D01*
X111378566Y-98064775D01*
X111695491Y-97853013D01*
X111965013Y-97583491D01*
X112176775Y-97266566D01*
X112322639Y-96914419D01*
X112397000Y-96540581D01*
X112397000Y-96159419D01*
X113527000Y-96159419D01*
X113527000Y-96540581D01*
X113601361Y-96914419D01*
X113747225Y-97266566D01*
X113958987Y-97583491D01*
X114228509Y-97853013D01*
X114545434Y-98064775D01*
X114897581Y-98210639D01*
X115271419Y-98285000D01*
X115652581Y-98285000D01*
X116026419Y-98210639D01*
X116378566Y-98064775D01*
X116695491Y-97853013D01*
X116965013Y-97583491D01*
X117176775Y-97266566D01*
X117322639Y-96914419D01*
X117397000Y-96540581D01*
X117397000Y-96159419D01*
X118527000Y-96159419D01*
X118527000Y-96540581D01*
X118601361Y-96914419D01*
X118747225Y-97266566D01*
X118958987Y-97583491D01*
X119228509Y-97853013D01*
X119545434Y-98064775D01*
X119897581Y-98210639D01*
X120271419Y-98285000D01*
X120652581Y-98285000D01*
X121026419Y-98210639D01*
X121378566Y-98064775D01*
X121695491Y-97853013D01*
X121965013Y-97583491D01*
X122176775Y-97266566D01*
X122322639Y-96914419D01*
X122397000Y-96540581D01*
X122397000Y-96159419D01*
X123527000Y-96159419D01*
X123527000Y-96540581D01*
X123601361Y-96914419D01*
X123747225Y-97266566D01*
X123958987Y-97583491D01*
X124228509Y-97853013D01*
X124545434Y-98064775D01*
X124897581Y-98210639D01*
X125271419Y-98285000D01*
X125652581Y-98285000D01*
X126026419Y-98210639D01*
X126378566Y-98064775D01*
X126695491Y-97853013D01*
X126965013Y-97583491D01*
X127176775Y-97266566D01*
X127322639Y-96914419D01*
X127397000Y-96540581D01*
X127397000Y-96159419D01*
X127322639Y-95785581D01*
X127176775Y-95433434D01*
X126965013Y-95116509D01*
X126695491Y-94846987D01*
X126378566Y-94635225D01*
X126026419Y-94489361D01*
X125652581Y-94415000D01*
X125271419Y-94415000D01*
X124897581Y-94489361D01*
X124545434Y-94635225D01*
X124228509Y-94846987D01*
X123958987Y-95116509D01*
X123747225Y-95433434D01*
X123601361Y-95785581D01*
X123527000Y-96159419D01*
X122397000Y-96159419D01*
X122322639Y-95785581D01*
X122176775Y-95433434D01*
X121965013Y-95116509D01*
X121695491Y-94846987D01*
X121378566Y-94635225D01*
X121026419Y-94489361D01*
X120652581Y-94415000D01*
X120271419Y-94415000D01*
X119897581Y-94489361D01*
X119545434Y-94635225D01*
X119228509Y-94846987D01*
X118958987Y-95116509D01*
X118747225Y-95433434D01*
X118601361Y-95785581D01*
X118527000Y-96159419D01*
X117397000Y-96159419D01*
X117322639Y-95785581D01*
X117176775Y-95433434D01*
X116965013Y-95116509D01*
X116695491Y-94846987D01*
X116378566Y-94635225D01*
X116026419Y-94489361D01*
X115652581Y-94415000D01*
X115271419Y-94415000D01*
X114897581Y-94489361D01*
X114545434Y-94635225D01*
X114228509Y-94846987D01*
X113958987Y-95116509D01*
X113747225Y-95433434D01*
X113601361Y-95785581D01*
X113527000Y-96159419D01*
X112397000Y-96159419D01*
X112322639Y-95785581D01*
X112176775Y-95433434D01*
X111965013Y-95116509D01*
X111695491Y-94846987D01*
X111378566Y-94635225D01*
X111026419Y-94489361D01*
X110652581Y-94415000D01*
X110271419Y-94415000D01*
X109897581Y-94489361D01*
X109545434Y-94635225D01*
X109228509Y-94846987D01*
X108958987Y-95116509D01*
X108747225Y-95433434D01*
X108601361Y-95785581D01*
X108527000Y-96159419D01*
X107397000Y-96159419D01*
X107322639Y-95785581D01*
X107176775Y-95433434D01*
X106965013Y-95116509D01*
X106695491Y-94846987D01*
X106378566Y-94635225D01*
X106026419Y-94489361D01*
X105652581Y-94415000D01*
X105271419Y-94415000D01*
X104897581Y-94489361D01*
X104545434Y-94635225D01*
X104228509Y-94846987D01*
X103958987Y-95116509D01*
X103747225Y-95433434D01*
X103601361Y-95785581D01*
X103527000Y-96159419D01*
X102397000Y-96159419D01*
X102322639Y-95785581D01*
X102176775Y-95433434D01*
X101965013Y-95116509D01*
X101695491Y-94846987D01*
X101378566Y-94635225D01*
X101026419Y-94489361D01*
X100652581Y-94415000D01*
X100271419Y-94415000D01*
X99897581Y-94489361D01*
X99545434Y-94635225D01*
X99228509Y-94846987D01*
X98958987Y-95116509D01*
X98747225Y-95433434D01*
X98601361Y-95785581D01*
X98527000Y-96159419D01*
X97397000Y-96159419D01*
X97322639Y-95785581D01*
X97176775Y-95433434D01*
X96965013Y-95116509D01*
X96695491Y-94846987D01*
X96378566Y-94635225D01*
X96026419Y-94489361D01*
X95652581Y-94415000D01*
X95271419Y-94415000D01*
X94897581Y-94489361D01*
X94545434Y-94635225D01*
X94228509Y-94846987D01*
X93958987Y-95116509D01*
X93747225Y-95433434D01*
X93601361Y-95785581D01*
X93527000Y-96159419D01*
X92397000Y-96159419D01*
X92322639Y-95785581D01*
X92176775Y-95433434D01*
X91965013Y-95116509D01*
X91695491Y-94846987D01*
X91378566Y-94635225D01*
X91026419Y-94489361D01*
X90652581Y-94415000D01*
X90271419Y-94415000D01*
X89897581Y-94489361D01*
X89545434Y-94635225D01*
X89228509Y-94846987D01*
X88958987Y-95116509D01*
X88747225Y-95433434D01*
X88601361Y-95785581D01*
X88527000Y-96159419D01*
X87397000Y-96159419D01*
X87322639Y-95785581D01*
X87176775Y-95433434D01*
X86965013Y-95116509D01*
X86695491Y-94846987D01*
X86378566Y-94635225D01*
X86026419Y-94489361D01*
X85652581Y-94415000D01*
X85271419Y-94415000D01*
X84897581Y-94489361D01*
X84545434Y-94635225D01*
X84228509Y-94846987D01*
X83958987Y-95116509D01*
X83747225Y-95433434D01*
X83601361Y-95785581D01*
X83527000Y-96159419D01*
X82400072Y-96159419D01*
X82400072Y-95050000D01*
X82387812Y-94925518D01*
X82351502Y-94805820D01*
X82292537Y-94695506D01*
X82213185Y-94598815D01*
X82116494Y-94519463D01*
X82006180Y-94460498D01*
X81886482Y-94424188D01*
X81762000Y-94411928D01*
X79162000Y-94411928D01*
X79037518Y-94424188D01*
X78917820Y-94460498D01*
X78807506Y-94519463D01*
X78710815Y-94598815D01*
X78631463Y-94695506D01*
X78572498Y-94805820D01*
X78536188Y-94925518D01*
X78523928Y-95050000D01*
X76113668Y-95050000D01*
X76057093Y-94993425D01*
X75528558Y-94640270D01*
X74941281Y-94397012D01*
X74317832Y-94273000D01*
X73682168Y-94273000D01*
X73058719Y-94397012D01*
X72471442Y-94640270D01*
X71942907Y-94993425D01*
X71493425Y-95442907D01*
X71185000Y-95904499D01*
X71185000Y-82533505D01*
X71194222Y-82439453D01*
X71211805Y-82381214D01*
X71240366Y-82327499D01*
X71278816Y-82280354D01*
X71325691Y-82241576D01*
X71379204Y-82212642D01*
X71437323Y-82194651D01*
X71529145Y-82185000D01*
X74533647Y-82185000D01*
X74562955Y-82182113D01*
X74569066Y-82182156D01*
X74578585Y-82181223D01*
X74772682Y-82160822D01*
X74833496Y-82148339D01*
X74894481Y-82136705D01*
X74903637Y-82133941D01*
X75090075Y-82076229D01*
X75147279Y-82052182D01*
X75204873Y-82028913D01*
X75213317Y-82024423D01*
X75384994Y-81931598D01*
X75436468Y-81896878D01*
X75488418Y-81862883D01*
X75495829Y-81856839D01*
X75646207Y-81732435D01*
X75689973Y-81688362D01*
X75734311Y-81644943D01*
X75740408Y-81637574D01*
X75863758Y-81486332D01*
X75898126Y-81434603D01*
X75933191Y-81383392D01*
X75937739Y-81374981D01*
X75937740Y-81374980D01*
X75937742Y-81374976D01*
X76029366Y-81202657D01*
X76053022Y-81145261D01*
X76077482Y-81088193D01*
X76080310Y-81079056D01*
X76136719Y-80892220D01*
X76148780Y-80831310D01*
X76161686Y-80770591D01*
X76162686Y-80761079D01*
X76181731Y-80566845D01*
X76181731Y-80566837D01*
X76185000Y-80533647D01*
X76185000Y-65466353D01*
X76182113Y-65437045D01*
X76182156Y-65430933D01*
X76181223Y-65421415D01*
X76160822Y-65227318D01*
X76148339Y-65166504D01*
X76136705Y-65105519D01*
X76133941Y-65096363D01*
X76076229Y-64909925D01*
X76052170Y-64852692D01*
X76028913Y-64795127D01*
X76024423Y-64786682D01*
X75931598Y-64615006D01*
X75896878Y-64563532D01*
X75862883Y-64511582D01*
X75856838Y-64504170D01*
X75732435Y-64353793D01*
X75688362Y-64310027D01*
X75644943Y-64265689D01*
X75637574Y-64259592D01*
X75486332Y-64136242D01*
X75434614Y-64101881D01*
X75383393Y-64066809D01*
X75374980Y-64062260D01*
X75202657Y-63970635D01*
X75145261Y-63946978D01*
X75088193Y-63922519D01*
X75079057Y-63919690D01*
X74892220Y-63863281D01*
X74831302Y-63851219D01*
X74770590Y-63838314D01*
X74761078Y-63837314D01*
X74566845Y-63818269D01*
X74566837Y-63818269D01*
X74533647Y-63815000D01*
X71533505Y-63815000D01*
X71439454Y-63805778D01*
X71381213Y-63788194D01*
X71327500Y-63759635D01*
X71280354Y-63721183D01*
X71241577Y-63674310D01*
X71212642Y-63620796D01*
X71194651Y-63562677D01*
X71185000Y-63470855D01*
X71185000Y-52950000D01*
X72811928Y-52950000D01*
X72815000Y-53714250D01*
X72973750Y-53873000D01*
X74373000Y-53873000D01*
X74373000Y-52473750D01*
X74627000Y-52473750D01*
X74627000Y-53873000D01*
X76026250Y-53873000D01*
X76185000Y-53714250D01*
X76188072Y-52950000D01*
X76175812Y-52825518D01*
X76139502Y-52705820D01*
X76080537Y-52595506D01*
X76001185Y-52498815D01*
X75904494Y-52419463D01*
X75794180Y-52360498D01*
X75674482Y-52324188D01*
X75550000Y-52311928D01*
X74785750Y-52315000D01*
X74627000Y-52473750D01*
X74373000Y-52473750D01*
X74214250Y-52315000D01*
X73450000Y-52311928D01*
X73325518Y-52324188D01*
X73205820Y-52360498D01*
X73095506Y-52419463D01*
X72998815Y-52498815D01*
X72919463Y-52595506D01*
X72860498Y-52705820D01*
X72824188Y-52825518D01*
X72811928Y-52950000D01*
X71185000Y-52950000D01*
X71185000Y-50095501D01*
X71493425Y-50557093D01*
X71942907Y-51006575D01*
X72471442Y-51359730D01*
X73058719Y-51602988D01*
X73682168Y-51727000D01*
X74317832Y-51727000D01*
X74941281Y-51602988D01*
X75528558Y-51359730D01*
X76057093Y-51006575D01*
X76506575Y-50557093D01*
X76859730Y-50028558D01*
X77102988Y-49441281D01*
X77227000Y-48817832D01*
X77227000Y-48182168D01*
X77102988Y-47558719D01*
X76859730Y-46971442D01*
X76506575Y-46442907D01*
X76057093Y-45993425D01*
X75595501Y-45685000D01*
X130404499Y-45685000D01*
X129942907Y-45993425D01*
G37*
%TD.AperFunction*%
D28*
X118577000Y-68106576D02*
X118577001Y-83615000D01*
X118469911Y-83615000D01*
X118289271Y-83650932D01*
X118119111Y-83721414D01*
X117965972Y-83823738D01*
X117875754Y-83913956D01*
X117929932Y-83783158D01*
X117987000Y-83496260D01*
X117987000Y-83203740D01*
X117929932Y-82916842D01*
X117817990Y-82646589D01*
X117655475Y-82403368D01*
X117448632Y-82196525D01*
X117205411Y-82034010D01*
X116935158Y-81922068D01*
X116648260Y-81865000D01*
X116355740Y-81865000D01*
X116068842Y-81922068D01*
X115798589Y-82034010D01*
X115555368Y-82196525D01*
X115423513Y-82328380D01*
X115401502Y-82255820D01*
X115342537Y-82145506D01*
X115263185Y-82048815D01*
X115166494Y-81969463D01*
X115056180Y-81910498D01*
X114936482Y-81874188D01*
X114812000Y-81861928D01*
X114797000Y-81861928D01*
X114797000Y-79723275D01*
X114904889Y-79678586D01*
X115058028Y-79576262D01*
X115188262Y-79446028D01*
X115290586Y-79292889D01*
X115361068Y-79122729D01*
X115397000Y-78942089D01*
X115397000Y-78757911D01*
X115361068Y-78577271D01*
X115290586Y-78407111D01*
X115188262Y-78253972D01*
X115077290Y-78143000D01*
X115330335Y-78143000D01*
X115607574Y-78087853D01*
X115868727Y-77979680D01*
X116103759Y-77822637D01*
X116303637Y-77622759D01*
X116460680Y-77387727D01*
X116568853Y-77126574D01*
X116624000Y-76849335D01*
X116624000Y-76566665D01*
X116568853Y-76289426D01*
X116460680Y-76028273D01*
X116303637Y-75793241D01*
X116103759Y-75593363D01*
X115871241Y-75438000D01*
X116103759Y-75282637D01*
X116303637Y-75082759D01*
X116460680Y-74847727D01*
X116568853Y-74586574D01*
X116624000Y-74309335D01*
X116624000Y-74026665D01*
X116568853Y-73749426D01*
X116460680Y-73488273D01*
X116303637Y-73253241D01*
X116103759Y-73053363D01*
X115871241Y-72898000D01*
X116103759Y-72742637D01*
X116303637Y-72542759D01*
X116460680Y-72307727D01*
X116568853Y-72046574D01*
X116624000Y-71769335D01*
X116624000Y-71486665D01*
X116568853Y-71209426D01*
X116460680Y-70948273D01*
X116448514Y-70930066D01*
X118197049Y-69181532D01*
X118230817Y-69153819D01*
X118341411Y-69019061D01*
X118423589Y-68865315D01*
X118474195Y-68698492D01*
X118487000Y-68568479D01*
X118487000Y-68568471D01*
X118491281Y-68525002D01*
X118487000Y-68481533D01*
X118487000Y-68016576D01*
X118577000Y-68106576D01*
%TA.AperFunction,Conductor*%
D29*
G36*
X118577000Y-68106576D02*
G01*
X118577001Y-83615000D01*
X118469911Y-83615000D01*
X118289271Y-83650932D01*
X118119111Y-83721414D01*
X117965972Y-83823738D01*
X117875754Y-83913956D01*
X117929932Y-83783158D01*
X117987000Y-83496260D01*
X117987000Y-83203740D01*
X117929932Y-82916842D01*
X117817990Y-82646589D01*
X117655475Y-82403368D01*
X117448632Y-82196525D01*
X117205411Y-82034010D01*
X116935158Y-81922068D01*
X116648260Y-81865000D01*
X116355740Y-81865000D01*
X116068842Y-81922068D01*
X115798589Y-82034010D01*
X115555368Y-82196525D01*
X115423513Y-82328380D01*
X115401502Y-82255820D01*
X115342537Y-82145506D01*
X115263185Y-82048815D01*
X115166494Y-81969463D01*
X115056180Y-81910498D01*
X114936482Y-81874188D01*
X114812000Y-81861928D01*
X114797000Y-81861928D01*
X114797000Y-79723275D01*
X114904889Y-79678586D01*
X115058028Y-79576262D01*
X115188262Y-79446028D01*
X115290586Y-79292889D01*
X115361068Y-79122729D01*
X115397000Y-78942089D01*
X115397000Y-78757911D01*
X115361068Y-78577271D01*
X115290586Y-78407111D01*
X115188262Y-78253972D01*
X115077290Y-78143000D01*
X115330335Y-78143000D01*
X115607574Y-78087853D01*
X115868727Y-77979680D01*
X116103759Y-77822637D01*
X116303637Y-77622759D01*
X116460680Y-77387727D01*
X116568853Y-77126574D01*
X116624000Y-76849335D01*
X116624000Y-76566665D01*
X116568853Y-76289426D01*
X116460680Y-76028273D01*
X116303637Y-75793241D01*
X116103759Y-75593363D01*
X115871241Y-75438000D01*
X116103759Y-75282637D01*
X116303637Y-75082759D01*
X116460680Y-74847727D01*
X116568853Y-74586574D01*
X116624000Y-74309335D01*
X116624000Y-74026665D01*
X116568853Y-73749426D01*
X116460680Y-73488273D01*
X116303637Y-73253241D01*
X116103759Y-73053363D01*
X115871241Y-72898000D01*
X116103759Y-72742637D01*
X116303637Y-72542759D01*
X116460680Y-72307727D01*
X116568853Y-72046574D01*
X116624000Y-71769335D01*
X116624000Y-71486665D01*
X116568853Y-71209426D01*
X116460680Y-70948273D01*
X116448514Y-70930066D01*
X118197049Y-69181532D01*
X118230817Y-69153819D01*
X118341411Y-69019061D01*
X118423589Y-68865315D01*
X118474195Y-68698492D01*
X118487000Y-68568479D01*
X118487000Y-68568471D01*
X118491281Y-68525002D01*
X118487000Y-68481533D01*
X118487000Y-68016576D01*
X118577000Y-68106576D01*
G37*
%TD.AperFunction*%
D28*
X113754000Y-71486665D02*
X113754000Y-71769335D01*
X113809147Y-72046574D01*
X113917320Y-72307727D01*
X114074363Y-72542759D01*
X114274241Y-72742637D01*
X114506759Y-72898000D01*
X114274241Y-73053363D01*
X114074363Y-73253241D01*
X113917320Y-73488273D01*
X113809147Y-73749426D01*
X113754000Y-74026665D01*
X113754000Y-74309335D01*
X113809147Y-74586574D01*
X113917320Y-74847727D01*
X114074363Y-75082759D01*
X114274241Y-75282637D01*
X114506759Y-75438000D01*
X114274241Y-75593363D01*
X114074363Y-75793241D01*
X113917320Y-76028273D01*
X113809147Y-76289426D01*
X113754000Y-76566665D01*
X113754000Y-76849335D01*
X113809147Y-77126574D01*
X113917320Y-77387727D01*
X114074363Y-77622759D01*
X114274241Y-77822637D01*
X114412472Y-77915000D01*
X114369911Y-77915000D01*
X114189271Y-77950932D01*
X114019111Y-78021414D01*
X113865972Y-78123738D01*
X113735738Y-78253972D01*
X113633414Y-78407111D01*
X113569346Y-78561787D01*
X113509166Y-78621967D01*
X113573900Y-78296528D01*
X113573900Y-77856272D01*
X113488010Y-77424475D01*
X113319531Y-77017731D01*
X113074938Y-76651671D01*
X112763629Y-76340362D01*
X112397569Y-76095769D01*
X111990825Y-75927290D01*
X111559028Y-75841400D01*
X111118772Y-75841400D01*
X110686975Y-75927290D01*
X110280231Y-76095769D01*
X109914171Y-76340362D01*
X109602862Y-76651671D01*
X109358269Y-77017731D01*
X109297000Y-77165647D01*
X109297000Y-71872456D01*
X109360061Y-71885000D01*
X109427000Y-71885000D01*
X109427000Y-71951939D01*
X109466774Y-72151898D01*
X109544795Y-72340256D01*
X109658063Y-72509774D01*
X109802226Y-72653937D01*
X109971744Y-72767205D01*
X110160102Y-72845226D01*
X110360061Y-72885000D01*
X110563939Y-72885000D01*
X110763898Y-72845226D01*
X110952256Y-72767205D01*
X111121774Y-72653937D01*
X111265937Y-72509774D01*
X111379205Y-72340256D01*
X111457226Y-72151898D01*
X111468535Y-72095043D01*
X112340578Y-71223001D01*
X113806447Y-71223001D01*
X113754000Y-71486665D01*
%TA.AperFunction,Conductor*%
D29*
G36*
X113754000Y-71486665D02*
G01*
X113754000Y-71769335D01*
X113809147Y-72046574D01*
X113917320Y-72307727D01*
X114074363Y-72542759D01*
X114274241Y-72742637D01*
X114506759Y-72898000D01*
X114274241Y-73053363D01*
X114074363Y-73253241D01*
X113917320Y-73488273D01*
X113809147Y-73749426D01*
X113754000Y-74026665D01*
X113754000Y-74309335D01*
X113809147Y-74586574D01*
X113917320Y-74847727D01*
X114074363Y-75082759D01*
X114274241Y-75282637D01*
X114506759Y-75438000D01*
X114274241Y-75593363D01*
X114074363Y-75793241D01*
X113917320Y-76028273D01*
X113809147Y-76289426D01*
X113754000Y-76566665D01*
X113754000Y-76849335D01*
X113809147Y-77126574D01*
X113917320Y-77387727D01*
X114074363Y-77622759D01*
X114274241Y-77822637D01*
X114412472Y-77915000D01*
X114369911Y-77915000D01*
X114189271Y-77950932D01*
X114019111Y-78021414D01*
X113865972Y-78123738D01*
X113735738Y-78253972D01*
X113633414Y-78407111D01*
X113569346Y-78561787D01*
X113509166Y-78621967D01*
X113573900Y-78296528D01*
X113573900Y-77856272D01*
X113488010Y-77424475D01*
X113319531Y-77017731D01*
X113074938Y-76651671D01*
X112763629Y-76340362D01*
X112397569Y-76095769D01*
X111990825Y-75927290D01*
X111559028Y-75841400D01*
X111118772Y-75841400D01*
X110686975Y-75927290D01*
X110280231Y-76095769D01*
X109914171Y-76340362D01*
X109602862Y-76651671D01*
X109358269Y-77017731D01*
X109297000Y-77165647D01*
X109297000Y-71872456D01*
X109360061Y-71885000D01*
X109427000Y-71885000D01*
X109427000Y-71951939D01*
X109466774Y-72151898D01*
X109544795Y-72340256D01*
X109658063Y-72509774D01*
X109802226Y-72653937D01*
X109971744Y-72767205D01*
X110160102Y-72845226D01*
X110360061Y-72885000D01*
X110563939Y-72885000D01*
X110763898Y-72845226D01*
X110952256Y-72767205D01*
X111121774Y-72653937D01*
X111265937Y-72509774D01*
X111379205Y-72340256D01*
X111457226Y-72151898D01*
X111468535Y-72095043D01*
X112340578Y-71223001D01*
X113806447Y-71223001D01*
X113754000Y-71486665D01*
G37*
%TD.AperFunction*%
D28*
X109477000Y-49643000D02*
X109497000Y-49643000D01*
X109497000Y-49897000D01*
X109477000Y-49897000D01*
X109477000Y-51090155D01*
X109706890Y-51211476D01*
X109854099Y-51166825D01*
X110084308Y-51057175D01*
X112898557Y-53871424D01*
X112866260Y-53865000D01*
X112573740Y-53865000D01*
X112286842Y-53922068D01*
X112016589Y-54034010D01*
X111773368Y-54196525D01*
X111699341Y-54270552D01*
X111688262Y-54253972D01*
X111558028Y-54123738D01*
X111404889Y-54021414D01*
X111234729Y-53950932D01*
X111054089Y-53915000D01*
X110869911Y-53915000D01*
X110689271Y-53950932D01*
X110519111Y-54021414D01*
X110365972Y-54123738D01*
X110235738Y-54253972D01*
X110133414Y-54407111D01*
X110062932Y-54577271D01*
X110047627Y-54654216D01*
X109472185Y-55229658D01*
X109442237Y-55254236D01*
X109417659Y-55284184D01*
X109417655Y-55284188D01*
X109397308Y-55308981D01*
X109344139Y-55373767D01*
X109305515Y-55446028D01*
X109297000Y-55461959D01*
X109297000Y-52102007D01*
X109301039Y-52060999D01*
X109297000Y-52019991D01*
X109297000Y-52019981D01*
X109284918Y-51897311D01*
X109237172Y-51739913D01*
X109159636Y-51594854D01*
X109055291Y-51467709D01*
X109023421Y-51441554D01*
X108895001Y-51313134D01*
X108895001Y-51181718D01*
X108993110Y-51211476D01*
X109223000Y-51090155D01*
X109223000Y-49897000D01*
X109203000Y-49897000D01*
X109203000Y-49643000D01*
X109223000Y-49643000D01*
X109223000Y-49623000D01*
X109477000Y-49623000D01*
X109477000Y-49643000D01*
%TA.AperFunction,Conductor*%
D29*
G36*
X109477000Y-49643000D02*
G01*
X109497000Y-49643000D01*
X109497000Y-49897000D01*
X109477000Y-49897000D01*
X109477000Y-51090155D01*
X109706890Y-51211476D01*
X109854099Y-51166825D01*
X110084308Y-51057175D01*
X112898557Y-53871424D01*
X112866260Y-53865000D01*
X112573740Y-53865000D01*
X112286842Y-53922068D01*
X112016589Y-54034010D01*
X111773368Y-54196525D01*
X111699341Y-54270552D01*
X111688262Y-54253972D01*
X111558028Y-54123738D01*
X111404889Y-54021414D01*
X111234729Y-53950932D01*
X111054089Y-53915000D01*
X110869911Y-53915000D01*
X110689271Y-53950932D01*
X110519111Y-54021414D01*
X110365972Y-54123738D01*
X110235738Y-54253972D01*
X110133414Y-54407111D01*
X110062932Y-54577271D01*
X110047627Y-54654216D01*
X109472185Y-55229658D01*
X109442237Y-55254236D01*
X109417659Y-55284184D01*
X109417655Y-55284188D01*
X109397308Y-55308981D01*
X109344139Y-55373767D01*
X109305515Y-55446028D01*
X109297000Y-55461959D01*
X109297000Y-52102007D01*
X109301039Y-52060999D01*
X109297000Y-52019991D01*
X109297000Y-52019981D01*
X109284918Y-51897311D01*
X109237172Y-51739913D01*
X109159636Y-51594854D01*
X109055291Y-51467709D01*
X109023421Y-51441554D01*
X108895001Y-51313134D01*
X108895001Y-51181718D01*
X108993110Y-51211476D01*
X109223000Y-51090155D01*
X109223000Y-49897000D01*
X109203000Y-49897000D01*
X109203000Y-49643000D01*
X109223000Y-49643000D01*
X109223000Y-49623000D01*
X109477000Y-49623000D01*
X109477000Y-49643000D01*
G37*
%TD.AperFunction*%
D28*
X87876525Y-48176632D02*
X88083368Y-48383475D01*
X88259406Y-48501100D01*
X88029731Y-48672412D01*
X87834822Y-48888645D01*
X87765195Y-49005534D01*
X87643475Y-48823368D01*
X87436632Y-48616525D01*
X87262240Y-48500000D01*
X87436632Y-48383475D01*
X87643475Y-48176632D01*
X87760000Y-48002240D01*
X87876525Y-48176632D01*
%TA.AperFunction,Conductor*%
D29*
G36*
X87876525Y-48176632D02*
G01*
X88083368Y-48383475D01*
X88259406Y-48501100D01*
X88029731Y-48672412D01*
X87834822Y-48888645D01*
X87765195Y-49005534D01*
X87643475Y-48823368D01*
X87436632Y-48616525D01*
X87262240Y-48500000D01*
X87436632Y-48383475D01*
X87643475Y-48176632D01*
X87760000Y-48002240D01*
X87876525Y-48176632D01*
G37*
%TD.AperFunction*%
D28*
X85336525Y-48176632D02*
X85543368Y-48383475D01*
X85717760Y-48500000D01*
X85543368Y-48616525D01*
X85336525Y-48823368D01*
X85220000Y-48997760D01*
X85103475Y-48823368D01*
X84896632Y-48616525D01*
X84720594Y-48498900D01*
X84950269Y-48327588D01*
X85145178Y-48111355D01*
X85214805Y-47994466D01*
X85336525Y-48176632D01*
%TA.AperFunction,Conductor*%
D29*
G36*
X85336525Y-48176632D02*
G01*
X85543368Y-48383475D01*
X85717760Y-48500000D01*
X85543368Y-48616525D01*
X85336525Y-48823368D01*
X85220000Y-48997760D01*
X85103475Y-48823368D01*
X84896632Y-48616525D01*
X84720594Y-48498900D01*
X84950269Y-48327588D01*
X85145178Y-48111355D01*
X85214805Y-47994466D01*
X85336525Y-48176632D01*
G37*
%TD.AperFunction*%
D28*
X82754822Y-48111355D02*
X82949731Y-48327588D01*
X83179406Y-48498900D01*
X83003368Y-48616525D01*
X82796525Y-48823368D01*
X82680000Y-48997760D01*
X82563475Y-48823368D01*
X82356632Y-48616525D01*
X82182240Y-48500000D01*
X82356632Y-48383475D01*
X82563475Y-48176632D01*
X82685195Y-47994466D01*
X82754822Y-48111355D01*
%TA.AperFunction,Conductor*%
D29*
G36*
X82754822Y-48111355D02*
G01*
X82949731Y-48327588D01*
X83179406Y-48498900D01*
X83003368Y-48616525D01*
X82796525Y-48823368D01*
X82680000Y-48997760D01*
X82563475Y-48823368D01*
X82356632Y-48616525D01*
X82182240Y-48500000D01*
X82356632Y-48383475D01*
X82563475Y-48176632D01*
X82685195Y-47994466D01*
X82754822Y-48111355D01*
G37*
%TD.AperFunction*%
%TD*%
M02*
