%TF.GenerationSoftware,KiCad,Pcbnew,(5.1.9)-1*%
%TF.CreationDate,2021-03-07T19:12:45-05:00*%
%TF.ProjectId,bigp4ppa,62696770-3470-4706-912e-6b696361645f,rev?*%
%TF.SameCoordinates,Original*%
%TF.FileFunction,Other,Fab,Bot*%
%FSLAX46Y46*%
G04 Gerber Fmt 4.6, Leading zero omitted, Abs format (unit mm)*
G04 Created by KiCad (PCBNEW (5.1.9)-1) date 2021-03-07 19:12:45*
%MOMM*%
%LPD*%
G01*
G04 APERTURE LIST*
%ADD10C,0.100000*%
%ADD11C,0.150000*%
%ADD12C,0.075000*%
G04 APERTURE END LIST*
D10*
%TO.C,Q6*%
X132457000Y-61800000D02*
X132457000Y-63200000D01*
X129417000Y-63200000D02*
X132457000Y-63200000D01*
X129987000Y-61800000D02*
X129417000Y-62350000D01*
X129417000Y-62350000D02*
X129417000Y-63200000D01*
X129987000Y-61800000D02*
X132437000Y-61800000D01*
%TO.C,J2*%
X128400000Y-45960000D02*
X77600000Y-45960000D01*
X128400000Y-51040000D02*
X128400000Y-45960000D01*
X78600000Y-51040000D02*
X128400000Y-51040000D01*
X77600000Y-50040000D02*
X78600000Y-51040000D01*
X77600000Y-45960000D02*
X77600000Y-50040000D01*
%TO.C,D5*%
X121600000Y-93750000D02*
X124400000Y-93750000D01*
X124400000Y-93750000D02*
X124400000Y-91950000D01*
X124400000Y-91950000D02*
X121600000Y-91950000D01*
X121600000Y-91950000D02*
X121600000Y-93750000D01*
X122250000Y-92850000D02*
X122650000Y-92850000D01*
X122650000Y-92850000D02*
X122650000Y-93400000D01*
X122650000Y-92850000D02*
X122650000Y-92300000D01*
X122650000Y-92850000D02*
X123250000Y-93250000D01*
X123250000Y-93250000D02*
X123250000Y-92450000D01*
X123250000Y-92450000D02*
X122650000Y-92850000D01*
X123250000Y-92850000D02*
X123750000Y-92850000D01*
%TO.C,D4*%
X111600000Y-93750000D02*
X114400000Y-93750000D01*
X114400000Y-93750000D02*
X114400000Y-91950000D01*
X114400000Y-91950000D02*
X111600000Y-91950000D01*
X111600000Y-91950000D02*
X111600000Y-93750000D01*
X112250000Y-92850000D02*
X112650000Y-92850000D01*
X112650000Y-92850000D02*
X112650000Y-93400000D01*
X112650000Y-92850000D02*
X112650000Y-92300000D01*
X112650000Y-92850000D02*
X113250000Y-93250000D01*
X113250000Y-93250000D02*
X113250000Y-92450000D01*
X113250000Y-92450000D02*
X112650000Y-92850000D01*
X113250000Y-92850000D02*
X113750000Y-92850000D01*
%TO.C,D3*%
X101500000Y-93750000D02*
X104300000Y-93750000D01*
X104300000Y-93750000D02*
X104300000Y-91950000D01*
X104300000Y-91950000D02*
X101500000Y-91950000D01*
X101500000Y-91950000D02*
X101500000Y-93750000D01*
X102150000Y-92850000D02*
X102550000Y-92850000D01*
X102550000Y-92850000D02*
X102550000Y-93400000D01*
X102550000Y-92850000D02*
X102550000Y-92300000D01*
X102550000Y-92850000D02*
X103150000Y-93250000D01*
X103150000Y-93250000D02*
X103150000Y-92450000D01*
X103150000Y-92450000D02*
X102550000Y-92850000D01*
X103150000Y-92850000D02*
X103650000Y-92850000D01*
%TO.C,D2*%
X91700000Y-93750000D02*
X94500000Y-93750000D01*
X94500000Y-93750000D02*
X94500000Y-91950000D01*
X94500000Y-91950000D02*
X91700000Y-91950000D01*
X91700000Y-91950000D02*
X91700000Y-93750000D01*
X92350000Y-92850000D02*
X92750000Y-92850000D01*
X92750000Y-92850000D02*
X92750000Y-93400000D01*
X92750000Y-92850000D02*
X92750000Y-92300000D01*
X92750000Y-92850000D02*
X93350000Y-93250000D01*
X93350000Y-93250000D02*
X93350000Y-92450000D01*
X93350000Y-92450000D02*
X92750000Y-92850000D01*
X93350000Y-92850000D02*
X93850000Y-92850000D01*
%TO.C,D1*%
X81600000Y-93750000D02*
X84400000Y-93750000D01*
X84400000Y-93750000D02*
X84400000Y-91950000D01*
X84400000Y-91950000D02*
X81600000Y-91950000D01*
X81600000Y-91950000D02*
X81600000Y-93750000D01*
X82250000Y-92850000D02*
X82650000Y-92850000D01*
X82650000Y-92850000D02*
X82650000Y-93400000D01*
X82650000Y-92850000D02*
X82650000Y-92300000D01*
X82650000Y-92850000D02*
X83250000Y-93250000D01*
X83250000Y-93250000D02*
X83250000Y-92450000D01*
X83250000Y-92450000D02*
X82650000Y-92850000D01*
X83250000Y-92850000D02*
X83750000Y-92850000D01*
%TO.C,Q1*%
X129550000Y-67300000D02*
X132000000Y-67300000D01*
X128980000Y-67850000D02*
X128980000Y-68700000D01*
X129550000Y-67300000D02*
X128980000Y-67850000D01*
X128980000Y-68700000D02*
X132020000Y-68700000D01*
X132020000Y-67300000D02*
X132020000Y-68700000D01*
%TO.C,Q5*%
X119884000Y-61800000D02*
X119884000Y-63200000D01*
X116844000Y-63200000D02*
X119884000Y-63200000D01*
X117414000Y-61800000D02*
X116844000Y-62350000D01*
X116844000Y-62350000D02*
X116844000Y-63200000D01*
X117414000Y-61800000D02*
X119864000Y-61800000D01*
%TO.C,Q4*%
X125520000Y-61800000D02*
X125520000Y-63200000D01*
X122480000Y-63200000D02*
X125520000Y-63200000D01*
X123050000Y-61800000D02*
X122480000Y-62350000D01*
X122480000Y-62350000D02*
X122480000Y-63200000D01*
X123050000Y-61800000D02*
X125500000Y-61800000D01*
%TO.C,Q3*%
X112520000Y-61800000D02*
X112520000Y-63200000D01*
X109480000Y-63200000D02*
X112520000Y-63200000D01*
X110050000Y-61800000D02*
X109480000Y-62350000D01*
X109480000Y-62350000D02*
X109480000Y-63200000D01*
X110050000Y-61800000D02*
X112500000Y-61800000D01*
D11*
%TO.C,*%
X133375000Y-48500000D02*
G75*
G03*
X133375000Y-48500000I-1375000J0D01*
G01*
X135100000Y-48500000D02*
G75*
G03*
X135100000Y-48500000I-3100000J0D01*
G01*
X133375000Y-97500000D02*
G75*
G03*
X133375000Y-97500000I-1375000J0D01*
G01*
X135100000Y-97500000D02*
G75*
G03*
X135100000Y-97500000I-3100000J0D01*
G01*
X75375000Y-97500000D02*
G75*
G03*
X75375000Y-97500000I-1375000J0D01*
G01*
X77100000Y-97500000D02*
G75*
G03*
X77100000Y-97500000I-3100000J0D01*
G01*
X75375000Y-48500000D02*
G75*
G03*
X75375000Y-48500000I-1375000J0D01*
G01*
X77100000Y-48500000D02*
G75*
G03*
X77100000Y-48500000I-3100000J0D01*
G01*
%TD*%
%TO.C,Q6*%
X133603666Y-59833333D02*
X133603666Y-60309523D01*
X133889380Y-59738095D02*
X132889380Y-60071428D01*
X133889380Y-60404761D01*
X132889380Y-60928571D02*
X132889380Y-61119047D01*
X132937000Y-61214285D01*
X133032238Y-61309523D01*
X133222714Y-61357142D01*
X133556047Y-61357142D01*
X133746523Y-61309523D01*
X133841761Y-61214285D01*
X133889380Y-61119047D01*
X133889380Y-60928571D01*
X133841761Y-60833333D01*
X133746523Y-60738095D01*
X133556047Y-60690476D01*
X133222714Y-60690476D01*
X133032238Y-60738095D01*
X132937000Y-60833333D01*
X132889380Y-60928571D01*
X132889380Y-61690476D02*
X132889380Y-62309523D01*
X133270333Y-61976190D01*
X133270333Y-62119047D01*
X133317952Y-62214285D01*
X133365571Y-62261904D01*
X133460809Y-62309523D01*
X133698904Y-62309523D01*
X133794142Y-62261904D01*
X133841761Y-62214285D01*
X133889380Y-62119047D01*
X133889380Y-61833333D01*
X133841761Y-61738095D01*
X133794142Y-61690476D01*
X133222714Y-63166666D02*
X133889380Y-63166666D01*
X132841761Y-62928571D02*
X133556047Y-62690476D01*
X133556047Y-63309523D01*
X132889380Y-63880952D02*
X132889380Y-63976190D01*
X132937000Y-64071428D01*
X132984619Y-64119047D01*
X133079857Y-64166666D01*
X133270333Y-64214285D01*
X133508428Y-64214285D01*
X133698904Y-64166666D01*
X133794142Y-64119047D01*
X133841761Y-64071428D01*
X133889380Y-63976190D01*
X133889380Y-63880952D01*
X133841761Y-63785714D01*
X133794142Y-63738095D01*
X133698904Y-63690476D01*
X133508428Y-63642857D01*
X133270333Y-63642857D01*
X133079857Y-63690476D01*
X132984619Y-63738095D01*
X132937000Y-63785714D01*
X132889380Y-63880952D01*
X132984619Y-64595238D02*
X132937000Y-64642857D01*
X132889380Y-64738095D01*
X132889380Y-64976190D01*
X132937000Y-65071428D01*
X132984619Y-65119047D01*
X133079857Y-65166666D01*
X133175095Y-65166666D01*
X133317952Y-65119047D01*
X133889380Y-64547619D01*
X133889380Y-65166666D01*
D12*
X130984619Y-62773809D02*
X131032238Y-62750000D01*
X131079857Y-62702380D01*
X131151285Y-62630952D01*
X131198904Y-62607142D01*
X131246523Y-62607142D01*
X131222714Y-62726190D02*
X131270333Y-62702380D01*
X131317952Y-62654761D01*
X131341761Y-62559523D01*
X131341761Y-62392857D01*
X131317952Y-62297619D01*
X131270333Y-62250000D01*
X131222714Y-62226190D01*
X131127476Y-62226190D01*
X131079857Y-62250000D01*
X131032238Y-62297619D01*
X131008428Y-62392857D01*
X131008428Y-62559523D01*
X131032238Y-62654761D01*
X131079857Y-62702380D01*
X131127476Y-62726190D01*
X131222714Y-62726190D01*
X130579857Y-62226190D02*
X130675095Y-62226190D01*
X130722714Y-62250000D01*
X130746523Y-62273809D01*
X130794142Y-62345238D01*
X130817952Y-62440476D01*
X130817952Y-62630952D01*
X130794142Y-62678571D01*
X130770333Y-62702380D01*
X130722714Y-62726190D01*
X130627476Y-62726190D01*
X130579857Y-62702380D01*
X130556047Y-62678571D01*
X130532238Y-62630952D01*
X130532238Y-62511904D01*
X130556047Y-62464285D01*
X130579857Y-62440476D01*
X130627476Y-62416666D01*
X130722714Y-62416666D01*
X130770333Y-62440476D01*
X130794142Y-62464285D01*
X130817952Y-62511904D01*
%TO.C,J2*%
D11*
X130352380Y-44500000D02*
X129876190Y-44166666D01*
X130352380Y-43928571D02*
X129352380Y-43928571D01*
X129352380Y-44309523D01*
X129400000Y-44404761D01*
X129447619Y-44452380D01*
X129542857Y-44500000D01*
X129685714Y-44500000D01*
X129780952Y-44452380D01*
X129828571Y-44404761D01*
X129876190Y-44309523D01*
X129876190Y-43928571D01*
X130352380Y-45357142D02*
X129828571Y-45357142D01*
X129733333Y-45309523D01*
X129685714Y-45214285D01*
X129685714Y-45023809D01*
X129733333Y-44928571D01*
X130304761Y-45357142D02*
X130352380Y-45261904D01*
X130352380Y-45023809D01*
X130304761Y-44928571D01*
X130209523Y-44880952D01*
X130114285Y-44880952D01*
X130019047Y-44928571D01*
X129971428Y-45023809D01*
X129971428Y-45261904D01*
X129923809Y-45357142D01*
X130304761Y-45785714D02*
X130352380Y-45880952D01*
X130352380Y-46071428D01*
X130304761Y-46166666D01*
X130209523Y-46214285D01*
X130161904Y-46214285D01*
X130066666Y-46166666D01*
X130019047Y-46071428D01*
X130019047Y-45928571D01*
X129971428Y-45833333D01*
X129876190Y-45785714D01*
X129828571Y-45785714D01*
X129733333Y-45833333D01*
X129685714Y-45928571D01*
X129685714Y-46071428D01*
X129733333Y-46166666D01*
X129685714Y-46642857D02*
X130685714Y-46642857D01*
X129733333Y-46642857D02*
X129685714Y-46738095D01*
X129685714Y-46928571D01*
X129733333Y-47023809D01*
X129780952Y-47071428D01*
X129876190Y-47119047D01*
X130161904Y-47119047D01*
X130257142Y-47071428D01*
X130304761Y-47023809D01*
X130352380Y-46928571D01*
X130352380Y-46738095D01*
X130304761Y-46642857D01*
X130352380Y-47547619D02*
X129352380Y-47547619D01*
X129733333Y-47547619D02*
X129685714Y-47642857D01*
X129685714Y-47833333D01*
X129733333Y-47928571D01*
X129780952Y-47976190D01*
X129876190Y-48023809D01*
X130161904Y-48023809D01*
X130257142Y-47976190D01*
X130304761Y-47928571D01*
X130352380Y-47833333D01*
X130352380Y-47642857D01*
X130304761Y-47547619D01*
X130304761Y-48833333D02*
X130352380Y-48738095D01*
X130352380Y-48547619D01*
X130304761Y-48452380D01*
X130209523Y-48404761D01*
X129828571Y-48404761D01*
X129733333Y-48452380D01*
X129685714Y-48547619D01*
X129685714Y-48738095D01*
X129733333Y-48833333D01*
X129828571Y-48880952D01*
X129923809Y-48880952D01*
X130019047Y-48404761D01*
X130352380Y-49309523D02*
X129685714Y-49309523D01*
X129876190Y-49309523D02*
X129780952Y-49357142D01*
X129733333Y-49404761D01*
X129685714Y-49500000D01*
X129685714Y-49595238D01*
X130352380Y-49928571D02*
X129685714Y-49928571D01*
X129876190Y-49928571D02*
X129780952Y-49976190D01*
X129733333Y-50023809D01*
X129685714Y-50119047D01*
X129685714Y-50214285D01*
X129685714Y-50452380D02*
X130352380Y-50690476D01*
X129685714Y-50928571D02*
X130352380Y-50690476D01*
X130590476Y-50595238D01*
X130638095Y-50547619D01*
X130685714Y-50452380D01*
X130447619Y-51071428D02*
X130447619Y-51833333D01*
X130352380Y-52071428D02*
X129352380Y-52071428D01*
X129352380Y-52452380D01*
X129400000Y-52547619D01*
X129447619Y-52595238D01*
X129542857Y-52642857D01*
X129685714Y-52642857D01*
X129780952Y-52595238D01*
X129828571Y-52547619D01*
X129876190Y-52452380D01*
X129876190Y-52071428D01*
X130352380Y-53071428D02*
X129685714Y-53071428D01*
X129352380Y-53071428D02*
X129400000Y-53023809D01*
X129447619Y-53071428D01*
X129400000Y-53119047D01*
X129352380Y-53071428D01*
X129447619Y-53071428D01*
X103333333Y-47952380D02*
X103333333Y-48666666D01*
X103380952Y-48809523D01*
X103476190Y-48904761D01*
X103619047Y-48952380D01*
X103714285Y-48952380D01*
X102904761Y-48047619D02*
X102857142Y-48000000D01*
X102761904Y-47952380D01*
X102523809Y-47952380D01*
X102428571Y-48000000D01*
X102380952Y-48047619D01*
X102333333Y-48142857D01*
X102333333Y-48238095D01*
X102380952Y-48380952D01*
X102952380Y-48952380D01*
X102333333Y-48952380D01*
%TO.C,D5*%
X123261904Y-91202380D02*
X123261904Y-90202380D01*
X123023809Y-90202380D01*
X122880952Y-90250000D01*
X122785714Y-90345238D01*
X122738095Y-90440476D01*
X122690476Y-90630952D01*
X122690476Y-90773809D01*
X122738095Y-90964285D01*
X122785714Y-91059523D01*
X122880952Y-91154761D01*
X123023809Y-91202380D01*
X123261904Y-91202380D01*
X123611095Y-95207380D02*
X123611095Y-94207380D01*
X123373000Y-94207380D01*
X123230142Y-94255000D01*
X123134904Y-94350238D01*
X123087285Y-94445476D01*
X123039666Y-94635952D01*
X123039666Y-94778809D01*
X123087285Y-94969285D01*
X123134904Y-95064523D01*
X123230142Y-95159761D01*
X123373000Y-95207380D01*
X123611095Y-95207380D01*
X122134904Y-94207380D02*
X122611095Y-94207380D01*
X122658714Y-94683571D01*
X122611095Y-94635952D01*
X122515857Y-94588333D01*
X122277761Y-94588333D01*
X122182523Y-94635952D01*
X122134904Y-94683571D01*
X122087285Y-94778809D01*
X122087285Y-95016904D01*
X122134904Y-95112142D01*
X122182523Y-95159761D01*
X122277761Y-95207380D01*
X122515857Y-95207380D01*
X122611095Y-95159761D01*
X122658714Y-95112142D01*
%TO.C,D4*%
X113261904Y-91202380D02*
X113261904Y-90202380D01*
X113023809Y-90202380D01*
X112880952Y-90250000D01*
X112785714Y-90345238D01*
X112738095Y-90440476D01*
X112690476Y-90630952D01*
X112690476Y-90773809D01*
X112738095Y-90964285D01*
X112785714Y-91059523D01*
X112880952Y-91154761D01*
X113023809Y-91202380D01*
X113261904Y-91202380D01*
X113611095Y-95207380D02*
X113611095Y-94207380D01*
X113373000Y-94207380D01*
X113230142Y-94255000D01*
X113134904Y-94350238D01*
X113087285Y-94445476D01*
X113039666Y-94635952D01*
X113039666Y-94778809D01*
X113087285Y-94969285D01*
X113134904Y-95064523D01*
X113230142Y-95159761D01*
X113373000Y-95207380D01*
X113611095Y-95207380D01*
X112182523Y-94540714D02*
X112182523Y-95207380D01*
X112420619Y-94159761D02*
X112658714Y-94874047D01*
X112039666Y-94874047D01*
%TO.C,D3*%
X103161904Y-91202380D02*
X103161904Y-90202380D01*
X102923809Y-90202380D01*
X102780952Y-90250000D01*
X102685714Y-90345238D01*
X102638095Y-90440476D01*
X102590476Y-90630952D01*
X102590476Y-90773809D01*
X102638095Y-90964285D01*
X102685714Y-91059523D01*
X102780952Y-91154761D01*
X102923809Y-91202380D01*
X103161904Y-91202380D01*
X103511095Y-95207380D02*
X103511095Y-94207380D01*
X103273000Y-94207380D01*
X103130142Y-94255000D01*
X103034904Y-94350238D01*
X102987285Y-94445476D01*
X102939666Y-94635952D01*
X102939666Y-94778809D01*
X102987285Y-94969285D01*
X103034904Y-95064523D01*
X103130142Y-95159761D01*
X103273000Y-95207380D01*
X103511095Y-95207380D01*
X102606333Y-94207380D02*
X101987285Y-94207380D01*
X102320619Y-94588333D01*
X102177761Y-94588333D01*
X102082523Y-94635952D01*
X102034904Y-94683571D01*
X101987285Y-94778809D01*
X101987285Y-95016904D01*
X102034904Y-95112142D01*
X102082523Y-95159761D01*
X102177761Y-95207380D01*
X102463476Y-95207380D01*
X102558714Y-95159761D01*
X102606333Y-95112142D01*
%TO.C,D2*%
X93361904Y-91202380D02*
X93361904Y-90202380D01*
X93123809Y-90202380D01*
X92980952Y-90250000D01*
X92885714Y-90345238D01*
X92838095Y-90440476D01*
X92790476Y-90630952D01*
X92790476Y-90773809D01*
X92838095Y-90964285D01*
X92885714Y-91059523D01*
X92980952Y-91154761D01*
X93123809Y-91202380D01*
X93361904Y-91202380D01*
X93711095Y-95207380D02*
X93711095Y-94207380D01*
X93473000Y-94207380D01*
X93330142Y-94255000D01*
X93234904Y-94350238D01*
X93187285Y-94445476D01*
X93139666Y-94635952D01*
X93139666Y-94778809D01*
X93187285Y-94969285D01*
X93234904Y-95064523D01*
X93330142Y-95159761D01*
X93473000Y-95207380D01*
X93711095Y-95207380D01*
X92758714Y-94302619D02*
X92711095Y-94255000D01*
X92615857Y-94207380D01*
X92377761Y-94207380D01*
X92282523Y-94255000D01*
X92234904Y-94302619D01*
X92187285Y-94397857D01*
X92187285Y-94493095D01*
X92234904Y-94635952D01*
X92806333Y-95207380D01*
X92187285Y-95207380D01*
%TO.C,D1*%
X83261904Y-91202380D02*
X83261904Y-90202380D01*
X83023809Y-90202380D01*
X82880952Y-90250000D01*
X82785714Y-90345238D01*
X82738095Y-90440476D01*
X82690476Y-90630952D01*
X82690476Y-90773809D01*
X82738095Y-90964285D01*
X82785714Y-91059523D01*
X82880952Y-91154761D01*
X83023809Y-91202380D01*
X83261904Y-91202380D01*
X83611095Y-95207380D02*
X83611095Y-94207380D01*
X83373000Y-94207380D01*
X83230142Y-94255000D01*
X83134904Y-94350238D01*
X83087285Y-94445476D01*
X83039666Y-94635952D01*
X83039666Y-94778809D01*
X83087285Y-94969285D01*
X83134904Y-95064523D01*
X83230142Y-95159761D01*
X83373000Y-95207380D01*
X83611095Y-95207380D01*
X82087285Y-95207380D02*
X82658714Y-95207380D01*
X82373000Y-95207380D02*
X82373000Y-94207380D01*
X82468238Y-94350238D01*
X82563476Y-94445476D01*
X82658714Y-94493095D01*
%TO.C,Q1*%
X133166666Y-65333333D02*
X133166666Y-65809523D01*
X133452380Y-65238095D02*
X132452380Y-65571428D01*
X133452380Y-65904761D01*
X132452380Y-66428571D02*
X132452380Y-66619047D01*
X132500000Y-66714285D01*
X132595238Y-66809523D01*
X132785714Y-66857142D01*
X133119047Y-66857142D01*
X133309523Y-66809523D01*
X133404761Y-66714285D01*
X133452380Y-66619047D01*
X133452380Y-66428571D01*
X133404761Y-66333333D01*
X133309523Y-66238095D01*
X133119047Y-66190476D01*
X132785714Y-66190476D01*
X132595238Y-66238095D01*
X132500000Y-66333333D01*
X132452380Y-66428571D01*
X132452380Y-67190476D02*
X132452380Y-67809523D01*
X132833333Y-67476190D01*
X132833333Y-67619047D01*
X132880952Y-67714285D01*
X132928571Y-67761904D01*
X133023809Y-67809523D01*
X133261904Y-67809523D01*
X133357142Y-67761904D01*
X133404761Y-67714285D01*
X133452380Y-67619047D01*
X133452380Y-67333333D01*
X133404761Y-67238095D01*
X133357142Y-67190476D01*
X132785714Y-68666666D02*
X133452380Y-68666666D01*
X132404761Y-68428571D02*
X133119047Y-68190476D01*
X133119047Y-68809523D01*
X132452380Y-69380952D02*
X132452380Y-69476190D01*
X132500000Y-69571428D01*
X132547619Y-69619047D01*
X132642857Y-69666666D01*
X132833333Y-69714285D01*
X133071428Y-69714285D01*
X133261904Y-69666666D01*
X133357142Y-69619047D01*
X133404761Y-69571428D01*
X133452380Y-69476190D01*
X133452380Y-69380952D01*
X133404761Y-69285714D01*
X133357142Y-69238095D01*
X133261904Y-69190476D01*
X133071428Y-69142857D01*
X132833333Y-69142857D01*
X132642857Y-69190476D01*
X132547619Y-69238095D01*
X132500000Y-69285714D01*
X132452380Y-69380952D01*
X132547619Y-70095238D02*
X132500000Y-70142857D01*
X132452380Y-70238095D01*
X132452380Y-70476190D01*
X132500000Y-70571428D01*
X132547619Y-70619047D01*
X132642857Y-70666666D01*
X132738095Y-70666666D01*
X132880952Y-70619047D01*
X133452380Y-70047619D01*
X133452380Y-70666666D01*
D12*
X130547619Y-68273809D02*
X130595238Y-68250000D01*
X130642857Y-68202380D01*
X130714285Y-68130952D01*
X130761904Y-68107142D01*
X130809523Y-68107142D01*
X130785714Y-68226190D02*
X130833333Y-68202380D01*
X130880952Y-68154761D01*
X130904761Y-68059523D01*
X130904761Y-67892857D01*
X130880952Y-67797619D01*
X130833333Y-67750000D01*
X130785714Y-67726190D01*
X130690476Y-67726190D01*
X130642857Y-67750000D01*
X130595238Y-67797619D01*
X130571428Y-67892857D01*
X130571428Y-68059523D01*
X130595238Y-68154761D01*
X130642857Y-68202380D01*
X130690476Y-68226190D01*
X130785714Y-68226190D01*
X130095238Y-68226190D02*
X130380952Y-68226190D01*
X130238095Y-68226190D02*
X130238095Y-67726190D01*
X130285714Y-67797619D01*
X130333333Y-67845238D01*
X130380952Y-67869047D01*
%TO.C,Q5*%
D11*
X121030666Y-59833333D02*
X121030666Y-60309523D01*
X121316380Y-59738095D02*
X120316380Y-60071428D01*
X121316380Y-60404761D01*
X120316380Y-60928571D02*
X120316380Y-61119047D01*
X120364000Y-61214285D01*
X120459238Y-61309523D01*
X120649714Y-61357142D01*
X120983047Y-61357142D01*
X121173523Y-61309523D01*
X121268761Y-61214285D01*
X121316380Y-61119047D01*
X121316380Y-60928571D01*
X121268761Y-60833333D01*
X121173523Y-60738095D01*
X120983047Y-60690476D01*
X120649714Y-60690476D01*
X120459238Y-60738095D01*
X120364000Y-60833333D01*
X120316380Y-60928571D01*
X120316380Y-61690476D02*
X120316380Y-62309523D01*
X120697333Y-61976190D01*
X120697333Y-62119047D01*
X120744952Y-62214285D01*
X120792571Y-62261904D01*
X120887809Y-62309523D01*
X121125904Y-62309523D01*
X121221142Y-62261904D01*
X121268761Y-62214285D01*
X121316380Y-62119047D01*
X121316380Y-61833333D01*
X121268761Y-61738095D01*
X121221142Y-61690476D01*
X120649714Y-63166666D02*
X121316380Y-63166666D01*
X120268761Y-62928571D02*
X120983047Y-62690476D01*
X120983047Y-63309523D01*
X120316380Y-63880952D02*
X120316380Y-63976190D01*
X120364000Y-64071428D01*
X120411619Y-64119047D01*
X120506857Y-64166666D01*
X120697333Y-64214285D01*
X120935428Y-64214285D01*
X121125904Y-64166666D01*
X121221142Y-64119047D01*
X121268761Y-64071428D01*
X121316380Y-63976190D01*
X121316380Y-63880952D01*
X121268761Y-63785714D01*
X121221142Y-63738095D01*
X121125904Y-63690476D01*
X120935428Y-63642857D01*
X120697333Y-63642857D01*
X120506857Y-63690476D01*
X120411619Y-63738095D01*
X120364000Y-63785714D01*
X120316380Y-63880952D01*
X120411619Y-64595238D02*
X120364000Y-64642857D01*
X120316380Y-64738095D01*
X120316380Y-64976190D01*
X120364000Y-65071428D01*
X120411619Y-65119047D01*
X120506857Y-65166666D01*
X120602095Y-65166666D01*
X120744952Y-65119047D01*
X121316380Y-64547619D01*
X121316380Y-65166666D01*
D12*
X118411619Y-62773809D02*
X118459238Y-62750000D01*
X118506857Y-62702380D01*
X118578285Y-62630952D01*
X118625904Y-62607142D01*
X118673523Y-62607142D01*
X118649714Y-62726190D02*
X118697333Y-62702380D01*
X118744952Y-62654761D01*
X118768761Y-62559523D01*
X118768761Y-62392857D01*
X118744952Y-62297619D01*
X118697333Y-62250000D01*
X118649714Y-62226190D01*
X118554476Y-62226190D01*
X118506857Y-62250000D01*
X118459238Y-62297619D01*
X118435428Y-62392857D01*
X118435428Y-62559523D01*
X118459238Y-62654761D01*
X118506857Y-62702380D01*
X118554476Y-62726190D01*
X118649714Y-62726190D01*
X117983047Y-62226190D02*
X118221142Y-62226190D01*
X118244952Y-62464285D01*
X118221142Y-62440476D01*
X118173523Y-62416666D01*
X118054476Y-62416666D01*
X118006857Y-62440476D01*
X117983047Y-62464285D01*
X117959238Y-62511904D01*
X117959238Y-62630952D01*
X117983047Y-62678571D01*
X118006857Y-62702380D01*
X118054476Y-62726190D01*
X118173523Y-62726190D01*
X118221142Y-62702380D01*
X118244952Y-62678571D01*
%TO.C,Q4*%
D11*
X126666666Y-59833333D02*
X126666666Y-60309523D01*
X126952380Y-59738095D02*
X125952380Y-60071428D01*
X126952380Y-60404761D01*
X125952380Y-60928571D02*
X125952380Y-61119047D01*
X126000000Y-61214285D01*
X126095238Y-61309523D01*
X126285714Y-61357142D01*
X126619047Y-61357142D01*
X126809523Y-61309523D01*
X126904761Y-61214285D01*
X126952380Y-61119047D01*
X126952380Y-60928571D01*
X126904761Y-60833333D01*
X126809523Y-60738095D01*
X126619047Y-60690476D01*
X126285714Y-60690476D01*
X126095238Y-60738095D01*
X126000000Y-60833333D01*
X125952380Y-60928571D01*
X125952380Y-61690476D02*
X125952380Y-62309523D01*
X126333333Y-61976190D01*
X126333333Y-62119047D01*
X126380952Y-62214285D01*
X126428571Y-62261904D01*
X126523809Y-62309523D01*
X126761904Y-62309523D01*
X126857142Y-62261904D01*
X126904761Y-62214285D01*
X126952380Y-62119047D01*
X126952380Y-61833333D01*
X126904761Y-61738095D01*
X126857142Y-61690476D01*
X126285714Y-63166666D02*
X126952380Y-63166666D01*
X125904761Y-62928571D02*
X126619047Y-62690476D01*
X126619047Y-63309523D01*
X125952380Y-63880952D02*
X125952380Y-63976190D01*
X126000000Y-64071428D01*
X126047619Y-64119047D01*
X126142857Y-64166666D01*
X126333333Y-64214285D01*
X126571428Y-64214285D01*
X126761904Y-64166666D01*
X126857142Y-64119047D01*
X126904761Y-64071428D01*
X126952380Y-63976190D01*
X126952380Y-63880952D01*
X126904761Y-63785714D01*
X126857142Y-63738095D01*
X126761904Y-63690476D01*
X126571428Y-63642857D01*
X126333333Y-63642857D01*
X126142857Y-63690476D01*
X126047619Y-63738095D01*
X126000000Y-63785714D01*
X125952380Y-63880952D01*
X126047619Y-64595238D02*
X126000000Y-64642857D01*
X125952380Y-64738095D01*
X125952380Y-64976190D01*
X126000000Y-65071428D01*
X126047619Y-65119047D01*
X126142857Y-65166666D01*
X126238095Y-65166666D01*
X126380952Y-65119047D01*
X126952380Y-64547619D01*
X126952380Y-65166666D01*
D12*
X124047619Y-62773809D02*
X124095238Y-62750000D01*
X124142857Y-62702380D01*
X124214285Y-62630952D01*
X124261904Y-62607142D01*
X124309523Y-62607142D01*
X124285714Y-62726190D02*
X124333333Y-62702380D01*
X124380952Y-62654761D01*
X124404761Y-62559523D01*
X124404761Y-62392857D01*
X124380952Y-62297619D01*
X124333333Y-62250000D01*
X124285714Y-62226190D01*
X124190476Y-62226190D01*
X124142857Y-62250000D01*
X124095238Y-62297619D01*
X124071428Y-62392857D01*
X124071428Y-62559523D01*
X124095238Y-62654761D01*
X124142857Y-62702380D01*
X124190476Y-62726190D01*
X124285714Y-62726190D01*
X123642857Y-62392857D02*
X123642857Y-62726190D01*
X123761904Y-62202380D02*
X123880952Y-62559523D01*
X123571428Y-62559523D01*
%TO.C,Q3*%
D11*
X113666666Y-59833333D02*
X113666666Y-60309523D01*
X113952380Y-59738095D02*
X112952380Y-60071428D01*
X113952380Y-60404761D01*
X112952380Y-60928571D02*
X112952380Y-61119047D01*
X113000000Y-61214285D01*
X113095238Y-61309523D01*
X113285714Y-61357142D01*
X113619047Y-61357142D01*
X113809523Y-61309523D01*
X113904761Y-61214285D01*
X113952380Y-61119047D01*
X113952380Y-60928571D01*
X113904761Y-60833333D01*
X113809523Y-60738095D01*
X113619047Y-60690476D01*
X113285714Y-60690476D01*
X113095238Y-60738095D01*
X113000000Y-60833333D01*
X112952380Y-60928571D01*
X112952380Y-61690476D02*
X112952380Y-62309523D01*
X113333333Y-61976190D01*
X113333333Y-62119047D01*
X113380952Y-62214285D01*
X113428571Y-62261904D01*
X113523809Y-62309523D01*
X113761904Y-62309523D01*
X113857142Y-62261904D01*
X113904761Y-62214285D01*
X113952380Y-62119047D01*
X113952380Y-61833333D01*
X113904761Y-61738095D01*
X113857142Y-61690476D01*
X113285714Y-63166666D02*
X113952380Y-63166666D01*
X112904761Y-62928571D02*
X113619047Y-62690476D01*
X113619047Y-63309523D01*
X112952380Y-63880952D02*
X112952380Y-63976190D01*
X113000000Y-64071428D01*
X113047619Y-64119047D01*
X113142857Y-64166666D01*
X113333333Y-64214285D01*
X113571428Y-64214285D01*
X113761904Y-64166666D01*
X113857142Y-64119047D01*
X113904761Y-64071428D01*
X113952380Y-63976190D01*
X113952380Y-63880952D01*
X113904761Y-63785714D01*
X113857142Y-63738095D01*
X113761904Y-63690476D01*
X113571428Y-63642857D01*
X113333333Y-63642857D01*
X113142857Y-63690476D01*
X113047619Y-63738095D01*
X113000000Y-63785714D01*
X112952380Y-63880952D01*
X113047619Y-64595238D02*
X113000000Y-64642857D01*
X112952380Y-64738095D01*
X112952380Y-64976190D01*
X113000000Y-65071428D01*
X113047619Y-65119047D01*
X113142857Y-65166666D01*
X113238095Y-65166666D01*
X113380952Y-65119047D01*
X113952380Y-64547619D01*
X113952380Y-65166666D01*
D12*
X111047619Y-62773809D02*
X111095238Y-62750000D01*
X111142857Y-62702380D01*
X111214285Y-62630952D01*
X111261904Y-62607142D01*
X111309523Y-62607142D01*
X111285714Y-62726190D02*
X111333333Y-62702380D01*
X111380952Y-62654761D01*
X111404761Y-62559523D01*
X111404761Y-62392857D01*
X111380952Y-62297619D01*
X111333333Y-62250000D01*
X111285714Y-62226190D01*
X111190476Y-62226190D01*
X111142857Y-62250000D01*
X111095238Y-62297619D01*
X111071428Y-62392857D01*
X111071428Y-62559523D01*
X111095238Y-62654761D01*
X111142857Y-62702380D01*
X111190476Y-62726190D01*
X111285714Y-62726190D01*
X110904761Y-62226190D02*
X110595238Y-62226190D01*
X110761904Y-62416666D01*
X110690476Y-62416666D01*
X110642857Y-62440476D01*
X110619047Y-62464285D01*
X110595238Y-62511904D01*
X110595238Y-62630952D01*
X110619047Y-62678571D01*
X110642857Y-62702380D01*
X110690476Y-62726190D01*
X110833333Y-62726190D01*
X110880952Y-62702380D01*
X110904761Y-62678571D01*
%TD*%
M02*
