%TF.GenerationSoftware,KiCad,Pcbnew,(5.1.9)-1*%
%TF.CreationDate,2021-03-07T19:12:45-05:00*%
%TF.ProjectId,bigp4ppa,62696770-3470-4706-912e-6b696361645f,rev?*%
%TF.SameCoordinates,Original*%
%TF.FileFunction,Legend,Bot*%
%TF.FilePolarity,Positive*%
%FSLAX46Y46*%
G04 Gerber Fmt 4.6, Leading zero omitted, Abs format (unit mm)*
G04 Created by KiCad (PCBNEW (5.1.9)-1) date 2021-03-07 19:12:45*
%MOMM*%
%LPD*%
G01*
G04 APERTURE LIST*
%ADD10C,0.150000*%
%ADD11C,0.120000*%
G04 APERTURE END LIST*
D10*
X125538761Y-52284380D02*
X125538761Y-52998666D01*
X125586380Y-53141523D01*
X125681619Y-53236761D01*
X125824476Y-53284380D01*
X125919714Y-53284380D01*
X124586380Y-53284380D02*
X125062571Y-53284380D01*
X125062571Y-52284380D01*
X123681619Y-53189142D02*
X123729238Y-53236761D01*
X123872095Y-53284380D01*
X123967333Y-53284380D01*
X124110190Y-53236761D01*
X124205428Y-53141523D01*
X124253047Y-53046285D01*
X124300666Y-52855809D01*
X124300666Y-52712952D01*
X124253047Y-52522476D01*
X124205428Y-52427238D01*
X124110190Y-52332000D01*
X123967333Y-52284380D01*
X123872095Y-52284380D01*
X123729238Y-52332000D01*
X123681619Y-52379619D01*
X122967333Y-52284380D02*
X122967333Y-52998666D01*
X123014952Y-53141523D01*
X123110190Y-53236761D01*
X123253047Y-53284380D01*
X123348285Y-53284380D01*
X122014952Y-53284380D02*
X122491142Y-53284380D01*
X122491142Y-52284380D01*
X121110190Y-53189142D02*
X121157809Y-53236761D01*
X121300666Y-53284380D01*
X121395904Y-53284380D01*
X121538761Y-53236761D01*
X121634000Y-53141523D01*
X121681619Y-53046285D01*
X121729238Y-52855809D01*
X121729238Y-52712952D01*
X121681619Y-52522476D01*
X121634000Y-52427238D01*
X121538761Y-52332000D01*
X121395904Y-52284380D01*
X121300666Y-52284380D01*
X121157809Y-52332000D01*
X121110190Y-52379619D01*
X120395904Y-52284380D02*
X120395904Y-52998666D01*
X120443523Y-53141523D01*
X120538761Y-53236761D01*
X120681619Y-53284380D01*
X120776857Y-53284380D01*
X119443523Y-53284380D02*
X119919714Y-53284380D01*
X119919714Y-52284380D01*
X118538761Y-53189142D02*
X118586380Y-53236761D01*
X118729238Y-53284380D01*
X118824476Y-53284380D01*
X118967333Y-53236761D01*
X119062571Y-53141523D01*
X119110190Y-53046285D01*
X119157809Y-52855809D01*
X119157809Y-52712952D01*
X119110190Y-52522476D01*
X119062571Y-52427238D01*
X118967333Y-52332000D01*
X118824476Y-52284380D01*
X118729238Y-52284380D01*
X118586380Y-52332000D01*
X118538761Y-52379619D01*
X117824476Y-52284380D02*
X117824476Y-52998666D01*
X117872095Y-53141523D01*
X117967333Y-53236761D01*
X118110190Y-53284380D01*
X118205428Y-53284380D01*
X116872095Y-53284380D02*
X117348285Y-53284380D01*
X117348285Y-52284380D01*
X115967333Y-53189142D02*
X116014952Y-53236761D01*
X116157809Y-53284380D01*
X116253047Y-53284380D01*
X116395904Y-53236761D01*
X116491142Y-53141523D01*
X116538761Y-53046285D01*
X116586380Y-52855809D01*
X116586380Y-52712952D01*
X116538761Y-52522476D01*
X116491142Y-52427238D01*
X116395904Y-52332000D01*
X116253047Y-52284380D01*
X116157809Y-52284380D01*
X116014952Y-52332000D01*
X115967333Y-52379619D01*
X115253047Y-52284380D02*
X115253047Y-52998666D01*
X115300666Y-53141523D01*
X115395904Y-53236761D01*
X115538761Y-53284380D01*
X115634000Y-53284380D01*
X114300666Y-53284380D02*
X114776857Y-53284380D01*
X114776857Y-52284380D01*
X113395904Y-53189142D02*
X113443523Y-53236761D01*
X113586380Y-53284380D01*
X113681619Y-53284380D01*
X113824476Y-53236761D01*
X113919714Y-53141523D01*
X113967333Y-53046285D01*
X114014952Y-52855809D01*
X114014952Y-52712952D01*
X113967333Y-52522476D01*
X113919714Y-52427238D01*
X113824476Y-52332000D01*
X113681619Y-52284380D01*
X113586380Y-52284380D01*
X113443523Y-52332000D01*
X113395904Y-52379619D01*
D11*
X125395333Y-68071666D02*
X125395333Y-67371666D01*
X125228666Y-67371666D01*
X125128666Y-67405000D01*
X125062000Y-67471666D01*
X125028666Y-67538333D01*
X124995333Y-67671666D01*
X124995333Y-67771666D01*
X125028666Y-67905000D01*
X125062000Y-67971666D01*
X125128666Y-68038333D01*
X125228666Y-68071666D01*
X125395333Y-68071666D01*
X124595333Y-68071666D02*
X124662000Y-68038333D01*
X124695333Y-68005000D01*
X124728666Y-67938333D01*
X124728666Y-67738333D01*
X124695333Y-67671666D01*
X124662000Y-67638333D01*
X124595333Y-67605000D01*
X124495333Y-67605000D01*
X124428666Y-67638333D01*
X124395333Y-67671666D01*
X124362000Y-67738333D01*
X124362000Y-67938333D01*
X124395333Y-68005000D01*
X124428666Y-68038333D01*
X124495333Y-68071666D01*
X124595333Y-68071666D01*
X123528666Y-67605000D02*
X123528666Y-68071666D01*
X123528666Y-67671666D02*
X123495333Y-67638333D01*
X123428666Y-67605000D01*
X123328666Y-67605000D01*
X123262000Y-67638333D01*
X123228666Y-67705000D01*
X123228666Y-68071666D01*
X122795333Y-68071666D02*
X122862000Y-68038333D01*
X122895333Y-68005000D01*
X122928666Y-67938333D01*
X122928666Y-67738333D01*
X122895333Y-67671666D01*
X122862000Y-67638333D01*
X122795333Y-67605000D01*
X122695333Y-67605000D01*
X122628666Y-67638333D01*
X122595333Y-67671666D01*
X122562000Y-67738333D01*
X122562000Y-67938333D01*
X122595333Y-68005000D01*
X122628666Y-68038333D01*
X122695333Y-68071666D01*
X122795333Y-68071666D01*
X122362000Y-67605000D02*
X122095333Y-67605000D01*
X122262000Y-67371666D02*
X122262000Y-67971666D01*
X122228666Y-68038333D01*
X122162000Y-68071666D01*
X122095333Y-68071666D01*
X121328666Y-67605000D02*
X121328666Y-68305000D01*
X121328666Y-67638333D02*
X121262000Y-67605000D01*
X121128666Y-67605000D01*
X121062000Y-67638333D01*
X121028666Y-67671666D01*
X120995333Y-67738333D01*
X120995333Y-67938333D01*
X121028666Y-68005000D01*
X121062000Y-68038333D01*
X121128666Y-68071666D01*
X121262000Y-68071666D01*
X121328666Y-68038333D01*
X120595333Y-68071666D02*
X120662000Y-68038333D01*
X120695333Y-68005000D01*
X120728666Y-67938333D01*
X120728666Y-67738333D01*
X120695333Y-67671666D01*
X120662000Y-67638333D01*
X120595333Y-67605000D01*
X120495333Y-67605000D01*
X120428666Y-67638333D01*
X120395333Y-67671666D01*
X120362000Y-67738333D01*
X120362000Y-67938333D01*
X120395333Y-68005000D01*
X120428666Y-68038333D01*
X120495333Y-68071666D01*
X120595333Y-68071666D01*
X120128666Y-67605000D02*
X119995333Y-68071666D01*
X119862000Y-67738333D01*
X119728666Y-68071666D01*
X119595333Y-67605000D01*
X119062000Y-68038333D02*
X119128666Y-68071666D01*
X119262000Y-68071666D01*
X119328666Y-68038333D01*
X119362000Y-67971666D01*
X119362000Y-67705000D01*
X119328666Y-67638333D01*
X119262000Y-67605000D01*
X119128666Y-67605000D01*
X119062000Y-67638333D01*
X119028666Y-67705000D01*
X119028666Y-67771666D01*
X119362000Y-67838333D01*
X118728666Y-68071666D02*
X118728666Y-67605000D01*
X118728666Y-67738333D02*
X118695333Y-67671666D01*
X118662000Y-67638333D01*
X118595333Y-67605000D01*
X118528666Y-67605000D01*
X117762000Y-68071666D02*
X117762000Y-67371666D01*
X117495333Y-67371666D01*
X117428666Y-67405000D01*
X117395333Y-67438333D01*
X117362000Y-67505000D01*
X117362000Y-67605000D01*
X117395333Y-67671666D01*
X117428666Y-67705000D01*
X117495333Y-67738333D01*
X117762000Y-67738333D01*
X117062000Y-68071666D02*
X117062000Y-67605000D01*
X117062000Y-67371666D02*
X117095333Y-67405000D01*
X117062000Y-67438333D01*
X117028666Y-67405000D01*
X117062000Y-67371666D01*
X117062000Y-67438333D01*
X124762000Y-68775000D02*
X124628666Y-69241666D01*
X124495333Y-68908333D01*
X124362000Y-69241666D01*
X124228666Y-68775000D01*
X123962000Y-69241666D02*
X123962000Y-68775000D01*
X123962000Y-68541666D02*
X123995333Y-68575000D01*
X123962000Y-68608333D01*
X123928666Y-68575000D01*
X123962000Y-68541666D01*
X123962000Y-68608333D01*
X123728666Y-68775000D02*
X123462000Y-68775000D01*
X123628666Y-68541666D02*
X123628666Y-69141666D01*
X123595333Y-69208333D01*
X123528666Y-69241666D01*
X123462000Y-69241666D01*
X123228666Y-69241666D02*
X123228666Y-68541666D01*
X122928666Y-69241666D02*
X122928666Y-68875000D01*
X122962000Y-68808333D01*
X123028666Y-68775000D01*
X123128666Y-68775000D01*
X123195333Y-68808333D01*
X123228666Y-68841666D01*
X122095333Y-69041666D02*
X121762000Y-69041666D01*
X122162000Y-69241666D02*
X121928666Y-68541666D01*
X121695333Y-69241666D01*
X121462000Y-69241666D02*
X121462000Y-68541666D01*
X121062000Y-69241666D01*
X121062000Y-68541666D01*
X120595333Y-68908333D02*
X120595333Y-69241666D01*
X120828666Y-68541666D02*
X120595333Y-68908333D01*
X120362000Y-68541666D01*
X119495333Y-69241666D02*
X119562000Y-69208333D01*
X119595333Y-69175000D01*
X119628666Y-69108333D01*
X119628666Y-68908333D01*
X119595333Y-68841666D01*
X119562000Y-68808333D01*
X119495333Y-68775000D01*
X119395333Y-68775000D01*
X119328666Y-68808333D01*
X119295333Y-68841666D01*
X119262000Y-68908333D01*
X119262000Y-69108333D01*
X119295333Y-69175000D01*
X119328666Y-69208333D01*
X119395333Y-69241666D01*
X119495333Y-69241666D01*
X119062000Y-68775000D02*
X118795333Y-68775000D01*
X118962000Y-68541666D02*
X118962000Y-69141666D01*
X118928666Y-69208333D01*
X118862000Y-69241666D01*
X118795333Y-69241666D01*
X118562000Y-69241666D02*
X118562000Y-68541666D01*
X118262000Y-69241666D02*
X118262000Y-68875000D01*
X118295333Y-68808333D01*
X118362000Y-68775000D01*
X118462000Y-68775000D01*
X118528666Y-68808333D01*
X118562000Y-68841666D01*
X117662000Y-69208333D02*
X117728666Y-69241666D01*
X117862000Y-69241666D01*
X117928666Y-69208333D01*
X117962000Y-69141666D01*
X117962000Y-68875000D01*
X117928666Y-68808333D01*
X117862000Y-68775000D01*
X117728666Y-68775000D01*
X117662000Y-68808333D01*
X117628666Y-68875000D01*
X117628666Y-68941666D01*
X117962000Y-69008333D01*
X117328666Y-69241666D02*
X117328666Y-68775000D01*
X117328666Y-68908333D02*
X117295333Y-68841666D01*
X117262000Y-68808333D01*
X117195333Y-68775000D01*
X117128666Y-68775000D01*
X122562000Y-70378333D02*
X122495333Y-70411666D01*
X122362000Y-70411666D01*
X122295333Y-70378333D01*
X122262000Y-70311666D01*
X122262000Y-70278333D01*
X122295333Y-70211666D01*
X122362000Y-70178333D01*
X122462000Y-70178333D01*
X122528666Y-70145000D01*
X122562000Y-70078333D01*
X122562000Y-70045000D01*
X122528666Y-69978333D01*
X122462000Y-69945000D01*
X122362000Y-69945000D01*
X122295333Y-69978333D01*
X121862000Y-70411666D02*
X121928666Y-70378333D01*
X121962000Y-70345000D01*
X121995333Y-70278333D01*
X121995333Y-70078333D01*
X121962000Y-70011666D01*
X121928666Y-69978333D01*
X121862000Y-69945000D01*
X121762000Y-69945000D01*
X121695333Y-69978333D01*
X121662000Y-70011666D01*
X121628666Y-70078333D01*
X121628666Y-70278333D01*
X121662000Y-70345000D01*
X121695333Y-70378333D01*
X121762000Y-70411666D01*
X121862000Y-70411666D01*
X121028666Y-69945000D02*
X121028666Y-70411666D01*
X121328666Y-69945000D02*
X121328666Y-70311666D01*
X121295333Y-70378333D01*
X121228666Y-70411666D01*
X121128666Y-70411666D01*
X121062000Y-70378333D01*
X121028666Y-70345000D01*
X120695333Y-70411666D02*
X120695333Y-69945000D01*
X120695333Y-70078333D02*
X120662000Y-70011666D01*
X120628666Y-69978333D01*
X120562000Y-69945000D01*
X120495333Y-69945000D01*
X119962000Y-70378333D02*
X120028666Y-70411666D01*
X120162000Y-70411666D01*
X120228666Y-70378333D01*
X120262000Y-70345000D01*
X120295333Y-70278333D01*
X120295333Y-70078333D01*
X120262000Y-70011666D01*
X120228666Y-69978333D01*
X120162000Y-69945000D01*
X120028666Y-69945000D01*
X119962000Y-69978333D01*
X119395333Y-70378333D02*
X119462000Y-70411666D01*
X119595333Y-70411666D01*
X119662000Y-70378333D01*
X119695333Y-70311666D01*
X119695333Y-70045000D01*
X119662000Y-69978333D01*
X119595333Y-69945000D01*
X119462000Y-69945000D01*
X119395333Y-69978333D01*
X119362000Y-70045000D01*
X119362000Y-70111666D01*
X119695333Y-70178333D01*
X124945333Y-72051666D02*
X125278666Y-72051666D01*
X125312000Y-72385000D01*
X125278666Y-72351666D01*
X125212000Y-72318333D01*
X125045333Y-72318333D01*
X124978666Y-72351666D01*
X124945333Y-72385000D01*
X124912000Y-72451666D01*
X124912000Y-72618333D01*
X124945333Y-72685000D01*
X124978666Y-72718333D01*
X125045333Y-72751666D01*
X125212000Y-72751666D01*
X125278666Y-72718333D01*
X125312000Y-72685000D01*
X124712000Y-72051666D02*
X124478666Y-72751666D01*
X124245333Y-72051666D01*
X123512000Y-72018333D02*
X124112000Y-72918333D01*
X122912000Y-72085000D02*
X122978666Y-72051666D01*
X123078666Y-72051666D01*
X123178666Y-72085000D01*
X123245333Y-72151666D01*
X123278666Y-72218333D01*
X123312000Y-72351666D01*
X123312000Y-72451666D01*
X123278666Y-72585000D01*
X123245333Y-72651666D01*
X123178666Y-72718333D01*
X123078666Y-72751666D01*
X123012000Y-72751666D01*
X122912000Y-72718333D01*
X122878666Y-72685000D01*
X122878666Y-72451666D01*
X123012000Y-72451666D01*
X122578666Y-72751666D02*
X122578666Y-72051666D01*
X122178666Y-72751666D01*
X122178666Y-72051666D01*
X121845333Y-72751666D02*
X121845333Y-72051666D01*
X121678666Y-72051666D01*
X121578666Y-72085000D01*
X121512000Y-72151666D01*
X121478666Y-72218333D01*
X121445333Y-72351666D01*
X121445333Y-72451666D01*
X121478666Y-72585000D01*
X121512000Y-72651666D01*
X121578666Y-72718333D01*
X121678666Y-72751666D01*
X121845333Y-72751666D01*
X120612000Y-72751666D02*
X120612000Y-72285000D01*
X120612000Y-72418333D02*
X120578666Y-72351666D01*
X120545333Y-72318333D01*
X120478666Y-72285000D01*
X120412000Y-72285000D01*
X119912000Y-72718333D02*
X119978666Y-72751666D01*
X120112000Y-72751666D01*
X120178666Y-72718333D01*
X120212000Y-72651666D01*
X120212000Y-72385000D01*
X120178666Y-72318333D01*
X120112000Y-72285000D01*
X119978666Y-72285000D01*
X119912000Y-72318333D01*
X119878666Y-72385000D01*
X119878666Y-72451666D01*
X120212000Y-72518333D01*
X119278666Y-72285000D02*
X119278666Y-72985000D01*
X119278666Y-72718333D02*
X119345333Y-72751666D01*
X119478666Y-72751666D01*
X119545333Y-72718333D01*
X119578666Y-72685000D01*
X119612000Y-72618333D01*
X119612000Y-72418333D01*
X119578666Y-72351666D01*
X119545333Y-72318333D01*
X119478666Y-72285000D01*
X119345333Y-72285000D01*
X119278666Y-72318333D01*
X118645333Y-72285000D02*
X118645333Y-72751666D01*
X118945333Y-72285000D02*
X118945333Y-72651666D01*
X118912000Y-72718333D01*
X118845333Y-72751666D01*
X118745333Y-72751666D01*
X118678666Y-72718333D01*
X118645333Y-72685000D01*
X118312000Y-72751666D02*
X118312000Y-72285000D01*
X118312000Y-72051666D02*
X118345333Y-72085000D01*
X118312000Y-72118333D01*
X118278666Y-72085000D01*
X118312000Y-72051666D01*
X118312000Y-72118333D01*
X117978666Y-72751666D02*
X117978666Y-72285000D01*
X117978666Y-72418333D02*
X117945333Y-72351666D01*
X117912000Y-72318333D01*
X117845333Y-72285000D01*
X117778666Y-72285000D01*
X117278666Y-72718333D02*
X117345333Y-72751666D01*
X117478666Y-72751666D01*
X117545333Y-72718333D01*
X117578666Y-72651666D01*
X117578666Y-72385000D01*
X117545333Y-72318333D01*
X117478666Y-72285000D01*
X117345333Y-72285000D01*
X117278666Y-72318333D01*
X117245333Y-72385000D01*
X117245333Y-72451666D01*
X117578666Y-72518333D01*
X116645333Y-72751666D02*
X116645333Y-72051666D01*
X116645333Y-72718333D02*
X116712000Y-72751666D01*
X116845333Y-72751666D01*
X116912000Y-72718333D01*
X116945333Y-72685000D01*
X116978666Y-72618333D01*
X116978666Y-72418333D01*
X116945333Y-72351666D01*
X116912000Y-72318333D01*
X116845333Y-72285000D01*
X116712000Y-72285000D01*
X116645333Y-72318333D01*
X124228666Y-74458333D02*
X124195333Y-74425000D01*
X124128666Y-74391666D01*
X123962000Y-74391666D01*
X123895333Y-74425000D01*
X123862000Y-74458333D01*
X123828666Y-74525000D01*
X123828666Y-74591666D01*
X123862000Y-74691666D01*
X124262000Y-75091666D01*
X123828666Y-75091666D01*
X123228666Y-74625000D02*
X123228666Y-75091666D01*
X123395333Y-74358333D02*
X123562000Y-74858333D01*
X123128666Y-74858333D01*
X122962000Y-74391666D02*
X122728666Y-75091666D01*
X122495333Y-74391666D01*
X121762000Y-74358333D02*
X122362000Y-75258333D01*
X121162000Y-75091666D02*
X121562000Y-75091666D01*
X121362000Y-75091666D02*
X121362000Y-74391666D01*
X121428666Y-74491666D01*
X121495333Y-74558333D01*
X121562000Y-74591666D01*
X120895333Y-74458333D02*
X120862000Y-74425000D01*
X120795333Y-74391666D01*
X120628666Y-74391666D01*
X120562000Y-74425000D01*
X120528666Y-74458333D01*
X120495333Y-74525000D01*
X120495333Y-74591666D01*
X120528666Y-74691666D01*
X120928666Y-75091666D01*
X120495333Y-75091666D01*
X120295333Y-74391666D02*
X120062000Y-75091666D01*
X119828666Y-74391666D01*
X118762000Y-75091666D02*
X118762000Y-74725000D01*
X118795333Y-74658333D01*
X118862000Y-74625000D01*
X118995333Y-74625000D01*
X119062000Y-74658333D01*
X118762000Y-75058333D02*
X118828666Y-75091666D01*
X118995333Y-75091666D01*
X119062000Y-75058333D01*
X119095333Y-74991666D01*
X119095333Y-74925000D01*
X119062000Y-74858333D01*
X118995333Y-74825000D01*
X118828666Y-74825000D01*
X118762000Y-74791666D01*
X118428666Y-75091666D02*
X118428666Y-74625000D01*
X118428666Y-74758333D02*
X118395333Y-74691666D01*
X118362000Y-74658333D01*
X118295333Y-74625000D01*
X118228666Y-74625000D01*
X117728666Y-75058333D02*
X117795333Y-75091666D01*
X117928666Y-75091666D01*
X117995333Y-75058333D01*
X118028666Y-74991666D01*
X118028666Y-74725000D01*
X117995333Y-74658333D01*
X117928666Y-74625000D01*
X117795333Y-74625000D01*
X117728666Y-74658333D01*
X117695333Y-74725000D01*
X117695333Y-74791666D01*
X118028666Y-74858333D01*
X122828666Y-76261666D02*
X122895333Y-76228333D01*
X122928666Y-76195000D01*
X122962000Y-76128333D01*
X122962000Y-75928333D01*
X122928666Y-75861666D01*
X122895333Y-75828333D01*
X122828666Y-75795000D01*
X122728666Y-75795000D01*
X122662000Y-75828333D01*
X122628666Y-75861666D01*
X122595333Y-75928333D01*
X122595333Y-76128333D01*
X122628666Y-76195000D01*
X122662000Y-76228333D01*
X122728666Y-76261666D01*
X122828666Y-76261666D01*
X122295333Y-75795000D02*
X122295333Y-76495000D01*
X122295333Y-75828333D02*
X122228666Y-75795000D01*
X122095333Y-75795000D01*
X122028666Y-75828333D01*
X121995333Y-75861666D01*
X121962000Y-75928333D01*
X121962000Y-76128333D01*
X121995333Y-76195000D01*
X122028666Y-76228333D01*
X122095333Y-76261666D01*
X122228666Y-76261666D01*
X122295333Y-76228333D01*
X121762000Y-75795000D02*
X121495333Y-75795000D01*
X121662000Y-75561666D02*
X121662000Y-76161666D01*
X121628666Y-76228333D01*
X121562000Y-76261666D01*
X121495333Y-76261666D01*
X121262000Y-76261666D02*
X121262000Y-75795000D01*
X121262000Y-75561666D02*
X121295333Y-75595000D01*
X121262000Y-75628333D01*
X121228666Y-75595000D01*
X121262000Y-75561666D01*
X121262000Y-75628333D01*
X120828666Y-76261666D02*
X120895333Y-76228333D01*
X120928666Y-76195000D01*
X120962000Y-76128333D01*
X120962000Y-75928333D01*
X120928666Y-75861666D01*
X120895333Y-75828333D01*
X120828666Y-75795000D01*
X120728666Y-75795000D01*
X120662000Y-75828333D01*
X120628666Y-75861666D01*
X120595333Y-75928333D01*
X120595333Y-76128333D01*
X120628666Y-76195000D01*
X120662000Y-76228333D01*
X120728666Y-76261666D01*
X120828666Y-76261666D01*
X120295333Y-75795000D02*
X120295333Y-76261666D01*
X120295333Y-75861666D02*
X120262000Y-75828333D01*
X120195333Y-75795000D01*
X120095333Y-75795000D01*
X120028666Y-75828333D01*
X119995333Y-75895000D01*
X119995333Y-76261666D01*
X119362000Y-76261666D02*
X119362000Y-75895000D01*
X119395333Y-75828333D01*
X119462000Y-75795000D01*
X119595333Y-75795000D01*
X119662000Y-75828333D01*
X119362000Y-76228333D02*
X119428666Y-76261666D01*
X119595333Y-76261666D01*
X119662000Y-76228333D01*
X119695333Y-76161666D01*
X119695333Y-76095000D01*
X119662000Y-76028333D01*
X119595333Y-75995000D01*
X119428666Y-75995000D01*
X119362000Y-75961666D01*
X118928666Y-76261666D02*
X118995333Y-76228333D01*
X119028666Y-76161666D01*
X119028666Y-75561666D01*
%TO.C,Q6*%
X132517000Y-63260000D02*
X132517000Y-61800000D01*
X129357000Y-63260000D02*
X129357000Y-61100000D01*
X129357000Y-63260000D02*
X130287000Y-63260000D01*
X132517000Y-63260000D02*
X131587000Y-63260000D01*
%TO.C,J2*%
X77540000Y-49770000D02*
X77540000Y-51100000D01*
X77540000Y-51100000D02*
X78870000Y-51100000D01*
X77540000Y-48500000D02*
X80140000Y-48500000D01*
X80140000Y-48500000D02*
X80140000Y-51100000D01*
X80140000Y-51100000D02*
X128460000Y-51100000D01*
X128460000Y-45900000D02*
X128460000Y-51100000D01*
X77540000Y-45900000D02*
X128460000Y-45900000D01*
X77540000Y-45900000D02*
X77540000Y-48500000D01*
%TO.C,D5*%
X120800000Y-93850000D02*
X124650000Y-93850000D01*
X120800000Y-91850000D02*
X124650000Y-91850000D01*
X120800000Y-93850000D02*
X120800000Y-91850000D01*
%TO.C,D4*%
X110800000Y-93850000D02*
X114650000Y-93850000D01*
X110800000Y-91850000D02*
X114650000Y-91850000D01*
X110800000Y-93850000D02*
X110800000Y-91850000D01*
%TO.C,D3*%
X100700000Y-93850000D02*
X104550000Y-93850000D01*
X100700000Y-91850000D02*
X104550000Y-91850000D01*
X100700000Y-93850000D02*
X100700000Y-91850000D01*
%TO.C,D2*%
X90900000Y-93850000D02*
X94750000Y-93850000D01*
X90900000Y-91850000D02*
X94750000Y-91850000D01*
X90900000Y-93850000D02*
X90900000Y-91850000D01*
%TO.C,D1*%
X80800000Y-93850000D02*
X84650000Y-93850000D01*
X80800000Y-91850000D02*
X84650000Y-91850000D01*
X80800000Y-93850000D02*
X80800000Y-91850000D01*
%TO.C,Q1*%
X132080000Y-68760000D02*
X131150000Y-68760000D01*
X128920000Y-68760000D02*
X129850000Y-68760000D01*
X128920000Y-68760000D02*
X128920000Y-66600000D01*
X132080000Y-68760000D02*
X132080000Y-67300000D01*
%TO.C,Q5*%
X119944000Y-63260000D02*
X119944000Y-61800000D01*
X116784000Y-63260000D02*
X116784000Y-61100000D01*
X116784000Y-63260000D02*
X117714000Y-63260000D01*
X119944000Y-63260000D02*
X119014000Y-63260000D01*
%TO.C,Q4*%
X125580000Y-63260000D02*
X125580000Y-61800000D01*
X122420000Y-63260000D02*
X122420000Y-61100000D01*
X122420000Y-63260000D02*
X123350000Y-63260000D01*
X125580000Y-63260000D02*
X124650000Y-63260000D01*
%TO.C,Q3*%
X112580000Y-63260000D02*
X112580000Y-61800000D01*
X109420000Y-63260000D02*
X109420000Y-61100000D01*
X109420000Y-63260000D02*
X110350000Y-63260000D01*
X112580000Y-63260000D02*
X111650000Y-63260000D01*
%TD*%
M02*
