%TF.GenerationSoftware,KiCad,Pcbnew,(5.1.9)-1*%
%TF.CreationDate,2021-03-07T19:12:45-05:00*%
%TF.ProjectId,bigp4ppa,62696770-3470-4706-912e-6b696361645f,rev?*%
%TF.SameCoordinates,Original*%
%TF.FileFunction,Legend,Top*%
%TF.FilePolarity,Positive*%
%FSLAX46Y46*%
G04 Gerber Fmt 4.6, Leading zero omitted, Abs format (unit mm)*
G04 Created by KiCad (PCBNEW (5.1.9)-1) date 2021-03-07 19:12:45*
%MOMM*%
%LPD*%
G01*
G04 APERTURE LIST*
%ADD10C,0.110000*%
%ADD11C,0.130000*%
%ADD12C,0.150000*%
%ADD13C,0.152400*%
%ADD14C,0.120000*%
%ADD15C,0.203200*%
G04 APERTURE END LIST*
D10*
X117328666Y-81666666D02*
X116928666Y-81666666D01*
X117128666Y-81666666D02*
X117128666Y-80966666D01*
X117062000Y-81066666D01*
X116995333Y-81133333D01*
X116928666Y-81166666D01*
X117928666Y-80966666D02*
X117795333Y-80966666D01*
X117728666Y-81000000D01*
X117695333Y-81033333D01*
X117628666Y-81133333D01*
X117595333Y-81266666D01*
X117595333Y-81533333D01*
X117628666Y-81600000D01*
X117662000Y-81633333D01*
X117728666Y-81666666D01*
X117862000Y-81666666D01*
X117928666Y-81633333D01*
X117962000Y-81600000D01*
X117995333Y-81533333D01*
X117995333Y-81366666D01*
X117962000Y-81300000D01*
X117928666Y-81266666D01*
X117862000Y-81233333D01*
X117728666Y-81233333D01*
X117662000Y-81266666D01*
X117628666Y-81300000D01*
X117595333Y-81366666D01*
X108828666Y-81666666D02*
X108428666Y-81666666D01*
X108628666Y-81666666D02*
X108628666Y-80966666D01*
X108562000Y-81066666D01*
X108495333Y-81133333D01*
X108428666Y-81166666D01*
X109462000Y-80966666D02*
X109128666Y-80966666D01*
X109095333Y-81300000D01*
X109128666Y-81266666D01*
X109195333Y-81233333D01*
X109362000Y-81233333D01*
X109428666Y-81266666D01*
X109462000Y-81300000D01*
X109495333Y-81366666D01*
X109495333Y-81533333D01*
X109462000Y-81600000D01*
X109428666Y-81633333D01*
X109362000Y-81666666D01*
X109195333Y-81666666D01*
X109128666Y-81633333D01*
X109095333Y-81600000D01*
X100328666Y-81666666D02*
X99928666Y-81666666D01*
X100128666Y-81666666D02*
X100128666Y-80966666D01*
X100062000Y-81066666D01*
X99995333Y-81133333D01*
X99928666Y-81166666D01*
X100928666Y-81200000D02*
X100928666Y-81666666D01*
X100762000Y-80933333D02*
X100595333Y-81433333D01*
X101028666Y-81433333D01*
X91828666Y-81666666D02*
X91428666Y-81666666D01*
X91628666Y-81666666D02*
X91628666Y-80966666D01*
X91562000Y-81066666D01*
X91495333Y-81133333D01*
X91428666Y-81166666D01*
X92062000Y-80966666D02*
X92495333Y-80966666D01*
X92262000Y-81233333D01*
X92362000Y-81233333D01*
X92428666Y-81266666D01*
X92462000Y-81300000D01*
X92495333Y-81366666D01*
X92495333Y-81533333D01*
X92462000Y-81600000D01*
X92428666Y-81633333D01*
X92362000Y-81666666D01*
X92162000Y-81666666D01*
X92095333Y-81633333D01*
X92062000Y-81600000D01*
X83328666Y-81666666D02*
X82928666Y-81666666D01*
X83128666Y-81666666D02*
X83128666Y-80966666D01*
X83062000Y-81066666D01*
X82995333Y-81133333D01*
X82928666Y-81166666D01*
X83595333Y-81033333D02*
X83628666Y-81000000D01*
X83695333Y-80966666D01*
X83862000Y-80966666D01*
X83928666Y-81000000D01*
X83962000Y-81033333D01*
X83995333Y-81100000D01*
X83995333Y-81166666D01*
X83962000Y-81266666D01*
X83562000Y-81666666D01*
X83995333Y-81666666D01*
D11*
X128490571Y-93407142D02*
X129100095Y-93407142D01*
X128795333Y-93711904D02*
X128795333Y-93102380D01*
X129900095Y-92950000D02*
X129823904Y-92911904D01*
X129709619Y-92911904D01*
X129595333Y-92950000D01*
X129519142Y-93026190D01*
X129481047Y-93102380D01*
X129442952Y-93254761D01*
X129442952Y-93369047D01*
X129481047Y-93521428D01*
X129519142Y-93597619D01*
X129595333Y-93673809D01*
X129709619Y-93711904D01*
X129785809Y-93711904D01*
X129900095Y-93673809D01*
X129938190Y-93635714D01*
X129938190Y-93369047D01*
X129785809Y-93369047D01*
X130281047Y-93711904D02*
X130281047Y-92911904D01*
X130585809Y-92911904D01*
X130662000Y-92950000D01*
X130700095Y-92988095D01*
X130738190Y-93064285D01*
X130738190Y-93178571D01*
X130700095Y-93254761D01*
X130662000Y-93292857D01*
X130585809Y-93330952D01*
X130281047Y-93330952D01*
X131081047Y-93711904D02*
X131081047Y-92911904D01*
X131614380Y-92911904D02*
X131766761Y-92911904D01*
X131842952Y-92950000D01*
X131919142Y-93026190D01*
X131957238Y-93178571D01*
X131957238Y-93445238D01*
X131919142Y-93597619D01*
X131842952Y-93673809D01*
X131766761Y-93711904D01*
X131614380Y-93711904D01*
X131538190Y-93673809D01*
X131462000Y-93597619D01*
X131423904Y-93445238D01*
X131423904Y-93178571D01*
X131462000Y-93026190D01*
X131538190Y-92950000D01*
X131614380Y-92911904D01*
X132719142Y-93711904D02*
X132262000Y-93711904D01*
X132490571Y-93711904D02*
X132490571Y-92911904D01*
X132414380Y-93026190D01*
X132338190Y-93102380D01*
X132262000Y-93140476D01*
X133100095Y-93711904D02*
X133252476Y-93711904D01*
X133328666Y-93673809D01*
X133366761Y-93635714D01*
X133442952Y-93521428D01*
X133481047Y-93369047D01*
X133481047Y-93064285D01*
X133442952Y-92988095D01*
X133404857Y-92950000D01*
X133328666Y-92911904D01*
X133176285Y-92911904D01*
X133100095Y-92950000D01*
X133062000Y-92988095D01*
X133023904Y-93064285D01*
X133023904Y-93254761D01*
X133062000Y-93330952D01*
X133100095Y-93369047D01*
X133176285Y-93407142D01*
X133328666Y-93407142D01*
X133404857Y-93369047D01*
X133442952Y-93330952D01*
X133481047Y-93254761D01*
X133823904Y-93407142D02*
X134433428Y-93407142D01*
X109990571Y-90907142D02*
X110600095Y-90907142D01*
X110295333Y-91211904D02*
X110295333Y-90602380D01*
X111400095Y-90450000D02*
X111323904Y-90411904D01*
X111209619Y-90411904D01*
X111095333Y-90450000D01*
X111019142Y-90526190D01*
X110981047Y-90602380D01*
X110942952Y-90754761D01*
X110942952Y-90869047D01*
X110981047Y-91021428D01*
X111019142Y-91097619D01*
X111095333Y-91173809D01*
X111209619Y-91211904D01*
X111285809Y-91211904D01*
X111400095Y-91173809D01*
X111438190Y-91135714D01*
X111438190Y-90869047D01*
X111285809Y-90869047D01*
X111781047Y-91211904D02*
X111781047Y-90411904D01*
X112085809Y-90411904D01*
X112162000Y-90450000D01*
X112200095Y-90488095D01*
X112238190Y-90564285D01*
X112238190Y-90678571D01*
X112200095Y-90754761D01*
X112162000Y-90792857D01*
X112085809Y-90830952D01*
X111781047Y-90830952D01*
X112581047Y-91211904D02*
X112581047Y-90411904D01*
X113114380Y-90411904D02*
X113266761Y-90411904D01*
X113342952Y-90450000D01*
X113419142Y-90526190D01*
X113457238Y-90678571D01*
X113457238Y-90945238D01*
X113419142Y-91097619D01*
X113342952Y-91173809D01*
X113266761Y-91211904D01*
X113114380Y-91211904D01*
X113038190Y-91173809D01*
X112962000Y-91097619D01*
X112923904Y-90945238D01*
X112923904Y-90678571D01*
X112962000Y-90526190D01*
X113038190Y-90450000D01*
X113114380Y-90411904D01*
X114219142Y-91211904D02*
X113762000Y-91211904D01*
X113990571Y-91211904D02*
X113990571Y-90411904D01*
X113914380Y-90526190D01*
X113838190Y-90602380D01*
X113762000Y-90640476D01*
X114600095Y-91211904D02*
X114752476Y-91211904D01*
X114828666Y-91173809D01*
X114866761Y-91135714D01*
X114942952Y-91021428D01*
X114981047Y-90869047D01*
X114981047Y-90564285D01*
X114942952Y-90488095D01*
X114904857Y-90450000D01*
X114828666Y-90411904D01*
X114676285Y-90411904D01*
X114600095Y-90450000D01*
X114562000Y-90488095D01*
X114523904Y-90564285D01*
X114523904Y-90754761D01*
X114562000Y-90830952D01*
X114600095Y-90869047D01*
X114676285Y-90907142D01*
X114828666Y-90907142D01*
X114904857Y-90869047D01*
X114942952Y-90830952D01*
X114981047Y-90754761D01*
X115323904Y-90907142D02*
X115933428Y-90907142D01*
X99990571Y-90907142D02*
X100600095Y-90907142D01*
X100295333Y-91211904D02*
X100295333Y-90602380D01*
X101400095Y-90450000D02*
X101323904Y-90411904D01*
X101209619Y-90411904D01*
X101095333Y-90450000D01*
X101019142Y-90526190D01*
X100981047Y-90602380D01*
X100942952Y-90754761D01*
X100942952Y-90869047D01*
X100981047Y-91021428D01*
X101019142Y-91097619D01*
X101095333Y-91173809D01*
X101209619Y-91211904D01*
X101285809Y-91211904D01*
X101400095Y-91173809D01*
X101438190Y-91135714D01*
X101438190Y-90869047D01*
X101285809Y-90869047D01*
X101781047Y-91211904D02*
X101781047Y-90411904D01*
X102085809Y-90411904D01*
X102162000Y-90450000D01*
X102200095Y-90488095D01*
X102238190Y-90564285D01*
X102238190Y-90678571D01*
X102200095Y-90754761D01*
X102162000Y-90792857D01*
X102085809Y-90830952D01*
X101781047Y-90830952D01*
X102581047Y-91211904D02*
X102581047Y-90411904D01*
X103114380Y-90411904D02*
X103266761Y-90411904D01*
X103342952Y-90450000D01*
X103419142Y-90526190D01*
X103457238Y-90678571D01*
X103457238Y-90945238D01*
X103419142Y-91097619D01*
X103342952Y-91173809D01*
X103266761Y-91211904D01*
X103114380Y-91211904D01*
X103038190Y-91173809D01*
X102962000Y-91097619D01*
X102923904Y-90945238D01*
X102923904Y-90678571D01*
X102962000Y-90526190D01*
X103038190Y-90450000D01*
X103114380Y-90411904D01*
X104219142Y-91211904D02*
X103762000Y-91211904D01*
X103990571Y-91211904D02*
X103990571Y-90411904D01*
X103914380Y-90526190D01*
X103838190Y-90602380D01*
X103762000Y-90640476D01*
X104676285Y-90754761D02*
X104600095Y-90716666D01*
X104562000Y-90678571D01*
X104523904Y-90602380D01*
X104523904Y-90564285D01*
X104562000Y-90488095D01*
X104600095Y-90450000D01*
X104676285Y-90411904D01*
X104828666Y-90411904D01*
X104904857Y-90450000D01*
X104942952Y-90488095D01*
X104981047Y-90564285D01*
X104981047Y-90602380D01*
X104942952Y-90678571D01*
X104904857Y-90716666D01*
X104828666Y-90754761D01*
X104676285Y-90754761D01*
X104600095Y-90792857D01*
X104562000Y-90830952D01*
X104523904Y-90907142D01*
X104523904Y-91059523D01*
X104562000Y-91135714D01*
X104600095Y-91173809D01*
X104676285Y-91211904D01*
X104828666Y-91211904D01*
X104904857Y-91173809D01*
X104942952Y-91135714D01*
X104981047Y-91059523D01*
X104981047Y-90907142D01*
X104942952Y-90830952D01*
X104904857Y-90792857D01*
X104828666Y-90754761D01*
X105323904Y-90907142D02*
X105933428Y-90907142D01*
X89990571Y-90907142D02*
X90600095Y-90907142D01*
X90295333Y-91211904D02*
X90295333Y-90602380D01*
X91400095Y-90450000D02*
X91323904Y-90411904D01*
X91209619Y-90411904D01*
X91095333Y-90450000D01*
X91019142Y-90526190D01*
X90981047Y-90602380D01*
X90942952Y-90754761D01*
X90942952Y-90869047D01*
X90981047Y-91021428D01*
X91019142Y-91097619D01*
X91095333Y-91173809D01*
X91209619Y-91211904D01*
X91285809Y-91211904D01*
X91400095Y-91173809D01*
X91438190Y-91135714D01*
X91438190Y-90869047D01*
X91285809Y-90869047D01*
X91781047Y-91211904D02*
X91781047Y-90411904D01*
X92085809Y-90411904D01*
X92162000Y-90450000D01*
X92200095Y-90488095D01*
X92238190Y-90564285D01*
X92238190Y-90678571D01*
X92200095Y-90754761D01*
X92162000Y-90792857D01*
X92085809Y-90830952D01*
X91781047Y-90830952D01*
X92581047Y-91211904D02*
X92581047Y-90411904D01*
X93114380Y-90411904D02*
X93266761Y-90411904D01*
X93342952Y-90450000D01*
X93419142Y-90526190D01*
X93457238Y-90678571D01*
X93457238Y-90945238D01*
X93419142Y-91097619D01*
X93342952Y-91173809D01*
X93266761Y-91211904D01*
X93114380Y-91211904D01*
X93038190Y-91173809D01*
X92962000Y-91097619D01*
X92923904Y-90945238D01*
X92923904Y-90678571D01*
X92962000Y-90526190D01*
X93038190Y-90450000D01*
X93114380Y-90411904D01*
X94219142Y-91211904D02*
X93762000Y-91211904D01*
X93990571Y-91211904D02*
X93990571Y-90411904D01*
X93914380Y-90526190D01*
X93838190Y-90602380D01*
X93762000Y-90640476D01*
X94485809Y-90411904D02*
X94981047Y-90411904D01*
X94714380Y-90716666D01*
X94828666Y-90716666D01*
X94904857Y-90754761D01*
X94942952Y-90792857D01*
X94981047Y-90869047D01*
X94981047Y-91059523D01*
X94942952Y-91135714D01*
X94904857Y-91173809D01*
X94828666Y-91211904D01*
X94600095Y-91211904D01*
X94523904Y-91173809D01*
X94485809Y-91135714D01*
X95323904Y-90907142D02*
X95933428Y-90907142D01*
X79990571Y-90907142D02*
X80600095Y-90907142D01*
X80295333Y-91211904D02*
X80295333Y-90602380D01*
X81400095Y-90450000D02*
X81323904Y-90411904D01*
X81209619Y-90411904D01*
X81095333Y-90450000D01*
X81019142Y-90526190D01*
X80981047Y-90602380D01*
X80942952Y-90754761D01*
X80942952Y-90869047D01*
X80981047Y-91021428D01*
X81019142Y-91097619D01*
X81095333Y-91173809D01*
X81209619Y-91211904D01*
X81285809Y-91211904D01*
X81400095Y-91173809D01*
X81438190Y-91135714D01*
X81438190Y-90869047D01*
X81285809Y-90869047D01*
X81781047Y-91211904D02*
X81781047Y-90411904D01*
X82085809Y-90411904D01*
X82162000Y-90450000D01*
X82200095Y-90488095D01*
X82238190Y-90564285D01*
X82238190Y-90678571D01*
X82200095Y-90754761D01*
X82162000Y-90792857D01*
X82085809Y-90830952D01*
X81781047Y-90830952D01*
X82581047Y-91211904D02*
X82581047Y-90411904D01*
X83114380Y-90411904D02*
X83266761Y-90411904D01*
X83342952Y-90450000D01*
X83419142Y-90526190D01*
X83457238Y-90678571D01*
X83457238Y-90945238D01*
X83419142Y-91097619D01*
X83342952Y-91173809D01*
X83266761Y-91211904D01*
X83114380Y-91211904D01*
X83038190Y-91173809D01*
X82962000Y-91097619D01*
X82923904Y-90945238D01*
X82923904Y-90678571D01*
X82962000Y-90526190D01*
X83038190Y-90450000D01*
X83114380Y-90411904D01*
X84219142Y-91211904D02*
X83762000Y-91211904D01*
X83990571Y-91211904D02*
X83990571Y-90411904D01*
X83914380Y-90526190D01*
X83838190Y-90602380D01*
X83762000Y-90640476D01*
X84523904Y-90488095D02*
X84562000Y-90450000D01*
X84638190Y-90411904D01*
X84828666Y-90411904D01*
X84904857Y-90450000D01*
X84942952Y-90488095D01*
X84981047Y-90564285D01*
X84981047Y-90640476D01*
X84942952Y-90754761D01*
X84485809Y-91211904D01*
X84981047Y-91211904D01*
X85323904Y-90907142D02*
X85933428Y-90907142D01*
X129158095Y-81071523D02*
X129158095Y-81566761D01*
X128853333Y-81300095D01*
X128853333Y-81414380D01*
X128815238Y-81490571D01*
X128777142Y-81528666D01*
X128700952Y-81566761D01*
X128510476Y-81566761D01*
X128434285Y-81528666D01*
X128396190Y-81490571D01*
X128358095Y-81414380D01*
X128358095Y-81185809D01*
X128396190Y-81109619D01*
X128434285Y-81071523D01*
X129158095Y-81795333D02*
X128358095Y-82062000D01*
X129158095Y-82328666D01*
X129158095Y-82519142D02*
X129158095Y-83014380D01*
X128853333Y-82747714D01*
X128853333Y-82862000D01*
X128815238Y-82938190D01*
X128777142Y-82976285D01*
X128700952Y-83014380D01*
X128510476Y-83014380D01*
X128434285Y-82976285D01*
X128396190Y-82938190D01*
X128358095Y-82862000D01*
X128358095Y-82633428D01*
X128396190Y-82557238D01*
X128434285Y-82519142D01*
D12*
X125887380Y-64240476D02*
X125887380Y-65002380D01*
X125887380Y-65002380D02*
X125887380Y-65764285D01*
X125887380Y-65764285D02*
X125887380Y-66526190D01*
X125887380Y-66526190D02*
X125887380Y-67288095D01*
X125887380Y-67288095D02*
X125887380Y-68050000D01*
X125887380Y-68050000D02*
X125887380Y-68811904D01*
X125887380Y-68811904D02*
X125887380Y-69573809D01*
X125887380Y-69573809D02*
X125887380Y-70335714D01*
X125887380Y-70335714D02*
X125887380Y-71097619D01*
X125887380Y-71097619D02*
X125887380Y-71859523D01*
X124332619Y-65978571D02*
X125332619Y-65978571D01*
X125332619Y-66359523D01*
X125285000Y-66454761D01*
X125237380Y-66502380D01*
X125142142Y-66550000D01*
X124999285Y-66550000D01*
X124904047Y-66502380D01*
X124856428Y-66454761D01*
X124808809Y-66359523D01*
X124808809Y-65978571D01*
X125332619Y-66835714D02*
X125332619Y-67407142D01*
X124332619Y-67121428D02*
X125332619Y-67121428D01*
X124332619Y-68264285D02*
X124332619Y-67692857D01*
X124332619Y-67978571D02*
X125332619Y-67978571D01*
X125189761Y-67883333D01*
X125094523Y-67788095D01*
X125046904Y-67692857D01*
X125332619Y-68883333D02*
X125332619Y-68978571D01*
X125285000Y-69073809D01*
X125237380Y-69121428D01*
X125142142Y-69169047D01*
X124951666Y-69216666D01*
X124713571Y-69216666D01*
X124523095Y-69169047D01*
X124427857Y-69121428D01*
X124380238Y-69073809D01*
X124332619Y-68978571D01*
X124332619Y-68883333D01*
X124380238Y-68788095D01*
X124427857Y-68740476D01*
X124523095Y-68692857D01*
X124713571Y-68645238D01*
X124951666Y-68645238D01*
X125142142Y-68692857D01*
X125237380Y-68740476D01*
X125285000Y-68788095D01*
X125332619Y-68883333D01*
X125332619Y-69835714D02*
X125332619Y-69930952D01*
X125285000Y-70026190D01*
X125237380Y-70073809D01*
X125142142Y-70121428D01*
X124951666Y-70169047D01*
X124713571Y-70169047D01*
X124523095Y-70121428D01*
X124427857Y-70073809D01*
X124380238Y-70026190D01*
X124332619Y-69930952D01*
X124332619Y-69835714D01*
X124380238Y-69740476D01*
X124427857Y-69692857D01*
X124523095Y-69645238D01*
X124713571Y-69597619D01*
X124951666Y-69597619D01*
X125142142Y-69645238D01*
X125237380Y-69692857D01*
X125285000Y-69740476D01*
X125332619Y-69835714D01*
X122730238Y-64835714D02*
X122682619Y-64978571D01*
X122682619Y-65216666D01*
X122730238Y-65311904D01*
X122777857Y-65359523D01*
X122873095Y-65407142D01*
X122968333Y-65407142D01*
X123063571Y-65359523D01*
X123111190Y-65311904D01*
X123158809Y-65216666D01*
X123206428Y-65026190D01*
X123254047Y-64930952D01*
X123301666Y-64883333D01*
X123396904Y-64835714D01*
X123492142Y-64835714D01*
X123587380Y-64883333D01*
X123635000Y-64930952D01*
X123682619Y-65026190D01*
X123682619Y-65264285D01*
X123635000Y-65407142D01*
X123349285Y-65692857D02*
X123349285Y-66073809D01*
X123682619Y-65835714D02*
X122825476Y-65835714D01*
X122730238Y-65883333D01*
X122682619Y-65978571D01*
X122682619Y-66073809D01*
X122730238Y-66788095D02*
X122682619Y-66692857D01*
X122682619Y-66502380D01*
X122730238Y-66407142D01*
X122825476Y-66359523D01*
X123206428Y-66359523D01*
X123301666Y-66407142D01*
X123349285Y-66502380D01*
X123349285Y-66692857D01*
X123301666Y-66788095D01*
X123206428Y-66835714D01*
X123111190Y-66835714D01*
X123015952Y-66359523D01*
X123349285Y-67264285D02*
X122349285Y-67264285D01*
X123301666Y-67264285D02*
X123349285Y-67359523D01*
X123349285Y-67550000D01*
X123301666Y-67645238D01*
X123254047Y-67692857D01*
X123158809Y-67740476D01*
X122873095Y-67740476D01*
X122777857Y-67692857D01*
X122730238Y-67645238D01*
X122682619Y-67550000D01*
X122682619Y-67359523D01*
X122730238Y-67264285D01*
X122730238Y-68121428D02*
X122682619Y-68216666D01*
X122682619Y-68407142D01*
X122730238Y-68502380D01*
X122825476Y-68550000D01*
X122873095Y-68550000D01*
X122968333Y-68502380D01*
X123015952Y-68407142D01*
X123015952Y-68264285D01*
X123063571Y-68169047D01*
X123158809Y-68121428D01*
X123206428Y-68121428D01*
X123301666Y-68169047D01*
X123349285Y-68264285D01*
X123349285Y-68407142D01*
X123301666Y-68502380D01*
X123349285Y-68835714D02*
X123349285Y-69216666D01*
X123682619Y-68978571D02*
X122825476Y-68978571D01*
X122730238Y-69026190D01*
X122682619Y-69121428D01*
X122682619Y-69216666D01*
X122682619Y-69550000D02*
X123349285Y-69550000D01*
X123682619Y-69550000D02*
X123635000Y-69502380D01*
X123587380Y-69550000D01*
X123635000Y-69597619D01*
X123682619Y-69550000D01*
X123587380Y-69550000D01*
X122730238Y-70454761D02*
X122682619Y-70359523D01*
X122682619Y-70169047D01*
X122730238Y-70073809D01*
X122777857Y-70026190D01*
X122873095Y-69978571D01*
X123158809Y-69978571D01*
X123254047Y-70026190D01*
X123301666Y-70073809D01*
X123349285Y-70169047D01*
X123349285Y-70359523D01*
X123301666Y-70454761D01*
X122682619Y-70883333D02*
X123682619Y-70883333D01*
X123063571Y-70978571D02*
X122682619Y-71264285D01*
X123349285Y-71264285D02*
X122968333Y-70883333D01*
X118895714Y-75646666D02*
X119371904Y-75646666D01*
X118800476Y-75932380D02*
X119133809Y-74932380D01*
X119467142Y-75932380D01*
X120229047Y-75932380D02*
X120229047Y-74932380D01*
X120229047Y-75884761D02*
X120133809Y-75932380D01*
X119943333Y-75932380D01*
X119848095Y-75884761D01*
X119800476Y-75837142D01*
X119752857Y-75741904D01*
X119752857Y-75456190D01*
X119800476Y-75360952D01*
X119848095Y-75313333D01*
X119943333Y-75265714D01*
X120133809Y-75265714D01*
X120229047Y-75313333D01*
X121133809Y-75932380D02*
X121133809Y-75408571D01*
X121086190Y-75313333D01*
X120990952Y-75265714D01*
X120800476Y-75265714D01*
X120705238Y-75313333D01*
X121133809Y-75884761D02*
X121038571Y-75932380D01*
X120800476Y-75932380D01*
X120705238Y-75884761D01*
X120657619Y-75789523D01*
X120657619Y-75694285D01*
X120705238Y-75599047D01*
X120800476Y-75551428D01*
X121038571Y-75551428D01*
X121133809Y-75503809D01*
X121467142Y-75265714D02*
X121848095Y-75265714D01*
X121610000Y-75932380D02*
X121610000Y-75075238D01*
X121657619Y-74980000D01*
X121752857Y-74932380D01*
X121848095Y-74932380D01*
X122181428Y-75932380D02*
X122181428Y-75265714D01*
X122181428Y-75456190D02*
X122229047Y-75360952D01*
X122276666Y-75313333D01*
X122371904Y-75265714D01*
X122467142Y-75265714D01*
X123229047Y-75265714D02*
X123229047Y-75932380D01*
X122800476Y-75265714D02*
X122800476Y-75789523D01*
X122848095Y-75884761D01*
X122943333Y-75932380D01*
X123086190Y-75932380D01*
X123181428Y-75884761D01*
X123229047Y-75837142D01*
X123705238Y-75932380D02*
X123705238Y-75265714D01*
X123705238Y-74932380D02*
X123657619Y-74980000D01*
X123705238Y-75027619D01*
X123752857Y-74980000D01*
X123705238Y-74932380D01*
X123705238Y-75027619D01*
X124038571Y-75265714D02*
X124419523Y-75265714D01*
X124181428Y-74932380D02*
X124181428Y-75789523D01*
X124229047Y-75884761D01*
X124324285Y-75932380D01*
X124419523Y-75932380D01*
X117990952Y-77582380D02*
X117990952Y-76582380D01*
X118324285Y-77296666D01*
X118657619Y-76582380D01*
X118657619Y-77582380D01*
X119086190Y-77296666D02*
X119562380Y-77296666D01*
X118990952Y-77582380D02*
X119324285Y-76582380D01*
X119657619Y-77582380D01*
X119895714Y-76582380D02*
X120562380Y-77582380D01*
X120562380Y-76582380D02*
X119895714Y-77582380D01*
X120848095Y-76582380D02*
X121467142Y-76582380D01*
X121133809Y-76963333D01*
X121276666Y-76963333D01*
X121371904Y-77010952D01*
X121419523Y-77058571D01*
X121467142Y-77153809D01*
X121467142Y-77391904D01*
X121419523Y-77487142D01*
X121371904Y-77534761D01*
X121276666Y-77582380D01*
X120990952Y-77582380D01*
X120895714Y-77534761D01*
X120848095Y-77487142D01*
X122419523Y-77582380D02*
X121848095Y-77582380D01*
X122133809Y-77582380D02*
X122133809Y-76582380D01*
X122038571Y-76725238D01*
X121943333Y-76820476D01*
X121848095Y-76868095D01*
X122990952Y-77010952D02*
X122895714Y-76963333D01*
X122848095Y-76915714D01*
X122800476Y-76820476D01*
X122800476Y-76772857D01*
X122848095Y-76677619D01*
X122895714Y-76630000D01*
X122990952Y-76582380D01*
X123181428Y-76582380D01*
X123276666Y-76630000D01*
X123324285Y-76677619D01*
X123371904Y-76772857D01*
X123371904Y-76820476D01*
X123324285Y-76915714D01*
X123276666Y-76963333D01*
X123181428Y-77010952D01*
X122990952Y-77010952D01*
X122895714Y-77058571D01*
X122848095Y-77106190D01*
X122800476Y-77201428D01*
X122800476Y-77391904D01*
X122848095Y-77487142D01*
X122895714Y-77534761D01*
X122990952Y-77582380D01*
X123181428Y-77582380D01*
X123276666Y-77534761D01*
X123324285Y-77487142D01*
X123371904Y-77391904D01*
X123371904Y-77201428D01*
X123324285Y-77106190D01*
X123276666Y-77058571D01*
X123181428Y-77010952D01*
X124229047Y-76582380D02*
X124038571Y-76582380D01*
X123943333Y-76630000D01*
X123895714Y-76677619D01*
X123800476Y-76820476D01*
X123752857Y-77010952D01*
X123752857Y-77391904D01*
X123800476Y-77487142D01*
X123848095Y-77534761D01*
X123943333Y-77582380D01*
X124133809Y-77582380D01*
X124229047Y-77534761D01*
X124276666Y-77487142D01*
X124324285Y-77391904D01*
X124324285Y-77153809D01*
X124276666Y-77058571D01*
X124229047Y-77010952D01*
X124133809Y-76963333D01*
X123943333Y-76963333D01*
X123848095Y-77010952D01*
X123800476Y-77058571D01*
X123752857Y-77153809D01*
X125229047Y-76582380D02*
X124752857Y-76582380D01*
X124705238Y-77058571D01*
X124752857Y-77010952D01*
X124848095Y-76963333D01*
X125086190Y-76963333D01*
X125181428Y-77010952D01*
X125229047Y-77058571D01*
X125276666Y-77153809D01*
X125276666Y-77391904D01*
X125229047Y-77487142D01*
X125181428Y-77534761D01*
X125086190Y-77582380D01*
X124848095Y-77582380D01*
X124752857Y-77534761D01*
X124705238Y-77487142D01*
X87652476Y-52802380D02*
X87652476Y-51802380D01*
X87652476Y-52183333D02*
X87747714Y-52135714D01*
X87938190Y-52135714D01*
X88033428Y-52183333D01*
X88081047Y-52230952D01*
X88128666Y-52326190D01*
X88128666Y-52611904D01*
X88081047Y-52707142D01*
X88033428Y-52754761D01*
X87938190Y-52802380D01*
X87747714Y-52802380D01*
X87652476Y-52754761D01*
X88557238Y-52802380D02*
X88557238Y-52135714D01*
X88557238Y-51802380D02*
X88509619Y-51850000D01*
X88557238Y-51897619D01*
X88604857Y-51850000D01*
X88557238Y-51802380D01*
X88557238Y-51897619D01*
X89462000Y-52135714D02*
X89462000Y-52945238D01*
X89414380Y-53040476D01*
X89366761Y-53088095D01*
X89271523Y-53135714D01*
X89128666Y-53135714D01*
X89033428Y-53088095D01*
X89462000Y-52754761D02*
X89366761Y-52802380D01*
X89176285Y-52802380D01*
X89081047Y-52754761D01*
X89033428Y-52707142D01*
X88985809Y-52611904D01*
X88985809Y-52326190D01*
X89033428Y-52230952D01*
X89081047Y-52183333D01*
X89176285Y-52135714D01*
X89366761Y-52135714D01*
X89462000Y-52183333D01*
X90700095Y-52135714D02*
X90700095Y-53135714D01*
X90700095Y-52183333D02*
X90795333Y-52135714D01*
X90985809Y-52135714D01*
X91081047Y-52183333D01*
X91128666Y-52230952D01*
X91176285Y-52326190D01*
X91176285Y-52611904D01*
X91128666Y-52707142D01*
X91081047Y-52754761D01*
X90985809Y-52802380D01*
X90795333Y-52802380D01*
X90700095Y-52754761D01*
X92033428Y-52135714D02*
X92033428Y-52802380D01*
X91795333Y-51754761D02*
X91557238Y-52469047D01*
X92176285Y-52469047D01*
X92557238Y-52135714D02*
X92557238Y-53135714D01*
X92557238Y-52183333D02*
X92652476Y-52135714D01*
X92842952Y-52135714D01*
X92938190Y-52183333D01*
X92985809Y-52230952D01*
X93033428Y-52326190D01*
X93033428Y-52611904D01*
X92985809Y-52707142D01*
X92938190Y-52754761D01*
X92842952Y-52802380D01*
X92652476Y-52802380D01*
X92557238Y-52754761D01*
X93462000Y-52135714D02*
X93462000Y-53135714D01*
X93462000Y-52183333D02*
X93557238Y-52135714D01*
X93747714Y-52135714D01*
X93842952Y-52183333D01*
X93890571Y-52230952D01*
X93938190Y-52326190D01*
X93938190Y-52611904D01*
X93890571Y-52707142D01*
X93842952Y-52754761D01*
X93747714Y-52802380D01*
X93557238Y-52802380D01*
X93462000Y-52754761D01*
X94795333Y-52802380D02*
X94795333Y-52278571D01*
X94747714Y-52183333D01*
X94652476Y-52135714D01*
X94462000Y-52135714D01*
X94366761Y-52183333D01*
X94795333Y-52754761D02*
X94700095Y-52802380D01*
X94462000Y-52802380D01*
X94366761Y-52754761D01*
X94319142Y-52659523D01*
X94319142Y-52564285D01*
X94366761Y-52469047D01*
X94462000Y-52421428D01*
X94700095Y-52421428D01*
X94795333Y-52373809D01*
X95938190Y-52135714D02*
X96176285Y-52802380D01*
X96414380Y-52135714D01*
X97319142Y-52802380D02*
X96747714Y-52802380D01*
X97033428Y-52802380D02*
X97033428Y-51802380D01*
X96938190Y-51945238D01*
X96842952Y-52040476D01*
X96747714Y-52088095D01*
D11*
X124078095Y-89199523D02*
X124078095Y-89694761D01*
X123773333Y-89428095D01*
X123773333Y-89542380D01*
X123735238Y-89618571D01*
X123697142Y-89656666D01*
X123620952Y-89694761D01*
X123430476Y-89694761D01*
X123354285Y-89656666D01*
X123316190Y-89618571D01*
X123278095Y-89542380D01*
X123278095Y-89313809D01*
X123316190Y-89237619D01*
X123354285Y-89199523D01*
X124078095Y-89923333D02*
X123278095Y-90190000D01*
X124078095Y-90456666D01*
X124078095Y-90647142D02*
X124078095Y-91142380D01*
X123773333Y-90875714D01*
X123773333Y-90990000D01*
X123735238Y-91066190D01*
X123697142Y-91104285D01*
X123620952Y-91142380D01*
X123430476Y-91142380D01*
X123354285Y-91104285D01*
X123316190Y-91066190D01*
X123278095Y-90990000D01*
X123278095Y-90761428D01*
X123316190Y-90685238D01*
X123354285Y-90647142D01*
X126732400Y-81452476D02*
X126770495Y-81376285D01*
X126770495Y-81262000D01*
X126732400Y-81147714D01*
X126656209Y-81071523D01*
X126580019Y-81033428D01*
X126427638Y-80995333D01*
X126313352Y-80995333D01*
X126160971Y-81033428D01*
X126084780Y-81071523D01*
X126008590Y-81147714D01*
X125970495Y-81262000D01*
X125970495Y-81338190D01*
X126008590Y-81452476D01*
X126046685Y-81490571D01*
X126313352Y-81490571D01*
X126313352Y-81338190D01*
X125970495Y-81833428D02*
X126770495Y-81833428D01*
X125970495Y-82290571D01*
X126770495Y-82290571D01*
X125970495Y-82671523D02*
X126770495Y-82671523D01*
X126770495Y-82862000D01*
X126732400Y-82976285D01*
X126656209Y-83052476D01*
X126580019Y-83090571D01*
X126427638Y-83128666D01*
X126313352Y-83128666D01*
X126160971Y-83090571D01*
X126084780Y-83052476D01*
X126008590Y-82976285D01*
X125970495Y-82862000D01*
X125970495Y-82671523D01*
X126008590Y-89218571D02*
X125970495Y-89332857D01*
X125970495Y-89523333D01*
X126008590Y-89599523D01*
X126046685Y-89637619D01*
X126122876Y-89675714D01*
X126199066Y-89675714D01*
X126275257Y-89637619D01*
X126313352Y-89599523D01*
X126351447Y-89523333D01*
X126389542Y-89370952D01*
X126427638Y-89294761D01*
X126465733Y-89256666D01*
X126541923Y-89218571D01*
X126618114Y-89218571D01*
X126694304Y-89256666D01*
X126732400Y-89294761D01*
X126770495Y-89370952D01*
X126770495Y-89561428D01*
X126732400Y-89675714D01*
X125970495Y-90018571D02*
X126770495Y-90018571D01*
X126770495Y-90209047D01*
X126732400Y-90323333D01*
X126656209Y-90399523D01*
X126580019Y-90437619D01*
X126427638Y-90475714D01*
X126313352Y-90475714D01*
X126160971Y-90437619D01*
X126084780Y-90399523D01*
X126008590Y-90323333D01*
X125970495Y-90209047D01*
X125970495Y-90018571D01*
X126199066Y-90780476D02*
X126199066Y-91161428D01*
X125970495Y-90704285D02*
X126770495Y-90970952D01*
X125970495Y-91237619D01*
X128548590Y-89142380D02*
X128510495Y-89256666D01*
X128510495Y-89447142D01*
X128548590Y-89523333D01*
X128586685Y-89561428D01*
X128662876Y-89599523D01*
X128739066Y-89599523D01*
X128815257Y-89561428D01*
X128853352Y-89523333D01*
X128891447Y-89447142D01*
X128929542Y-89294761D01*
X128967638Y-89218571D01*
X129005733Y-89180476D01*
X129081923Y-89142380D01*
X129158114Y-89142380D01*
X129234304Y-89180476D01*
X129272400Y-89218571D01*
X129310495Y-89294761D01*
X129310495Y-89485238D01*
X129272400Y-89599523D01*
X128510495Y-89942380D02*
X129310495Y-89942380D01*
X129310495Y-90132857D01*
X129272400Y-90247142D01*
X129196209Y-90323333D01*
X129120019Y-90361428D01*
X128967638Y-90399523D01*
X128853352Y-90399523D01*
X128700971Y-90361428D01*
X128624780Y-90323333D01*
X128548590Y-90247142D01*
X128510495Y-90132857D01*
X128510495Y-89942380D01*
X129310495Y-90894761D02*
X129310495Y-91047142D01*
X129272400Y-91123333D01*
X129196209Y-91199523D01*
X129043828Y-91237619D01*
X128777161Y-91237619D01*
X128624780Y-91199523D01*
X128548590Y-91123333D01*
X128510495Y-91047142D01*
X128510495Y-90894761D01*
X128548590Y-90818571D01*
X128624780Y-90742380D01*
X128777161Y-90704285D01*
X129043828Y-90704285D01*
X129196209Y-90742380D01*
X129272400Y-90818571D01*
X129310495Y-90894761D01*
X131088590Y-89237619D02*
X131050495Y-89351904D01*
X131050495Y-89542380D01*
X131088590Y-89618571D01*
X131126685Y-89656666D01*
X131202876Y-89694761D01*
X131279066Y-89694761D01*
X131355257Y-89656666D01*
X131393352Y-89618571D01*
X131431447Y-89542380D01*
X131469542Y-89390000D01*
X131507638Y-89313809D01*
X131545733Y-89275714D01*
X131621923Y-89237619D01*
X131698114Y-89237619D01*
X131774304Y-89275714D01*
X131812400Y-89313809D01*
X131850495Y-89390000D01*
X131850495Y-89580476D01*
X131812400Y-89694761D01*
X131126685Y-90494761D02*
X131088590Y-90456666D01*
X131050495Y-90342380D01*
X131050495Y-90266190D01*
X131088590Y-90151904D01*
X131164780Y-90075714D01*
X131240971Y-90037619D01*
X131393352Y-89999523D01*
X131507638Y-89999523D01*
X131660019Y-90037619D01*
X131736209Y-90075714D01*
X131812400Y-90151904D01*
X131850495Y-90266190D01*
X131850495Y-90342380D01*
X131812400Y-90456666D01*
X131774304Y-90494761D01*
X131050495Y-91218571D02*
X131050495Y-90837619D01*
X131850495Y-90837619D01*
X131126685Y-82182666D02*
X131088590Y-82144571D01*
X131050495Y-82030285D01*
X131050495Y-81954095D01*
X131088590Y-81839809D01*
X131164780Y-81763619D01*
X131240971Y-81725523D01*
X131393352Y-81687428D01*
X131507638Y-81687428D01*
X131660019Y-81725523D01*
X131736209Y-81763619D01*
X131812400Y-81839809D01*
X131850495Y-81954095D01*
X131850495Y-82030285D01*
X131812400Y-82144571D01*
X131774304Y-82182666D01*
X131088590Y-82487428D02*
X131050495Y-82601714D01*
X131050495Y-82792190D01*
X131088590Y-82868380D01*
X131126685Y-82906476D01*
X131202876Y-82944571D01*
X131279066Y-82944571D01*
X131355257Y-82906476D01*
X131393352Y-82868380D01*
X131431447Y-82792190D01*
X131469542Y-82639809D01*
X131507638Y-82563619D01*
X131545733Y-82525523D01*
X131621923Y-82487428D01*
X131698114Y-82487428D01*
X131774304Y-82525523D01*
X131812400Y-82563619D01*
X131850495Y-82639809D01*
X131850495Y-82830285D01*
X131812400Y-82944571D01*
D12*
X78287976Y-61547619D02*
X78335595Y-61500000D01*
X78430833Y-61452380D01*
X78668928Y-61452380D01*
X78764166Y-61500000D01*
X78811785Y-61547619D01*
X78859404Y-61642857D01*
X78859404Y-61738095D01*
X78811785Y-61880952D01*
X78240357Y-62452380D01*
X78859404Y-62452380D01*
X79716547Y-61785714D02*
X79716547Y-62452380D01*
X79478452Y-61404761D02*
X79240357Y-62119047D01*
X79859404Y-62119047D01*
X80097500Y-61452380D02*
X80430833Y-62452380D01*
X80764166Y-61452380D01*
X78859404Y-59452380D02*
X78287976Y-59452380D01*
X78573690Y-59452380D02*
X78573690Y-58452380D01*
X78478452Y-58595238D01*
X78383214Y-58690476D01*
X78287976Y-58738095D01*
X79240357Y-58547619D02*
X79287976Y-58500000D01*
X79383214Y-58452380D01*
X79621309Y-58452380D01*
X79716547Y-58500000D01*
X79764166Y-58547619D01*
X79811785Y-58642857D01*
X79811785Y-58738095D01*
X79764166Y-58880952D01*
X79192738Y-59452380D01*
X79811785Y-59452380D01*
X80097500Y-58452380D02*
X80430833Y-59452380D01*
X80764166Y-58452380D01*
X78811785Y-55952380D02*
X78335595Y-55952380D01*
X78287976Y-56428571D01*
X78335595Y-56380952D01*
X78430833Y-56333333D01*
X78668928Y-56333333D01*
X78764166Y-56380952D01*
X78811785Y-56428571D01*
X78859404Y-56523809D01*
X78859404Y-56761904D01*
X78811785Y-56857142D01*
X78764166Y-56904761D01*
X78668928Y-56952380D01*
X78430833Y-56952380D01*
X78335595Y-56904761D01*
X78287976Y-56857142D01*
X79145119Y-55952380D02*
X79478452Y-56952380D01*
X79811785Y-55952380D01*
X78859404Y-53500000D02*
X78764166Y-53452380D01*
X78621309Y-53452380D01*
X78478452Y-53500000D01*
X78383214Y-53595238D01*
X78335595Y-53690476D01*
X78287976Y-53880952D01*
X78287976Y-54023809D01*
X78335595Y-54214285D01*
X78383214Y-54309523D01*
X78478452Y-54404761D01*
X78621309Y-54452380D01*
X78716547Y-54452380D01*
X78859404Y-54404761D01*
X78907023Y-54357142D01*
X78907023Y-54023809D01*
X78716547Y-54023809D01*
X79335595Y-54452380D02*
X79335595Y-53452380D01*
X79907023Y-54452380D01*
X79907023Y-53452380D01*
X80383214Y-54452380D02*
X80383214Y-53452380D01*
X80621309Y-53452380D01*
X80764166Y-53500000D01*
X80859404Y-53595238D01*
X80907023Y-53690476D01*
X80954642Y-53880952D01*
X80954642Y-54023809D01*
X80907023Y-54214285D01*
X80859404Y-54309523D01*
X80764166Y-54404761D01*
X80621309Y-54452380D01*
X80383214Y-54452380D01*
X74310952Y-89034880D02*
X73739523Y-89034880D01*
X74025238Y-89034880D02*
X74025238Y-88034880D01*
X73930000Y-88177738D01*
X73834761Y-88272976D01*
X73739523Y-88320595D01*
X74691904Y-88130119D02*
X74739523Y-88082500D01*
X74834761Y-88034880D01*
X75072857Y-88034880D01*
X75168095Y-88082500D01*
X75215714Y-88130119D01*
X75263333Y-88225357D01*
X75263333Y-88320595D01*
X75215714Y-88463452D01*
X74644285Y-89034880D01*
X75263333Y-89034880D01*
X75549047Y-88034880D02*
X75882380Y-89034880D01*
X76215714Y-88034880D01*
X74739523Y-85494880D02*
X74263333Y-85494880D01*
X74215714Y-85971071D01*
X74263333Y-85923452D01*
X74358571Y-85875833D01*
X74596666Y-85875833D01*
X74691904Y-85923452D01*
X74739523Y-85971071D01*
X74787142Y-86066309D01*
X74787142Y-86304404D01*
X74739523Y-86399642D01*
X74691904Y-86447261D01*
X74596666Y-86494880D01*
X74358571Y-86494880D01*
X74263333Y-86447261D01*
X74215714Y-86399642D01*
X75072857Y-85494880D02*
X75406190Y-86494880D01*
X75739523Y-85494880D01*
X73739523Y-83050119D02*
X73787142Y-83002500D01*
X73882380Y-82954880D01*
X74120476Y-82954880D01*
X74215714Y-83002500D01*
X74263333Y-83050119D01*
X74310952Y-83145357D01*
X74310952Y-83240595D01*
X74263333Y-83383452D01*
X73691904Y-83954880D01*
X74310952Y-83954880D01*
X75168095Y-83288214D02*
X75168095Y-83954880D01*
X74930000Y-82907261D02*
X74691904Y-83621547D01*
X75310952Y-83621547D01*
X75549047Y-82954880D02*
X75882380Y-83954880D01*
X76215714Y-82954880D01*
D13*
X123707314Y-53199587D02*
X123753276Y-53245549D01*
X123799238Y-53383435D01*
X123799238Y-53475359D01*
X123753276Y-53613244D01*
X123661352Y-53705168D01*
X123569428Y-53751130D01*
X123385580Y-53797092D01*
X123247695Y-53797092D01*
X123063847Y-53751130D01*
X122971923Y-53705168D01*
X122880000Y-53613244D01*
X122834038Y-53475359D01*
X122834038Y-53383435D01*
X122880000Y-53245549D01*
X122925961Y-53199587D01*
X123799238Y-52326311D02*
X123799238Y-52785930D01*
X122834038Y-52785930D01*
X123799238Y-52004578D02*
X122834038Y-52004578D01*
X123799238Y-51453035D02*
X123247695Y-51866692D01*
X122834038Y-51453035D02*
X123385580Y-52004578D01*
X127960000Y-53245549D02*
X127914038Y-53337473D01*
X127914038Y-53475359D01*
X127960000Y-53613244D01*
X128051923Y-53705168D01*
X128143847Y-53751130D01*
X128327695Y-53797092D01*
X128465580Y-53797092D01*
X128649428Y-53751130D01*
X128741352Y-53705168D01*
X128833276Y-53613244D01*
X128879238Y-53475359D01*
X128879238Y-53383435D01*
X128833276Y-53245549D01*
X128787314Y-53199587D01*
X128465580Y-53199587D01*
X128465580Y-53383435D01*
X128879238Y-52785930D02*
X127914038Y-52785930D01*
X128879238Y-52234387D01*
X127914038Y-52234387D01*
X128879238Y-51774768D02*
X127914038Y-51774768D01*
X127914038Y-51544959D01*
X127960000Y-51407073D01*
X128051923Y-51315149D01*
X128143847Y-51269187D01*
X128327695Y-51223225D01*
X128465580Y-51223225D01*
X128649428Y-51269187D01*
X128741352Y-51315149D01*
X128833276Y-51407073D01*
X128879238Y-51544959D01*
X128879238Y-51774768D01*
X125374038Y-53843054D02*
X125374038Y-53245549D01*
X125741733Y-53567282D01*
X125741733Y-53429397D01*
X125787695Y-53337473D01*
X125833657Y-53291511D01*
X125925580Y-53245549D01*
X126155390Y-53245549D01*
X126247314Y-53291511D01*
X126293276Y-53337473D01*
X126339238Y-53429397D01*
X126339238Y-53705168D01*
X126293276Y-53797092D01*
X126247314Y-53843054D01*
X125374038Y-52969778D02*
X126339238Y-52648044D01*
X125374038Y-52326311D01*
X125374038Y-52096501D02*
X125374038Y-51498997D01*
X125741733Y-51820730D01*
X125741733Y-51682844D01*
X125787695Y-51590920D01*
X125833657Y-51544959D01*
X125925580Y-51498997D01*
X126155390Y-51498997D01*
X126247314Y-51544959D01*
X126293276Y-51590920D01*
X126339238Y-51682844D01*
X126339238Y-51958616D01*
X126293276Y-52050540D01*
X126247314Y-52096501D01*
X118673276Y-53797092D02*
X118719238Y-53659206D01*
X118719238Y-53429397D01*
X118673276Y-53337473D01*
X118627314Y-53291511D01*
X118535390Y-53245549D01*
X118443466Y-53245549D01*
X118351542Y-53291511D01*
X118305580Y-53337473D01*
X118259619Y-53429397D01*
X118213657Y-53613244D01*
X118167695Y-53705168D01*
X118121733Y-53751130D01*
X118029809Y-53797092D01*
X117937885Y-53797092D01*
X117845961Y-53751130D01*
X117800000Y-53705168D01*
X117754038Y-53613244D01*
X117754038Y-53383435D01*
X117800000Y-53245549D01*
X118719238Y-52831892D02*
X117754038Y-52831892D01*
X117754038Y-52602082D01*
X117800000Y-52464197D01*
X117891923Y-52372273D01*
X117983847Y-52326311D01*
X118167695Y-52280349D01*
X118305580Y-52280349D01*
X118489428Y-52326311D01*
X118581352Y-52372273D01*
X118673276Y-52464197D01*
X118719238Y-52602082D01*
X118719238Y-52831892D01*
X118719238Y-51866692D02*
X117754038Y-51866692D01*
X130454038Y-53829016D02*
X131419238Y-53507282D01*
X130454038Y-53185549D01*
X131419238Y-52863816D02*
X130454038Y-52863816D01*
X131419238Y-52404197D02*
X130454038Y-52404197D01*
X131419238Y-51852654D01*
X130454038Y-51852654D01*
X113639238Y-53199587D02*
X113179619Y-53521320D01*
X113639238Y-53751130D02*
X112674038Y-53751130D01*
X112674038Y-53383435D01*
X112720000Y-53291511D01*
X112765961Y-53245549D01*
X112857885Y-53199587D01*
X112995771Y-53199587D01*
X113087695Y-53245549D01*
X113133657Y-53291511D01*
X113179619Y-53383435D01*
X113179619Y-53751130D01*
X113639238Y-52785930D02*
X112674038Y-52785930D01*
X112674038Y-52556120D01*
X112720000Y-52418235D01*
X112811923Y-52326311D01*
X112903847Y-52280349D01*
X113087695Y-52234387D01*
X113225580Y-52234387D01*
X113409428Y-52280349D01*
X113501352Y-52326311D01*
X113593276Y-52418235D01*
X113639238Y-52556120D01*
X113639238Y-52785930D01*
X113179619Y-51636882D02*
X113639238Y-51636882D01*
X112674038Y-51958616D02*
X113179619Y-51636882D01*
X112674038Y-51315149D01*
X121213276Y-53797092D02*
X121259238Y-53659206D01*
X121259238Y-53429397D01*
X121213276Y-53337473D01*
X121167314Y-53291511D01*
X121075390Y-53245549D01*
X120983466Y-53245549D01*
X120891542Y-53291511D01*
X120845580Y-53337473D01*
X120799619Y-53429397D01*
X120753657Y-53613244D01*
X120707695Y-53705168D01*
X120661733Y-53751130D01*
X120569809Y-53797092D01*
X120477885Y-53797092D01*
X120385961Y-53751130D01*
X120340000Y-53705168D01*
X120294038Y-53613244D01*
X120294038Y-53383435D01*
X120340000Y-53245549D01*
X121259238Y-52831892D02*
X120294038Y-52831892D01*
X120294038Y-52602082D01*
X120340000Y-52464197D01*
X120431923Y-52372273D01*
X120523847Y-52326311D01*
X120707695Y-52280349D01*
X120845580Y-52280349D01*
X121029428Y-52326311D01*
X121121352Y-52372273D01*
X121213276Y-52464197D01*
X121259238Y-52602082D01*
X121259238Y-52831892D01*
X120294038Y-51682844D02*
X120294038Y-51498997D01*
X120340000Y-51407073D01*
X120431923Y-51315149D01*
X120615771Y-51269187D01*
X120937504Y-51269187D01*
X121121352Y-51315149D01*
X121213276Y-51407073D01*
X121259238Y-51498997D01*
X121259238Y-51682844D01*
X121213276Y-51774768D01*
X121121352Y-51866692D01*
X120937504Y-51912654D01*
X120615771Y-51912654D01*
X120431923Y-51866692D01*
X120340000Y-51774768D01*
X120294038Y-51682844D01*
X116087314Y-53199587D02*
X116133276Y-53245549D01*
X116179238Y-53383435D01*
X116179238Y-53475359D01*
X116133276Y-53613244D01*
X116041352Y-53705168D01*
X115949428Y-53751130D01*
X115765580Y-53797092D01*
X115627695Y-53797092D01*
X115443847Y-53751130D01*
X115351923Y-53705168D01*
X115260000Y-53613244D01*
X115214038Y-53475359D01*
X115214038Y-53383435D01*
X115260000Y-53245549D01*
X115305961Y-53199587D01*
X116133276Y-52831892D02*
X116179238Y-52694006D01*
X116179238Y-52464197D01*
X116133276Y-52372273D01*
X116087314Y-52326311D01*
X115995390Y-52280349D01*
X115903466Y-52280349D01*
X115811542Y-52326311D01*
X115765580Y-52372273D01*
X115719619Y-52464197D01*
X115673657Y-52648044D01*
X115627695Y-52739968D01*
X115581733Y-52785930D01*
X115489809Y-52831892D01*
X115397885Y-52831892D01*
X115305961Y-52785930D01*
X115260000Y-52739968D01*
X115214038Y-52648044D01*
X115214038Y-52418235D01*
X115260000Y-52280349D01*
D14*
%TO.C,J4*%
X82642000Y-96350000D02*
G75*
G03*
X82642000Y-96350000I-2180000J0D01*
G01*
X87642000Y-96350000D02*
G75*
G03*
X87642000Y-96350000I-2180000J0D01*
G01*
X92642000Y-96350000D02*
G75*
G03*
X92642000Y-96350000I-2180000J0D01*
G01*
X97642000Y-96350000D02*
G75*
G03*
X97642000Y-96350000I-2180000J0D01*
G01*
X102642000Y-96350000D02*
G75*
G03*
X102642000Y-96350000I-2180000J0D01*
G01*
X107642000Y-96350000D02*
G75*
G03*
X107642000Y-96350000I-2180000J0D01*
G01*
X112642000Y-96350000D02*
G75*
G03*
X112642000Y-96350000I-2180000J0D01*
G01*
X117642000Y-96350000D02*
G75*
G03*
X117642000Y-96350000I-2180000J0D01*
G01*
X122642000Y-96350000D02*
G75*
G03*
X122642000Y-96350000I-2180000J0D01*
G01*
X127642000Y-96350000D02*
G75*
G03*
X127642000Y-96350000I-2180000J0D01*
G01*
X77902000Y-100950000D02*
X128022000Y-100950000D01*
X77902000Y-99850000D02*
X128022000Y-99850000D01*
X77902000Y-92290000D02*
X128022000Y-92290000D01*
X77902000Y-101410000D02*
X128022000Y-101410000D01*
X77902000Y-92290000D02*
X77902000Y-101410000D01*
X128022000Y-92290000D02*
X128022000Y-101410000D01*
X82116000Y-94962000D02*
X82009000Y-95069000D01*
X79180000Y-97897000D02*
X79074000Y-98004000D01*
X81850000Y-94696000D02*
X81743000Y-94803000D01*
X78914000Y-97631000D02*
X78808000Y-97738000D01*
X87116000Y-94962000D02*
X86721000Y-95358000D01*
X84455000Y-97624000D02*
X84075000Y-98004000D01*
X86850000Y-94696000D02*
X86470000Y-95076000D01*
X84204000Y-97342000D02*
X83809000Y-97738000D01*
X92116000Y-94962000D02*
X91721000Y-95358000D01*
X89455000Y-97624000D02*
X89075000Y-98004000D01*
X91850000Y-94696000D02*
X91470000Y-95076000D01*
X89204000Y-97342000D02*
X88809000Y-97738000D01*
X97116000Y-94962000D02*
X96721000Y-95358000D01*
X94455000Y-97624000D02*
X94075000Y-98004000D01*
X96850000Y-94696000D02*
X96470000Y-95076000D01*
X94204000Y-97342000D02*
X93809000Y-97738000D01*
X102116000Y-94962000D02*
X101721000Y-95358000D01*
X99455000Y-97624000D02*
X99075000Y-98004000D01*
X101850000Y-94696000D02*
X101470000Y-95076000D01*
X99204000Y-97342000D02*
X98809000Y-97738000D01*
X107116000Y-94962000D02*
X106721000Y-95358000D01*
X104455000Y-97624000D02*
X104075000Y-98004000D01*
X106850000Y-94696000D02*
X106470000Y-95076000D01*
X104204000Y-97342000D02*
X103809000Y-97738000D01*
X112116000Y-94962000D02*
X111721000Y-95358000D01*
X109455000Y-97624000D02*
X109075000Y-98004000D01*
X111850000Y-94696000D02*
X111470000Y-95076000D01*
X109204000Y-97342000D02*
X108809000Y-97738000D01*
X117116000Y-94962000D02*
X116721000Y-95358000D01*
X114455000Y-97624000D02*
X114075000Y-98004000D01*
X116850000Y-94696000D02*
X116470000Y-95076000D01*
X114204000Y-97342000D02*
X113809000Y-97738000D01*
X122116000Y-94962000D02*
X121721000Y-95358000D01*
X119455000Y-97624000D02*
X119075000Y-98004000D01*
X121850000Y-94696000D02*
X121470000Y-95076000D01*
X119204000Y-97342000D02*
X118809000Y-97738000D01*
X127116000Y-94962000D02*
X126721000Y-95358000D01*
X124455000Y-97624000D02*
X124075000Y-98004000D01*
X126850000Y-94696000D02*
X126470000Y-95076000D01*
X124204000Y-97342000D02*
X123809000Y-97738000D01*
X77662000Y-101010000D02*
X77662000Y-101650000D01*
X77662000Y-101650000D02*
X78062000Y-101650000D01*
%TO.C,J15*%
X132912000Y-88726000D02*
X132912000Y-83526000D01*
X125232000Y-88726000D02*
X132912000Y-88726000D01*
X122632000Y-83526000D02*
X132912000Y-83526000D01*
X125232000Y-88726000D02*
X125232000Y-86126000D01*
X125232000Y-86126000D02*
X122632000Y-86126000D01*
X122632000Y-86126000D02*
X122632000Y-83526000D01*
X123962000Y-88726000D02*
X122632000Y-88726000D01*
X122632000Y-88726000D02*
X122632000Y-87396000D01*
%TO.C,A1*%
X116459000Y-78108000D02*
X116459000Y-57528000D01*
X126619000Y-75438000D02*
X126619000Y-57528000D01*
X127889000Y-78108000D02*
X129289000Y-78108000D01*
X129289000Y-78108000D02*
X129289000Y-76708000D01*
X126619000Y-78108000D02*
X126619000Y-75438000D01*
X126619000Y-75438000D02*
X129289000Y-75438000D01*
X129289000Y-75438000D02*
X129289000Y-57528000D01*
X129289000Y-57528000D02*
X113789000Y-57528000D01*
X113789000Y-57528000D02*
X113789000Y-78108000D01*
X113789000Y-78108000D02*
X126619000Y-78108000D01*
D15*
%TO.C,U$19*%
X113338900Y-78076400D02*
G75*
G03*
X113338900Y-78076400I-2000000J0D01*
G01*
%TO.C,U$18*%
X133658900Y-78076400D02*
G75*
G03*
X133658900Y-78076400I-2000000J0D01*
G01*
D14*
%TO.C,J1*%
X70890000Y-52140000D02*
X70890000Y-52540000D01*
X71530000Y-52140000D02*
X70890000Y-52140000D01*
X77870000Y-63241000D02*
X71130000Y-63241000D01*
X77870000Y-52380000D02*
X71130000Y-52380000D01*
X71130000Y-52380000D02*
X71130000Y-63241000D01*
X77870000Y-52380000D02*
X77870000Y-63241000D01*
X76750000Y-52380000D02*
X76750000Y-63241000D01*
X71650000Y-52380000D02*
X71650000Y-63241000D01*
%TO.C,J14*%
X95632000Y-82020000D02*
X96962000Y-82020000D01*
X95632000Y-83350000D02*
X95632000Y-82020000D01*
X98232000Y-82020000D02*
X100832000Y-82020000D01*
X98232000Y-84620000D02*
X98232000Y-82020000D01*
X95632000Y-84620000D02*
X98232000Y-84620000D01*
X100832000Y-82020000D02*
X100832000Y-89760000D01*
X95632000Y-84620000D02*
X95632000Y-89760000D01*
X95632000Y-89760000D02*
X100832000Y-89760000D01*
%TO.C,J13*%
X87132000Y-82020000D02*
X88462000Y-82020000D01*
X87132000Y-83350000D02*
X87132000Y-82020000D01*
X89732000Y-82020000D02*
X92332000Y-82020000D01*
X89732000Y-84620000D02*
X89732000Y-82020000D01*
X87132000Y-84620000D02*
X89732000Y-84620000D01*
X92332000Y-82020000D02*
X92332000Y-89760000D01*
X87132000Y-84620000D02*
X87132000Y-89760000D01*
X87132000Y-89760000D02*
X92332000Y-89760000D01*
%TO.C,J12*%
X78632000Y-82020000D02*
X79962000Y-82020000D01*
X78632000Y-83350000D02*
X78632000Y-82020000D01*
X81232000Y-82020000D02*
X83832000Y-82020000D01*
X81232000Y-84620000D02*
X81232000Y-82020000D01*
X78632000Y-84620000D02*
X81232000Y-84620000D01*
X83832000Y-82020000D02*
X83832000Y-89760000D01*
X78632000Y-84620000D02*
X78632000Y-89760000D01*
X78632000Y-89760000D02*
X83832000Y-89760000D01*
%TO.C,J11*%
X104132000Y-82020000D02*
X105462000Y-82020000D01*
X104132000Y-83350000D02*
X104132000Y-82020000D01*
X106732000Y-82020000D02*
X109332000Y-82020000D01*
X106732000Y-84620000D02*
X106732000Y-82020000D01*
X104132000Y-84620000D02*
X106732000Y-84620000D01*
X109332000Y-82020000D02*
X109332000Y-89760000D01*
X104132000Y-84620000D02*
X104132000Y-89760000D01*
X104132000Y-89760000D02*
X109332000Y-89760000D01*
%TO.C,J8*%
X111390000Y-54020000D02*
X111390000Y-56680000D01*
X129230000Y-54020000D02*
X111390000Y-54020000D01*
X129230000Y-56680000D02*
X111390000Y-56680000D01*
X129230000Y-54020000D02*
X129230000Y-56680000D01*
X130500000Y-54020000D02*
X131830000Y-54020000D01*
X131830000Y-54020000D02*
X131830000Y-55350000D01*
%TO.C,J3*%
X112632000Y-89760000D02*
X117832000Y-89760000D01*
X112632000Y-84620000D02*
X112632000Y-89760000D01*
X117832000Y-82020000D02*
X117832000Y-89760000D01*
X112632000Y-84620000D02*
X115232000Y-84620000D01*
X115232000Y-84620000D02*
X115232000Y-82020000D01*
X115232000Y-82020000D02*
X117832000Y-82020000D01*
X112632000Y-83350000D02*
X112632000Y-82020000D01*
X112632000Y-82020000D02*
X113962000Y-82020000D01*
%TO.C,25x25*%
D11*
X98604761Y-55238095D02*
X98642857Y-55200000D01*
X98719047Y-55161904D01*
X98909523Y-55161904D01*
X98985714Y-55200000D01*
X99023809Y-55238095D01*
X99061904Y-55314285D01*
X99061904Y-55390476D01*
X99023809Y-55504761D01*
X98566666Y-55961904D01*
X99061904Y-55961904D01*
X99785714Y-55161904D02*
X99404761Y-55161904D01*
X99366666Y-55542857D01*
X99404761Y-55504761D01*
X99480952Y-55466666D01*
X99671428Y-55466666D01*
X99747619Y-55504761D01*
X99785714Y-55542857D01*
X99823809Y-55619047D01*
X99823809Y-55809523D01*
X99785714Y-55885714D01*
X99747619Y-55923809D01*
X99671428Y-55961904D01*
X99480952Y-55961904D01*
X99404761Y-55923809D01*
X99366666Y-55885714D01*
X100090476Y-55961904D02*
X100509523Y-55428571D01*
X100090476Y-55428571D02*
X100509523Y-55961904D01*
X100776190Y-55238095D02*
X100814285Y-55200000D01*
X100890476Y-55161904D01*
X101080952Y-55161904D01*
X101157142Y-55200000D01*
X101195238Y-55238095D01*
X101233333Y-55314285D01*
X101233333Y-55390476D01*
X101195238Y-55504761D01*
X100738095Y-55961904D01*
X101233333Y-55961904D01*
X101957142Y-55161904D02*
X101576190Y-55161904D01*
X101538095Y-55542857D01*
X101576190Y-55504761D01*
X101652380Y-55466666D01*
X101842857Y-55466666D01*
X101919047Y-55504761D01*
X101957142Y-55542857D01*
X101995238Y-55619047D01*
X101995238Y-55809523D01*
X101957142Y-55885714D01*
X101919047Y-55923809D01*
X101842857Y-55961904D01*
X101652380Y-55961904D01*
X101576190Y-55923809D01*
X101538095Y-55885714D01*
%TD*%
M02*
