%TF.GenerationSoftware,KiCad,Pcbnew,(5.1.9)-1*%
%TF.CreationDate,2021-03-07T19:12:45-05:00*%
%TF.ProjectId,bigp4ppa,62696770-3470-4706-912e-6b696361645f,rev?*%
%TF.SameCoordinates,Original*%
%TF.FileFunction,Other,User*%
%FSLAX46Y46*%
G04 Gerber Fmt 4.6, Leading zero omitted, Abs format (unit mm)*
G04 Created by KiCad (PCBNEW (5.1.9)-1) date 2021-03-07 19:12:45*
%MOMM*%
%LPD*%
G01*
G04 APERTURE LIST*
%ADD10C,0.050000*%
%ADD11C,0.150000*%
G04 APERTURE END LIST*
D10*
%TO.C,J4*%
X77462000Y-91850000D02*
X77462000Y-101850000D01*
X77462000Y-101850000D02*
X128462000Y-101850000D01*
X128462000Y-101850000D02*
X128462000Y-91850000D01*
X128462000Y-91850000D02*
X77462000Y-91850000D01*
%TO.C,J15*%
X122162000Y-89196000D02*
X133362000Y-89196000D01*
X133362000Y-89196000D02*
X133362000Y-83046000D01*
X133362000Y-83046000D02*
X122162000Y-83046000D01*
X122162000Y-83046000D02*
X122162000Y-89196000D01*
%TO.C,A1*%
X129419000Y-78228000D02*
X113679000Y-78228000D01*
X129419000Y-78228000D02*
X129419000Y-57408000D01*
X113679000Y-57408000D02*
X113679000Y-78228000D01*
X113679000Y-57408000D02*
X129419000Y-57408000D01*
%TO.C,J1*%
X78250000Y-63630000D02*
X78250000Y-52000000D01*
X70750000Y-63630000D02*
X78250000Y-63630000D01*
X70750000Y-52000000D02*
X70750000Y-63630000D01*
X78250000Y-52000000D02*
X70750000Y-52000000D01*
%TO.C,J14*%
X101312000Y-81550000D02*
X95162000Y-81550000D01*
X101312000Y-90200000D02*
X101312000Y-81550000D01*
X95162000Y-90200000D02*
X101312000Y-90200000D01*
X95162000Y-81550000D02*
X95162000Y-90200000D01*
%TO.C,J13*%
X92812000Y-81550000D02*
X86662000Y-81550000D01*
X92812000Y-90200000D02*
X92812000Y-81550000D01*
X86662000Y-90200000D02*
X92812000Y-90200000D01*
X86662000Y-81550000D02*
X86662000Y-90200000D01*
%TO.C,J12*%
X84312000Y-81550000D02*
X78162000Y-81550000D01*
X84312000Y-90200000D02*
X84312000Y-81550000D01*
X78162000Y-90200000D02*
X84312000Y-90200000D01*
X78162000Y-81550000D02*
X78162000Y-90200000D01*
%TO.C,J11*%
X109812000Y-81550000D02*
X103662000Y-81550000D01*
X109812000Y-90200000D02*
X109812000Y-81550000D01*
X103662000Y-90200000D02*
X109812000Y-90200000D01*
X103662000Y-81550000D02*
X103662000Y-90200000D01*
%TO.C,J8*%
X132300000Y-53550000D02*
X110950000Y-53550000D01*
X110950000Y-53550000D02*
X110950000Y-57150000D01*
X110950000Y-57150000D02*
X132300000Y-57150000D01*
X132300000Y-57150000D02*
X132300000Y-53550000D01*
%TO.C,J3*%
X112162000Y-81550000D02*
X112162000Y-90200000D01*
X112162000Y-90200000D02*
X118312000Y-90200000D01*
X118312000Y-90200000D02*
X118312000Y-81550000D01*
X118312000Y-81550000D02*
X112162000Y-81550000D01*
D11*
%TO.C,*%
X135100000Y-48500000D02*
G75*
G03*
X135100000Y-48500000I-3100000J0D01*
G01*
X135100000Y-97500000D02*
G75*
G03*
X135100000Y-97500000I-3100000J0D01*
G01*
X77100000Y-97500000D02*
G75*
G03*
X77100000Y-97500000I-3100000J0D01*
G01*
X77100000Y-48500000D02*
G75*
G03*
X77100000Y-48500000I-3100000J0D01*
G01*
%TD*%
M02*
